<svg width="470" height="139" viewBox="0 0 470 139" fill="none" xmlns="http://www.w3.org/2000/svg">
<g clip-path="url(#clip0_200_188)">
<rect y="-2" width="470" height="141" fill="#395D7D"/>
<path fill-rule="evenodd" clip-rule="evenodd" d="M-89.7811 257.763C-85.8573 256.917 -81.9335 255.925 -78.1258 254.958C-69.6972 252.878 -61.7046 250.919 -54.5843 250.145C-49.4977 249.541 -44.2662 249.541 -40.6043 250.121C-29.5889 251.741 -21.015 257.908 -12.7026 263.858C-3.19867 270.678 6.6832 277.739 20.4015 278.296C32.6084 277.546 34.3813 266.107 36.2414 253.991C36.6193 251.765 36.939 249.444 37.375 247.219C39.0898 238.344 42.4902 228.114 47.1987 217.666C48.8843 213.99 50.9479 210.483 52.9533 207.049C56.8479 200.543 60.5391 194.376 61.4982 187.169C61.6144 186.25 61.6725 185.331 61.6725 184.364C61.6725 179.479 60.0159 175.222 58.4755 171.594C56.9061 167.895 55.2203 164.726 53.5636 161.655C50.076 155.077 46.7627 148.861 45.7454 139.284C45.5129 137.567 45.4257 135.826 45.4257 134.109C45.4257 123.685 48.739 114.979 51.907 106.515C54.6972 99.2354 57.2839 92.3184 57.2839 85.1599C57.2839 83.757 57.1967 82.3306 56.9642 80.9759C55.3075 70.1171 48.5646 61.7737 36.2705 55.4857C25.4295 49.9234 11.7113 46.7309 -1.48388 44.0708C-5.34938 43.2968 -12.5864 41.9186 -17.818 41.459C-22.7588 40.9753 -26.3628 41.6042 -28.8623 43.442C-33.4544 46.7068 -33.716 53.3093 -34.0067 60.9274C-34.152 64.4097 -34.2973 67.9648 -34.8496 71.5441C-37.1747 86.5628 -39.5289 99.1384 -46.5337 113.093C-52.2587 124.556 -59.4378 136.044 -64.4075 143.662C-72.8362 156.479 -83.2412 170.966 -100.825 181.196V181.583C-83.0962 171.305 -72.517 156.721 -64.0589 143.807C-59.0598 136.213 -51.9101 124.726 -46.1556 113.214C-39.1801 99.2595 -36.8259 86.6351 -34.4717 71.5929C-33.9195 68.013 -33.7741 64.4338 -33.5998 60.9515C-33.3382 53.4063 -33.0766 46.852 -28.6298 43.6353C-26.1884 41.9186 -22.6717 41.2897 -17.847 41.7493C-12.6445 42.2571 -5.43661 43.6112 -1.57104 44.3853C24.6739 49.6819 53.0114 57.2753 56.5863 81.0247C56.7898 82.3788 56.877 83.7817 56.877 85.1599C56.877 92.2702 54.2903 99.1384 51.5292 106.442C48.3612 114.906 45.0769 123.637 45.0769 134.109C45.0769 135.826 45.1641 137.567 45.3385 139.309C46.3848 148.934 49.7272 155.173 53.244 161.776C54.8716 164.847 56.5573 168.015 58.1268 171.667C59.6672 175.295 61.2657 179.551 61.2657 184.364C61.2657 185.307 61.2076 186.226 61.0913 187.121C60.1613 194.255 56.4991 200.398 52.6336 206.904C50.5991 210.338 48.5065 213.869 46.8499 217.545C42.1124 228.041 38.7119 238.271 36.9971 247.171C36.5902 249.396 36.2124 251.717 35.8927 253.942C34.0325 265.913 32.2596 277.256 20.3724 277.982C6.85758 277.425 -2.9661 270.388 -12.4701 263.616C-20.7825 257.618 -29.4436 251.451 -40.517 249.782C-44.2375 249.202 -49.4977 249.251 -54.6424 249.807C-61.8208 250.605 -69.7847 252.588 -78.2133 254.668C-82.021 255.611 -86.0022 256.578 -89.8973 257.473C-92.4259 258.054 -95.0126 258.634 -97.5118 259.262C-98.5871 259.505 -99.7205 259.746 -100.825 260.036V260.351C-99.6624 260.085 -98.529 259.795 -97.3956 259.553C-94.8964 258.949 -92.3384 258.344 -89.7811 257.763Z" fill="#FBF1D4" fill-opacity="0.4"/>
<path fill-rule="evenodd" clip-rule="evenodd" d="M-66.638 237.549C-61.4475 235.636 -56.1702 233.628 -50.601 232.974C-35.4099 231.086 -25.5255 237.622 -15.9326 243.915C-9.40124 248.223 -3.24892 252.265 4.33211 253.524C6.22737 253.863 7.39364 253.765 8.90985 253.693C9.69714 253.645 10.5427 253.596 11.7382 253.596H11.7673C17.1616 251.999 20.952 247.183 23.168 243.431C31.2447 229.876 35.0644 207.777 37.8635 191.657C38.2718 189.212 38.4758 186.792 38.4758 184.298C38.4758 178.029 37.222 172.22 35.8808 166.072C34.452 159.489 32.9359 152.687 32.9359 144.845C32.9359 142.763 33.0525 140.633 33.2566 138.576C33.3149 138.164 33.4024 136.978 33.519 135.454C33.6357 133.227 33.8106 130.443 34.0147 128.482C34.627 121.923 36.0266 116.719 37.3678 111.709C39.1756 104.98 40.8959 98.7104 40.8959 89.3675C40.8959 88.3995 40.8668 87.3827 40.8376 86.366C39.438 78.9355 29.9909 72.1339 17.3656 69.4228C6.89797 67.1719 -6.98113 67.6802 -14.6788 75.8612C-23.6885 85.495 -31.6194 113.524 -33.0773 128.579C-33.398 131.799 -33.4272 134.461 -33.4272 137.051C-33.4564 139.931 -33.4855 142.884 -33.8937 146.757C-35.0309 157.141 -39.9585 165.709 -50.3679 175.488C-63.3137 187.566 -73.3153 194.102 -93.0841 203.469C-95.2128 204.485 -97.8365 205.429 -100.781 206.301V206.664C-97.7784 205.744 -95.0959 204.776 -92.9091 203.735C-73.0816 194.368 -63.0806 187.808 -50.1054 175.657C-39.6087 165.879 -34.6518 157.238 -33.5147 146.781C-33.1065 142.908 -33.0773 139.931 -33.0773 137.051C-33.0482 134.34 -33.019 131.823 -32.6983 128.603C-31.2112 113.597 -23.3678 85.6643 -14.358 76.0305C-6.80619 67.9947 6.92716 67.5351 17.2782 69.7132C29.7577 72.4002 39.059 79.1289 40.4586 86.4148C40.4877 87.4069 40.5169 88.3995 40.5169 89.3675C40.5169 98.6381 38.7674 104.955 37.018 111.636C35.6475 116.67 34.248 121.874 33.6357 128.458C33.4899 130.419 33.2566 133.202 33.1108 135.429C33.0233 136.954 32.9359 138.14 32.9067 138.551C32.6443 140.633 32.5568 142.739 32.5568 144.845C32.5568 152.711 34.0439 159.537 35.5018 166.121C36.843 172.269 38.0968 178.053 38.0968 184.298C38.0968 186.792 37.9218 189.188 37.4845 191.608C34.7145 207.704 30.924 229.779 22.8181 243.286C20.6605 246.989 16.9282 251.709 11.6798 253.258C10.5136 253.282 9.66796 253.33 8.88074 253.355C7.39365 253.476 6.25649 253.548 4.39042 253.209C-3.0448 251.975 -9.19712 247.957 -15.6993 243.673C-25.3213 237.307 -35.2933 230.771 -50.6598 232.66C-56.2577 233.337 -61.6225 235.322 -66.7836 237.259C-68.7954 238.033 -70.8948 238.832 -73.0235 239.51C-80.4589 242.003 -90.4304 244.907 -100.781 246.747V247.062C-90.3723 245.173 -80.3126 242.269 -72.8485 239.8C-70.7785 239.098 -68.6498 238.324 -66.638 237.549Z" fill="#FBF1D4" fill-opacity="0.4"/>
<path fill-rule="evenodd" clip-rule="evenodd" d="M97.8694 129.18C95.5732 126.323 94.4686 120.997 94.4686 112.885C94.4686 105.331 95.457 96.2505 96.3286 88.2606C96.8809 83.1757 97.4038 78.333 97.6363 74.2655C98.6535 57.0985 99.6706 40.9001 112.546 28.5271C120.8 20.5613 129.373 14.1447 150.619 16.1787C160.268 17.0985 171.98 20.8034 184.39 24.7258C186.57 25.404 188.749 26.1057 190.958 26.7839C192.237 27.1953 193.545 27.6073 194.853 27.9705C206.275 31.5056 216.156 34.5564 224.613 40.5128C234.292 47.3167 239.203 56.348 239.203 67.3887C239.203 85.5001 226.183 104.507 213.977 116.226C195.899 133.684 170.469 135.911 143.585 138.309L140.417 138.623C130.827 139.786 107.431 141.214 97.8694 129.18ZM143.615 138.647C170.585 136.226 196.073 133.95 214.296 116.444C226.532 104.652 239.552 85.6212 239.552 67.3887C239.552 56.2752 234.612 47.1469 224.846 40.246C216.36 34.2901 206.449 31.2147 194.969 27.7037C193.69 27.3164 192.411 26.905 191.074 26.5177C188.866 25.7913 186.686 25.1131 184.506 24.4354C172.096 20.5125 160.384 16.7841 150.648 15.8637C129.228 13.8056 120.597 20.295 112.256 28.309C99.2933 40.8031 98.3342 57.0498 97.2589 74.2414C97.0265 78.3089 96.5029 83.1516 95.9512 88.2365C95.0499 96.2505 94.0908 105.307 94.0908 112.885C94.0908 121.069 95.1952 126.444 97.5201 129.35C107.228 141.553 130.827 140.076 140.476 138.914L143.615 138.647Z" fill="#FBF1D4" fill-opacity="0.4"/>
<path fill-rule="evenodd" clip-rule="evenodd" d="M119.227 118.626C109.51 113.36 108.23 103 108.23 94.6044C108.23 91.6689 108.405 88.757 108.637 85.7727C109.51 72.3302 110.296 59.5922 118.616 49.6199C127.663 38.8225 144.624 32.9263 163.911 33.8966C180.668 34.7217 204.262 40.0355 215.578 52.2404C219.506 56.4864 221.542 61.8971 221.542 68.3269C221.542 81.2835 213.396 94.4105 206.472 101.714C191.636 117.291 172.552 119.038 148.435 121.173C146.951 121.197 145.467 121.222 143.954 121.294C135.46 121.464 126.674 121.659 119.227 118.626ZM148.464 121.513C171.766 119.402 191.869 117.607 206.793 101.883C213.746 94.5803 221.862 81.381 221.862 68.3269C221.862 61.8243 219.855 56.3647 215.84 52.0218C204.465 39.7446 180.756 34.4061 163.941 33.5569C144.507 32.5866 127.431 38.531 118.354 49.4501C109.976 59.4706 109.103 72.2332 108.23 85.7727C108.056 88.7329 107.852 91.6689 107.852 94.6044C107.852 103.073 109.132 113.555 119.052 118.917C126.587 121.998 135.431 121.804 143.954 121.586C145.467 121.562 146.951 121.537 148.464 121.513Z" fill="#FBF1D4" fill-opacity="0.4"/>
<path fill-rule="evenodd" clip-rule="evenodd" d="M124.647 90.3951C124.185 88.104 123.982 85.8846 123.982 83.6899C123.982 74.3791 128.091 67.8667 131.564 64.0315C137.67 57.3504 148.117 52.5261 160.243 50.7898C172.136 49.1012 183.684 50.8139 191.265 55.3967C198.182 59.5693 201.799 65.5033 201.799 72.4977C201.799 77.8287 199.629 83.6658 195.606 88.8275C184.899 102.576 163.339 104.892 151.445 105.012C135.905 105.205 126.615 100.116 124.647 90.3951ZM195.925 88.9721C200.005 83.7622 202.204 77.901 202.204 72.4977C202.204 65.3581 198.5 59.3765 191.468 55.107C175.088 45.2178 144.152 49.7042 131.275 63.8629C127.744 67.7221 123.577 74.2827 123.577 83.6899C123.577 85.8846 123.809 88.1522 124.271 90.4433C126.297 100.357 135.702 105.519 151.445 105.35C163.397 105.205 185.101 102.889 195.925 88.9721Z" fill="#FBF1D4" fill-opacity="0.4"/>
<path fill-rule="evenodd" clip-rule="evenodd" d="M359.35 108.003C362.613 109.188 365.992 110.422 370.012 111.56C376.858 113.519 383.733 114.318 390.374 115.117C397.977 116.012 405.114 116.859 411.028 119.326L411.727 119.665C416.504 122.327 420.612 124.601 423.758 128.037C427.748 132.392 429.816 138.199 429.816 144.805C429.816 154.919 424.69 165.081 416.795 170.622C411.202 174.493 404.561 176.042 397.541 175.001C387.636 173.235 381.839 166.363 375.722 159.128C370.1 152.451 364.274 145.603 355.04 142.99C348.98 141.296 342.163 142.119 334.969 142.99C327.22 143.958 319.239 144.926 312.101 142.603C301.877 139.312 291.565 129.343 288.098 119.447C287.428 117.536 287.137 115.818 287.137 114.028C287.137 113.253 287.166 112.455 287.311 111.584C293.283 105.39 307.849 103.599 319.879 102.752C340.911 101.325 349.446 104.398 359.35 108.003ZM286.991 111.415L286.962 111.463L286.933 111.536C286.787 112.407 286.729 113.229 286.729 114.028C286.729 115.842 287.078 117.584 287.72 119.52C291.215 129.513 301.673 139.579 311.956 142.893C319.209 145.264 327.22 144.272 334.998 143.329C342.193 142.458 348.951 141.635 354.894 143.28C364.04 145.845 369.809 152.692 375.401 159.298C381.315 166.29 387.403 173.525 397.482 175.291C404.619 176.356 411.377 174.808 417 170.863C425.01 165.274 430.224 155.04 430.224 144.805C430.224 138.126 428.04 132.271 424.049 127.844C420.874 124.383 416.533 121.963 411.96 119.447L411.202 119.036C405.231 116.544 398.065 115.697 390.403 114.802C383.791 114.028 376.945 113.229 370.129 111.269C366.109 110.108 362.73 108.874 359.525 107.688C349.592 104.083 340.969 100.986 319.85 102.462C307.732 103.333 293.021 105.099 286.991 111.415Z" fill="#FBF1D4" fill-opacity="0.4"/>
<path fill-rule="evenodd" clip-rule="evenodd" d="M-71.1032 19.4976C-64.9707 17.3947 -62.006 12.778 -62.006 5.35788C-62.006 1.61109 -62.762 -2.2803 -63.3725 -5.42232V-5.5193C-63.5174 -6.19578 -63.5755 -6.94513 -63.5755 -7.71859C-63.5755 -10.6673 -62.5296 -13.6888 -61.5124 -16.5893C-60.9601 -18.088 -60.4365 -19.659 -60.0591 -21.1818C-59.7105 -22.3902 -59.4774 -23.5986 -59.1581 -24.807C-57.9954 -29.7862 -56.7745 -34.9589 -54.1877 -39.6237C-53.1706 -41.461 -52.1828 -43.3705 -51.2237 -45.2072C-46.4857 -54.3194 -41.5741 -63.722 -32.0411 -69.8373C-31.4598 -70.2241 -30.8495 -70.562 -30.2682 -70.9006C-22.6534 -75.1787 -14.4863 -78.8773 -6.5518 -82.4301C2.37085 -86.4426 11.5552 -90.5996 19.9547 -95.603C28.1508 -100.437 37.2188 -106.939 45.9671 -113.248C49.0479 -115.447 51.9253 -117.502 54.7735 -119.508C69.015 -129.515 82.4427 -138.965 82.4427 -156.368V-156.392C82.4427 -160.864 81.5998 -165.577 79.885 -170.895C75.0022 -185.977 62.7953 -212.613 36.3469 -221.702C29.3424 -224.119 19.5478 -225.738 9.23001 -227.43C1.41177 -228.735 -6.66808 -230.065 -13.411 -231.781H-14.6898C-7.68533 -229.895 0.888609 -228.494 9.14277 -227.14C19.4896 -225.424 29.2262 -223.804 36.2015 -221.436C62.5627 -212.372 74.6534 -185.832 79.5362 -170.822C81.251 -165.529 82.0939 -160.816 82.0939 -156.392V-156.368C82.0939 -139.111 68.7244 -129.708 54.512 -119.774C51.6927 -117.768 48.7863 -115.689 45.7637 -113.49C36.9863 -107.205 27.8892 -100.703 19.7512 -95.8205C11.3807 -90.8659 2.16741 -86.7323 -6.72619 -82.7199C-14.6607 -79.1429 -22.8568 -75.4449 -30.4716 -71.1668C-31.053 -70.8283 -31.7214 -70.4656 -32.2736 -70.0789C-41.8646 -63.9153 -46.8056 -54.4887 -51.5723 -45.3524C-52.5314 -43.4669 -53.5486 -41.5815 -54.5371 -39.7689C-57.1525 -35.0558 -58.3734 -29.8832 -59.5649 -24.8798C-59.8267 -23.6468 -60.1172 -22.4384 -60.4365 -21.2541C-60.8145 -19.7554 -61.3668 -18.2085 -61.8898 -16.6857C-62.907 -13.7611 -63.9829 -10.7401 -63.9829 -7.71859C-63.9829 -6.94513 -63.8954 -6.17167 -63.7792 -5.47051L-63.7498 -5.32593C-63.1401 -2.23152 -62.384 1.63576 -62.384 5.35788C-62.384 12.6088 -65.2906 17.1531 -71.2194 19.1832C-77.3232 21.3102 -87.6701 20.6096 -96.8541 19.9813C-98.2493 19.8843 -99.557 19.7879 -100.807 19.715V20.0295C-99.557 20.1018 -98.2493 20.1746 -96.8835 20.271C-87.6701 20.9234 -77.2651 21.6005 -71.1032 19.4976Z" fill="#FBF1D4" fill-opacity="0.4"/>
<path fill-rule="evenodd" clip-rule="evenodd" d="M107.585 182.769C104.641 179.916 101.901 176.604 99.627 173.92C98.6071 172.711 97.7328 171.671 96.9747 170.825C93.6224 167.053 90.0079 163.571 86.5683 160.211C79.8348 153.707 73.4802 147.542 70.4195 140.65C68.9329 137.242 68.1459 133.663 68.1459 129.698C68.1459 122.468 70.6528 115.07 73.1013 107.889C74.5004 103.755 75.9287 99.5476 76.8616 95.4129C78.0275 90.1181 78.6397 84.6775 78.6397 79.2133C78.6397 74.8612 78.2607 70.4127 77.4737 66.0365C74.9085 51.3115 68.1459 36.2968 56.2821 18.7437C53.7753 15.0439 50.8895 11.4176 48.1203 7.91182C45.2054 4.30904 42.2613 0.536992 39.6962 -3.28325C38.6759 -4.85483 37.918 -6.52281 37.2768 -8.1426C36.7229 -9.44853 36.1983 -10.778 35.4404 -12.0598C34.7991 -13.22 34.0412 -14.3566 33.3416 -15.4204C31.6801 -17.9594 30.106 -20.3045 29.4356 -23.2061C28.9109 -25.527 28.5903 -28.2594 28.5903 -30.8466C28.5903 -33.4091 28.9109 -37.1329 30.2226 -40.2761C34.2161 -49.7297 41.0954 -58.2647 47.275 -65.3245C48.7616 -67.0413 50.3648 -68.7821 51.968 -70.4501C53.8627 -72.5295 55.874 -74.633 57.7105 -76.8094C59.3136 -78.7436 60.5379 -80.8712 61.7039 -82.9264C62.7241 -84.7396 63.7735 -86.6497 65.1435 -88.3665C72.7223 -98.1345 83.6825 -106.621 97.7034 -113.56C111.083 -120.137 121.635 -124.199 135.685 -116.22C140.028 -113.778 141.31 -110.828 142.797 -106.597C144.43 -102.076 144.634 -97.2641 144.925 -92.6463C145.188 -87.2057 145.508 -81.6205 147.928 -76.4708C149.181 -73.7626 151.105 -71.4175 153 -69.2658C153.495 -68.637 154.049 -68.081 154.545 -67.525C156.614 -65.2281 158.742 -62.8584 160.287 -60.2953C162.561 -56.4269 165.039 -52.5585 167.428 -48.8352C168.945 -46.4414 170.576 -43.9753 172.093 -41.5092C175.649 -35.827 179.292 -30.0725 182.848 -24.5115C184.918 -21.296 186.988 -18.1287 188.999 -14.9127L189.028 -14.8644C189.174 -14.7434 189.378 -14.5741 189.582 -14.4536C199.901 1.0207 216.283 6.96851 232.461 11.1032C233.655 11.4176 234.851 11.7315 236.017 12.0218C247.327 14.8265 257.995 17.4859 263.884 27.0606C266.827 31.7513 269.655 40.1893 272.22 52.1578C275.923 69.0104 277.059 84.8468 278.371 103.174L278.458 104.432C274.814 109.146 269.539 111.999 263.854 115.021C261.143 116.472 258.316 117.971 255.722 119.712C250.3 123.315 244.937 127.787 239.311 132.502C233.306 137.435 227.185 142.585 220.801 146.768C204.128 157.793 183.315 165.385 163.231 172.711C159.937 173.92 156.556 175.153 153.32 176.338C149.56 177.764 145.771 179.408 142.098 181.028C135.918 183.688 130.147 186.227 124.491 187.677C117.845 189.37 112.948 187.991 107.585 182.769ZM142.243 181.27C145.916 179.674 149.706 178.03 153.466 176.652C156.701 175.419 160.083 174.21 163.377 173.001C183.49 165.651 204.331 158.083 221.063 147.009C227.447 142.802 233.569 137.677 239.544 132.744C245.228 127.981 250.533 123.532 255.955 119.954C258.52 118.213 261.318 116.738 264.058 115.288C269.743 112.241 275.135 109.364 278.837 104.576L278.866 104.528L278.75 103.15C277.438 84.8227 276.301 68.9857 272.599 52.1096C269.976 40.117 267.177 31.6061 264.263 26.9155C258.258 17.1962 247.531 14.5608 236.133 11.7315C234.967 11.4176 233.772 11.1032 232.577 10.837C216.458 6.72695 200.134 0.779133 189.903 -14.647L189.815 -14.6952C189.64 -14.8163 189.495 -14.9367 189.32 -15.0819C187.279 -18.2492 185.239 -21.4411 183.198 -24.6566C179.671 -30.2418 175.969 -35.9963 172.442 -41.6784C170.897 -44.1445 169.294 -46.5624 167.778 -48.9798C165.359 -52.7036 162.881 -56.5721 160.578 -60.4164C159.063 -63.0518 156.906 -65.3968 154.865 -67.6943C154.34 -68.2743 153.816 -68.8544 153.291 -69.4351C151.425 -71.5627 149.502 -73.9077 148.278 -76.616C145.858 -81.6693 145.596 -87.2545 145.275 -92.6463C145.042 -97.3123 144.75 -102.124 143.176 -106.67C141.66 -110.973 140.32 -113.971 135.889 -116.486C121.635 -124.586 110.995 -120.475 97.5284 -113.85C83.4201 -106.863 72.4017 -98.352 64.8228 -88.5598C63.4528 -86.7949 62.3743 -84.8848 61.3541 -83.0475C60.1881 -80.9922 58.993 -78.8887 57.3898 -77.0027C55.5825 -74.8023 53.5713 -72.6747 51.6474 -70.6194C50.0733 -68.9514 48.4701 -67.2588 46.9252 -65.5179C40.7456 -58.4093 33.8954 -49.899 29.8437 -40.3725C28.5028 -37.2052 28.2405 -33.4332 28.2405 -30.8466C28.2405 -28.2353 28.532 -25.4788 29.0858 -23.1573C29.7562 -20.2081 31.3303 -17.8143 32.9918 -15.2753C33.7205 -14.2115 34.4493 -13.0995 35.1489 -11.9387C35.8193 -10.6575 36.3731 -9.32745 36.8978 -8.0703C37.5974 -6.37764 38.297 -4.70967 39.3464 -3.13808C41.9115 0.730352 44.9139 4.4783 47.7997 8.08107C50.598 11.5869 53.4838 15.1891 55.9615 18.9129C67.8544 36.4178 74.5296 51.4326 77.0947 66.0606C77.8526 70.4368 78.2607 74.8612 78.2607 79.2133C78.2607 84.6534 77.6777 90.0934 76.4826 95.3648C75.5498 99.4748 74.1506 103.682 72.7515 107.792C70.3321 114.997 67.8252 122.42 67.8252 129.698C67.8252 133.711 68.5248 137.314 70.0697 140.747C73.1305 147.686 79.5142 153.876 86.3059 160.428C89.7456 163.789 93.3017 167.222 96.6828 170.994C97.4115 171.841 98.3152 172.904 99.3064 174.113C101.58 176.773 104.379 180.109 107.264 182.962C112.774 188.282 117.787 189.732 124.638 187.991C130.263 186.517 136.122 184.002 142.243 181.27Z" fill="#FBF1D4" fill-opacity="0.4"/>
<path fill-rule="evenodd" clip-rule="evenodd" d="M120.412 159.269C105.379 157.26 86.1814 146.364 81.4329 133.313C80.5007 130.626 80.0054 127.865 80.0054 124.766C80.0054 119.101 81.6368 113.435 83.0934 108.447C83.7634 106.147 84.4043 103.92 84.8413 101.862C86.327 94.9125 86.9971 87.3098 86.9971 77.9153C86.9971 72.7582 86.8223 67.5282 86.6183 62.4433C86.4144 57.3349 86.2105 52.032 86.2105 46.7779C86.2105 38.3766 86.764 31.4275 87.871 24.9627C88.1915 23.4129 88.4537 21.8391 88.745 20.3621C89.6772 15.3989 90.5803 10.7014 90.5803 6.07728C90.5803 -0.145378 88.8906 -5.32719 85.2783 -10.1452C81.8407 -14.7217 80.2967 -18.402 79.8888 -22.905C79.6558 -25.6173 79.3353 -28.4012 78.9857 -31.1135C78.4031 -35.8834 77.7914 -40.8466 77.7914 -45.6405V-45.8585C77.8205 -56.7059 82.5399 -83.0975 96.3485 -90.7243C100.922 -93.2667 106.195 -93.5329 111.992 -91.523C119.8 -88.8113 124.577 -80.4823 126.267 -74.1873C126.587 -72.9766 126.908 -71.7418 127.228 -70.5071C129.501 -61.7902 131.132 -54.3086 132.269 -47.6264C132.56 -45.8826 132.763 -44.1154 132.938 -42.4446C133.433 -38.0379 133.9 -33.8734 136.172 -29.5637C148.669 -5.81147 181.968 9.78162 207.749 18.716C227.268 25.4711 244.135 31.3065 252.059 47.2381C255.059 53.2915 256.865 62.0078 256.865 70.6271V70.6518C256.865 77.116 255.846 83.1453 253.981 88.1086C250.224 97.9874 242.358 106.873 233.21 117.236L232.774 117.672C215.906 136.776 198.98 146.267 170.402 152.659L167.576 153.264C157.963 155.444 148.874 157.477 138.561 158.93C131.802 159.922 126.005 160.019 120.412 159.269ZM167.664 153.579L170.489 152.949C199.155 146.557 216.168 137.042 233.094 117.841L233.531 117.406C242.62 107.067 250.544 98.1325 254.331 88.1814C256.254 83.2176 257.244 77.1407 257.244 70.6518V70.6271C257.244 61.9837 255.438 53.1945 252.408 47.117C244.426 31.0643 227.53 25.1808 207.895 18.4256C182.2 9.51538 148.961 -6.0536 136.521 -29.6848C134.278 -33.9463 133.812 -38.0867 133.317 -42.4686C133.142 -44.1395 132.938 -45.9073 132.647 -47.6746C131.511 -54.3574 129.85 -61.8389 127.578 -70.5552C127.286 -71.79 126.966 -73.0248 126.617 -74.2596C124.898 -80.6274 120.062 -89.0775 112.109 -91.838C106.224 -93.8961 100.835 -93.5811 96.1448 -91.0146C82.1903 -83.315 77.4127 -56.7541 77.3835 -45.8585V-45.6405C77.3835 -40.8225 77.9953 -35.8828 78.5779 -31.0888C78.9275 -28.3771 79.3062 -25.5926 79.5101 -22.8809C79.8888 -18.305 81.462 -14.576 84.9287 -9.9513C88.5119 -5.20613 90.2307 -0.0971801 90.2307 6.07728C90.2307 10.6773 89.3276 15.3748 88.3663 20.314C88.075 21.7909 87.7836 23.3648 87.4923 24.9145C86.3562 31.4034 85.8318 38.3278 85.8318 46.7779C85.8318 52.032 86.0357 57.3349 86.2396 62.4433C86.4144 67.5282 86.6183 72.7582 86.6183 77.9153C86.6183 87.2857 85.9192 94.8637 84.4917 101.813C84.0256 103.847 83.3847 106.05 82.7438 108.374C81.2872 113.386 79.6558 119.076 79.6558 124.766C79.6558 127.914 80.0928 130.723 81.0542 133.386C85.8318 146.557 105.234 157.574 120.353 159.608C126.005 160.359 131.831 160.237 138.619 159.269C148.961 157.768 158.05 155.734 167.664 153.579Z" fill="#FBF1D4" fill-opacity="0.4"/>
<path fill-rule="evenodd" clip-rule="evenodd" d="M469.473 209.401C465.443 208.075 462.845 205.859 462.524 203.426C462.261 201.425 462.086 199.329 462.086 197.185C462.086 187.113 465.093 177.065 468.276 166.391C470.203 159.885 472.217 153.187 473.502 146.416C473.881 144.441 474.027 142.176 474.027 139.116C474.027 137.622 473.998 136.007 473.969 134.465C473.91 132.875 473.881 131.236 473.881 129.598C473.881 121.237 475.02 112.876 483.457 108.515C493.822 103.118 505.559 104.852 516.888 106.539C519.749 106.973 522.668 107.431 525.472 107.72C538.727 109.213 547.865 117.189 550.581 129.646C551.369 133.068 551.69 136.682 551.69 140.393C551.69 147.669 550.23 155.067 547.457 161.717C542.581 173.331 537.033 180.559 523.077 183.258C512.946 185.234 505.209 188.246 497.122 193.353C493.968 195.329 489.472 198.51 486.173 202.221C485.443 203.04 484.859 204.076 484.275 205.04C483.399 206.582 482.465 208.124 481.122 209.064C478.698 210.75 473.91 210.871 469.473 209.401ZM484.654 205.208C485.239 204.173 485.793 203.209 486.494 202.437C489.735 198.751 494.202 195.595 497.384 193.594C505.384 188.535 513.092 185.523 523.194 183.571C537.296 180.8 542.902 173.523 547.807 161.813C550.581 155.139 552.099 147.718 552.099 140.393C552.099 136.658 551.69 133.044 550.96 129.598C548.215 116.996 538.99 108.9 525.53 107.431C522.727 107.093 519.807 106.66 516.975 106.25C505.559 104.515 493.764 102.756 483.253 108.225C474.699 112.683 473.502 121.141 473.502 129.598C473.502 131.236 473.56 132.899 473.589 134.465C473.647 136.007 473.706 137.622 473.706 139.116C473.706 142.176 473.502 144.417 473.151 146.368C471.837 153.115 469.852 159.837 467.896 166.295C464.743 176.993 461.677 187.089 461.677 197.185C461.677 199.329 461.852 201.449 462.115 203.45C462.494 206.004 465.18 208.316 469.326 209.714C473.21 210.967 478.406 211.353 481.355 209.329C482.816 208.316 483.721 206.727 484.654 205.208Z" fill="#FBF1D4" fill-opacity="0.4"/>
<path fill-rule="evenodd" clip-rule="evenodd" d="M418.519 -203.82C420.264 -197.384 423.986 -191.214 427.65 -185.213C431.285 -179.212 435.066 -173.041 436.694 -166.653C440.968 -150.126 423.608 -144.004 408.224 -138.632C406.014 -137.834 403.921 -137.108 401.914 -136.382C393.859 -133.309 386.502 -129.825 380.046 -125.977C367.018 -118.258 356.608 -109.377 349.134 -99.5289C342.243 -90.4304 338.462 -82.7601 337.299 -75.4284C335.409 -63.5471 339.829 -55.1021 344.918 -45.3507C346.023 -43.2455 347.186 -41.0433 348.262 -38.8171C351.374 -32.381 354.921 -25.0733 362.657 -20.0883C368.443 -16.3621 375.481 -13.5305 382.286 -10.8205L383.826 -10.1917C396.331 -5.15848 408.69 -1.48053 421.747 2.41545C424.713 3.31055 427.708 4.18154 430.674 5.02844C438.758 7.37578 447.134 9.77133 455.072 12.7234C461.121 14.9256 466.384 18.2891 471.473 21.5316C474.323 23.3464 477.26 25.2095 480.285 26.831C487.961 31.0167 494.65 37.5745 501.135 43.9142C503.49 46.2128 505.7 48.3909 507.939 50.4232C509.306 51.7056 510.731 53.0368 512.214 54.5125C519.019 61.0703 526.754 68.5231 536.554 70.4832C537.863 70.7494 539.142 70.9669 540.393 71.209C551.355 73.3142 560.865 75.1532 567.727 84.2757C574.213 92.9146 576.335 103.392 578.167 112.635C579.069 117.015 579.738 121.443 580.435 125.726C581.657 133.663 582.849 141.14 585.001 147.916C589.974 163.426 602.885 172.863 623.474 176.008C643.538 179.058 668.053 175.96 678.086 172.524C687.1 169.427 694.167 164.2 700.506 157.933V157.425C694.167 163.789 687.013 169.088 677.911 172.234C667.966 175.646 643.538 178.767 623.532 175.718C603.118 172.573 590.265 163.233 585.379 147.843C583.198 141.067 582.035 133.591 580.785 125.678C580.145 121.395 579.447 116.967 578.575 112.587C576.684 103.32 574.591 92.8176 568.047 84.1065C561.069 74.8628 551.53 73.048 540.48 70.9186C539.229 70.6765 537.921 70.4103 536.641 70.1687C526.957 68.2328 519.309 60.8281 512.505 54.2951C511.022 52.8434 509.597 51.464 508.201 50.2057C505.991 48.1728 503.752 46.0194 501.425 43.6962C494.912 37.3565 488.223 30.7752 480.488 26.5889C477.464 24.9433 474.556 23.0802 471.706 21.2894C466.588 18.047 461.295 14.6594 455.247 12.4331C447.308 9.45689 438.904 7.06137 430.79 4.71403C427.854 3.86712 424.83 2.99611 421.863 2.12511C408.836 -1.77087 396.506 -5.47289 383.972 -10.5061L382.431 -11.0868C375.626 -13.7968 368.647 -16.6284 362.86 -20.3786C355.241 -25.2907 351.723 -32.5502 348.64 -38.9381C347.506 -41.1885 346.372 -43.3666 345.267 -45.4718C340.178 -55.175 335.758 -63.5712 337.648 -75.4043C338.84 -82.6873 342.562 -90.31 349.454 -99.3837C356.899 -109.16 367.251 -118.04 380.308 -125.735C386.706 -129.558 394.062 -133.018 402.088 -136.067C404.066 -136.817 406.16 -137.568 408.37 -138.342C415.786 -140.955 424.19 -143.883 430.034 -148.214C436.694 -153.199 439.02 -159.249 437.101 -166.75C435.444 -173.114 431.634 -179.333 427.97 -185.358C424.364 -191.335 420.584 -197.529 418.926 -203.893C416.106 -214.395 419.362 -224.001 422.794 -232.083H422.416C418.984 -223.977 415.756 -214.371 418.519 -203.82Z" fill="#FBF1D4" fill-opacity="0.4"/>
<path fill-rule="evenodd" clip-rule="evenodd" d="M561.286 -187.46C570.028 -179.952 578.304 -172.856 581.527 -163.58C586.086 -150.647 574.703 -140.886 563.639 -131.44C562.971 -130.859 562.274 -130.278 561.606 -129.697C556.03 -124.901 551.819 -119.162 547.754 -113.591C544.849 -109.619 541.801 -105.477 538.316 -101.772C535.673 -98.9868 533.234 -96.0318 530.882 -93.1497C529.226 -91.2121 527.6 -89.2262 525.945 -87.3373C523.186 -84.1643 518.801 -81.9845 514.561 -79.8294C512.296 -78.6664 509.886 -77.4798 507.882 -76.1234C502.277 -72.4907 498.008 -67.356 493.885 -62.3669C486.334 -53.2363 479.191 -44.6141 464.38 -43.9847C455.552 -43.6456 444.603 -45.2923 434.324 -48.5377C424.595 -51.6378 414.054 -57.4749 405.371 -64.5949C399.476 -69.4388 396.717 -74.3555 397.211 -79.1994C398.082 -87.8216 409.001 -95.1844 418.439 -100.658C423.986 -103.879 429.329 -105.162 434.992 -106.471C438.302 -107.245 441.642 -108.069 445.243 -109.28C448.814 -110.515 452.329 -112.017 455.726 -113.397C461.099 -115.674 466.616 -117.974 472.541 -119.404C482.443 -121.826 496.789 -122.31 505.065 -118.556C513.08 -114.923 526.671 -116.643 533.786 -120.469C540.233 -123.957 544.356 -132.652 547.667 -139.651C548.422 -141.249 549.148 -142.703 549.786 -144.034C550.135 -144.64 550.454 -145.294 550.803 -145.875C551.994 -148.152 553.068 -150.065 553.591 -152.269C556.263 -163.12 550.019 -170.627 534.54 -175.132C518.278 -179.904 503.468 -176.61 492.839 -165.856C489.616 -162.611 487.148 -158.857 484.766 -155.248C483.692 -153.626 482.559 -151.906 481.397 -150.283C481.078 -149.847 480.817 -149.435 480.468 -148.999C477.099 -144.277 472.888 -138.416 468.01 -135.171C460.692 -130.327 452.793 -126.354 444.459 -123.351C440.19 -121.826 435.863 -120.614 431.217 -119.355C427.906 -118.435 424.508 -117.49 421.052 -116.401C413.153 -113.93 406.155 -110.151 401.683 -107.439C393.349 -102.329 382.139 -93.1256 378.044 -83.9951C371.627 -69.5117 388.76 -50.0151 401.799 -40.4485C409.117 -35.0716 418.235 -31.5841 426.192 -28.8719C428.342 -28.1449 430.548 -27.4426 432.669 -26.6921C444.575 -22.7439 455.842 -18.9902 466.238 -12.7417C469.579 -10.7312 473.15 -9.08443 476.606 -7.46178C479.074 -6.32339 481.688 -5.13682 484.156 -3.8045C490.458 -0.438121 494.175 4.67198 497.311 9.70978C498.763 12.0106 500.1 14.4326 501.406 16.7575C505.152 23.4662 509.072 30.3929 515.461 36.0607C519.556 39.6451 523.854 41.0738 528.297 40.2986C535.673 39.0639 541.22 32.2336 543.862 26.2519C549.438 13.8513 547.405 -0.535084 545.605 -13.2019L545.402 -14.8245C545.256 -15.8419 545.14 -16.8345 544.995 -17.8277C544.327 -23.4221 543.688 -28.702 540.058 -34.0061C539.477 -34.8535 538.897 -35.6775 538.345 -36.525C532.857 -44.5413 528.094 -51.4685 525.654 -60.6714C524.115 -66.4356 524.26 -75.0096 528.181 -80.2408C530.126 -82.8567 533.06 -83.9704 536.196 -85.1334C538.113 -85.8599 540.087 -86.6103 541.859 -87.7005C548.741 -92.0842 554.172 -98.0418 559.457 -103.782C564.568 -109.401 569.911 -115.262 576.619 -119.646C580.627 -122.286 585.593 -124.466 590.355 -126.621C595.147 -128.752 600.084 -130.98 603.888 -133.499C611.612 -138.73 614.285 -145.827 611.409 -153.601C608.883 -160.31 602.029 -167.769 595.437 -174.963C594.421 -176.077 593.404 -177.142 592.446 -178.208C589.048 -181.962 585.477 -185.643 582.021 -189.18C572.525 -198.94 563.522 -208.143 558.469 -218.533C556.494 -222.651 555.042 -227.349 553.881 -232.387H553.474C554.665 -227.301 556.088 -222.554 558.15 -218.412C563.174 -207.998 572.234 -198.746 581.731 -188.962C585.186 -185.426 588.729 -181.793 592.127 -178.014C593.114 -176.949 594.102 -175.859 595.118 -174.817C601.71 -167.624 608.534 -160.189 611.032 -153.505C613.878 -145.875 611.264 -138.876 603.627 -133.765C599.881 -131.271 595.176 -129.14 590.21 -126.912C585.39 -124.756 580.395 -122.504 576.416 -119.888C569.65 -115.431 564.307 -109.619 559.137 -103.976C553.881 -98.2357 548.48 -92.3264 541.597 -87.9668C539.913 -86.9013 537.938 -86.1502 536.051 -85.4238C532.885 -84.2131 529.895 -83.0747 527.862 -80.4347C523.854 -75.1066 523.709 -66.4115 525.277 -60.5991C527.774 -51.3475 532.508 -44.3961 538.025 -36.3551C538.577 -35.5318 539.129 -34.6602 539.768 -33.8368C543.311 -28.6051 543.92 -23.3739 544.618 -17.779C544.763 -16.8104 544.908 -15.7931 544.995 -14.7758L545.256 -13.1772C547.028 -0.510986 549.032 13.8031 543.514 26.1549C540.203 33.5659 534.192 39.0151 528.21 40.0083C523.912 40.7347 519.701 39.3301 515.752 35.818C509.421 30.2236 505.501 23.2969 501.725 16.6365C500.447 14.2874 499.083 11.8655 497.66 9.54051C494.523 4.50271 490.719 -0.680267 484.33 -4.09542C481.862 -5.37896 479.307 -6.58964 476.809 -7.75212C473.353 -9.35067 469.782 -11.0221 466.471 -13.008C456.045 -19.3052 444.749 -23.0348 432.814 -27.0065C430.664 -27.7088 428.516 -28.4358 426.309 -29.1863C418.41 -31.8991 409.349 -35.3625 402.06 -40.6665C389.079 -50.1844 372.033 -69.5358 378.422 -83.874C382.458 -92.9558 393.639 -102.111 401.944 -107.173C406.387 -109.909 413.328 -113.664 421.197 -116.134C424.624 -117.224 428.051 -118.168 431.333 -119.065C435.979 -120.324 440.335 -121.511 444.575 -123.06C452.967 -126.064 460.896 -130.06 468.242 -134.904C473.179 -138.198 477.39 -144.083 480.817 -148.806C481.078 -149.266 481.397 -149.678 481.746 -150.138C482.907 -151.736 484.011 -153.48 485.114 -155.103C487.467 -158.712 489.906 -162.417 493.1 -165.663C503.642 -176.271 518.307 -179.54 534.425 -174.842C549.728 -170.385 555.856 -162.998 553.243 -152.318C552.69 -150.186 551.674 -148.249 550.454 -145.996C550.135 -145.415 549.786 -144.761 549.438 -144.155C548.77 -142.848 548.102 -141.346 547.347 -139.772C544.007 -132.797 539.942 -124.151 533.583 -120.735C526.555 -116.982 513.196 -115.262 505.268 -118.822C496.934 -122.576 482.414 -122.116 472.424 -119.694C466.5 -118.289 460.954 -115.94 455.552 -113.712C452.154 -112.283 448.64 -110.83 445.068 -109.595C441.525 -108.36 438.157 -107.56 434.875 -106.785C429.184 -105.453 423.84 -104.194 418.207 -100.924C408.74 -95.4024 397.704 -87.9668 396.833 -79.2235C396.311 -74.2827 399.098 -69.2936 405.08 -64.3769C413.821 -57.2081 424.421 -51.3469 434.179 -48.2473C444.517 -44.9773 455.552 -43.3306 464.409 -43.6697C479.394 -44.2991 486.886 -53.3815 494.175 -62.173C498.299 -67.1379 502.567 -72.2727 508.114 -75.9059C510.089 -77.2135 512.354 -78.3519 514.765 -79.5626C519.004 -81.7183 523.389 -83.9463 526.235 -87.1193C527.92 -89.057 529.575 -91.0669 531.172 -92.9805C533.553 -95.8138 536.022 -98.7688 538.606 -101.554C542.12 -105.283 545.14 -109.425 548.044 -113.421C552.139 -118.992 556.321 -124.708 561.896 -129.455C562.564 -130.084 563.203 -130.617 563.929 -131.222C575.023 -140.717 586.522 -150.574 581.905 -163.677C578.652 -173.001 570.347 -180.146 561.577 -187.702C553.242 -194.847 544.588 -202.258 539.565 -212.236C536.37 -218.63 534.512 -225.581 532.857 -232.387H532.45C534.105 -225.533 535.993 -218.558 539.245 -212.115C544.269 -202.088 552.923 -194.677 561.286 -187.46Z" fill="#FBF1D4" fill-opacity="0.4"/>
<path fill-rule="evenodd" clip-rule="evenodd" d="M448.787 -198.815C450.095 -193.686 453.206 -188.435 456.49 -182.895C461.926 -173.676 467.565 -164.168 464.281 -155.409C458.38 -139.659 438.265 -133.61 420.533 -128.263C416.9 -127.15 413.499 -126.133 410.214 -125.021C402.917 -122.601 396.116 -119.529 390.127 -115.924C380.768 -110.334 374.983 -103.463 368.879 -96.1803C367.978 -95.0671 367.019 -93.9787 366.088 -92.8414C360.624 -86.43 355.216 -78.6151 356.787 -69.5901C357.281 -66.7596 359.083 -63.8075 360.856 -60.977C361.989 -59.1863 363.007 -57.4684 363.734 -55.8233C364.286 -54.5891 364.838 -53.3314 365.42 -52.0731C369.577 -42.3951 373.966 -32.4027 383.354 -25.5311C386.058 -23.5716 389.575 -21.8779 392.918 -20.2328C394.72 -19.3859 396.348 -18.5872 397.947 -17.765C404.226 -14.3292 411.144 -11.4017 418.527 -8.958C426.55 -6.3691 435.154 -4.82046 443.497 -3.36879C452.508 -1.74786 461.839 -0.102261 470.298 2.89747C478.989 5.99474 485.239 14.1723 490.704 21.4065C492.215 23.3665 493.64 25.2296 495.064 26.8746C499.162 31.7862 504.133 36.0689 508.959 40.1577C512.127 42.8436 515.412 45.6499 518.405 48.602C525.324 55.4249 537.155 58.4734 549.276 56.6103C570.496 53.2956 574.014 46.424 576.978 31.5447C579.216 20.197 578.693 6.98681 575.379 -8.78874C573.461 -17.8855 566.398 -26.5473 559.625 -34.8946C557.125 -37.9431 554.77 -40.7983 552.764 -43.6047C544.247 -55.315 546.05 -69.2515 557.503 -80.7926C558.956 -82.2924 560.409 -83.7682 561.805 -85.2687C570.263 -94.051 578.228 -102.374 590.931 -106.777C596.454 -108.737 602.355 -110.02 608.081 -111.278C613.691 -112.488 619.476 -113.721 624.97 -115.633C633.196 -118.464 642.295 -124.005 648.748 -130.126C654.329 -135.4 660.346 -143.385 657.527 -151.466C654.881 -158.99 644.62 -163.394 633.778 -168.088C626.889 -171.088 619.796 -174.185 613.895 -178.273C606.192 -183.596 599.244 -190.71 594.681 -195.597L594.186 -196.105C584.42 -206.582 575.176 -216.453 572.037 -229.567C571.804 -230.389 571.659 -231.236 571.514 -232.083H571.106C571.28 -231.212 571.456 -230.365 571.659 -229.47C574.798 -216.308 584.071 -206.388 593.867 -195.936L594.361 -195.379C598.925 -190.492 605.93 -183.379 613.633 -178.032C619.563 -173.918 626.714 -170.846 633.603 -167.821C644.387 -163.151 654.561 -158.748 657.149 -151.369C659.968 -143.457 654.009 -135.57 648.486 -130.343C642.149 -124.343 632.876 -118.658 624.824 -115.924C619.36 -114.036 613.575 -112.778 608.023 -111.593C602.268 -110.334 596.338 -109.052 590.785 -107.092C577.995 -102.616 569.624 -93.8817 561.514 -85.4138C560.119 -83.9863 558.665 -82.4617 557.212 -81.01C545.642 -69.2997 543.869 -55.2668 552.415 -43.4354C554.479 -40.6049 556.805 -37.7498 559.276 -34.7495C566.078 -26.378 573.083 -17.765 575.001 -8.73998C578.344 7.0109 578.868 20.1729 576.572 31.4959C573.664 46.2065 570.177 53.0052 549.189 56.2959C537.213 58.1589 525.528 55.1104 518.697 48.4081C515.673 45.4566 512.388 42.6255 509.22 39.9156C504.424 35.8268 499.424 31.5929 495.355 26.7054C493.959 25.0604 492.535 23.1732 491.023 21.2373C485.529 13.9789 479.28 5.7526 470.472 2.60713C461.955 -0.417274 452.595 -2.0623 443.584 -3.68323C435.242 -5.15899 426.666 -6.65943 418.701 -9.27243C411.347 -11.6921 404.429 -14.6195 398.151 -18.0065C396.58 -18.8775 394.895 -19.6762 393.122 -20.5231C389.779 -22.1441 386.32 -23.8379 383.616 -25.7974C374.285 -32.6202 369.954 -42.5644 365.768 -52.1701C365.187 -53.4278 364.635 -54.6861 364.111 -55.9685C363.356 -57.6376 362.222 -59.3796 361.176 -61.0975C359.431 -63.9286 357.629 -66.856 357.164 -69.6383C355.624 -78.5663 360.972 -86.2848 366.408 -92.6722C367.367 -93.8094 368.239 -94.8738 369.169 -95.9869C375.303 -103.269 381.029 -110.116 390.331 -115.657C396.319 -119.262 403.092 -122.287 410.388 -124.73C413.615 -125.819 417.044 -126.835 420.678 -127.948C438.497 -133.319 458.7 -139.392 464.659 -155.337C467.972 -164.192 462.304 -173.797 456.81 -183.04C453.526 -188.581 450.473 -193.807 449.165 -198.863C447.305 -206.049 446.578 -219.308 446.956 -232.083H446.549C446.229 -219.284 446.956 -206.001 448.787 -198.815Z" fill="#FBF1D4" fill-opacity="0.4"/>
<path fill-rule="evenodd" clip-rule="evenodd" d="M-64.2298 264.078C-58.8724 263.546 -48.9727 262.844 -42.3049 264.392C-31.3278 266.932 -21.894 274.311 -12.7222 281.423C0.147475 291.487 13.483 301.865 31.3025 298.696C40.911 296.954 46.88 292.672 49.5878 285.463C51.9463 279.222 51.626 271.553 51.0728 262.892C50.0246 247.12 53.1401 236.403 55.9936 230.21C58.9052 223.92 63.6803 218.163 68.3391 212.526C74.57 205.026 80.4808 197.914 81.791 189.883C82.286 186.665 82.1696 184.004 81.3542 180.98C79.3744 173.481 74.803 167.82 69.9696 161.797C61.8169 151.612 53.3439 141.065 58.2647 120.598C59.3129 116.123 60.9434 111.648 62.6031 106.93C67.9896 91.8595 73.4927 76.2554 62.3992 58.8377C52.8489 43.065 35.3788 33.1467 18.4619 23.5909C10.5713 19.1154 2.38945 14.4953 -4.77329 9.39095C-13.916 2.83492 -26.4653 -6.06787 -22.1269 -17.0024C-20.409 -21.4051 -19.5646 -25.9287 -18.7494 -30.3314C-17.41 -37.2988 -16.0415 -44.4837 -11.1499 -50.9427C-7.65587 -55.5875 -2.67685 -59.1679 2.15648 -62.6754C4.39852 -64.2964 6.75699 -66.0137 8.9116 -67.7798C13.6576 -71.6987 19.2481 -74.8677 24.6638 -77.9403C29.2643 -80.5527 33.9812 -83.2381 38.2323 -86.407C42.7453 -90.6651 46.7052 -94.3906 51.4222 -98.7451C57.1873 -103.995 64.0297 -108.785 70.6393 -113.405C83.3342 -122.307 95.3012 -130.654 99.1739 -141.612C101.94 -149.329 101.561 -157.312 98.0385 -167.497C96.1456 -172.916 92.4769 -180.101 89.6817 -185.157C84.0912 -195.414 76.4044 -206.977 69.2125 -216.025C63.593 -223.089 55.6732 -228.459 46.2103 -231.749H45.2203C55.0035 -228.532 63.1562 -223.065 68.8631 -215.88C76.055 -206.808 83.7418 -195.269 89.3322 -185.011C92.0984 -179.98 95.7963 -172.843 97.6885 -167.424C101.183 -157.264 101.532 -149.353 98.8533 -141.685C95.01 -130.847 83.0721 -122.501 70.4063 -113.647C63.7968 -109.026 56.9252 -104.236 51.1601 -98.9384C46.414 -94.584 42.4251 -90.8825 37.9411 -86.6251C33.7483 -83.4802 29.0022 -80.819 24.4309 -78.1825C19.0151 -75.1099 13.4247 -71.9168 8.64958 -68.0219C6.4949 -66.2076 4.16555 -64.5385 1.89446 -62.9176C-2.96807 -59.4095 -7.947 -55.805 -11.4702 -51.112C-16.3909 -44.6048 -17.7594 -37.3711 -19.0697 -30.3801C-19.9431 -25.9769 -20.7875 -21.4532 -22.4763 -17.1229C-26.902 -5.9709 -14.2654 3.0524 -5.03531 9.60843C2.1856 14.7369 10.3383 19.3575 18.229 23.833C35.1459 33.4129 52.6159 43.2831 62.0498 58.9588C73.1142 76.2801 67.582 91.8348 62.2536 106.858C60.5649 111.575 58.9634 116.051 57.8861 120.55C52.9654 141.113 61.4384 151.709 69.6784 161.966C74.4827 167.941 78.9958 173.602 80.9758 181.077C81.791 184.028 81.9075 186.665 81.3834 189.834C80.1314 197.769 74.2497 204.881 67.9896 212.356C63.3601 217.969 58.5267 223.799 55.615 230.113C52.7907 236.33 49.6169 247.071 50.6652 262.916C51.6551 277.722 52.8198 294.559 31.2151 298.405C13.5995 301.526 0.322202 291.196 -12.5183 281.205C-21.6901 274.045 -31.1531 266.642 -42.2174 264.102C-48.5653 262.602 -57.7076 263.086 -64.2879 263.739C-74.8282 264.828 -85.6597 267.416 -97.103 270.15C-98.3259 270.44 -99.5482 270.706 -100.801 271.02V271.36C-99.5195 271.045 -98.2672 270.731 -96.9861 270.44C-85.5435 267.706 -74.7701 265.118 -64.2298 264.078Z" fill="#FBF1D4" fill-opacity="0.4"/>
<path fill-rule="evenodd" clip-rule="evenodd" d="M649.286 275.085C639.664 272.62 633.849 268.463 625.128 261.89C623.732 260.875 622.366 259.739 620.854 258.53C615.04 253.866 608.441 248.549 601.551 247.389C587.829 245.021 579.747 252.078 573.73 259.328C570.764 262.905 568.409 266.916 566.142 270.808C563.176 275.834 560.124 281.054 555.647 285.356C550.879 289.924 544.105 293.863 535.442 297.101C531.605 298.575 527.448 299.203 523.436 299.856C519.511 300.485 515.47 301.113 511.749 302.491C494.713 308.822 475.467 317.063 461.979 330.573C456.106 336.445 446.861 343.864 435.843 345.822C428.604 347.08 422.267 345.314 417.208 343.888L416.278 343.647C404.824 340.433 377.438 330.862 370.548 310.804C369.298 307.203 368.397 302.78 367.409 298.14C366.216 292.292 364.937 286.226 362.961 281.828C359.908 274.94 355.664 270.034 350.867 264.814L350.199 264.064C345.605 259.086 339.878 252.875 340.634 244.779C341.332 237.771 345.721 229.747 352.757 222.835C359.85 215.827 368.455 211.139 376.363 209.955C381.479 209.181 385.607 208.843 389.561 208.505C393.021 208.19 396.248 207.973 399.823 207.417C417.703 204.831 431.977 197.702 442.181 186.198C450.466 176.87 456.28 164.424 459.45 149.175C463.578 129.405 455.816 112.586 452.298 106.326C446.657 96.3212 433.139 85.5909 420.9 76.3347C408.719 67.1513 401.51 62.2695 382.177 61.1822C375.956 60.8437 369.967 61.2545 364.095 61.6653C361.827 61.8105 359.502 62.0039 357.175 62.1003C355.49 62.1726 353.774 62.2936 351.942 62.4388C346.07 62.8978 339.994 63.3087 333.744 62.4388C320.865 60.578 315.167 54.3909 316.446 43.4673C318.016 29.2329 329.383 16.787 345.372 11.7601C358.077 7.77292 371.363 10.9867 382.119 13.5486L383.863 13.9594C401.597 18.1888 415.435 23.9404 426.162 31.5292C432.209 35.8549 437.907 40.5915 443.431 45.2076C445.437 46.9473 447.559 48.6876 449.652 50.3791C452.56 52.7958 455.263 55.4542 457.851 58.0643C461.077 61.2786 464.507 64.6381 468.374 67.4898C473.868 71.5252 480.09 74.5221 485.41 76.9629C502.911 84.8656 518.348 90.3756 532.477 93.8074C545.268 96.9007 555.414 105.432 559.659 116.646C565.095 131.122 564.456 151.833 557.799 178.223C554.484 191.152 545.588 198.886 531.227 201.085C514.889 203.623 506.749 212.83 498.144 222.522C495.934 225.035 493.637 227.597 491.224 230.11C481.05 240.405 471.427 235.282 461.223 229.844C456.658 227.403 451.978 224.914 447.181 223.85C439.681 222.135 431.773 224.334 424.098 226.461C420.086 227.573 416.336 228.612 412.615 229.143C394.94 231.633 380.985 234.146 375.229 241.614C372.177 245.625 371.741 250.773 373.979 257.395C374.299 258.458 374.735 259.618 375.171 260.875C376.101 263.436 377.118 266.337 377.729 268.705C378.863 272.838 379.531 277.139 380.171 281.682C380.927 286.54 381.654 291.519 383.049 297.005C385.113 305.342 389.939 312.689 396.975 318.199C403.893 323.637 412.615 327.069 422.237 328.204C426.337 328.688 429.854 328.832 433.692 327.89C444.884 325.135 452.763 316.701 459.711 309.257C461.31 307.541 462.822 305.898 464.391 304.351L464.624 304.085C471.805 296.884 480.7 287.918 492.94 288.256C505.557 288.618 514.685 287.265 523.552 283.785C537.448 278.324 545.908 270.59 552.682 257.153C553.147 256.138 553.67 255.147 554.165 254.132C556.461 249.492 558.816 244.755 561.811 240.333C564.252 236.708 567.334 234.291 570.56 231.729C572.363 230.303 574.194 228.853 575.968 227.186C578.062 225.18 580.852 223.246 583.817 221.241C591.376 216.166 599.923 210.414 597.859 201.52C596.812 196.977 593.033 192.482 589.08 187.721C585.591 183.564 581.986 179.262 579.66 174.429C575.823 166.236 574.892 154.709 573.904 142.48C573.323 135.061 572.683 127.375 571.375 120.367C568.351 104.417 561.607 93.6141 550.792 87.3788C547.623 85.518 544.019 84.2855 540.53 83.15C537.797 82.2555 535.006 81.3133 532.448 80.105C530.5 79.2104 528.989 77.7846 527.506 76.4069C526.692 75.6581 525.819 74.8606 524.889 74.1841C523.174 72.9029 521.401 71.6704 519.627 70.462C517.709 69.1572 515.674 67.7796 513.784 66.3055C510.79 64.058 508.086 61.472 505.382 59.007C502.882 56.7107 500.295 54.3186 497.504 52.1434C495.236 50.355 492.765 48.9291 490.381 47.5274C487.648 45.9569 484.916 44.3618 482.387 42.1866C478.026 38.5615 473.287 34.767 468.025 31.722C463.49 29.1124 459.071 27.9522 454.42 26.6716C452.966 26.3089 451.484 25.8981 449.972 25.4391C446.571 24.4723 443.373 22.7079 440.262 20.9923C438.402 19.9773 436.541 18.9622 434.652 18.1165C427.529 14.878 420.406 12.1228 413.487 9.87525C411.511 9.27106 409.534 8.71506 407.615 8.11087C406.772 7.86931 405.986 7.62775 405.173 7.38618C401.48 6.27419 397.73 5.0899 394.096 3.93029C383.543 0.64367 372.671 -2.81278 362.758 -4.57659C356.42 -5.71267 349.646 -6.70359 342.989 -5.4952C320.08 -1.38693 296.183 17.0527 291.823 33.9701C289.846 41.7999 289.962 51.6603 292.23 61.7376C296.009 78.4617 305.719 84.6482 326.912 83.8024C331.854 83.6091 336.855 83.2223 341.68 82.8838C352.117 82.0862 362.001 81.3133 371.537 82.2555C377.032 82.7633 381.945 84.2855 385.113 85.3734C392.236 87.8384 404.417 93.4448 417.615 100.454C430.61 107.365 440.059 116.621 443.605 125.925C450.321 143.567 443.663 167.179 428.052 180.93C420.232 187.818 406.859 195.14 387.73 191.056C386.567 190.814 385.404 190.404 384.154 189.969C382.671 189.389 381.102 188.857 379.415 188.543C374.967 186.416 371.013 183.757 367.147 181.147C358.426 175.299 350.227 169.789 338.483 171.892C336.302 172.278 334.006 173.075 331.534 173.922C326.476 175.661 321.301 177.426 318.191 175.348C312.754 171.722 307.085 166.768 301.067 161.499C290.689 152.413 279.903 142.987 269.786 140.329C259.67 137.623 249.581 143.157 245.308 145.525C240.686 148.062 235.918 150.987 230.802 154.056C226.906 156.449 222.836 158.914 218.795 161.258C215.422 163.191 212.196 165.076 208.969 166.937C201.556 171.239 194.55 175.299 187.078 179.48C184.084 181.123 180.886 182.791 177.804 184.41C172.63 187.117 167.339 189.92 162.832 192.723C152.948 198.862 148.878 205.773 150.738 213.338C152.57 220.854 159.547 228.998 165.914 236.055C166.757 237.022 167.629 237.964 168.501 238.907C180.392 252.078 193.852 267.037 208.824 270.976C221.557 274.312 227.487 268.149 233.767 261.624C234.436 260.923 235.133 260.222 235.831 259.521C240.134 255.196 244.582 251.86 248.332 249.202C253.477 245.553 259.64 242.338 265.6 239.221C269.786 237.022 273.828 234.943 277.084 232.865C288.363 225.712 293.335 216.431 298.19 207.49C302.899 198.693 307.725 189.63 318.539 182.767C318.946 182.767 319.295 182.742 319.702 182.742C320.836 182.718 321.97 182.67 323.016 182.936C333.656 191.08 336.273 201.206 331.215 213.894C329.645 217.76 327.174 221.579 324.499 225.639C318.598 234.702 312.522 244.079 316.476 254.857C319.266 262.615 325.865 268.004 332.232 273.224C338.541 278.372 345.024 283.664 348.28 291.374C350.111 295.869 350.663 300.533 351.274 307.058C352.786 323.54 355.053 331.491 365.374 338.258C379.037 347.178 403.138 358.172 413.11 361.557C417.092 362.882 420.058 363.703 422.237 364.093C439.623 366.968 453.199 358.097 463.142 350.075C465.496 348.119 467.706 345.991 469.799 343.937C471.717 342.076 473.665 340.167 475.729 338.402C480.061 334.826 485.178 331.95 490.149 329.171C492.678 327.745 495.266 326.319 497.737 324.796C515.47 313.728 530.965 310.393 547.943 313.946C560.124 316.556 575.532 322.452 579.719 336.01C581.259 341.013 582.044 346.378 582.8 352.055C583.556 357.299 584.312 362.785 585.765 368.127C587.045 372.792 588.702 377.215 590.359 381.467C592.568 387.44 594.719 393.092 595.592 398.916C597.249 409.141 594.661 418.201 592.248 426.974C590.067 434.708 588.033 442.081 589.196 449.328H589.574C588.382 442.104 590.445 434.783 592.597 427.048C595.068 418.252 597.597 409.164 595.97 398.87C595.068 392.994 592.946 387.366 590.679 381.37C589.08 377.141 587.422 372.694 586.143 368.029C584.69 362.693 583.934 357.276 583.207 352.032C582.393 346.329 581.666 340.964 580.096 335.962C576.724 325.087 565.647 317.377 548.059 313.68C530.936 310.055 515.383 313.414 497.475 324.531C495.033 326.029 492.446 327.479 489.975 328.905C484.974 331.708 479.799 334.585 475.497 338.209C473.374 339.973 471.427 341.882 469.537 343.72C467.415 345.774 465.235 347.901 462.85 349.834C453.024 357.81 439.535 366.629 422.296 363.754C420.144 363.393 417.208 362.572 413.254 361.241C403.312 357.908 379.241 346.931 365.635 338.016C355.431 331.346 353.105 323.395 351.623 307.034C351.012 300.485 350.489 295.82 348.57 291.253C345.372 283.495 338.802 278.154 332.523 272.982C325.865 267.569 319.586 262.47 316.824 254.785C312.958 244.103 319.005 234.774 324.848 225.784C327.494 221.7 330.023 217.881 331.563 214.015C336.709 201.158 334.006 190.935 323.278 182.646L323.191 182.621C322.028 182.356 320.836 182.38 319.702 182.453H318.481H318.423L318.365 182.501C307.463 189.389 302.55 198.524 297.812 207.344C293.044 216.262 288.044 225.518 276.851 232.599C273.595 234.654 269.583 236.756 265.368 238.955C259.408 242.073 253.274 245.311 248.07 248.96C244.32 251.619 239.872 254.954 235.54 259.328C234.813 260.029 234.174 260.73 233.476 261.43C227.255 267.859 221.383 273.949 208.94 270.662C194.084 266.748 180.682 251.86 168.821 238.738C167.949 237.771 167.077 236.804 166.204 235.862C159.838 228.853 152.919 220.733 151.088 213.289C149.285 205.87 153.267 199.031 163.036 192.965C167.542 190.137 172.862 187.383 178.007 184.676C181.089 183.057 184.258 181.413 187.252 179.746C194.753 175.589 201.759 171.505 209.202 167.203C212.4 165.342 215.684 163.457 219.028 161.499C223.068 159.18 227.138 156.739 231.034 154.322C236.122 151.229 240.918 148.304 245.512 145.767C249.785 143.447 259.728 137.961 269.67 140.619C279.729 143.278 290.398 152.679 300.806 161.741C306.823 166.985 312.492 171.964 317.958 175.613C321.243 177.788 326.534 175.976 331.68 174.187C334.122 173.366 336.447 172.568 338.541 172.206C350.111 170.103 358.251 175.613 366.886 181.413C370.781 183.999 374.793 186.706 379.241 188.833L379.328 188.857C380.985 189.147 382.526 189.702 384.008 190.258C385.288 190.693 386.451 191.128 387.614 191.37C402.731 194.584 417.179 190.959 428.314 181.099C444.012 167.324 450.699 143.568 443.983 125.805C440.349 116.476 430.843 107.124 417.848 100.236C404.591 93.2033 392.41 87.524 385.259 85.1072C382.061 83.9958 377.118 82.4729 371.595 81.9416C362.001 81.023 352.117 81.7724 341.652 82.5458C336.825 82.9326 331.825 83.2946 326.912 83.488C316.184 83.9229 308.655 82.5458 303.335 79.2105C297.956 75.7787 294.526 70.2204 292.607 61.6894C290.34 51.6362 290.195 41.824 292.23 34.0424C296.533 17.2219 320.313 -1.09661 343.076 -5.18078C349.646 -6.36507 356.362 -5.37414 362.67 -4.28682C372.583 -2.49835 383.427 0.933446 393.922 4.24417C397.585 5.38025 401.335 6.56453 405.027 7.67595C405.842 7.91751 406.655 8.15907 407.499 8.4253C409.417 8.95663 411.394 9.5855 413.371 10.1897C420.261 12.4125 427.354 15.1437 434.448 18.3821C436.337 19.2279 438.198 20.267 440.059 21.2579C443.169 22.9494 446.396 24.762 449.856 25.7529C451.367 26.1879 452.879 26.5987 454.303 26.9854C458.926 28.2179 463.345 29.4022 467.793 31.94C473.055 35.0092 477.794 38.803 482.096 42.4282C484.625 44.5793 487.445 46.1985 490.119 47.7936C492.533 49.1466 494.974 50.5965 497.271 52.3609C500.004 54.512 502.62 56.9288 505.092 59.2245C507.795 61.7135 510.557 64.2514 513.552 66.5712C515.441 67.997 517.447 69.3988 519.395 70.7282C521.139 71.9119 522.913 73.1444 524.628 74.4016C525.529 75.1022 526.401 75.8756 527.244 76.625C528.756 78.0261 530.268 79.4038 532.303 80.3465C534.861 81.6272 537.652 82.5458 540.355 83.4398C543.844 84.6 547.449 85.8083 550.589 87.6209C561.345 93.8074 567.973 104.514 570.997 120.415C572.334 127.399 572.945 135.061 573.555 142.504C574.544 154.757 575.445 166.309 579.341 174.55C581.637 179.408 585.242 183.757 588.73 187.914C592.713 192.627 596.464 197.074 597.481 201.569C599.487 210.268 591.056 215.972 583.585 221.023C580.62 223.053 577.77 224.938 575.677 226.968C573.904 228.636 572.101 230.11 570.27 231.487C567.014 234.098 563.932 236.49 561.461 240.164C558.467 244.61 556.083 249.419 553.815 254.011C553.321 255.026 552.827 256.017 552.333 257.032C545.618 270.397 537.245 278.081 523.407 283.495C514.598 286.951 505.498 288.28 492.94 287.918C480.555 287.603 471.572 296.642 464.333 303.892L464.101 304.158C462.531 305.704 460.99 307.324 459.42 309.04C452.152 316.821 444.623 324.869 433.576 327.6C429.825 328.494 426.337 328.373 422.296 327.89C402.556 325.618 387.614 313.752 383.398 296.932C382.032 291.47 381.305 286.468 380.578 281.658C379.88 277.115 379.212 272.789 378.107 268.632C377.468 266.264 376.45 263.364 375.549 260.778C375.083 259.545 374.677 258.385 374.328 257.298C372.147 250.773 372.554 245.698 375.578 241.759C381.16 234.387 395.114 231.922 412.673 229.433C416.424 228.926 420.232 227.862 424.244 226.751C431.86 224.648 439.709 222.449 447.065 224.117C451.832 225.204 456.484 227.693 461.019 230.11C471.369 235.596 481.136 240.816 491.457 230.279C493.928 227.79 496.225 225.228 498.434 222.715C506.981 213.048 515.093 203.913 531.314 201.4C545.792 199.128 554.833 191.37 558.118 178.272C564.863 151.857 565.473 131.073 560.037 116.573C555.734 105.238 545.53 96.611 532.623 93.5177C518.465 90.11 503.115 84.6 485.585 76.6732C480.294 74.2564 474.13 71.2355 468.636 67.2477C464.769 64.4448 461.397 61.0853 458.141 57.8227C455.524 55.2367 452.85 52.5784 449.943 50.1616C447.821 48.4701 445.698 46.7057 443.693 44.9901C438.169 40.374 432.441 35.5887 426.395 31.2871C415.638 23.6747 401.742 17.8984 383.95 13.6938L382.177 13.2588C371.449 10.6728 358.077 7.48258 345.227 11.4945C329.151 16.5455 317.697 29.0637 316.04 43.4432C314.789 54.5361 320.545 60.8919 333.715 62.7286C339.965 63.6472 346.07 63.1876 351.972 62.7527C353.803 62.6322 355.518 62.5111 357.205 62.4147C359.56 62.2695 361.856 62.1244 364.123 61.9792C369.967 61.5684 375.985 61.1334 382.148 61.472C401.335 62.5834 408.545 67.4169 420.639 76.5521C432.849 85.8083 446.367 96.4899 451.92 106.423C455.437 112.682 463.2 129.43 459.071 149.126C452.036 182.936 432.093 202.415 399.765 207.127C396.219 207.635 392.963 207.925 389.532 208.166C385.549 208.529 381.45 208.867 376.276 209.64C368.281 210.849 359.618 215.562 352.437 222.618C345.402 229.603 340.954 237.65 340.256 244.755C339.5 252.972 345.227 259.232 349.879 264.258L350.577 264.983C355.373 270.227 359.588 275.109 362.641 281.924C364.559 286.299 365.81 292.365 367.06 298.213C368.019 302.853 368.949 307.275 370.17 310.852C377.148 331.056 404.649 340.723 416.132 343.961L417.092 344.179C422.209 345.653 428.546 347.419 435.931 346.112C447.065 344.155 456.397 336.687 462.269 330.766C475.671 317.329 494.858 309.04 511.923 302.78C515.587 301.427 519.598 300.774 523.494 300.17C527.535 299.518 531.721 298.866 535.617 297.391C544.309 294.152 551.141 290.165 555.938 285.573C560.444 281.272 563.496 276.003 566.432 270.952C568.729 267.061 571.084 263.049 574.05 259.497C580.009 252.368 587.974 245.359 601.493 247.704C608.267 248.864 614.807 254.108 620.593 258.772C622.075 259.98 623.5 261.092 624.896 262.155C633.588 268.729 639.431 272.886 649.17 275.375C656.438 277.212 669.433 277.357 678.794 275.665C686.295 274.336 693.533 272.668 700.511 271V270.662C693.504 272.354 686.266 273.997 678.707 275.375C669.404 277.018 656.496 276.898 649.286 275.085Z" fill="#FBF1D4" fill-opacity="0.4"/>
</g>
<defs>
<clipPath id="clip0_200_188">
<rect width="470" height="139" fill="white"/>
</clipPath>
</defs>
</svg>
