<svg width="21" height="21" viewBox="0 0 21 21" fill="none" xmlns="http://www.w3.org/2000/svg">
<path d="M5.625 0C2.51888 0 0 2.51888 0 5.625V14.625C0 17.7311 2.51888 20.25 5.625 20.25H14.625C17.7311 20.25 20.25 17.7311 20.25 14.625V5.625C20.25 2.51888 17.7311 0 14.625 0H5.625ZM16.875 2.25C17.496 2.25 18 2.754 18 3.375C18 3.996 17.496 4.5 16.875 4.5C16.254 4.5 15.75 3.996 15.75 3.375C15.75 2.754 16.254 2.25 16.875 2.25ZM10.125 4.5C13.2311 4.5 15.75 7.01888 15.75 10.125C15.75 13.2311 13.2311 15.75 10.125 15.75C7.01888 15.75 4.5 13.2311 4.5 10.125C4.5 7.01888 7.01888 4.5 10.125 4.5ZM10.125 6.75C9.22989 6.75 8.37145 7.10558 7.73851 7.73851C7.10558 8.37145 6.75 9.22989 6.75 10.125C6.75 11.0201 7.10558 11.8786 7.73851 12.5115C8.37145 13.1444 9.22989 13.5 10.125 13.5C11.0201 13.5 11.8786 13.1444 12.5115 12.5115C13.1444 11.8786 13.5 11.0201 13.5 10.125C13.5 9.22989 13.1444 8.37145 12.5115 7.73851C11.8786 7.10558 11.0201 6.75 10.125 6.75Z" fill="#385D7D"/>
</svg>
