<svg width="92" height="92" viewBox="0 0 92 92" fill="none" xmlns="http://www.w3.org/2000/svg">
<ellipse cx="45.6999" cy="46.3605" rx="45.7005" ry="45.5" fill="#FFF9E7"/>
<path d="M25.1962 56.5269L25.1942 56.5254C24.9569 56.3335 24.8476 56.0281 24.9129 55.7324C24.9129 55.7324 24.9129 55.7323 24.9129 55.7323L26.2928 49.4636L21.1626 48.6592L19.967 50.5294L19.9666 50.53C19.8007 50.7862 19.5313 50.96 19.2262 51.006L19.2251 51.0062L17.8849 51.196L17.8836 51.1962L17.8836 51.1962C17.5999 51.2332 17.3129 51.1227 17.1378 50.8962C16.9582 50.6698 16.921 50.3643 17.0292 50.1025L17.0295 50.1017L17.0295 50.1017L17.9352 47.9503L17.9353 47.9499C18.0615 47.6534 18.1266 47.3356 18.1266 47.0135C18.1266 46.6779 18.0615 46.3645 17.9352 46.0632L25.1962 56.5269ZM25.1962 56.5269C25.3462 56.6434 25.5241 56.7023 25.7028 56.7023C25.8172 56.7023 25.9271 56.6756 26.0219 56.6475L26.0299 56.6451L26.0375 56.6417L27.3594 56.0496L27.3598 56.0494C28.0989 55.7149 28.6813 55.0928 28.9537 54.3325M25.1962 56.5269L27.3083 55.9355M36.455 45.7386C35.4627 44.8922 34.1944 44.4252 32.8886 44.4252H30.6575L28.9537 39.6855L36.3741 45.8338M36.455 45.7386C36.4551 45.7386 36.4551 45.7387 36.4552 45.7387L36.3741 45.8338M36.455 45.7386C36.4549 45.7385 36.4548 45.7384 36.4548 45.7384L36.3741 45.8338M36.455 45.7386C36.8309 46.0563 37.0434 46.5207 37.0434 47.009C37.0434 47.4979 36.8304 47.9573 36.4555 48.279L36.4552 48.2792C35.4629 49.1256 34.1991 49.5927 32.8886 49.5927H30.6575M36.3741 45.8338C36.7217 46.1276 36.9184 46.557 36.9184 47.009C36.9184 47.4609 36.7217 47.8858 36.3741 48.1841C35.4044 49.0112 34.1694 49.4677 32.8886 49.4677H30.5696M30.6575 49.5927L30.6872 49.51L30.5696 49.4677M30.6575 49.5927H30.5696V49.4677M30.6575 49.5927L28.9537 54.3325M30.5696 49.4677L28.836 54.2903M28.836 54.2903L28.9537 54.3325M28.836 54.2903C28.5753 55.018 28.0173 55.6146 27.3083 55.9355M28.836 54.2903L28.9536 54.3326L28.9537 54.3325M27.3083 55.9355L25.9864 56.5276C25.8949 56.5547 25.7988 56.5773 25.7028 56.5773L27.3083 55.9355ZM21.1389 47.3373L21.1388 47.3374L26.5271 48.1781L26.529 48.1784L26.529 48.1784C26.6303 48.1958 26.7366 48.209 26.8387 48.2178L26.8427 48.2181L26.8427 48.2182C27.1056 48.2493 27.3471 48.3894 27.5048 48.6024L27.506 48.604L27.506 48.604C27.6587 48.8173 27.7172 49.0839 27.659 49.3455L27.6591 49.3454L27.537 49.3186L27.659 49.3457L21.1389 47.3373ZM21.1389 47.3373L21.1332 47.3367C21.0922 47.3322 21.0403 47.3269 20.9915 47.3269C20.6666 47.3269 20.3535 47.4919 20.1701 47.7612L20.17 47.7612L20.1682 47.764L18.9139 49.718L18.5754 49.7654M21.1389 47.3373L18.5754 49.7654M18.5754 49.7654L19.1353 48.4314L19.1356 48.4307C19.3247 47.973 19.4241 47.4913 19.4241 46.9819C19.4241 46.4866 19.3295 46.0045 19.1353 45.5457C19.1352 45.5457 19.1352 45.5456 19.1352 45.5455L18.5754 44.2118L18.9139 44.2593L20.1679 46.2128C20.168 46.2129 20.168 46.213 20.1681 46.213C20.3737 46.5359 20.7567 46.7058 21.138 46.649L21.1389 46.6489L26.5207 45.8085L26.6813 45.7884L26.8424 45.7682C26.8426 45.7681 26.8428 45.7681 26.843 45.7681C27.1095 45.737 27.3517 45.5974 27.5056 45.3829C27.659 45.1734 27.7172 44.9018 27.659 44.645C27.6589 44.6448 27.6589 44.6447 27.6589 44.6446L26.4085 38.9568L26.8129 39.1364C26.8131 39.1364 26.8132 39.1365 26.8134 39.1366C27.2316 39.3264 27.5591 39.6761 27.712 40.1041L27.7121 40.1044L29.505 45.0939C29.505 45.0939 29.5051 45.094 29.5051 45.0941L29.5051 45.0942L29.6228 45.0519C29.7371 45.3728 30.0481 45.5898 30.3912 45.5898H32.8886C33.9132 45.5898 34.9012 45.9559 35.6788 46.6158M18.5754 49.7654L35.7322 46.9954C35.7322 47.1053 35.6862 47.2027 35.5974 47.2803M35.6788 46.6158L35.5968 46.7101C35.597 46.7102 35.5972 46.7104 35.5974 46.7106C35.5976 46.7107 35.5977 46.7109 35.5979 46.7111L35.6788 46.6158ZM35.6788 46.6158C35.7932 46.7152 35.8572 46.8463 35.8572 46.9954C35.8572 47.1446 35.7932 47.2756 35.6788 47.3751M35.6788 47.3751L35.5979 47.2798C35.5977 47.2799 35.5976 47.2801 35.5974 47.2803M35.6788 47.3751C34.9012 48.035 33.9132 48.4011 32.8886 48.4011H30.3912C30.0481 48.4011 29.7371 48.618 29.6228 48.9389M35.6788 47.3751L35.5968 47.2807C35.597 47.2806 35.5972 47.2804 35.5974 47.2803M35.5974 47.2803L29.6228 48.9389M29.6228 48.9389L27.8297 53.9287L29.6228 48.9389ZM17.0255 43.9039L17.9351 46.063L28.9536 39.6853C28.6814 38.9255 28.0992 38.2985 27.3593 37.9683C27.3593 37.9683 27.3593 37.9683 27.3592 37.9683L26.0375 37.3762L26.0373 37.3762C25.7623 37.2536 25.4376 37.2904 25.1988 37.4835C24.9615 37.6754 24.8523 37.976 24.9174 38.2761L24.9175 38.2765L26.2972 44.5446L21.1626 45.3452L19.9672 43.4753C19.9672 43.4753 19.9672 43.4752 19.9671 43.4752C19.8013 43.2141 19.5314 43.0394 19.2247 42.9981C19.2245 42.9981 19.2244 42.9981 19.2242 42.9981L17.8809 42.8084C17.5972 42.7656 17.3113 42.8842 17.1338 43.1074C16.955 43.3323 16.9106 43.6385 17.0252 43.9033C17.0253 43.9035 17.0254 43.9037 17.0255 43.9039ZM26.4085 55.034L26.2667 55.097L26.2334 55.2485L26.3752 55.1856L26.4085 55.034Z" fill="#385D7D" stroke="#385D7D" stroke-width="0.25"/>
<path d="M16.2894 63.125H74.8008C77.3567 63.125 79.4358 61.0727 79.4358 58.5435V35.4565C79.4358 32.9273 77.3567 30.875 74.8008 30.875H16.2894C13.7334 30.875 11.6543 32.9273 11.6543 35.4565V58.5435C11.6543 61.0727 13.7334 63.125 16.2894 63.125ZM12.9655 35.4565C12.9655 33.6467 14.4542 32.1736 16.2894 32.1736H74.8008C76.636 32.1736 78.1246 33.6467 78.1246 35.4565V58.5435C78.1246 60.3533 76.636 61.8264 74.8008 61.8264H16.2894C14.4542 61.8264 12.9655 60.3533 12.9655 58.5435V35.4565Z" fill="#385D7D" stroke="#385D7D" stroke-width="0.25"/>
<path d="M41.4513 41.8414H53.7098C54.0732 41.8414 54.3705 41.553 54.3654 41.1912C54.3648 40.8319 54.0698 40.5428 53.7098 40.5428H41.4513C41.0909 40.5428 40.7957 40.8324 40.7957 41.1921C40.7957 41.5518 41.0909 41.8414 41.4513 41.8414Z" fill="#385D7D" stroke="#385D7D" stroke-width="0.25"/>
<path d="M51.6835 47.4008H54.5514C54.9096 47.4008 55.2122 47.113 55.207 46.7505C55.2064 46.3912 54.9114 46.1022 54.5514 46.1022H51.6835C51.3231 46.1022 51.0279 46.3918 51.0279 46.7515C51.0279 47.1112 51.3231 47.4008 51.6835 47.4008Z" fill="#385D7D" stroke="#385D7D" stroke-width="0.25"/>
<path d="M41.4559 47.4008H49.401C49.7614 47.4008 50.0566 47.1112 50.0566 46.7515C50.0566 46.3918 49.7614 46.1022 49.401 46.1022H41.4559C41.0955 46.1022 40.8003 46.3918 40.8003 46.7515C40.8003 47.1112 41.0955 47.4008 41.4559 47.4008Z" fill="#385D7D" stroke="#385D7D" stroke-width="0.25"/>
<path d="M41.4559 52.9602H52.1088C52.4692 52.9602 52.7644 52.6706 52.7644 52.3109C52.7644 51.9512 52.4692 51.6616 52.1088 51.6616H41.4559C41.0955 51.6616 40.8003 51.9512 40.8003 52.3109C40.8003 52.6706 41.0955 52.9602 41.4559 52.9602Z" fill="#385D7D" stroke="#385D7D" stroke-width="0.25"/>
<path d="M65.8585 38.6008H73.2548C73.6151 38.6008 73.9104 38.3112 73.9104 37.9515C73.9104 37.5918 73.6151 37.3022 73.2548 37.3022H65.8585C65.4981 37.3022 65.2029 37.5918 65.2029 37.9515C65.2029 38.3112 65.4981 38.6008 65.8585 38.6008Z" fill="#385D7D" stroke="#385D7D" stroke-width="0.25"/>
<path d="M65.8585 42.5238H73.2548C73.6151 42.5238 73.9104 42.2342 73.9104 41.8745C73.9104 41.5148 73.6151 41.2252 73.2548 41.2252H65.8585C65.4981 41.2252 65.2029 41.5148 65.2029 41.8745C65.2029 42.2342 65.4981 42.5238 65.8585 42.5238Z" fill="#385D7D" stroke="#385D7D" stroke-width="0.25"/>
<path d="M65.8585 44.9646H73.2548C73.6151 44.9646 73.9104 44.675 73.9104 44.3153C73.9104 43.9556 73.6151 43.666 73.2548 43.666H65.8585C65.4981 43.666 65.2029 43.9556 65.2029 44.3153C65.2029 44.675 65.4981 44.9646 65.8585 44.9646Z" fill="#385D7D" stroke="#385D7D" stroke-width="0.25"/>
<path d="M65.8585 47.4008H73.2548C73.6151 47.4008 73.9104 47.1112 73.9104 46.7515C73.9104 46.3918 73.6151 46.1022 73.2548 46.1022H65.8585C65.4981 46.1022 65.2029 46.3918 65.2029 46.7515C65.2029 47.1112 65.4981 47.4008 65.8585 47.4008Z" fill="#385D7D" stroke="#385D7D" stroke-width="0.25"/>
<path d="M65.8585 50.8313H73.2548C73.6151 50.8313 73.9104 50.5417 73.9104 50.182C73.9104 49.8223 73.6151 49.5327 73.2548 49.5327H65.8585C65.4981 49.5327 65.2029 49.8223 65.2029 50.182C65.2029 50.5417 65.4981 50.8313 65.8585 50.8313Z" fill="#385D7D" stroke="#385D7D" stroke-width="0.25"/>
<path d="M65.8585 54.5104H73.2548C73.6151 54.5104 73.9104 54.2208 73.9104 53.8611C73.9104 53.5014 73.6151 53.2118 73.2548 53.2118H65.8585C65.4981 53.2118 65.2029 53.5014 65.2029 53.8611C65.2029 54.2208 65.4981 54.5104 65.8585 54.5104Z" fill="#385D7D" stroke="#385D7D" stroke-width="0.25"/>
<path d="M65.8585 56.7025H73.2548C73.6151 56.7025 73.9104 56.4129 73.9104 56.0532C73.9104 55.6935 73.6151 55.4039 73.2548 55.4039H65.8585C65.4981 55.4039 65.2029 55.6935 65.2029 56.0532C65.2029 56.4129 65.4981 56.7025 65.8585 56.7025Z" fill="#385D7D" stroke="#385D7D" stroke-width="0.25"/>
<path d="M59.5036 33.1017C59.5036 33.4614 59.7989 33.751 60.1592 33.751C60.5196 33.751 60.8148 33.4614 60.8148 33.1017V31.5243C60.8148 31.1646 60.5196 30.875 60.1592 30.875C59.7989 30.875 59.5036 31.1646 59.5036 31.5243V33.1017Z" fill="#385D7D" stroke="#385D7D" stroke-width="0.25"/>
<path d="M59.5036 57.8112C59.5036 58.1709 59.7989 58.4605 60.1592 58.4605C60.5196 58.4605 60.8148 58.1709 60.8148 57.8112V54.7242C60.8148 54.3645 60.5196 54.0749 60.1592 54.0749C59.7989 54.0749 59.5036 54.3645 59.5036 54.7242V57.8112ZM59.5036 51.6327C59.5036 51.9924 59.7989 52.282 60.1592 52.282C60.5196 52.282 60.8148 51.9924 60.8148 51.6327V48.5457C60.8148 48.186 60.5196 47.8964 60.1592 47.8964C59.7989 47.8964 59.5036 48.186 59.5036 48.5457V51.6327ZM59.5036 45.4541C59.5036 45.8138 59.7989 46.1034 60.1592 46.1034C60.5196 46.1034 60.8148 45.8138 60.8148 45.4541V42.3671C60.8148 42.0074 60.5196 41.7178 60.1592 41.7178C59.7989 41.7178 59.5036 42.0074 59.5036 42.3671V45.4541ZM59.5036 39.2801C59.5036 39.6398 59.7989 39.9294 60.1592 39.9294C60.5196 39.9294 60.8148 39.6398 60.8148 39.2801V36.1931C60.8148 35.8334 60.5196 35.5438 60.1592 35.5438C59.7989 35.5438 59.5036 35.8334 59.5036 36.1931V39.2801Z" fill="#385D7D" stroke="#385D7D" stroke-width="0.25"/>
<path d="M59.5036 62.4757C59.5036 62.8354 59.7989 63.125 60.1592 63.125C60.5196 63.125 60.8148 62.8354 60.8148 62.4757V60.8983C60.8148 60.5386 60.5196 60.249 60.1592 60.249C59.7989 60.249 59.5036 60.5386 59.5036 60.8983V62.4757Z" fill="#385D7D" stroke="#385D7D" stroke-width="0.25"/>
</svg>
