<svg width="63" height="47" viewBox="0 0 63 47" fill="none" xmlns="http://www.w3.org/2000/svg">
<path d="M35.1656 47C46.1656 40.8 49.5656 30.2 49.5656 26.2C48.7656 26 48.1656 26.4 48.1656 26.4C40.1656 26.8 33.9656 20.8 34.1656 13.4C34.1656 6.19999 40.3656 0.599989 47.5656 0.599989C55.9656 0.599989 62.5656 7.79999 62.5656 18.2C62.5656 30 53.3656 42.2 40.3656 47H35.1656ZM1.76563 47C12.7656 40.8 16.1656 30.2 16.1656 26.2C15.3656 26 14.7656 26.4 14.7656 26.4C6.76563 26.8 0.565625 20.8 0.765626 13.4C0.765626 6.19999 6.96563 0.599989 14.1656 0.599989C22.5656 0.599989 29.1656 7.79999 29.1656 18.2C29.1656 30 19.9656 42.2 6.96563 47H1.76563Z" fill="white" fill-opacity="0.2"/>
</svg>
