<svg width="1280" height="1295" viewBox="0 0 1280 1295" fill="none" xmlns="http://www.w3.org/2000/svg">
<mask id="mask0_200_268" style="mask-type:alpha" maskUnits="userSpaceOnUse" x="-1" y="0" width="1286" height="1295">
<rect x="-1" width="1286" height="1295" fill="#FDF8E9"/>
</mask>
<g mask="url(#mask0_200_268)">
<path fill-rule="evenodd" clip-rule="evenodd" d="M-230.895 1458.62C-220.405 1436.71 -207.495 1409.44 -180.982 1399.07C-166.516 1398.35 -154.181 1402.59 -141.155 1407.13C-122.943 1413.46 -102.309 1420.69 -69.9753 1416.63C-45.4224 1413.5 -29.6879 1401.44 -11.4163 1387.44C-3.92389 1381.66 3.85669 1375.77 12.7321 1370.12C35.902 1355.36 62.0693 1345.27 84.6629 1337.45C107.083 1329.59 124.834 1323.41 130.713 1302.81C134.287 1290.45 136.765 1273.18 138.206 1261.36C139.07 1254.79 139.532 1248.72 139.532 1243.26C139.532 1234.19 138.321 1226.37 136.016 1219.76C131.06 1205.77 117.457 1196.84 100.224 1185.65C95.0944 1182.27 89.8495 1178.84 84.3165 1174.94C80.4547 1172.28 76.3044 1168.81 71.8093 1165.09C62.5307 1157.37 52.9044 1149.41 45.182 1147.19C42.1848 1146.37 39.4758 1146.61 36.4203 1146.8C34.0577 1147 31.4637 1147.19 28.3515 1146.95L28.1796 1146.9L28.0633 1147C16.2489 1154.48 6.79584 1163.6 -2.4259 1172.38C-18.1022 1187.34 -32.8002 1201.52 -57.0649 1206.83C-69.8603 1209.68 -83.5189 1208.62 -98.9083 1203.74C-115.104 1198.48 -132.971 1186.32 -149.052 1169.39C-156.313 1161.76 -163.864 1153.66 -171.933 1145.07C-208.533 1105.74 -250.088 1061.11 -286.283 1036.74L-286.513 1036.69C-290.952 1035.87 -296.023 1036.16 -301.615 1037.27C-316.773 1040.41 -334.87 1050.35 -351.181 1064.58C-366.628 1078.14 -378.27 1093.58 -382.304 1105.84C-382.65 1106.85 -383.284 1108.78 -383.745 1110.86C-388.183 1127.26 -385.129 1144.25 -382.189 1160.65C-379.653 1174.84 -377.232 1188.3 -379.25 1201.38C-383.688 1229.61 -406.281 1249.92 -441.151 1257.06C-486.971 1266.52 -515.732 1240.46 -543.628 1215.23C-564.204 1196.65 -585.414 1177.4 -613.482 1172.33C-639.879 1167.55 -668.352 1173.83 -687.199 1177.98C-694.807 1179.62 -702.415 1181.64 -709.965 1183.81V1184.44C-702.357 1182.22 -694.692 1180.24 -686.968 1178.56C-668.236 1174.45 -639.879 1168.18 -613.655 1172.96C-585.817 1177.98 -564.665 1197.13 -544.204 1215.71C-516.193 1240.99 -487.26 1267.2 -441.036 1257.69C-405.82 1250.5 -383.054 1229.9 -378.616 1201.43C-376.541 1188.3 -378.904 1174.84 -381.44 1160.56C-384.379 1144.2 -387.376 1127.31 -383.054 1111C-382.535 1108.97 -381.901 1107 -381.555 1105.98C-373.601 1081.62 -334.178 1044.65 -301.498 1037.9C-295.965 1036.74 -291.009 1036.55 -286.743 1037.27C-250.606 1061.59 -209.051 1106.13 -172.452 1145.45C-164.498 1154.04 -156.948 1162.15 -149.685 1169.82C-133.49 1186.81 -115.566 1199.06 -99.1384 1204.27C-83.6354 1209.24 -69.8603 1210.31 -56.8917 1207.46C-32.4537 1202.05 -17.5258 1187.87 -1.79132 1172.81C7.31543 1164.08 16.7672 1155.06 28.4097 1147.58C31.5219 1147.82 34.1159 1147.63 36.4785 1147.48C39.4758 1147.19 42.0697 1147 44.8937 1147.82C52.4443 1149.99 62.0693 1157.85 71.291 1165.58C75.7294 1169.24 79.9932 1172.76 83.7983 1175.42C89.3313 1179.33 94.5761 1182.8 99.7627 1186.18C116.881 1197.33 130.425 1206.16 135.325 1219.96C139.014 1230.43 139.762 1243.99 137.514 1261.26C135.958 1273.13 133.481 1290.36 130.022 1302.66C124.259 1322.93 106.622 1329.11 84.3747 1336.93C61.7229 1344.78 35.4988 1354.82 12.2138 1369.59C3.33844 1375.23 -4.38531 1381.22 -11.9359 1386.96C-30.0911 1400.9 -45.7674 1412.92 -70.0903 1415.96C-102.194 1420.01 -122.712 1412.87 -140.867 1406.55C-154.009 1402.01 -166.399 1397.68 -181.097 1398.4L-181.271 1398.44C-208.013 1409.01 -221.097 1436.37 -231.528 1458.37C-234.41 1464.36 -237.292 1470.54 -239.079 1477.29C-243.056 1492.83 -245.246 1507.64 -245.938 1521.54H-245.131C-244.555 1507.68 -242.249 1492.92 -238.33 1477.43C-236.658 1470.73 -233.719 1464.56 -230.895 1458.62Z" fill="#385D7D" fill-opacity="0.22"/>
<path fill-rule="evenodd" clip-rule="evenodd" d="M56.3615 993.418C56.3615 1018.75 42.1128 1048.47 21.7167 1065.52C13.3854 1072.6 3.2733 1078 -7.12567 1083.34C-30.4513 1095.24 -55.7891 1106.13 -82.6194 1115.71C-85.032 1115.57 -87.2728 1116 -89.3418 1116.48C-90.7207 1116.77 -92.0995 1117.01 -93.3634 1117.16C-121.803 1115.04 -154.091 1082.24 -154.091 1055.5C-154.091 1053.14 -153.861 1050.88 -153.345 1048.76C-150.932 1038.98 -141.682 1026.22 -125.767 1010.76C-102.44 988.264 -61.3045 957.198 -22.0063 944.001C-17.2946 942.363 -11.3773 940.437 -6.43559 939.81C13.3854 937.209 30.3918 943.615 44.0086 958.739C52.1667 967.794 56.3615 979.45 56.3615 993.418ZM-6.5506 939.233C-11.5491 939.858 -17.5247 941.785 -22.2932 943.374C-61.7064 956.62 -102.959 987.783 -126.341 1010.42C-142.314 1025.93 -151.679 1038.79 -154.035 1048.66C-154.608 1050.78 -154.897 1053.09 -154.897 1055.5C-154.897 1082.52 -122.089 1115.66 -93.3634 1117.73C-91.9845 1117.64 -90.5475 1117.35 -89.1686 1117.01C-87.0428 1116.67 -84.917 1116.19 -82.6194 1116.39H-82.5044L-82.4475 1116.34C-55.5008 1106.75 -30.1063 1095.77 -6.83746 1083.87C3.73335 1078.53 13.8455 1073.08 22.2905 1066C42.8015 1048.81 57.1653 1018.9 57.1653 993.418C57.1653 979.306 52.8568 967.506 44.6405 958.306C30.7937 942.989 13.5586 936.535 -6.5506 939.233Z" fill="#385D7D" fill-opacity="0.22"/>
<path fill-rule="evenodd" clip-rule="evenodd" d="M-2.06903 972.591C14.0849 976.064 23.2836 987.785 23.2836 1004.86C23.2836 1019.18 16.6721 1035.15 6.4964 1045.62C-9.5425 1062.06 -32.3093 1067.61 -60.421 1073.11C-72.4938 1073.54 -82.7263 1070.84 -89.396 1065.58C-94.8574 1061.15 -97.6746 1054.97 -97.6746 1047.35C-97.6746 1045.28 -97.4446 1043.01 -96.9845 1040.65C-91.9833 1014.55 -53.1194 976.74 -18.568 972.254C-13.7968 971.674 -6.84024 971.53 -2.06903 972.591ZM-69.8497 998.155C-84.6816 1011.76 -95.3743 1027.96 -97.7315 1040.55C-98.2497 1042.91 -98.4784 1045.18 -98.4784 1047.35C-98.4784 1055.17 -95.5475 1061.44 -89.7979 1066.02C-83.1296 1071.47 -72.6657 1074.12 -60.306 1073.74C-32.0211 1068.19 -9.08245 1062.64 7.07147 1045.95C17.4204 1035.49 24.0887 1019.28 24.0887 1004.86C24.0887 987.544 14.6031 975.533 -1.83902 971.916C-6.72525 970.903 -13.7968 971.096 -18.683 971.674C-35.0684 973.749 -53.6945 983.444 -69.8497 998.155Z" fill="#385D7D" fill-opacity="0.22"/>
<path fill-rule="evenodd" clip-rule="evenodd" d="M200.916 839.713C207.374 842.075 214.063 844.535 222.021 846.801C235.571 850.706 249.18 852.297 262.327 853.889C277.377 855.673 291.504 857.361 303.21 862.278L304.594 862.953C314.05 868.257 322.181 872.79 328.408 879.637C336.308 888.315 340.401 899.888 340.401 913.051C340.401 933.206 330.254 953.457 314.626 964.499C303.555 972.213 290.409 975.299 276.512 973.225C256.906 969.706 245.432 956.012 233.322 941.595C222.194 928.288 210.661 914.642 192.383 909.434C180.388 906.06 166.895 907.698 152.653 909.434C137.315 911.363 121.515 913.292 107.387 908.663C87.1481 902.106 66.7358 882.24 59.8739 862.52C58.5478 858.71 57.9714 855.286 57.9714 851.719C57.9714 850.176 58.0282 848.585 58.3164 846.849C70.1376 834.506 98.9692 830.937 122.783 829.25C164.416 826.405 181.311 832.529 200.916 839.713ZM57.6818 846.512L57.625 846.608L57.5668 846.753C57.2786 848.489 57.1636 850.127 57.1636 851.719C57.1636 855.336 57.855 858.807 59.1243 862.664C66.043 882.577 86.7448 902.636 107.099 909.242C121.457 913.966 137.315 911.989 152.711 910.11C166.953 908.374 180.33 906.734 192.094 910.013C210.2 915.124 221.617 928.769 232.688 941.932C244.394 955.867 256.445 970.284 276.397 973.804C290.524 975.926 303.901 972.84 315.031 964.98C330.887 953.842 341.209 933.447 341.209 913.051C341.209 899.742 336.884 888.074 328.985 879.251C322.699 872.355 314.108 867.534 305.054 862.52L303.555 861.7C291.735 856.734 277.55 855.046 262.384 853.261C249.295 851.719 235.744 850.127 222.251 846.223C214.294 843.908 207.606 841.449 201.262 839.086C181.599 831.901 164.531 825.73 122.726 828.671C98.7378 830.407 69.618 833.927 57.6818 846.512Z" fill="#385D7D" fill-opacity="0.22"/>
<path fill-rule="evenodd" clip-rule="evenodd" d="M-297.447 988.704C-303.274 983.019 -308.699 976.418 -313.199 971.071C-315.218 968.661 -316.949 966.59 -318.449 964.903C-325.085 957.386 -332.24 950.448 -339.048 943.751C-352.377 930.79 -364.956 918.504 -371.015 904.772C-373.957 897.979 -375.515 890.847 -375.515 882.945C-375.515 868.539 -370.553 853.795 -365.706 839.485C-362.936 831.247 -360.109 822.863 -358.263 814.624C-355.955 804.073 -354.743 793.231 -354.743 782.342C-354.743 773.669 -355.493 764.804 -357.051 756.083C-362.129 726.74 -375.515 696.819 -398.999 661.84C-403.961 654.467 -409.674 647.241 -415.155 640.254C-420.925 633.075 -426.753 625.558 -431.831 617.945C-433.85 614.813 -435.35 611.49 -436.62 608.262C-437.716 605.659 -438.755 603.01 -440.255 600.456C-441.524 598.144 -443.025 595.879 -444.409 593.759C-447.698 588.699 -450.814 584.026 -452.141 578.244C-453.18 573.619 -453.814 568.174 -453.814 563.018C-453.814 557.911 -453.18 550.491 -450.583 544.227C-442.678 525.388 -429.061 508.38 -416.829 494.311C-413.886 490.89 -410.712 487.421 -407.539 484.097C-403.788 479.953 -399.807 475.762 -396.172 471.425C-392.998 467.57 -390.575 463.33 -388.267 459.235C-386.247 455.622 -384.17 451.815 -381.458 448.394C-366.456 428.929 -344.761 412.016 -317.007 398.189C-290.523 385.083 -269.636 376.989 -241.823 392.888C-233.226 397.754 -230.688 403.633 -227.745 412.064C-224.514 421.074 -224.109 430.663 -223.533 439.865C-223.013 450.707 -222.378 461.837 -217.589 472.099C-215.108 477.496 -211.3 482.169 -207.549 486.457C-206.568 487.71 -205.472 488.818 -204.491 489.926C-200.395 494.503 -196.183 499.226 -193.124 504.333C-188.624 512.042 -183.719 519.751 -178.988 527.171C-175.987 531.941 -172.757 536.855 -169.756 541.77C-162.716 553.093 -155.504 564.56 -148.465 575.642C-144.368 582.05 -140.27 588.362 -136.289 594.771L-136.233 594.867C-135.943 595.108 -135.54 595.445 -135.135 595.685C-114.709 626.522 -82.2824 638.375 -50.2587 646.614C-47.8934 647.241 -45.5267 647.866 -43.2196 648.445C-20.8317 654.034 0.286896 659.333 11.9429 678.414C17.7696 687.761 23.3676 704.576 28.4446 728.427C35.7733 762.01 38.0236 793.568 40.619 830.09L40.7921 832.596C33.5798 841.992 23.1362 847.677 11.8848 853.699C6.51816 856.591 0.921509 859.577 -4.21368 863.046C-14.9455 870.226 -25.5623 879.139 -36.6988 888.534C-48.5849 898.364 -60.7023 908.626 -73.3381 916.962C-106.343 938.933 -147.541 954.062 -187.296 968.661C-193.817 971.071 -200.51 973.528 -206.914 975.889C-214.358 978.732 -221.859 982.007 -229.129 985.235C-241.362 990.536 -252.786 995.595 -263.981 998.485C-277.136 1001.86 -286.83 999.112 -297.447 988.704ZM-228.841 985.718C-221.57 982.538 -214.07 979.261 -206.626 976.514C-200.222 974.057 -193.528 971.648 -187.008 969.239C-147.194 954.592 -105.94 939.511 -72.8198 917.443C-60.1827 909.06 -48.0652 898.846 -36.2374 889.017C-24.9859 879.524 -14.4841 870.659 -3.75226 863.528C1.32611 860.059 6.86456 857.12 12.288 854.23C23.5408 848.158 34.2145 842.425 41.5431 832.884L41.5999 832.788L41.3699 830.042C38.7733 793.52 36.5229 761.961 29.1943 728.331C24.0022 704.432 18.4624 687.472 12.6926 678.124C0.806519 658.756 -20.4272 653.504 -42.9883 647.866C-45.2967 647.241 -47.662 646.614 -50.0273 646.084C-81.936 637.893 -114.248 626.041 -134.501 595.3L-134.674 595.204C-135.02 594.963 -135.308 594.723 -135.655 594.433C-139.694 588.122 -143.733 581.761 -147.772 575.353C-154.753 564.223 -162.082 552.756 -169.064 541.433C-172.122 536.518 -175.295 531.7 -178.295 526.883C-183.084 519.462 -187.989 511.753 -192.548 504.092C-195.548 498.84 -199.817 494.167 -203.856 489.589C-204.896 488.433 -205.933 487.277 -206.973 486.12C-210.665 481.88 -214.473 477.207 -216.897 471.81C-221.685 461.74 -222.205 450.61 -222.84 439.865C-223.301 430.567 -223.879 420.978 -226.995 411.92C-229.995 403.343 -232.649 397.369 -241.42 392.359C-269.636 376.217 -290.696 384.409 -317.353 397.61C-345.28 411.535 -367.091 428.495 -382.093 448.009C-384.805 451.526 -386.94 455.332 -388.959 458.993C-391.267 463.089 -393.633 467.281 -396.807 471.039C-400.384 475.424 -404.365 479.664 -408.174 483.76C-411.289 487.084 -414.463 490.457 -417.521 493.926C-429.753 508.092 -443.313 525.051 -451.333 544.035C-453.988 550.347 -454.507 557.863 -454.507 563.018C-454.507 568.222 -453.93 573.715 -452.834 578.341C-451.506 584.218 -448.391 588.988 -445.102 594.048C-443.659 596.168 -442.217 598.384 -440.832 600.697C-439.505 603.25 -438.409 605.901 -437.37 608.406C-435.985 611.779 -434.6 615.103 -432.523 618.235C-427.445 625.943 -421.502 633.412 -415.79 640.592C-410.251 647.578 -404.538 654.756 -399.634 662.177C-376.092 697.06 -362.879 726.981 -357.801 756.131C-356.301 764.852 -355.493 773.669 -355.493 782.342C-355.493 793.183 -356.647 804.023 -359.013 814.528C-360.859 822.718 -363.629 831.102 -366.398 839.293C-371.188 853.651 -376.15 868.443 -376.15 882.945C-376.15 890.944 -374.765 898.123 -371.707 904.965C-365.648 918.793 -353.012 931.128 -339.568 944.184C-332.759 950.882 -325.72 957.724 -319.027 965.24C-317.585 966.927 -315.796 969.047 -313.834 971.456C-309.333 976.756 -303.793 983.405 -298.082 989.09C-287.175 999.69 -277.251 1002.58 -263.691 999.112C-252.556 996.173 -240.958 991.162 -228.841 985.718Z" fill="#385D7D" fill-opacity="0.22"/>
<path fill-rule="evenodd" clip-rule="evenodd" d="M-192.98 219.58L-192.808 219.676C-189.646 221.124 -187.002 222.572 -184.588 223.827C-176.137 228.267 -170.964 230.874 -156.939 232.273C-145.844 233.287 -134.406 232.901 -123.368 232.563C-110.378 232.129 -96.8695 231.646 -83.5911 233.528C-36.5122 240.044 11.9455 271.464 29.19 306.698C30.8571 310.075 32.983 314.757 33.6731 317.943C34.1913 320.501 34.535 322.913 34.535 325.182C34.535 345.84 10.2784 350.618 -13.1176 355.203C-18.3489 356.265 -23.752 357.327 -28.7532 358.533C-48.0086 363.263 -60.7133 369.585 -70.0825 379.094C-79.3949 388.651 -85.4882 401.537 -89.7411 420.794C-91.4082 428.613 -92.2702 435.805 -92.2702 442.803C-92.2702 456.221 -89.2811 469.011 -82.3259 485.661C-82.039 486.385 -81.7508 487.061 -81.4639 487.786C-77.6697 497.004 -74.3937 504.871 -64.1612 510.421C-44.2726 521.088 -12.1406 529.775 10.5653 525.673C32.8679 521.667 37.3522 508.104 41.9503 493.77C42.8704 490.971 43.7906 488.171 44.8244 485.372C46.5497 480.98 48.2736 477.505 50.3439 474.416C64.8293 452.746 77.9928 428.854 91.6732 399.075C103.285 373.785 128.921 361.525 153.466 349.7C177.379 338.165 202.154 326.292 213.939 302.595C215.721 298.975 216.698 294.92 216.698 290.48C216.698 285.219 215.376 279.428 212.788 273.202C205.776 256.309 184.163 241.154 166.113 229.86C137.832 212.147 102.653 190.138 80.0036 164.076C79.4299 163.352 78.8548 162.676 78.3365 162H77.3595C78.0497 162.773 78.7397 163.593 79.4299 164.414C102.078 190.525 137.314 212.581 165.653 230.391C183.646 241.588 205.143 256.695 212.098 273.395C214.629 279.573 215.893 285.316 215.893 290.48C215.893 294.824 215.031 298.782 213.248 302.354C201.522 325.81 176.977 337.683 153.121 349.17C128.346 361.043 102.768 373.447 90.9831 398.882C77.3027 428.613 64.1961 452.503 49.7106 474.127C47.6416 477.215 45.8027 480.739 44.1356 485.227C43.0423 487.978 42.1803 490.826 41.2615 493.577C36.6053 507.767 32.236 521.136 10.3934 525.045C-12.1406 529.1 -43.9857 520.46 -63.7593 509.89C-73.7618 504.485 -77.0378 496.666 -80.717 487.593C-81.062 486.869 -81.3489 486.144 -81.6371 485.42C-88.6491 468.866 -91.5232 456.124 -91.5232 442.803C-91.5232 435.853 -90.7181 428.71 -88.9942 420.988C-80.8888 383.775 -65.5982 368.186 -28.5232 359.161C-23.5788 357.905 -18.1757 356.844 -13.0026 355.83C10.7385 351.197 35.2251 346.323 35.2251 325.182C35.2251 322.865 34.9951 320.405 34.42 317.846C33.673 314.612 31.5459 309.834 29.8788 306.456C21.3716 288.984 5.04715 271.995 -15.9917 258.481C-36.6854 245.112 -60.6552 236.086 -83.4761 232.852C-96.8114 231.067 -110.378 231.501 -123.368 231.935C-134.406 232.322 -145.844 232.659 -156.88 231.598C-170.734 230.343 -175.85 227.64 -184.299 223.248C-186.6 222.09 -189.301 220.642 -192.405 219.097C-204.419 206.693 -210.628 191.973 -210.628 175.37C-210.628 170.978 -210.168 166.537 -209.247 162H-210.053C-210.915 166.537 -211.316 170.978 -211.316 175.37C-211.316 192.166 -205.166 206.983 -192.98 219.58Z" fill="#385D7D" fill-opacity="0.22"/>
<path fill-rule="evenodd" clip-rule="evenodd" d="M-137.504 197.41C-126.218 200.628 -114.528 201.253 -100.994 201.973C-96.3294 202.213 -91.4351 202.405 -86.1375 202.838C-65.6927 204.375 -44.6161 207.641 -24.1726 210.859C-4.01744 214.029 15.0444 217.007 30.0739 217.583H30.2471L30.3621 217.439C32.0901 215.47 33.8181 213.357 33.8181 210.859C33.8181 210.427 33.7598 209.946 33.5866 209.514L33.5298 209.418C29.2106 203.126 25.2377 196.402 21.4367 189.917C16.0228 180.599 10.4951 171.185 3.46956 162.492H2.60487C9.74545 171.233 15.2744 180.791 20.7452 190.158C24.5462 196.642 28.5191 203.414 32.8965 209.706C33.0116 210.09 33.0116 210.427 33.0116 210.763C33.0116 213.068 31.5136 215.086 29.902 216.911C14.9862 216.382 -3.95923 213.405 -24.0576 210.283C-44.501 207.016 -65.5777 203.702 -86.0793 202.213C-91.3769 201.781 -96.2726 201.541 -100.937 201.349C-114.47 200.628 -126.045 200.052 -137.274 196.786C-152.765 192.415 -162.785 181.656 -162.785 169.456C-162.785 167.151 -162.44 164.797 -161.749 162.492H-162.497C-163.132 164.797 -163.477 167.151 -163.477 169.456C-163.477 181.896 -153.284 192.847 -137.504 197.41Z" fill="#385D7D" fill-opacity="0.22"/>
<path fill-rule="evenodd" clip-rule="evenodd" d="M2.59364 410.448C8.66388 411.359 13.6245 414.048 16.9519 418.224C19.2279 421.056 20.3943 424.369 20.3943 428.114C20.3943 443.284 1.83452 460.614 -13.3411 464.215C-28.6317 464.07 -35.4028 452.453 -35.4028 440.979C-35.4028 430.417 -30.2081 420.625 -21.6278 415.44C-14.7416 411.263 -5.28577 409.295 2.59364 410.448ZM-36.2202 440.979C-36.2202 452.79 -29.1581 464.743 -13.3411 464.839H-13.2233C2.24318 461.19 21.0953 443.476 21.0953 428.114C21.0953 424.273 19.9275 420.864 17.6515 417.84C14.1495 413.52 9.01299 410.784 2.76819 409.823C-5.34395 408.623 -15.0325 410.64 -22.0946 414.96C-30.7331 420.193 -36.2202 430.227 -36.2202 440.979Z" fill="#385D7D" fill-opacity="0.22"/>
<path fill-rule="evenodd" clip-rule="evenodd" d="M88.5959 240.497L90.3171 241.118C113.605 249.377 141.596 261.361 151.462 281.222C151.634 282.224 151.747 283.227 151.747 284.182C151.747 294.924 141.136 302.18 130.755 304.616C96.7987 306.334 82.4012 281.842 71.8466 264.034C71.1011 262.841 70.4705 261.552 69.7249 260.454C68.5206 258.401 67.0294 256.3 65.6519 254.199C61.809 248.852 57.966 243.266 57.966 238.11C57.966 237.012 58.1392 235.866 58.5397 234.816C66.6843 232.715 78.3282 236.869 88.5959 240.497ZM57.966 234.338L57.9092 234.482C57.3922 235.58 57.1636 236.869 57.1636 238.11C57.1636 243.41 61.1216 249.091 64.9645 254.534C66.3407 256.586 67.8318 258.687 69.0361 260.74C69.7817 261.886 70.4704 263.079 71.1592 264.321C81.7706 282.32 96.34 306.955 130.87 305.188C141.653 302.753 152.494 295.258 152.494 284.182C152.494 283.227 152.379 282.129 152.149 281.031C142.169 260.883 114.064 248.852 90.604 240.545L88.9396 239.924C78.3864 236.2 66.5707 231.999 58.1392 234.291L57.966 234.338Z" fill="#385D7D" fill-opacity="0.22"/>
<path fill-rule="evenodd" clip-rule="evenodd" d="M406.429 443.315C414.311 447.592 418.225 454.736 418.225 464.507C418.225 468.201 417.706 472.235 416.613 476.707C415.923 479.575 415.175 481.907 414.426 483.851C410.975 492.358 405.221 496.246 392.967 498.191C380.539 500.281 365.407 500.572 351.485 499.065C333.246 497.17 314.719 488.178 314.719 474.665C314.719 468.93 318 463 324.5 457.07C334.166 448.37 348.838 442.245 364.774 440.398C375.246 439.232 397.339 438.26 406.429 443.315ZM323.925 456.632C317.366 462.659 313.971 468.735 313.971 474.665C313.971 488.567 332.785 497.802 351.311 499.746C365.407 501.204 380.596 500.912 393.139 498.871C405.394 496.878 411.608 492.698 415.118 484.047C415.923 482.102 416.671 479.72 417.303 476.852C418.455 472.283 419.03 468.249 419.03 464.507C419.03 454.445 414.886 447.154 406.833 442.732C397.569 437.677 376.051 438.454 364.717 439.767C348.608 441.661 333.649 447.787 323.925 456.632Z" fill="#385D7D" fill-opacity="0.22"/>
<path fill-rule="evenodd" clip-rule="evenodd" d="M418.899 1041.78C410.923 1039.13 405.78 1034.72 405.144 1029.87C404.623 1025.88 404.277 1021.71 404.277 1017.43C404.277 997.361 410.229 977.339 416.529 956.068C420.344 943.103 424.332 929.755 426.874 916.262C427.625 912.325 427.915 907.811 427.915 901.713C427.915 898.737 427.857 895.519 427.798 892.446C427.683 889.278 427.625 886.012 427.625 882.748C427.625 866.086 429.88 849.424 446.582 840.733C467.098 829.978 490.332 833.434 512.756 836.796C518.419 837.66 524.198 838.573 529.748 839.149C555.985 842.125 574.076 858.019 579.45 882.844C581.01 889.662 581.646 896.864 581.646 904.259C581.646 918.759 578.756 933.5 573.266 946.752C563.614 969.896 552.633 984.301 525.007 989.679C504.954 993.617 489.639 999.618 473.63 1009.8C467.388 1013.73 458.488 1020.07 451.956 1027.47C450.512 1029.1 449.356 1031.17 448.2 1033.08C446.467 1036.16 444.617 1039.23 441.958 1041.1C437.161 1044.47 427.683 1044.71 418.899 1041.78ZM448.951 1033.42C450.108 1031.36 451.205 1029.44 452.592 1027.9C459.008 1020.55 467.85 1014.26 474.149 1010.28C489.985 1000.19 505.242 994.193 525.239 990.303C553.153 984.781 564.25 970.281 573.959 946.945C579.45 933.644 582.456 918.855 582.456 904.259C582.456 896.816 581.646 889.614 580.201 882.748C574.768 857.635 556.506 841.501 529.863 838.573C524.315 837.901 518.535 837.036 512.929 836.22C490.332 832.762 466.983 829.258 446.177 840.157C429.244 849.04 426.874 865.894 426.874 882.748C426.874 886.012 426.989 889.326 427.047 892.446C427.162 895.519 427.279 898.737 427.279 901.713C427.279 907.811 426.874 912.277 426.18 916.166C423.579 929.61 419.65 943.007 415.777 955.876C409.536 977.195 403.467 997.313 403.467 1017.43C403.467 1021.71 403.814 1025.93 404.335 1029.92C405.086 1035.01 410.402 1039.61 418.609 1042.4C426.296 1044.9 436.583 1045.67 442.421 1041.63C445.311 1039.61 447.103 1036.45 448.951 1033.42Z" fill="#385D7D" fill-opacity="0.22"/>
<path fill-rule="evenodd" clip-rule="evenodd" d="M531.861 935.125C520.947 930.672 510.791 915.89 508.281 908.842C507.64 907.08 507.348 905.318 507.348 903.605C507.348 898.906 509.624 894.404 513.885 890.977C518.204 887.404 523.982 885.397 529.469 885.545C536.355 885.691 542.075 889.118 545.344 895.138C545.927 896.116 546.452 897.194 546.921 898.27C548.321 901.941 549.896 909.772 549.896 917.359C549.896 927.539 547.153 934 542.193 935.664C538.982 936.789 535.48 936.593 531.861 935.125ZM550.655 917.359C550.655 909.723 549.079 901.746 547.678 898.074C547.212 896.997 546.687 895.823 546.103 894.844C542.66 888.628 536.706 885.055 529.469 884.908C523.807 884.81 517.795 886.914 513.418 890.488C507.348 895.382 505.13 902.332 507.524 908.989C510.15 916.134 520.364 931.21 531.511 935.664C535.422 937.23 539.041 937.426 542.425 936.252C549.197 933.951 550.655 924.7 550.655 917.359Z" fill="#385D7D" fill-opacity="0.22"/>
<path fill-rule="evenodd" clip-rule="evenodd" d="M835.239 722.572C833.513 722.716 831.728 722.668 829.828 722.62C827.87 722.572 825.913 722.523 823.898 722.717C811.638 723.925 796.612 728.131 780.782 732.528C764.548 737.071 747.854 741.711 731.793 743.934C725.059 744.852 717.806 745.481 710.782 746.06C687.813 747.897 664.212 749.782 653.677 763.267C648.843 769.356 646.655 778.249 646.655 791.249C646.655 798.499 647.288 806.329 647.921 814.062C648.151 817.009 648.439 820.054 648.669 823.003C650.569 849.584 658.8 904.874 676.186 924.207C699.961 950.546 740.774 953.689 777.673 953.253C824.072 950.16 850.033 923.53 876.226 894.241V893.178C849.918 922.66 824.072 949.483 777.615 952.721C741.004 953.108 700.363 949.919 676.819 923.771C659.492 904.681 651.318 849.488 649.36 822.954C649.245 820.006 648.899 816.961 648.669 813.964C647.978 806.281 647.345 798.451 647.345 791.249C647.345 778.346 649.533 769.598 654.253 763.605C664.615 750.41 688.045 748.526 710.84 746.64C717.863 746.108 725.174 745.529 731.909 744.563C748.027 742.339 764.779 737.651 781.07 733.156C796.842 728.71 811.753 724.505 823.957 723.393C825.913 723.2 827.928 723.248 829.77 723.297C831.728 723.345 833.569 723.393 835.296 723.2C847.385 721.896 861.777 723.297 876.226 726.729V726.052C861.719 722.668 847.27 721.267 835.239 722.572Z" fill="#385D7D" fill-opacity="0.22"/>
<path fill-rule="evenodd" clip-rule="evenodd" d="M828.302 755.992C821.043 757.147 812.287 759.359 802.954 761.714C789.475 765.031 774.268 768.925 758.773 770.849C754.394 771.378 750.246 771.858 746.157 772.34C719.716 775.369 698.863 777.772 685.038 792.532C675.648 802.581 670.003 821.33 670.003 842.774C670.003 868.831 677.895 893.063 691.086 907.583C712.746 931.478 750.938 932.438 779.164 929.073C809.291 923.785 824.729 905.756 844.488 882.918C853.589 872.246 863.094 861.188 875.249 849.986C875.537 849.696 875.941 849.408 876.227 849.12V848.158C875.767 848.687 875.191 849.12 874.731 849.6C862.519 860.85 852.609 872.342 843.855 882.486C824.326 905.227 808.831 923.256 779.05 928.449C750.996 931.862 713.15 930.948 691.663 907.197C678.586 892.822 670.81 868.687 670.81 842.774C670.81 821.475 676.282 802.917 685.614 792.917C699.266 778.301 719.947 775.993 746.214 773.012C750.305 772.484 754.567 772.05 758.829 771.474C774.383 769.503 789.706 765.704 803.128 762.339C812.46 759.983 821.215 757.771 828.417 756.666C843.855 754.214 860.732 755.128 876.227 759.118V758.493C860.674 754.502 843.74 753.541 828.302 755.992Z" fill="#385D7D" fill-opacity="0.22"/>
<path fill-rule="evenodd" clip-rule="evenodd" d="M804.99 810.318C811.059 814.169 815.972 817.923 820.019 821.918C820.655 825.576 821.002 829.379 821.002 833.182C821.002 862.976 799.555 898.884 759.96 906.874C728.803 908.173 715.97 901.145 705.334 889.449C697.126 880.352 692.213 866.586 692.213 852.579C692.213 834.914 699.67 819.992 712.617 811.618C730.71 799.873 764.41 799.44 804.99 810.318ZM691.403 852.579C691.403 866.682 696.375 880.592 704.756 889.737C715.507 901.675 728.514 908.847 760.018 907.547C800.133 899.413 821.753 863.168 821.753 833.182C821.753 829.283 821.406 825.48 820.655 821.774V821.678V821.63C816.608 817.538 811.58 813.64 805.394 809.789L805.221 809.741C764.41 798.766 730.48 799.296 712.212 811.137C698.976 819.559 691.403 834.722 691.403 852.579Z" fill="#385D7D" fill-opacity="0.22"/>
<path fill-rule="evenodd" clip-rule="evenodd" d="M805.029 1006.89C777.712 1011.67 749.588 1016.49 727.158 1031.45C715.656 1039.13 711.227 1048.58 713.298 1060.6C717.67 1085.31 744.297 1114.65 758.676 1130.47C780.646 1148.14 807.216 1154.75 839.882 1150.84C851.557 1149.44 863.979 1146.69 876.229 1143.84V1143.17C863.922 1146.06 851.442 1148.86 839.767 1150.21C807.331 1154.12 780.932 1147.51 759.193 1130.04C744.987 1114.36 718.36 1085.06 714.103 1060.5C713.758 1058.62 713.586 1056.79 713.586 1055.05C713.586 1045.83 718.187 1038.26 727.676 1031.98C749.933 1017.12 777.942 1012.2 805.146 1007.52C829.588 1003.32 854.893 998.976 875.309 987.202C875.712 987.009 875.943 986.864 876.229 986.622V985.851C875.827 986.14 875.367 986.429 874.907 986.72C854.605 998.349 829.414 1002.69 805.029 1006.89Z" fill="#385D7D" fill-opacity="0.22"/>
<path fill-rule="evenodd" clip-rule="evenodd" d="M747.882 849.229C752.434 851.427 755.061 854.993 755.061 858.901C755.061 860.073 754.828 861.245 754.361 862.466C753.31 863.248 752.318 864.127 751.559 864.859C750.042 865.983 748.175 866.52 746.015 866.374C742.98 866.08 739.711 864.469 737.727 862.369C737.142 861.098 736.968 859.926 736.968 858.754C736.968 855.042 739.653 851.477 744.146 849.181C745.256 849.131 746.598 849.131 747.882 849.229ZM743.972 848.497L743.855 848.545C739.069 850.987 736.151 854.797 736.151 858.754C736.151 860.024 736.443 861.343 737.026 862.564L737.084 862.612C739.244 865.007 742.688 866.667 745.957 866.96C748.291 867.155 750.451 866.57 752.084 865.299C752.901 864.469 753.836 863.638 754.945 862.808L755.003 862.76V862.662C755.586 861.44 755.878 860.17 755.878 858.901C755.878 854.749 752.961 850.89 748.175 848.594L747.999 848.545C746.656 848.448 745.198 848.497 744.03 848.497H743.972Z" fill="#385D7D" fill-opacity="0.22"/>
<path fill-rule="evenodd" clip-rule="evenodd" d="M786.731 1083.93C786.731 1084.84 786.731 1085.76 786.845 1086.72C787.702 1095.3 792.439 1102.91 800.486 1108.69C812.072 1116.93 829.821 1120.59 850.366 1119C858.3 1118.37 866.404 1117.26 874.28 1115.77V1115.14C866.347 1116.64 858.3 1117.74 850.309 1118.37C829.935 1119.91 812.414 1116.35 800.942 1108.21C793.009 1102.57 788.329 1095.1 787.53 1086.67C787.473 1085.71 787.416 1084.84 787.416 1083.93C787.416 1058.4 823.486 1048.91 855.16 1040.62C861.838 1038.84 868.401 1037.15 874.28 1035.37V1034.7C868.401 1036.53 861.724 1038.21 854.933 1039.99C822.972 1048.38 786.731 1057.87 786.731 1083.93Z" fill="#385D7D" fill-opacity="0.22"/>
<path fill-rule="evenodd" clip-rule="evenodd" d="M803.173 395.531C786.877 402.941 769.946 410.689 752.439 416.801C742.879 420.217 732.399 423.248 721.284 426.521C673.775 440.332 619.93 455.971 619.93 504.478V506.402C620.449 524.015 627.821 540.616 633.981 551.395C635.364 554.042 636.861 556.786 638.474 559.481C642.908 567.613 647.514 576.034 652.525 583.589C667.094 605.629 674.178 630.941 681.089 655.29L681.146 655.627C681.779 657.696 682.355 659.909 682.874 662.268C687.02 678.629 692.26 698.984 715.007 705.433C732.514 710.388 754.974 705.817 776.625 701.438C784.572 699.851 792.059 698.359 799.142 697.3C823.674 693.787 846.882 693.498 867.959 696.674C870.665 697.108 873.43 697.54 876.252 698.117V697.444C873.488 696.914 870.78 696.482 868.074 696.049C846.94 692.968 823.618 693.162 799.027 696.722C791.886 697.781 784.4 699.273 776.453 700.86C754.857 705.288 732.514 709.715 715.238 704.854C692.835 698.503 687.768 678.34 683.68 662.123C683.047 659.765 682.47 657.551 681.894 655.483L681.837 655.193C674.926 630.699 667.786 605.339 653.216 583.252C648.264 575.794 643.598 567.372 639.049 559.239C637.609 556.496 636.113 553.802 634.615 551.155C628.511 540.424 621.197 523.822 620.679 506.402C620.622 505.729 620.622 505.055 620.622 504.478C620.622 456.452 674.235 440.86 721.572 427.05C732.629 423.874 743.167 420.795 752.784 417.426C770.348 411.219 787.222 403.567 803.634 396.108C817.512 389.755 830.643 383.741 844.176 378.544C857.651 373.442 868.304 368.053 876.251 362.375V361.509C868.362 367.38 857.594 372.769 843.888 378.063C830.355 383.164 817.167 389.178 803.173 395.531Z" fill="#385D7D" fill-opacity="0.22"/>
<path fill-rule="evenodd" clip-rule="evenodd" d="M661.664 179.435C679.635 219.521 713.625 246.325 759.959 256.853C772.878 259.799 789.413 261.828 805.375 263.856C825.241 266.368 845.738 268.976 859.976 273.129C866.121 275.013 871.517 277.524 876.225 280.856V280.084C871.517 276.896 866.234 274.337 860.264 272.598C845.91 268.3 825.412 265.74 805.49 263.228C789.528 261.2 772.935 259.123 760.131 256.226C714.141 245.745 680.267 219.134 662.352 179.194C660.86 175.91 659.022 170.259 657.875 165.429C657.645 164.319 657.358 163.159 657.185 162H656.381C656.669 163.208 656.841 164.367 657.128 165.574C658.277 170.404 660.171 176.103 661.664 179.435Z" fill="#385D7D" fill-opacity="0.22"/>
<path fill-rule="evenodd" clip-rule="evenodd" d="M318.038 218.321C321.493 231.148 328.861 243.444 336.114 255.402C343.308 267.361 350.793 279.657 354.016 292.388C362.477 325.322 328.112 337.522 297.661 348.227C293.286 349.817 289.142 351.265 285.17 352.711C269.226 358.835 254.662 365.778 241.883 373.446C216.094 388.828 195.487 406.525 180.693 426.15C167.052 444.281 159.568 459.567 157.266 474.177C153.525 497.854 162.274 514.683 172.347 534.115C174.535 538.31 176.837 542.699 178.967 547.135C185.126 559.961 192.149 574.523 207.461 584.457C218.916 591.883 232.846 597.525 246.316 602.926L249.366 604.179C274.119 614.209 298.583 621.538 324.428 629.302C330.299 631.086 336.229 632.821 342.1 634.509C358.102 639.187 374.681 643.961 390.395 649.843C402.368 654.232 412.787 660.935 422.86 667.396C428.501 671.013 434.316 674.725 440.302 677.957C455.498 686.298 468.739 699.366 481.575 711.999C486.238 716.58 490.612 720.92 495.044 724.97C497.75 727.526 500.57 730.179 503.507 733.119C516.976 746.188 532.288 761.039 551.685 764.945C554.277 765.476 556.81 765.909 559.285 766.392C580.985 770.587 599.809 774.251 613.393 792.431C626.231 809.646 630.432 830.525 634.059 848.945C635.843 857.673 637.167 866.496 638.548 875.032C640.966 890.848 643.326 905.748 647.586 919.25C657.429 950.159 682.987 968.965 723.741 975.233C763.459 981.309 811.986 975.137 831.845 968.29C849.689 962.118 863.676 951.701 876.225 939.213V938.2C863.676 950.883 849.516 961.442 831.498 967.712C811.813 974.51 763.459 980.73 723.856 974.654C683.447 968.386 658.005 949.774 648.334 919.105C644.016 905.604 641.715 890.704 639.24 874.936C637.973 866.4 636.592 857.577 634.865 848.848C631.122 830.381 626.979 809.453 614.027 792.093C600.212 773.673 581.332 770.056 559.457 765.813C556.982 765.331 554.392 764.8 551.859 764.319C532.69 760.461 517.551 745.705 504.082 732.686C501.147 729.793 498.325 727.044 495.562 724.537C491.187 720.486 486.756 716.195 482.15 711.565C469.257 698.931 456.016 685.816 440.705 677.474C434.719 674.195 428.963 670.482 423.321 666.913C413.19 660.452 402.713 653.701 390.74 649.265C375.026 643.334 358.39 638.56 342.33 633.883C336.517 632.195 330.531 630.459 324.659 628.723C298.871 620.96 274.464 613.582 249.654 603.552L246.604 602.395C233.133 596.995 219.319 591.352 207.863 583.879C192.782 574.09 185.818 559.623 179.715 546.894C177.47 542.409 175.225 538.069 173.039 533.874C162.964 514.537 154.215 497.806 157.956 474.225C160.316 459.712 167.684 444.522 181.327 426.44C196.064 406.958 216.556 389.261 242.401 373.928C255.065 366.309 269.628 359.414 285.515 353.338C289.43 351.843 293.575 350.348 297.949 348.805C312.628 343.597 329.264 337.762 340.833 329.132C354.016 319.198 358.621 307.143 354.821 292.195C351.541 279.513 344 267.12 336.747 255.113C329.609 243.203 322.126 230.859 318.845 218.177C313.262 197.249 319.708 178.106 326.501 162H325.753C318.96 178.154 312.57 197.297 318.038 218.321Z" fill="#385D7D" fill-opacity="0.22"/>
<path fill-rule="evenodd" clip-rule="evenodd" d="M601.63 251.53C618.932 266.492 635.315 280.633 641.695 299.118C650.721 324.89 628.187 344.341 606.286 363.164C604.964 364.322 603.584 365.48 602.262 366.639C591.225 376.195 582.89 387.633 574.843 398.734C569.093 406.649 563.058 414.902 556.16 422.286C550.928 427.837 546.1 433.725 541.444 439.469C538.167 443.33 534.948 447.287 531.672 451.051C526.21 457.374 517.531 461.718 509.138 466.013C504.655 468.331 499.883 470.695 495.917 473.398C484.823 480.637 476.372 490.87 468.21 500.812C453.263 519.007 439.123 536.189 409.805 537.443C392.331 538.119 370.659 534.837 350.31 528.37C331.053 522.192 310.186 510.56 292.999 496.372C281.329 486.719 275.869 476.921 276.846 467.268C278.57 450.086 300.184 435.414 318.867 424.507C329.846 418.088 340.423 415.53 351.632 412.923C358.185 411.379 364.796 409.739 371.924 407.325C378.994 404.863 385.951 401.871 392.676 399.12C403.31 394.584 414.232 389.999 425.959 387.15C445.561 382.324 473.958 381.359 490.341 388.84C506.207 396.079 533.109 392.653 547.192 385.027C559.954 378.077 568.116 360.75 574.669 346.803C576.165 343.617 577.602 340.721 578.865 338.067C579.556 336.86 580.187 335.557 580.878 334.399C583.235 329.862 585.362 326.049 586.396 321.657C591.685 300.035 579.326 285.073 548.686 276.096C516.496 266.588 487.179 273.152 466.14 294.581C459.76 301.048 454.874 308.529 450.159 315.72C448.033 318.954 445.791 322.381 443.491 325.614C442.859 326.483 442.342 327.304 441.652 328.173C434.983 337.585 426.648 349.263 416.992 355.731C402.505 365.383 386.869 373.299 370.372 379.284C361.921 382.324 353.357 384.738 344.16 387.248C337.607 389.082 330.88 390.964 324.04 393.135C308.404 398.059 294.551 405.588 285.698 410.993C269.201 421.176 247.012 439.517 238.906 457.712C226.203 486.574 260.118 525.426 285.928 544.49C300.414 555.205 318.464 562.155 334.214 567.56C338.469 569.008 342.837 570.408 347.034 571.903C370.602 579.771 392.906 587.251 413.485 599.703C420.096 603.71 427.166 606.991 434.007 610.225C438.893 612.493 444.066 614.858 448.952 617.513C461.427 624.221 468.784 634.405 474.992 644.444C477.866 649.029 480.512 653.855 483.098 658.488C490.513 671.857 498.273 685.661 510.92 696.955C519.025 704.098 527.532 706.945 536.328 705.4C550.928 702.94 561.908 689.329 567.139 677.409C578.177 652.697 574.152 624.028 570.588 598.786L570.186 595.553C569.898 593.525 569.668 591.547 569.381 589.568C568.059 578.42 566.794 567.898 559.609 557.328C558.459 555.639 557.31 553.997 556.218 552.309C545.353 536.334 535.926 522.53 531.096 504.19C528.051 492.704 528.337 475.618 536.098 465.193C539.949 459.98 545.755 457.761 551.963 455.443C555.758 453.996 559.666 452.5 563.173 450.328C576.797 441.592 587.546 429.72 598.009 418.281C608.125 407.084 618.702 395.404 631.981 386.668C639.914 381.407 649.743 377.063 659.171 372.769C668.655 368.521 678.428 364.081 685.958 359.061C701.249 348.637 706.538 334.495 700.847 319.003C695.845 305.633 682.279 290.769 669.23 276.434C667.218 274.214 665.206 272.09 663.309 269.967C656.584 262.486 649.514 255.15 642.673 248.103C623.875 228.653 606.056 210.313 596.053 189.608C592.144 181.403 589.27 172.04 586.971 162.001H586.166C588.523 172.136 591.34 181.596 595.421 189.849C605.366 210.602 623.3 229.039 642.098 248.538C648.938 255.584 655.952 262.824 662.677 270.353C664.632 272.476 666.586 274.648 668.598 276.724C681.647 291.058 695.155 305.874 700.1 319.195C705.733 334.399 700.558 348.346 685.441 358.531C678.026 363.501 668.713 367.749 658.883 372.189C649.342 376.485 639.454 380.973 631.579 386.185C618.185 395.066 607.608 406.649 597.375 417.895C586.971 429.333 576.28 441.109 562.655 449.797C559.322 451.92 555.413 453.417 551.677 454.865C545.41 457.277 539.49 459.546 535.466 464.807C527.532 475.424 527.245 492.752 530.35 504.334C535.293 522.771 544.663 536.623 555.584 552.647C556.676 554.288 557.77 556.025 559.034 557.666C566.047 568.091 567.254 578.516 568.634 589.665C568.921 591.595 569.208 593.623 569.381 595.65L569.898 598.835C573.405 624.076 577.372 652.601 566.449 677.215C559.896 691.984 547.997 702.843 536.156 704.822C527.647 706.269 519.312 703.47 511.495 696.472C498.963 685.323 491.203 671.52 483.729 658.247C481.2 653.566 478.5 648.74 475.682 644.107C469.474 634.067 461.944 623.739 449.297 616.933C444.411 614.375 439.353 611.963 434.408 609.646C427.568 606.461 420.498 603.13 413.945 599.173C393.308 586.624 370.947 579.191 347.321 571.277C343.067 569.877 338.814 568.429 334.444 566.933C318.809 561.527 300.874 554.625 286.445 544.055C260.75 525.089 227.007 486.526 239.653 457.953C247.644 439.855 269.776 421.611 286.215 411.523C295.011 406.071 308.749 398.589 324.327 393.667C331.11 391.494 337.894 389.612 344.39 387.826C353.587 385.316 362.21 382.952 370.602 379.863C387.215 373.878 402.908 365.915 417.451 356.262C427.223 349.698 435.559 337.97 442.342 328.558C442.859 327.641 443.491 326.822 444.181 325.905C446.48 322.719 448.665 319.244 450.849 316.011C455.505 308.819 460.335 301.434 466.657 294.967C487.524 273.828 516.553 267.312 548.457 276.675C578.75 285.556 590.88 300.276 585.707 321.561C584.614 325.807 582.603 329.669 580.187 334.158C579.556 335.316 578.865 336.618 578.175 337.826C576.853 340.432 575.531 343.424 574.037 346.561C567.426 360.461 559.379 377.691 546.79 384.497C532.879 391.977 506.437 395.404 490.743 388.309C474.245 380.828 445.503 381.746 425.729 386.572C414.003 389.371 403.023 394.052 392.331 398.493C385.606 401.34 378.649 404.236 371.579 406.697C364.566 409.159 357.899 410.752 351.402 412.296C340.136 414.95 329.558 417.46 318.407 423.976C299.667 434.979 277.823 449.797 276.099 467.22C275.064 477.066 280.582 487.008 292.424 496.806C309.726 511.092 330.708 522.772 350.023 528.949C370.487 535.465 392.331 538.747 409.864 538.071C439.525 536.817 454.355 518.717 468.784 501.198C476.947 491.304 485.397 481.072 496.376 473.832C500.285 471.226 504.77 468.957 509.541 466.545C517.933 462.249 526.614 457.809 532.247 451.486C535.581 447.625 538.857 443.619 542.019 439.806C546.732 434.16 551.618 428.271 556.735 422.721C563.69 415.289 569.668 407.036 575.416 399.072C583.522 387.971 591.8 376.581 602.837 367.121C604.159 365.867 605.424 364.805 606.861 363.598C628.82 344.678 651.582 325.036 642.443 298.925C636.005 280.343 619.564 266.106 602.205 251.047C585.706 236.81 568.576 222.041 558.632 202.156C552.309 189.415 548.629 175.563 545.353 162.001H544.548C547.824 175.66 551.562 189.559 558 202.398C567.944 222.379 585.074 237.147 601.63 251.53Z" fill="#385D7D" fill-opacity="0.22"/>
<path fill-rule="evenodd" clip-rule="evenodd" d="M377.954 228.296C380.544 238.517 386.701 248.98 393.203 260.021C403.963 278.391 415.125 297.34 408.623 314.793C396.943 346.181 357.125 358.235 322.026 368.89C314.834 371.108 308.102 373.133 301.6 375.35C287.156 380.172 273.693 386.295 261.839 393.479C243.312 404.617 231.861 418.311 219.778 432.823C217.994 435.041 216.096 437.21 214.254 439.477C203.437 452.253 192.733 467.826 195.842 485.811C196.82 491.452 200.387 497.334 203.897 502.975C206.14 506.543 208.154 509.967 209.594 513.245C210.686 515.705 211.779 518.211 212.931 520.718C221.159 540.004 229.848 559.917 248.432 573.611C253.784 577.515 260.746 580.891 267.362 584.169C270.931 585.856 274.153 587.448 277.318 589.087C289.746 595.933 303.44 601.767 318.056 606.637C333.936 611.796 350.968 614.882 367.482 617.775C385.319 621.005 403.79 624.284 420.534 630.262C437.739 636.434 450.11 652.73 460.927 667.146C463.919 671.052 466.739 674.765 469.559 678.043C477.671 687.831 487.511 696.365 497.063 704.513C503.335 709.866 509.836 715.458 515.762 721.341C529.457 734.937 552.876 741.012 576.87 737.299C618.873 730.694 625.837 717 631.705 687.349C636.136 664.736 635.1 638.411 628.54 606.974C624.743 588.846 610.761 571.586 597.354 554.951C592.406 548.876 587.744 543.186 583.774 537.594C566.915 514.258 570.483 486.486 593.154 463.487C596.031 460.498 598.908 457.557 601.669 454.567C618.413 437.066 634.179 420.48 659.324 411.705C670.257 407.799 681.937 405.244 693.272 402.736C704.378 400.326 715.828 397.868 726.703 394.058C742.987 388.417 760.998 377.375 773.771 365.177C784.818 354.667 796.729 338.755 791.148 322.652C785.912 307.657 765.601 298.882 744.139 289.528C730.502 283.55 716.461 277.378 704.781 269.23C689.532 258.623 675.78 244.448 666.747 234.708L665.768 233.696C646.436 212.819 628.137 193.147 621.923 167.015C621.463 165.375 621.175 163.688 620.888 162H620.082C620.427 163.736 620.773 165.424 621.175 167.207C627.39 193.436 645.744 213.204 665.136 234.033L666.115 235.142C675.148 244.882 689.015 259.057 704.263 269.712C716.001 277.909 730.155 284.032 743.792 290.058C765.14 299.365 785.279 308.139 790.4 322.845C795.982 338.611 784.185 354.329 773.253 364.744C760.709 376.701 742.354 388.031 726.415 393.479C715.598 397.24 704.148 399.747 693.157 402.11C681.765 404.617 670.027 407.173 659.036 411.078C633.719 419.997 617.148 437.404 601.094 454.278C598.333 457.123 595.454 460.161 592.578 463.054C569.677 486.39 566.167 514.354 583.084 537.931C587.169 543.572 591.772 549.261 596.664 555.24C610.128 571.923 623.995 589.087 627.792 607.071C634.409 638.459 635.445 664.688 630.9 687.252C625.145 716.567 618.241 730.115 576.697 736.673C552.991 740.386 529.86 734.311 516.338 720.954C510.353 715.073 503.851 709.431 497.58 704.031C488.086 695.883 478.189 687.445 470.134 677.706C467.372 674.428 464.552 670.667 461.56 666.809C450.685 652.345 438.314 635.952 420.879 629.684C404.02 623.657 385.493 620.378 367.655 617.148C351.141 614.207 334.166 611.217 318.401 606.01C303.843 601.189 290.148 595.355 277.721 588.605C274.613 586.87 271.276 585.278 267.766 583.59C261.149 580.36 254.302 576.985 248.95 573.08C230.48 559.484 221.906 539.667 213.621 520.525C212.471 518.019 211.377 515.511 210.341 512.956C208.845 509.63 206.601 506.158 204.53 502.735C201.077 497.093 197.51 491.259 196.589 485.715C193.54 467.924 204.127 452.542 214.887 439.814C216.786 437.548 218.512 435.427 220.353 433.208C232.494 418.696 243.83 405.052 262.242 394.01C274.096 386.826 287.501 380.799 301.945 375.929C308.332 373.76 315.121 371.735 322.314 369.517C357.585 358.813 397.576 346.711 409.372 314.938C415.93 297.291 404.71 278.15 393.836 259.732C387.334 248.69 381.292 238.276 378.702 228.199C375.021 213.879 373.582 187.458 374.329 162H373.524C372.891 187.506 374.329 213.976 377.954 228.296Z" fill="#385D7D" fill-opacity="0.22"/>
<path fill-rule="evenodd" clip-rule="evenodd" d="M-223.557 241.764C-209.334 258.921 -189.121 269.235 -163.667 272.367C-153.705 273.572 -142.82 272.656 -132.34 271.693C-121.34 270.68 -109.938 269.668 -99.2268 271.114C-86.9023 272.753 -75.9039 278.295 -71.0082 285.283C-67.4954 290.247 -67.0935 295.693 -69.6848 301.428C-95.4258 319.983 -112.53 335.116 -123.701 357.959C-126.811 364.513 -129.575 371.116 -132.627 379.309C-134.125 383.358 -135.738 387.357 -137.234 391.309C-146.966 416.081 -156.986 441.768 -152.84 483.552C-150.882 503.6 -146.448 518.686 -130.554 531.891C-120.015 540.566 -107.347 547.168 -95.1376 553.433C-86.3272 558.011 -77.1704 562.734 -68.9933 568.132C-64.8472 570.927 -60.758 574.156 -56.7852 577.337C-50.853 582.012 -44.8071 586.88 -38.0116 590.446C-24.0173 597.868 -0.694321 598.205 15.0266 595.41C35.5282 591.747 53.1489 580.759 69.4463 569.771C73.4773 567.071 77.9116 564.469 82.5773 561.674C95.1887 554.301 108.203 546.685 114.941 536.084C122.254 524.469 122.313 510.926 121.218 498.01C120.873 493.576 119.375 489.046 118.05 484.613C115.977 478.155 113.731 471.504 115.171 465.046C120.066 442.105 139.127 416.129 155.367 399.503C164.121 390.49 174.026 382.297 184.851 375.212C193.26 369.622 201.782 364.321 210.882 358.634C226.373 348.947 242.439 338.922 258.276 327.501C273.075 316.946 287.011 303.115 278.086 281.476C272.96 269.186 264.207 258.632 255.57 248.801C242.785 234.246 224.818 221.041 207.369 208.318C191.417 196.655 176.329 185.619 167.115 174.727C164.581 171.787 162.22 168.269 160.665 162.63H159.917C161.471 168.413 163.948 172.124 166.481 175.112C175.811 186.1 190.84 197.089 206.966 208.8C224.241 221.475 242.267 234.632 254.993 249.138C263.919 259.259 272.327 269.476 277.336 281.669C286.205 303.018 272.384 316.609 257.815 327.068C241.979 338.393 225.911 348.465 210.42 358.104C201.322 363.791 192.741 369.189 184.391 374.731C173.565 381.815 163.603 390.008 154.734 399.164C138.494 415.84 119.318 441.913 114.422 464.95C113.041 471.552 115.171 478.251 117.302 484.805C118.627 489.191 120.123 493.673 120.47 498.058C121.506 510.878 121.506 524.324 114.249 535.842C107.627 546.252 94.6704 553.867 82.2309 561.192C77.5084 563.94 73.0172 566.542 68.928 569.288C52.8039 580.181 35.24 591.217 14.8534 594.783C-0.752533 597.531 -23.7872 597.193 -37.6083 589.916C-44.3456 586.397 -50.3929 581.578 -56.3237 576.856C-60.2398 573.723 -64.329 570.398 -68.5319 567.698C-76.7672 562.156 -85.8658 557.482 -94.7343 552.951C-107.001 546.589 -119.555 540.083 -129.978 531.408C-145.699 518.348 -150.192 503.408 -152.15 483.504C-156.181 441.816 -146.218 416.177 -136.486 391.454C-134.988 387.551 -133.433 383.502 -131.878 379.502C-128.827 371.309 -126.119 364.706 -122.953 358.248C-111.953 335.453 -94.8493 320.32 -69.1083 301.91L-69.0501 301.862L-68.9933 301.765C-66.3438 295.741 -66.8053 290.102 -70.3181 284.946C-75.3274 277.813 -86.6154 272.126 -99.1117 270.488C-109.88 269.042 -121.34 270.102 -132.397 271.066C-142.878 271.982 -153.705 272.897 -163.552 271.741C-188.832 268.656 -208.816 258.439 -222.924 241.427C-239.106 222.005 -246.593 194.824 -245.153 162.63H-245.958C-247.341 194.968 -239.798 222.246 -223.557 241.764Z" fill="#385D7D" fill-opacity="0.22"/>
<path fill-rule="evenodd" clip-rule="evenodd" d="M792.971 232.111C808.008 234.47 823.507 235.529 838.545 236.637C851.681 237.552 864.358 238.467 876.226 240.152V239.526C864.3 237.841 851.566 236.926 838.603 236.011C823.564 234.903 808.065 233.796 793.086 231.436C740.885 223.299 709.657 201.485 702.858 168.308C702.398 166.141 702.109 164.071 701.878 162H701.13C701.303 164.119 701.59 166.189 702.11 168.452C708.966 201.871 740.367 223.876 792.971 232.111Z" fill="#385D7D" fill-opacity="0.22"/>
<path fill-rule="evenodd" clip-rule="evenodd" d="M834.635 416.554C819.197 420.215 803.298 426.136 787.975 431.866L785.335 432.877C775.176 436.584 764.329 439.617 752.85 442.844C729.377 449.391 705.1 456.131 687.596 469.565C672.156 481.457 663.261 500.861 663.261 522.865C663.261 535.189 666.073 547.034 671.468 557.097C677.838 568.989 685.356 578.619 694.597 586.563C702.23 593.207 706.248 602.884 710.208 612.225C712.733 618.485 715.488 624.936 719.219 630.57C730.755 647.613 746.881 658.302 765.993 661.528C783.728 664.513 806.685 664.224 828.781 663.888C842.269 663.742 856.215 663.502 869.128 664.032C871.367 664.128 873.834 664.273 876.245 664.417V663.79C873.834 663.646 871.424 663.502 869.128 663.406C856.273 662.876 842.269 663.069 828.781 663.261C806.685 663.598 783.786 663.888 766.108 660.902C747.283 657.725 731.271 647.132 719.85 630.232C716.177 624.696 713.479 618.244 710.897 612.033C706.936 602.644 702.919 592.918 695.114 586.13C685.988 578.233 678.47 568.651 672.156 556.808C666.819 546.793 664.006 535.093 664.006 522.865C664.006 501.053 672.845 481.794 688.17 469.999C705.559 456.71 729.721 449.92 753.137 443.469C764.559 440.196 775.521 437.21 785.622 433.454L788.262 432.395C803.643 426.714 819.427 420.84 834.865 417.181C843.532 415.11 853.116 413.329 862.414 411.547C867.177 410.681 871.768 409.814 876.245 408.947V408.274C871.768 409.189 867.062 410.055 862.242 410.97C852.944 412.655 843.302 414.437 834.635 416.554Z" fill="#385D7D" fill-opacity="0.22"/>
<path fill-rule="evenodd" clip-rule="evenodd" d="M848.071 445.131C835.863 446.625 822.044 448.361 809.952 452.506C804.999 454.145 800.911 456.7 796.88 459.207C793.886 461.135 790.776 463.015 787.264 464.557C782.312 466.824 776.783 468.607 770.852 470.487C754.153 475.982 736.879 481.575 731.985 497.001C730.833 500.664 730.315 505.485 730.315 511.703C730.315 518.259 730.948 525.153 731.581 531.322C731.696 533.781 731.926 536.047 732.158 538.168C733.654 558.173 742.753 579.529 756.63 595.436C773.271 614.622 801.313 620.118 821.122 622.624C835.288 624.505 856.305 626.192 874.041 620.455C874.789 620.166 875.538 619.926 876.229 619.684V618.961C875.423 619.25 874.616 619.587 873.753 619.876C856.247 625.565 835.288 623.829 821.18 622.047C801.602 619.539 773.674 614.044 757.206 595.051C743.443 579.24 734.346 557.932 732.848 538.12C732.733 535.999 732.503 533.733 732.273 531.274C731.696 525.105 731.006 518.211 731.006 511.703C731.006 505.581 731.639 500.808 732.791 497.145C737.57 482.008 754.672 476.465 771.083 471.114C777.13 469.186 782.599 467.354 787.61 465.136C791.121 463.593 794.231 461.618 797.284 459.737C801.313 457.278 805.402 454.724 810.182 453.084C822.217 448.987 835.978 447.252 848.186 445.757C856.824 444.648 866.497 444.215 876.229 444.263V443.684C866.439 443.588 856.765 444.071 848.071 445.131Z" fill="#385D7D" fill-opacity="0.22"/>
<path fill-rule="evenodd" clip-rule="evenodd" d="M757.744 163.077V163.125C760.977 192.809 799.821 209.427 876.237 213.846V213.174C800.282 208.803 761.727 192.424 758.495 163.125C758.552 162.933 758.61 162.693 758.61 162.501H757.859C757.802 162.645 757.744 162.885 757.744 163.077Z" fill="#385D7D" fill-opacity="0.22"/>
<path fill-rule="evenodd" clip-rule="evenodd" d="M852.886 170.537C859.313 173.756 866.775 176.974 875.27 177.55V176.974C867.061 176.301 859.658 173.179 853.403 170.009C851.508 167.415 850.418 164.87 850.131 162.516H849.442C849.672 165.014 850.763 167.608 852.771 170.441L852.886 170.537Z" fill="#385D7D" fill-opacity="0.22"/>
<path fill-rule="evenodd" clip-rule="evenodd" d="M774.837 1172.67C755.79 1167.76 744.281 1159.47 727.017 1146.37C724.254 1144.35 721.55 1142.09 718.557 1139.68C707.049 1130.38 693.985 1119.79 680.347 1117.48C653.185 1112.76 637.187 1126.82 625.275 1141.27C619.405 1148.4 614.743 1156.39 610.255 1164.15C604.385 1174.16 598.343 1184.56 589.481 1193.14C580.043 1202.24 566.635 1210.09 549.486 1216.54C541.89 1219.48 533.661 1220.73 525.72 1222.03C517.951 1223.29 509.951 1224.54 502.586 1227.28C468.864 1239.9 430.767 1256.32 404.067 1283.24C392.442 1294.95 374.142 1309.73 352.332 1313.63C338.004 1316.14 325.458 1312.62 315.445 1309.78L313.604 1309.3C290.93 1302.89 236.722 1283.82 223.083 1243.85C220.608 1236.67 218.825 1227.86 216.868 1218.61C214.508 1206.96 211.976 1194.87 208.063 1186.11C202.021 1172.38 193.62 1162.6 184.124 1152.2L182.801 1150.71C173.708 1140.79 162.371 1128.41 163.868 1112.28C165.249 1098.31 173.938 1082.32 187.865 1068.55C201.906 1054.58 218.94 1045.24 234.593 1042.88C244.72 1041.34 252.892 1040.66 260.718 1039.99C267.567 1039.36 273.955 1038.93 281.032 1037.82C316.423 1032.67 344.679 1018.46 364.877 995.539C381.279 976.949 392.787 952.147 399.06 921.759C407.232 882.364 391.867 848.846 384.904 836.372C373.739 816.434 346.98 795.051 322.754 776.606C298.642 758.305 284.37 748.577 246.102 746.41C233.787 745.736 221.932 746.554 210.308 747.373C205.82 747.662 201.216 748.048 196.611 748.24C193.275 748.384 189.879 748.625 186.253 748.914C174.629 749.829 162.601 750.648 150.229 748.914C124.736 745.206 113.458 732.877 115.989 711.109C119.097 682.743 141.598 657.941 173.248 647.924C198.396 639.978 224.695 646.382 245.987 651.488L249.44 652.306C284.543 660.734 311.935 672.196 333.169 687.319C345.139 695.939 356.419 705.378 367.352 714.577C371.322 718.043 375.524 721.511 379.667 724.882C385.422 729.698 390.774 734.996 395.895 740.197C402.282 746.602 409.072 753.297 416.727 758.98C427.602 767.022 439.918 772.994 450.449 777.858C485.091 793.606 515.649 804.586 543.616 811.425C568.937 817.589 589.02 834.589 597.423 856.936C608.183 885.784 606.918 927.056 593.74 979.646C587.18 1005.41 569.57 1020.82 541.141 1025.2C508.801 1030.26 492.688 1048.61 475.654 1067.92C471.281 1072.93 466.734 1078.04 461.958 1083.04C441.817 1103.56 422.769 1093.35 402.571 1082.51C393.536 1077.65 384.271 1072.69 374.775 1070.57C359.929 1067.15 344.275 1071.53 329.084 1075.77C321.142 1077.99 313.719 1080.06 306.353 1081.12C271.365 1086.08 243.742 1091.09 232.348 1105.97C226.306 1113.96 225.443 1124.22 229.873 1137.42C230.507 1139.54 231.37 1141.85 232.233 1144.35C234.075 1149.46 236.088 1155.24 237.297 1159.95C239.541 1168.19 240.865 1176.76 242.131 1185.82C243.627 1195.5 245.066 1205.42 247.828 1216.35C251.913 1232.97 261.467 1247.61 275.393 1258.59C289.088 1269.42 306.353 1276.26 325.4 1278.52C333.515 1279.49 340.477 1279.78 348.074 1277.9C370.229 1272.41 385.824 1255.6 399.577 1240.77C402.742 1237.35 405.736 1234.07 408.842 1230.99L409.304 1230.46C423.517 1216.11 441.126 1198.24 465.354 1198.92C490.329 1199.64 508.398 1196.94 525.95 1190.01C553.456 1179.12 570.203 1163.71 583.611 1136.93C584.532 1134.91 585.568 1132.94 586.546 1130.91C591.092 1121.67 595.753 1112.23 601.681 1103.42C606.515 1096.19 612.615 1091.38 619.002 1086.27C622.57 1083.43 626.195 1080.54 629.707 1077.22C633.85 1073.22 639.373 1069.37 645.243 1065.37C660.205 1055.26 677.124 1043.79 673.039 1026.07C670.967 1017.02 663.485 1008.06 655.66 998.572C648.753 990.289 641.618 981.717 637.015 972.085C629.418 955.759 627.577 932.787 625.62 908.418C624.47 893.633 623.203 878.318 620.613 864.352C614.628 832.567 601.278 811.04 579.871 798.614C573.598 794.906 566.463 792.45 559.556 790.187C554.148 788.405 548.623 786.527 543.56 784.119C539.703 782.336 536.711 779.495 533.776 776.75C532.165 775.258 530.438 773.668 528.596 772.32C525.201 769.767 521.691 767.311 518.181 764.903C514.383 762.303 510.354 759.557 506.614 756.62C500.688 752.141 495.335 746.988 489.983 742.076C485.034 737.5 479.913 732.733 474.388 728.398C469.899 724.834 465.008 721.993 460.289 719.199C454.879 716.07 449.471 712.891 444.464 708.557C435.832 701.332 426.452 693.771 416.036 687.703C407.059 682.503 398.312 680.191 389.104 677.639C386.227 676.916 383.292 676.097 380.3 675.183C373.567 673.256 367.237 669.74 361.079 666.321C357.397 664.298 353.714 662.276 349.974 660.59C335.874 654.137 321.775 648.646 308.079 644.167C304.167 642.963 300.253 641.855 296.455 640.651C294.787 640.17 293.232 639.689 291.622 639.207C284.312 636.991 276.888 634.631 269.695 632.32C248.806 625.771 227.285 618.883 207.661 615.368C195.116 613.104 181.708 611.13 168.529 613.538C123.183 621.724 75.8792 658.47 67.2474 692.183C63.3341 707.786 63.5641 727.435 68.0539 747.517C75.5341 780.844 94.7542 793.173 136.706 791.487C146.489 791.102 156.388 790.331 165.939 789.657C186.599 788.067 206.165 786.527 225.04 788.405C235.916 789.416 245.641 792.45 251.913 794.618C266.013 799.53 290.125 810.702 316.25 824.669C341.974 838.443 360.677 856.887 367.697 875.429C380.99 910.585 367.812 957.637 336.91 985.04C321.43 998.765 294.958 1013.36 257.093 1005.22C254.792 1004.74 252.49 1003.92 250.015 1003.05C247.08 1001.9 243.973 1000.84 240.635 1000.21C231.83 995.972 224.003 990.675 216.35 985.473C199.086 973.818 182.858 962.838 159.609 967.029C155.293 967.798 150.748 969.388 145.856 971.074C135.843 974.541 125.599 978.057 119.443 973.916C108.681 966.691 97.4593 956.818 85.5475 946.319C65.0039 928.212 43.6539 909.429 23.6272 904.132C3.60194 898.738 -16.3679 909.767 -24.8264 914.487C-33.9765 919.543 -43.4147 925.371 -53.5416 931.487C-61.2533 936.255 -69.31 941.167 -77.3084 945.838C-83.9849 949.691 -90.3717 953.447 -96.76 957.155C-111.434 965.728 -125.302 973.818 -140.092 982.15C-146.019 985.425 -152.349 988.748 -158.449 991.975C-168.692 997.369 -179.166 1002.95 -188.086 1008.54C-207.651 1020.77 -215.707 1034.55 -212.025 1049.62C-208.399 1064.6 -194.589 1080.83 -181.986 1094.89C-180.317 1096.82 -178.59 1098.7 -176.864 1100.58C-153.327 1126.82 -126.684 1156.63 -97.0468 1164.48C-71.8417 1171.13 -60.1031 1158.85 -47.673 1145.84C-46.3483 1144.45 -44.9681 1143.05 -43.5865 1141.65C-35.0698 1133.03 -26.2648 1126.39 -18.8414 1121.09C-8.65628 1113.82 3.54376 1107.41 15.3405 1101.2C23.6272 1096.82 31.627 1092.68 38.0721 1088.53C60.3991 1074.28 70.2406 1055.79 79.8506 1037.97C89.1725 1020.44 98.7258 1002.38 120.133 988.7C120.938 988.7 121.629 988.652 122.434 988.652C124.679 988.604 126.923 988.508 128.994 989.037C150.056 1005.27 155.236 1025.45 145.223 1050.73C142.116 1058.43 137.224 1066.04 131.929 1074.13C120.248 1092.19 108.221 1110.88 116.047 1132.36C121.571 1147.82 134.634 1158.56 147.238 1168.96C159.724 1179.22 172.558 1189.77 179.003 1205.13C182.628 1214.09 183.721 1223.38 184.93 1236.38C187.923 1269.23 192.411 1285.07 212.84 1298.56C239.887 1316.33 287.593 1338.24 307.332 1344.99C315.215 1347.63 321.085 1349.26 325.4 1350.04C359.814 1355.77 386.687 1338.09 406.369 1322.11C411.029 1318.21 415.404 1313.97 419.547 1309.88C423.344 1306.17 427.201 1302.36 431.286 1298.85C439.861 1291.72 449.989 1285.99 459.829 1280.45C464.836 1277.61 469.957 1274.77 474.849 1271.73C509.951 1249.68 540.625 1243.03 574.231 1250.11C598.343 1255.31 628.843 1267.06 637.13 1294.08C640.18 1304.05 641.733 1314.74 643.23 1326.05C644.725 1336.5 646.222 1347.43 649.099 1358.08C651.632 1367.38 654.912 1376.19 658.192 1384.66C662.565 1396.57 666.823 1407.83 668.55 1419.44C671.83 1439.81 666.708 1457.87 661.932 1475.35C657.615 1490.76 653.588 1505.45 655.89 1519.9H656.638C654.278 1505.5 658.364 1490.91 662.622 1475.5C667.514 1457.97 672.52 1439.86 669.298 1419.34C667.514 1407.64 663.313 1396.42 658.825 1384.47C655.66 1376.04 652.379 1367.18 649.847 1357.89C646.97 1347.25 645.473 1336.46 644.035 1326.01C642.423 1314.64 640.985 1303.95 637.877 1293.98C631.202 1272.31 609.277 1256.95 574.461 1249.58C540.566 1242.36 509.779 1249.05 474.331 1271.2C469.497 1274.19 464.376 1277.08 459.484 1279.92C449.586 1285.51 439.342 1291.24 430.826 1298.46C426.624 1301.98 422.769 1305.78 419.029 1309.44C414.827 1313.54 410.512 1317.77 405.792 1321.63C386.342 1337.52 359.64 1355.1 325.515 1349.37C321.257 1348.65 315.445 1347.01 307.619 1344.36C287.938 1337.72 240.29 1315.84 213.358 1298.08C193.159 1284.78 188.555 1268.94 185.621 1236.34C184.411 1223.29 183.376 1213.99 179.578 1204.89C173.248 1189.43 160.243 1178.79 147.813 1168.48C134.634 1157.69 122.204 1147.53 116.738 1132.22C109.084 1110.93 121.054 1092.34 132.621 1074.42C137.858 1066.29 142.864 1058.68 145.913 1050.97C156.099 1025.35 150.748 1004.98 129.513 988.46L129.341 988.411C127.038 987.881 124.679 987.929 122.434 988.074H120.018H119.903L119.788 988.171C98.2075 1001.9 88.4825 1020.1 79.1024 1037.68C69.6642 1055.45 59.7672 1073.89 37.6107 1088C31.1656 1092.1 23.224 1096.29 14.8805 1100.67C3.08369 1106.88 -9.05951 1113.34 -19.3597 1120.61C-26.7831 1125.91 -35.5881 1132.55 -44.1616 1141.27C-45.6014 1142.67 -46.8666 1144.06 -48.2481 1145.46C-60.5632 1158.27 -72.1867 1170.41 -96.8168 1163.86C-126.223 1156.05 -152.752 1126.39 -176.231 1100.24C-177.957 1098.31 -179.684 1096.38 -181.41 1094.51C-194.012 1080.54 -207.709 1064.36 -211.334 1049.52C-214.902 1034.74 -207.019 1021.11 -187.682 1009.02C-178.764 1003.39 -168.232 997.899 -158.047 992.505C-151.947 989.279 -145.674 986.003 -139.747 982.68C-124.9 974.397 -111.032 966.258 -96.2986 957.686C-89.9685 953.977 -83.4666 950.221 -76.8483 946.319C-68.8498 941.696 -60.7932 936.832 -53.0816 932.016C-43.0114 925.852 -33.5164 920.024 -24.4232 914.968C-15.9646 910.345 3.71693 899.413 23.3972 904.71C43.3088 910.008 64.4274 928.742 85.0292 946.802C96.9409 957.251 108.163 967.173 118.982 974.445C125.484 978.78 135.958 975.168 146.144 971.604C150.978 969.966 155.581 968.377 159.724 967.654C182.628 963.465 198.741 974.445 215.833 986.003C223.543 991.156 231.485 996.551 240.29 1000.79L240.462 1000.84C243.742 1001.41 246.792 1002.52 249.727 1003.63C252.26 1004.5 254.561 1005.36 256.863 1005.84C286.787 1012.25 315.387 1005.03 337.429 985.377C368.502 957.926 381.739 910.585 368.445 875.189C361.252 856.599 342.434 837.961 316.712 824.236C290.47 810.221 266.358 798.903 252.202 794.087C245.872 791.873 236.088 788.838 225.155 787.779C206.165 785.949 186.599 787.442 165.883 788.983C156.329 789.754 146.431 790.475 136.706 790.861C115.471 791.727 100.567 788.983 90.0359 782.337C79.3893 775.498 72.5992 764.421 68.8008 747.421C64.3124 727.387 64.0256 707.834 68.0539 692.327C76.5706 658.808 123.643 622.303 168.701 614.164C181.708 611.804 195.001 613.779 207.488 615.946C227.111 619.51 248.576 626.348 269.35 632.946C276.602 635.21 284.025 637.57 291.333 639.785C292.945 640.266 294.555 640.747 296.225 641.278C300.023 642.337 303.935 643.59 307.849 644.794C321.487 649.224 335.529 654.666 349.57 661.12C353.31 662.805 356.994 664.876 360.677 666.85C366.834 670.221 373.222 673.833 380.07 675.808C383.062 676.675 386.054 677.493 388.874 678.264C398.024 680.72 406.771 683.08 415.576 688.137C425.992 694.254 435.372 701.814 443.889 709.038C448.896 713.325 454.477 716.551 459.771 719.73C464.548 722.426 469.381 725.316 473.928 728.832C479.338 733.118 484.516 737.934 489.408 742.509C494.759 747.469 500.226 752.527 506.154 757.149C509.894 759.991 513.865 762.784 517.721 765.433C521.173 767.792 524.684 770.248 528.079 772.754C529.863 774.15 531.589 775.691 533.258 777.184C536.251 779.976 539.243 782.722 543.271 784.6C548.335 787.153 553.86 788.983 559.211 790.765C566.117 793.077 573.253 795.485 579.468 799.097C600.76 811.425 613.88 832.76 619.865 864.449C622.513 878.366 623.721 893.633 624.93 908.467C626.887 932.883 628.67 955.903 636.382 972.326C640.927 982.006 648.063 990.675 654.969 998.958C662.852 1008.35 670.277 1017.21 672.29 1026.17C676.26 1043.5 659.572 1054.87 644.783 1064.94C638.913 1068.98 633.273 1072.74 629.13 1076.78C625.62 1080.11 622.052 1083.04 618.427 1085.79C611.982 1090.99 605.882 1095.76 600.99 1103.08C595.063 1111.94 590.345 1121.52 585.855 1130.67C584.877 1132.7 583.9 1134.67 582.921 1136.69C569.628 1163.33 553.055 1178.64 525.663 1189.43C508.226 1196.32 490.213 1198.96 465.354 1198.24C440.839 1197.62 423.057 1215.63 408.727 1230.07L408.267 1230.61C405.16 1233.69 402.11 1236.91 399.002 1240.33C384.616 1255.84 369.712 1271.88 347.844 1277.32C340.42 1279.1 333.515 1278.86 325.515 1277.9C286.442 1273.37 256.863 1249.72 248.518 1216.21C245.815 1205.32 244.375 1195.35 242.936 1185.77C241.555 1176.72 240.232 1168.09 238.045 1159.81C236.78 1155.09 234.765 1149.31 232.981 1144.16C232.06 1141.7 231.255 1139.39 230.565 1137.22C226.248 1124.22 227.053 1114.11 233.038 1106.26C244.088 1091.57 271.71 1086.66 306.468 1081.7C313.892 1080.68 321.43 1078.57 329.372 1076.35C344.449 1072.16 359.986 1067.78 374.545 1071.1C383.982 1073.27 393.19 1078.23 402.167 1083.04C422.654 1093.98 441.989 1104.38 462.419 1083.38C467.309 1078.42 471.856 1073.32 476.229 1068.31C493.148 1049.04 509.204 1030.84 541.315 1025.83C569.973 1021.3 587.87 1005.84 594.373 979.742C607.723 927.104 608.932 885.687 598.17 856.791C589.653 834.204 569.455 817.012 543.905 810.848C515.879 804.057 485.494 793.077 450.794 777.28C440.321 772.464 428.121 766.444 417.244 758.497C409.591 752.912 402.916 746.217 396.471 739.716C391.291 734.562 385.997 729.265 380.242 724.449C376.042 721.078 371.84 717.562 367.87 714.143C356.935 704.944 345.599 695.408 333.63 686.836C312.337 671.667 284.83 660.156 249.612 651.777L246.102 650.91C224.867 645.757 198.396 639.399 172.96 647.394C141.138 657.46 118.464 682.405 115.184 711.061C112.709 733.166 124.103 745.832 150.173 749.492C162.544 751.322 174.629 750.407 186.311 749.54C189.936 749.3 193.331 749.059 196.67 748.866C201.331 748.577 205.876 748.288 210.365 747.999C221.933 747.18 233.845 746.313 246.045 746.988C284.025 749.203 298.297 758.835 322.235 777.039C346.405 795.485 373.164 816.77 384.156 836.564C391.119 849.038 406.484 882.413 398.312 921.662C384.385 989.037 344.909 1027.85 280.917 1037.24C273.897 1038.26 267.452 1038.83 260.661 1039.32C252.777 1040.04 244.663 1040.71 234.42 1042.25C218.595 1044.66 201.446 1054.05 187.231 1068.11C173.306 1082.03 164.501 1098.07 163.12 1112.23C161.624 1128.6 172.96 1141.08 182.168 1151.09L183.549 1152.54C193.044 1162.99 201.388 1172.72 207.431 1186.3C211.228 1195.02 213.703 1207.1 216.178 1218.76C218.076 1228 219.918 1236.82 222.335 1243.95C236.146 1284.21 290.585 1303.47 313.315 1309.92L315.215 1310.36C325.344 1313.29 337.889 1316.81 352.505 1314.21C374.545 1310.31 393.017 1295.43 404.642 1283.63C431.171 1256.85 469.151 1240.33 502.931 1227.86C510.183 1225.16 518.123 1223.86 525.835 1222.66C533.833 1221.36 542.12 1220.06 549.831 1217.12C567.038 1210.67 580.561 1202.72 590.057 1193.57C598.977 1185 605.018 1174.5 610.83 1164.43C615.377 1156.68 620.038 1148.69 625.908 1141.61C637.705 1127.4 653.472 1113.43 680.232 1118.1C693.64 1120.42 706.587 1130.87 718.039 1140.16C720.974 1142.57 723.794 1144.79 726.557 1146.9C743.762 1160 755.329 1168.29 774.607 1173.25C788.994 1176.91 814.717 1177.2 833.248 1173.82C848.094 1171.18 862.423 1167.85 876.235 1164.53V1163.86C862.366 1167.23 848.038 1170.5 833.074 1173.25C814.659 1176.52 789.109 1176.28 774.837 1172.67Z" fill="#385D7D" fill-opacity="0.22"/>
<path fill-rule="evenodd" clip-rule="evenodd" d="M907.446 858.432C908.704 857.183 910.26 855.982 911.627 854.829C913.061 853.773 914.387 852.668 915.592 851.516C937.797 830.718 950.029 808.528 950.029 789.219C950.029 770.056 938.717 753.868 916.39 741.141C904.347 734.176 889.937 728.701 875.532 725.339V725.963C889.822 729.325 903.995 734.801 915.998 741.573C938.027 754.3 949.285 770.296 949.285 789.219C949.285 808.384 937.12 830.382 915.078 851.18C913.873 852.236 912.547 853.293 911.113 854.397C909.678 855.55 908.244 856.798 906.81 858C897.054 867.366 888.101 877.404 879.434 887.107C878.115 888.548 876.909 889.94 875.532 891.429V892.437C877.081 890.805 878.515 889.124 880.008 887.443C888.732 877.692 897.69 867.702 907.446 858.432Z" fill="#385D7D" fill-opacity="0.22"/>
<path fill-rule="evenodd" clip-rule="evenodd" d="M915.402 794.865C915.402 788.199 912.642 781.775 907.257 775.785C902.263 770.23 897.203 767.526 891.927 764.627C889.687 763.468 887.392 762.164 885.039 760.714C881.94 759.604 878.725 758.638 875.57 757.817V758.493C878.612 759.314 881.654 760.184 884.58 761.246C886.934 762.744 889.228 763.952 891.525 765.159C896.81 767.96 901.736 770.714 906.675 776.123C911.952 782.064 914.658 788.296 914.658 794.865C914.658 812.35 896.173 829.159 879.931 843.988C878.382 845.341 877.004 846.596 875.57 847.949V848.866C877.176 847.417 878.725 845.969 880.448 844.423C896.864 829.546 915.402 812.591 915.402 794.865Z" fill="#385D7D" fill-opacity="0.22"/>
<path fill-rule="evenodd" clip-rule="evenodd" d="M1354.7 1458.61C1365.19 1436.71 1378.1 1409.44 1404.61 1399.07C1419.07 1398.35 1431.41 1402.59 1444.45 1407.13C1462.64 1413.44 1483.28 1420.68 1515.62 1416.63C1540.17 1413.5 1555.9 1401.44 1574.17 1387.44C1581.67 1381.65 1589.45 1375.77 1598.33 1370.12C1621.49 1355.35 1647.66 1345.26 1670.26 1337.45C1692.68 1329.59 1710.43 1323.41 1716.31 1302.81C1719.88 1290.45 1722.36 1273.18 1723.8 1261.36C1724.67 1254.79 1725.13 1248.71 1725.13 1243.26C1725.13 1234.19 1723.91 1226.37 1721.61 1219.76C1716.66 1205.77 1703.05 1196.84 1685.82 1185.65C1680.69 1182.27 1675.44 1178.84 1669.91 1174.93C1666.05 1172.28 1661.9 1168.81 1657.4 1165.09C1648.12 1157.37 1638.5 1149.41 1630.77 1147.19C1627.78 1146.37 1625.06 1146.61 1622.02 1146.8C1619.65 1147 1617.05 1147.19 1613.94 1146.95L1613.78 1146.9L1613.66 1147C1601.84 1154.48 1592.39 1163.6 1583.17 1172.38C1567.49 1187.34 1552.79 1201.52 1528.53 1206.83C1515.73 1209.68 1502.08 1208.62 1486.69 1203.74C1470.49 1198.48 1452.62 1186.32 1436.54 1169.39C1429.28 1161.76 1421.73 1153.66 1413.66 1145.07C1377.06 1105.74 1335.5 1061.11 1299.31 1036.74L1299.08 1036.69C1294.64 1035.87 1289.58 1036.16 1283.97 1037.27C1268.82 1040.41 1250.73 1050.35 1234.41 1064.58C1218.97 1078.14 1207.32 1093.58 1203.29 1105.84C1202.95 1106.85 1202.31 1108.78 1201.85 1110.86C1197.41 1127.26 1200.47 1144.25 1203.41 1160.65C1205.94 1174.84 1208.36 1188.3 1206.34 1201.38C1201.91 1229.61 1179.31 1249.92 1144.44 1257.06C1098.62 1266.52 1069.87 1240.46 1041.96 1215.23C1021.4 1196.65 1000.18 1177.4 972.114 1172.33C945.714 1167.55 917.244 1173.83 898.394 1177.98C890.787 1179.62 883.179 1181.64 875.629 1183.81V1184.44C883.236 1182.22 890.902 1180.24 898.624 1178.55C917.352 1174.45 945.714 1168.18 971.938 1172.96C999.772 1177.98 1020.94 1197.13 1041.4 1215.71C1069.41 1240.99 1098.34 1267.19 1144.56 1257.69C1179.77 1250.5 1202.54 1229.9 1206.98 1201.43C1209.05 1188.3 1206.7 1174.84 1204.15 1160.56C1201.22 1144.2 1198.21 1127.31 1202.54 1111C1203.06 1108.97 1203.69 1107 1204.04 1105.98C1211.99 1081.61 1251.42 1044.65 1284.1 1037.9C1289.63 1036.74 1294.58 1036.55 1298.85 1037.27C1334.99 1061.59 1376.54 1106.13 1413.15 1145.45C1421.09 1154.04 1428.64 1162.15 1435.91 1169.82C1452.1 1186.81 1470.03 1199.06 1486.46 1204.27C1501.95 1209.24 1515.73 1210.3 1528.71 1207.46C1553.14 1202.05 1568.07 1187.87 1583.81 1172.81C1592.91 1164.08 1602.36 1155.06 1614.01 1147.58C1617.12 1147.82 1619.71 1147.62 1622.07 1147.48C1625.06 1147.19 1627.66 1147 1630.49 1147.82C1638.04 1149.99 1647.66 1157.85 1656.89 1165.57C1661.33 1169.24 1665.59 1172.76 1669.39 1175.42C1674.93 1179.33 1680.16 1182.8 1685.36 1186.18C1702.48 1197.32 1716.02 1206.15 1720.92 1219.96C1724.6 1230.43 1725.36 1243.99 1723.11 1261.26C1721.56 1273.13 1719.08 1290.36 1715.62 1302.66C1709.85 1322.93 1692.22 1329.11 1669.97 1336.92C1647.32 1344.78 1621.1 1354.82 1597.81 1369.58C1588.93 1375.23 1581.21 1381.21 1573.66 1386.96C1555.5 1400.9 1539.83 1412.92 1515.5 1415.96C1483.4 1420.01 1462.89 1412.87 1444.73 1406.55C1431.59 1402.01 1419.2 1397.67 1404.5 1398.4L1404.32 1398.44C1377.59 1409.01 1364.5 1436.37 1354.07 1458.37C1351.19 1464.36 1348.3 1470.53 1346.52 1477.29C1342.54 1492.82 1340.35 1507.64 1339.66 1521.53H1340.47C1341.04 1507.68 1343.35 1492.92 1347.26 1477.43C1348.94 1470.73 1351.88 1464.55 1354.7 1458.61Z" fill="#385D7D" fill-opacity="0.22"/>
<path fill-rule="evenodd" clip-rule="evenodd" d="M897.473 1138.15C905.24 1136.47 913.007 1134.49 920.544 1132.56C937.229 1128.42 953.047 1124.51 967.147 1122.97C977.214 1121.77 987.566 1121.77 994.819 1122.92C1016.62 1126.15 1033.59 1138.44 1050.04 1150.3C1068.86 1163.89 1088.42 1177.96 1115.57 1179.07C1139.74 1177.57 1143.25 1154.78 1146.93 1130.63C1147.67 1126.2 1148.31 1121.57 1149.17 1117.14C1152.57 1099.45 1159.29 1079.07 1168.62 1058.25C1171.96 1050.92 1176.03 1043.93 1180.01 1037.09C1187.71 1024.13 1195.02 1011.84 1196.93 997.475C1197.16 995.644 1197.26 993.812 1197.26 991.884C1197.26 982.149 1193.99 973.668 1190.94 966.438C1187.83 959.065 1184.49 952.751 1181.22 946.63C1174.31 933.522 1167.75 921.136 1165.74 902.051C1165.28 898.63 1165.11 895.16 1165.11 891.738C1165.11 870.966 1171.66 853.617 1177.94 836.749C1183.46 822.243 1188.58 808.459 1188.58 794.194C1188.58 791.398 1188.41 788.556 1187.95 785.856C1184.67 764.217 1171.32 747.59 1146.98 735.06C1125.52 723.975 1098.38 717.614 1072.25 712.313C1064.6 710.77 1050.27 708.024 1039.92 707.108C1030.14 706.144 1023.01 707.397 1018.05 711.059C1008.97 717.565 1008.45 730.723 1007.88 745.904C1007.58 752.843 1007.29 759.928 1006.2 767.06C1001.6 796.989 996.943 822.05 983.074 849.857C971.748 872.702 957.54 895.593 947.689 910.774C931.004 936.317 910.409 965.186 875.608 985.572V986.342C910.707 965.86 931.64 936.799 948.379 911.063C958.284 895.931 972.438 873.039 983.831 850.099C997.633 822.291 1002.29 797.133 1006.96 767.158C1008.04 760.024 1008.34 752.891 1008.68 745.952C1009.2 730.915 1009.72 717.855 1018.51 711.445C1023.34 708.024 1030.31 706.771 1039.87 707.686C1050.16 708.698 1064.42 711.397 1072.08 712.939C1124.03 723.494 1180.12 738.626 1187.2 785.953C1187.6 788.652 1187.78 791.447 1187.78 794.194C1187.78 808.363 1182.65 822.05 1177.18 836.604C1170.92 853.472 1164.42 870.87 1164.42 891.738C1164.42 895.16 1164.59 898.63 1164.94 902.1C1167.01 921.281 1173.62 933.714 1180.58 946.872C1183.8 952.992 1187.14 959.305 1190.25 966.583C1193.3 973.812 1196.47 982.293 1196.47 991.884C1196.47 993.764 1196.34 995.596 1196.11 997.379C1194.27 1011.6 1187.02 1023.84 1179.38 1036.8C1175.34 1043.64 1171.2 1050.68 1167.93 1058.01C1158.55 1078.92 1151.81 1099.31 1148.43 1117.04C1147.62 1121.48 1146.87 1126.1 1146.24 1130.54C1142.56 1154.39 1139.05 1177 1115.52 1178.44C1088.77 1177.33 1069.32 1163.31 1050.5 1149.82C1034.05 1137.86 1016.9 1125.57 994.981 1122.25C987.62 1121.09 977.214 1121.19 967.025 1122.3C952.817 1123.89 937.053 1127.84 920.368 1131.98C912.831 1133.86 904.943 1135.79 897.243 1137.57C892.234 1138.73 887.113 1139.89 882.166 1141.14C880.038 1141.62 877.794 1142.1 875.608 1142.68V1143.31C877.909 1142.78 880.153 1142.2 882.396 1141.72C887.345 1140.51 892.407 1139.31 897.473 1138.15Z" fill="#385D7D" fill-opacity="0.22"/>
<path fill-rule="evenodd" clip-rule="evenodd" d="M943.278 1097.87C953.561 1094.06 964.008 1090.06 975.022 1088.75C1005.1 1084.99 1024.67 1098.01 1043.65 1110.55C1056.58 1119.14 1068.76 1127.2 1083.76 1129.7C1087.52 1130.38 1089.82 1130.18 1092.83 1130.04C1094.38 1129.95 1096.06 1129.85 1098.43 1129.85H1098.48C1109.16 1126.67 1116.67 1117.07 1121.05 1109.59C1137.04 1082.58 1144.6 1038.54 1150.13 1006.42C1150.95 1001.55 1151.35 996.722 1151.35 991.754C1151.35 979.261 1148.88 967.685 1146.21 955.433C1143.38 942.314 1140.39 928.76 1140.39 913.132C1140.39 908.983 1140.62 904.739 1141.03 900.639C1141.14 899.819 1141.31 897.455 1141.54 894.416C1141.77 889.979 1142.12 884.432 1142.52 880.525C1143.73 867.453 1146.51 857.083 1149.16 847.098C1152.73 833.69 1156.14 821.197 1156.14 802.578C1156.14 800.649 1156.09 798.623 1156.03 796.597C1153.26 781.789 1134.56 768.235 1109.57 762.833C1088.85 758.348 1061.37 759.361 1046.13 775.663C1028.3 794.86 1012.6 850.716 1009.72 880.718C1009.08 887.133 1009.03 892.439 1009.03 897.6C1008.96 903.339 1008.91 909.225 1008.09 916.943C1005.85 937.635 996.091 954.71 975.482 974.197C949.867 998.266 930.071 1011.29 890.932 1029.96C886.72 1031.98 881.525 1033.86 875.696 1035.6V1036.32C881.64 1034.49 886.95 1032.56 891.279 1030.49C930.531 1011.82 950.327 998.748 976.01 974.534C996.781 955.047 1006.59 937.827 1008.85 916.991C1009.66 909.273 1009.72 903.339 1009.72 897.6C1009.77 892.198 1009.83 887.182 1010.46 880.766C1013.41 850.861 1028.93 795.199 1046.77 776.001C1061.72 759.987 1088.9 759.07 1109.39 763.412C1134.1 768.766 1152.5 782.175 1155.28 796.693C1155.33 798.671 1155.4 800.649 1155.4 802.578C1155.4 821.052 1151.93 833.642 1148.47 846.954C1145.75 856.987 1142.99 867.357 1141.77 880.477C1141.49 884.384 1141.03 889.931 1140.73 894.368C1140.55 897.407 1140.39 899.771 1140.32 900.591C1139.81 904.739 1139.63 908.935 1139.63 913.132C1139.63 928.808 1142.58 942.41 1145.47 955.529C1148.12 967.781 1150.61 979.309 1150.61 991.754C1150.61 996.722 1150.26 1001.5 1149.39 1006.32C1143.91 1038.4 1136.4 1082.39 1120.36 1109.3C1116.09 1116.68 1108.7 1126.09 1098.31 1129.17C1096.01 1129.22 1094.33 1129.32 1092.77 1129.37C1089.82 1129.61 1087.58 1129.75 1083.88 1129.08C1069.16 1126.62 1056.98 1118.61 1044.11 1110.07C1025.06 1097.39 1005.33 1084.36 974.914 1088.13C963.832 1089.48 953.21 1093.43 942.993 1097.29C939.015 1098.83 934.861 1100.43 930.639 1101.78C915.93 1106.74 896.185 1112.53 875.696 1116.2V1116.83C896.296 1113.06 916.214 1107.28 930.991 1102.36C935.091 1100.96 939.299 1099.41 943.278 1097.87Z" fill="#385D7D" fill-opacity="0.22"/>
<path fill-rule="evenodd" clip-rule="evenodd" d="M1046.31 1036.78C1049.34 1027.26 1052.84 1018.62 1063.75 1016.25C1069.53 1015.09 1075.25 1016.06 1080.22 1019.29C1088.57 1024.61 1094.17 1035.67 1094.17 1046.68C1094.17 1054.4 1091.3 1061.16 1086.28 1065.65L1085.99 1065.75C1084.01 1066.38 1081.91 1067.05 1080.39 1068.16C1058.21 1069.81 1048.4 1048.37 1046.31 1036.78ZM1080.74 1068.79L1080.85 1068.74C1082.26 1067.63 1084.24 1066.96 1086.22 1066.33L1086.58 1066.18L1086.81 1066.09C1092 1061.5 1094.93 1054.59 1094.93 1046.68C1094.93 1035.42 1089.15 1024.22 1080.68 1018.76C1075.48 1015.48 1069.59 1014.42 1063.57 1015.67C1052.31 1018.04 1048.58 1026.97 1045.55 1036.68L1045.48 1036.73L1045.55 1036.78C1048.46 1053.29 1060.66 1070.34 1080.62 1068.79H1080.74Z" fill="#385D7D" fill-opacity="0.22"/>
<path fill-rule="evenodd" clip-rule="evenodd" d="M1061.81 864.173C1061.81 850.418 1066.71 837.903 1074.48 831.646C1078.55 828.447 1083.23 826.87 1088.48 826.918C1103.88 831.216 1106.17 847.742 1106.17 857.199C1106.17 871.671 1101.08 888.054 1093.5 898.084L1093.15 898.179C1091.22 898.848 1089.17 899.422 1087.66 900.568C1069.92 900.234 1061.81 881.462 1061.81 864.173ZM1093.5 898.8L1094.02 898.562L1094.09 898.466C1101.79 888.436 1106.86 871.814 1106.86 857.199C1106.86 847.504 1104.53 830.691 1088.66 826.297H1088.59C1083.06 826.201 1078.15 827.826 1073.95 831.264C1065.95 837.569 1061.04 850.227 1061.04 864.173C1061.04 881.844 1069.39 900.95 1087.83 901.189H1087.96L1088.08 901.046C1089.53 899.995 1091.57 899.326 1093.5 898.8Z" fill="#385D7D" fill-opacity="0.22"/>
<path fill-rule="evenodd" clip-rule="evenodd" d="M1268.91 881.915C1264.37 876.222 1262.19 865.607 1262.19 849.443C1262.19 834.389 1264.14 816.295 1265.87 800.372C1266.96 790.24 1267.99 780.589 1268.45 772.484C1270.47 738.274 1272.49 705.994 1297.97 681.338C1314.31 665.463 1331.28 652.677 1373.34 656.73C1392.43 658.563 1415.62 665.946 1440.18 673.762C1444.5 675.113 1448.81 676.512 1453.19 677.864C1455.72 678.684 1458.3 679.503 1460.9 680.227C1483.5 687.272 1503.06 693.353 1519.8 705.221C1538.96 718.78 1548.68 736.777 1548.68 758.78C1548.68 794.872 1522.91 832.749 1498.75 856.102C1462.97 890.89 1412.63 895.33 1359.41 900.106L1353.13 900.734C1334.15 903.05 1287.84 905.896 1268.91 881.915ZM1359.47 900.782C1412.86 895.956 1463.31 891.422 1499.38 856.536C1523.6 833.038 1549.37 795.113 1549.37 758.78C1549.37 736.633 1539.6 718.442 1520.26 704.691C1503.47 692.821 1483.85 686.693 1461.13 679.697C1458.58 678.925 1456.05 678.105 1453.42 677.333C1449.04 675.886 1444.73 674.534 1440.41 673.183C1415.85 665.366 1392.66 657.936 1373.39 656.102C1331 652.001 1313.91 664.932 1297.4 680.903C1271.73 705.801 1269.83 738.177 1267.71 772.434C1267.25 780.541 1266.21 790.192 1265.12 800.324C1263.34 816.295 1261.43 834.34 1261.43 849.443C1261.43 865.752 1263.62 876.464 1268.22 882.254C1287.44 906.572 1334.15 903.629 1353.26 901.312L1359.47 900.782Z" fill="#385D7D" fill-opacity="0.22"/>
<path fill-rule="evenodd" clip-rule="evenodd" d="M889.391 347.011C898.177 331.882 899.084 314.013 891.859 299.268C888.185 291.871 882.562 285.579 875.559 280.776V281.545C882.275 286.156 887.612 292.159 891.112 299.46C898.339 314.061 897.487 331.785 888.759 346.723C885.947 351.621 881.528 356.185 875.559 360.604V361.469C881.93 356.905 886.464 352.054 889.391 347.011Z" fill="#385D7D" fill-opacity="0.22"/>
<path fill-rule="evenodd" clip-rule="evenodd" d="M920.801 886.862C925.795 880.927 931.139 875.283 936.241 869.785C948.527 856.567 960.111 844.073 965.564 830.324C974.684 814.936 979.339 800.175 979.339 786.137C979.339 774.511 976.186 763.319 969.813 752.851C951.274 721.834 910.761 704.37 876.223 697.665V698.341C910.477 704.998 950.76 722.316 969.177 753.142C982.952 776.152 981.517 802.056 964.928 830.083C959.488 843.784 947.892 856.23 935.551 869.446C930.504 874.898 925.226 880.542 920.179 886.523C914.78 892.939 909.503 899.597 904.455 906.013C895.216 917.735 886.15 929.167 876.223 939.25V940.263C886.437 930.036 895.675 918.314 905.091 906.35C910.139 899.934 915.362 893.277 920.801 886.862Z" fill="#385D7D" fill-opacity="0.22"/>
<path fill-rule="evenodd" clip-rule="evenodd" d="M934.442 663.343C946.58 659.153 952.452 649.953 952.452 635.166C952.452 627.7 950.95 619.945 949.746 613.684V613.491C949.448 612.142 949.34 610.649 949.34 609.108C949.34 603.232 951.41 597.211 953.427 591.431C954.523 588.444 955.551 585.313 956.295 582.279C956.985 579.871 957.445 577.463 958.081 575.055C960.382 565.132 962.804 554.824 967.919 545.528C969.935 541.867 971.897 538.062 973.791 534.402C983.169 516.243 992.885 497.506 1011.76 485.319C1012.91 484.549 1014.12 483.874 1015.27 483.201C1030.34 474.675 1046.51 467.305 1062.22 460.225C1079.88 452.229 1098.06 443.945 1114.68 433.974C1130.91 424.341 1148.86 411.384 1166.18 398.812C1172.27 394.429 1177.97 390.335 1183.61 386.337C1211.8 366.396 1238.37 347.563 1238.37 312.883V312.835C1238.37 303.925 1236.71 294.532 1233.31 283.935C1223.65 253.879 1199.48 200.8 1147.13 182.689C1133.27 177.872 1113.88 174.645 1093.45 171.274C1077.98 168.673 1061.99 166.023 1048.63 162.604H1046.1C1059.97 166.36 1076.94 169.154 1093.29 171.851C1113.76 175.271 1133.04 178.498 1146.85 183.219C1199.02 201.281 1222.96 254.168 1232.62 284.08C1236.02 294.628 1237.68 304.021 1237.68 312.835V312.883C1237.68 347.274 1211.23 366.011 1183.1 385.807C1177.51 389.805 1171.76 393.948 1165.78 398.331C1148.4 410.855 1130.39 423.811 1114.29 433.541C1097.71 443.414 1079.47 451.652 1061.87 459.646C1046.17 466.776 1029.95 474.145 1014.87 482.67C1013.72 483.345 1012.4 484.067 1011.3 484.838C992.316 497.121 982.533 515.906 973.102 534.112C971.207 537.87 969.191 541.627 967.229 545.239C962.06 554.631 959.638 564.939 957.283 574.909C956.755 577.367 956.187 579.775 955.551 582.135C954.807 585.121 953.711 588.204 952.682 591.239C950.666 597.067 948.528 603.087 948.528 609.108C948.528 610.649 948.704 612.19 948.934 613.588L948.988 613.876C950.206 620.042 951.695 627.749 951.695 635.166C951.695 649.616 945.944 658.671 934.212 662.717C922.128 666.955 901.642 665.559 883.466 664.307C880.704 664.114 878.116 663.922 875.642 663.777V664.403C878.116 664.547 880.704 664.693 883.408 664.885C901.642 666.185 922.236 667.534 934.442 663.343Z" fill="#385D7D" fill-opacity="0.22"/>
<path fill-rule="evenodd" clip-rule="evenodd" d="M897.541 403.824C928.068 385.058 946.268 351.781 946.268 314.782C946.268 305.592 945.104 296.645 942.885 288.229C934.171 255.389 907.189 244.845 874.279 240.153V240.782C884.687 242.233 894.456 244.264 903.292 247.456C924.401 255.05 936.782 268.06 942.195 288.325C944.4 296.741 945.51 305.641 945.51 314.782C945.51 351.588 927.418 384.671 897.067 403.292C890.618 405.371 882.768 407.112 874.279 408.854V409.483C882.885 407.789 890.851 405.952 897.473 403.872L897.541 403.824Z" fill="#385D7D" fill-opacity="0.22"/>
<path fill-rule="evenodd" clip-rule="evenodd" d="M914.28 582.641C917.148 565.967 922.994 550.063 928.731 534.785C932.412 524.906 936.255 514.64 939.245 504.231C941.14 497.579 942.628 490.977 943.71 485.098C944.752 479.073 945.321 473.724 945.321 469.29C945.321 460.182 943.088 454.784 938.609 453.097C926.674 448.422 900.734 444.855 875.535 444.663V445.242C900.613 445.434 926.39 449.048 938.325 453.579C942.452 455.169 944.522 460.519 944.522 469.29C944.522 473.675 944.062 478.977 942.966 485.001C941.884 490.881 940.382 497.435 938.501 504.085C935.51 514.496 931.722 524.665 927.987 534.545C922.304 549.918 916.336 565.822 913.468 582.593C910.721 599.076 897.23 612.185 875.535 619.895V620.619C897.69 612.812 911.343 599.461 914.28 582.641Z" fill="#385D7D" fill-opacity="0.22"/>
<path fill-rule="evenodd" clip-rule="evenodd" d="M895.054 214.845C922.669 215.712 946.606 216.434 960.76 231.841C975.482 247.826 979.745 275.751 982.735 296.118C983.074 298.14 983.425 300.162 983.71 302.087C984.291 305.554 984.576 309.262 984.576 313.017C984.576 333.817 976.172 355.965 968.175 377.39C960.99 396.553 953.561 416.39 952.235 434.878V434.926L952.303 434.974C955.916 445.567 969.38 448.215 980.773 447.156C1025.36 444.17 1061.79 431.026 1106.71 401.753C1115.68 395.878 1124.83 390.342 1133.69 384.998C1148.66 375.897 1162.87 367.327 1176.26 357.313C1196.4 342.291 1206.53 323.514 1206.53 301.366C1206.53 275.703 1192.26 246.815 1167.24 222.115C1134.33 196.694 1090.72 192.89 1048.89 191.157C1045.62 191.012 1042.27 190.964 1038.59 190.868C1021.8 190.483 1000.85 190.049 990.502 183.164C981.409 177.098 974.386 169.924 968.175 162.605H967.309C973.588 170.116 980.665 177.435 990.096 183.694C1000.57 190.675 1021.62 191.109 1038.54 191.542C1042.22 191.638 1045.62 191.686 1048.84 191.783C1090.49 193.516 1134.04 197.32 1166.78 222.597C1191.57 247.152 1205.84 275.848 1205.84 301.366C1205.84 323.321 1195.71 342.05 1175.8 356.832C1162.34 366.798 1148.25 375.416 1133.23 384.468C1124.37 389.812 1115.29 395.349 1106.25 401.223C1061.49 430.448 1025.08 443.545 980.665 446.529C969.677 447.541 956.498 445.037 953.047 434.83C954.305 416.438 961.68 396.697 968.865 377.583C976.917 356.109 985.266 333.913 985.266 313.017C985.266 309.262 984.914 305.506 984.454 301.991C984.115 300.114 983.831 298.092 983.534 296.07C980.435 275.607 976.172 247.537 961.328 231.504C946.944 215.856 922.953 215.086 895.054 214.171C889.243 213.979 883.26 213.834 877.219 213.545C876.701 213.449 876.183 213.449 875.608 213.401V214.027C876.183 214.027 876.643 214.075 877.161 214.075C883.26 214.46 889.185 214.653 895.054 214.845Z" fill="#385D7D" fill-opacity="0.22"/>
<path fill-rule="evenodd" clip-rule="evenodd" d="M1267.3 205.553L1267.36 205.648C1271.51 209.926 1277.87 216.39 1286.56 215.677L1286.73 215.63L1286.86 215.534C1288.14 214.156 1289.71 212.92 1291.17 211.875L1291.29 211.827V211.732C1293.22 203.889 1294.27 195.856 1294.27 187.871C1294.27 179.696 1293.16 171.568 1291.17 163.63H1290.42C1292.46 171.568 1293.45 179.696 1293.45 187.871C1293.45 195.809 1292.51 203.747 1290.54 211.494C1289.13 212.54 1287.67 213.681 1286.33 215.012C1278.16 215.63 1272.27 209.641 1267.94 205.268L1267.83 205.173C1260.47 197.615 1254.87 187.728 1249.04 177.176C1246.52 172.661 1243.89 168.098 1241.16 163.63H1240.28C1243.08 168.193 1245.76 172.899 1248.28 177.462C1254.16 188.014 1259.78 197.995 1267.3 205.553Z" fill="#385D7D" fill-opacity="0.22"/>
<path fill-rule="evenodd" clip-rule="evenodd" d="M881.882 177.572C892.27 176.851 901.451 169.839 901.451 162.538H900.653C900.653 169.551 891.868 176.275 881.825 176.899C879.644 177.092 877.578 177.092 875.57 176.947V177.572C877.578 177.716 879.701 177.764 881.882 177.572Z" fill="#385D7D" fill-opacity="0.22"/>
<path fill-rule="evenodd" clip-rule="evenodd" d="M1144.27 243.426C1158.73 255.76 1167.31 273.325 1167.31 290.411C1167.31 300.921 1164.02 310.711 1157.63 318.774C1144.22 335.955 1118.24 342.962 1093.03 349.873C1081.45 352.992 1070.51 355.968 1060.66 359.855C1051.23 361.008 1045.7 356.544 1043.45 345.697C1040.87 333.699 1036.48 320.981 1032.17 308.743C1028.31 297.993 1024.74 287.723 1022.49 278.269C1021.46 273.901 1020.93 269.63 1020.93 265.503C1020.93 251.633 1026.75 239.395 1036.08 233.588C1067 214.343 1120.61 223.221 1144.27 243.426ZM1020.19 265.503C1020.19 269.678 1020.7 274.045 1021.75 278.364C1023.99 287.915 1027.62 298.137 1031.42 308.983C1035.68 321.125 1040.18 333.795 1042.65 345.793C1045.06 356.88 1051 361.727 1060.84 360.431H1060.89C1070.74 356.544 1081.69 353.568 1093.26 350.401C1118.59 343.538 1144.73 336.388 1158.32 319.109C1164.65 310.951 1168.05 301.017 1168.05 290.411C1168.05 273.085 1159.42 255.424 1144.84 242.946C1132.81 232.724 1113.23 225.285 1092.5 222.981C1070.64 220.534 1049.84 224.229 1035.56 233.06C1026.06 238.963 1020.19 251.441 1020.19 265.503Z" fill="#385D7D" fill-opacity="0.22"/>
<path fill-rule="evenodd" clip-rule="evenodd" d="M1288.14 988.706C1282.32 983.02 1276.9 976.419 1272.39 971.071C1270.37 968.661 1268.64 966.591 1267.14 964.904C1260.51 957.387 1253.35 950.449 1246.55 943.752C1233.22 930.792 1220.63 918.504 1214.58 904.773C1211.63 897.979 1210.08 890.849 1210.08 882.946C1210.08 868.541 1215.04 853.796 1219.89 839.486C1222.66 831.247 1225.49 822.863 1227.33 814.625C1229.64 804.073 1230.85 793.232 1230.85 782.343C1230.85 773.67 1230.11 764.804 1228.55 756.083C1223.46 726.741 1210.08 696.82 1186.6 661.84C1181.64 654.468 1175.92 647.241 1170.44 640.254C1164.67 633.076 1158.83 625.559 1153.76 617.946C1151.74 614.815 1150.24 611.491 1148.97 608.262C1147.87 605.66 1146.85 603.01 1145.34 600.457C1144.07 598.144 1142.57 595.88 1141.19 593.76C1137.9 588.7 1134.78 584.027 1133.45 578.245C1132.42 573.62 1131.79 568.175 1131.79 563.019C1131.79 557.913 1132.42 550.492 1135.01 544.228C1142.92 525.389 1156.53 508.381 1168.77 494.312C1171.7 490.891 1174.88 487.422 1178.05 484.097C1181.81 479.953 1185.79 475.762 1189.42 471.426C1192.6 467.571 1195.02 463.332 1197.33 459.236C1199.35 455.622 1201.42 451.816 1204.14 448.395C1219.14 428.93 1240.84 412.017 1268.59 398.189C1295.07 385.084 1315.96 376.989 1343.77 392.889C1352.36 397.756 1354.91 403.634 1357.86 412.065C1361.08 421.076 1361.48 430.664 1362.06 439.866C1362.58 450.707 1363.21 461.837 1368 472.1C1370.48 477.496 1374.3 482.17 1378.05 486.458C1379.02 487.711 1380.12 488.819 1381.1 489.927C1385.2 494.504 1389.41 499.227 1392.47 504.334C1396.98 512.043 1401.87 519.752 1406.61 527.172C1409.6 531.942 1412.83 536.857 1415.84 541.771C1422.88 553.094 1430.09 564.562 1437.12 575.643C1441.22 582.051 1445.32 588.363 1449.3 594.772L1449.36 594.868C1449.65 595.108 1450.06 595.446 1450.45 595.686C1470.88 626.523 1503.31 638.376 1535.34 646.615C1537.7 647.241 1540.07 647.867 1542.37 648.446C1564.77 654.035 1585.88 659.335 1597.54 678.415C1603.36 687.762 1608.96 704.577 1614.03 728.428C1621.37 762.01 1623.62 793.569 1626.21 830.091L1626.39 832.596C1619.18 841.992 1608.73 847.678 1597.47 853.7C1592.11 856.591 1586.51 859.578 1581.38 863.048C1570.65 870.226 1560.03 879.14 1548.89 888.535C1537.01 898.364 1524.89 908.628 1512.25 916.963C1479.25 938.934 1438.06 954.062 1398.3 968.661C1391.78 971.071 1385.08 973.528 1378.68 975.889C1371.24 978.732 1363.73 982.009 1356.46 985.236C1344.23 990.536 1332.81 995.596 1321.62 998.486C1308.45 1001.86 1298.76 999.113 1288.14 988.706ZM1356.75 985.718C1364.03 982.538 1371.52 979.262 1378.97 976.516C1385.38 974.058 1392.06 971.649 1398.59 969.24C1438.4 954.593 1479.65 939.512 1512.78 917.444C1525.42 909.061 1537.53 898.847 1549.35 889.017C1560.61 879.525 1571.11 870.66 1581.84 863.529C1586.92 860.06 1592.47 857.121 1597.88 854.23C1609.14 848.159 1619.81 842.426 1627.13 832.885L1627.2 832.789L1626.96 830.043C1624.37 793.521 1622.11 761.962 1614.79 728.331C1609.6 704.433 1604.06 687.473 1598.28 678.125C1586.4 658.757 1565.17 653.504 1542.6 647.867C1540.3 647.241 1537.93 646.615 1535.57 646.085C1503.66 637.894 1471.35 626.041 1451.09 595.301L1450.93 595.205C1450.57 594.964 1450.29 594.723 1449.94 594.434C1445.91 588.122 1441.86 581.762 1437.83 575.354C1430.85 564.224 1423.51 552.757 1416.53 541.434C1413.47 536.519 1410.3 531.701 1407.3 526.883C1402.51 519.463 1397.61 511.754 1393.05 504.093C1390.05 498.841 1385.77 494.167 1381.74 489.59C1380.7 488.434 1379.66 487.277 1378.63 486.121C1374.93 481.881 1371.12 477.208 1368.69 471.811C1363.9 461.741 1363.39 450.611 1362.75 439.866C1362.29 430.567 1361.71 420.979 1358.6 411.921C1355.6 403.345 1352.94 397.37 1344.18 392.36C1315.96 376.218 1294.89 384.41 1268.24 397.612C1240.31 411.536 1218.51 428.496 1203.5 448.01C1200.8 451.527 1198.66 455.333 1196.63 458.995C1194.33 463.09 1191.96 467.282 1188.79 471.04C1185.21 475.424 1181.23 479.665 1177.43 483.76C1174.3 487.085 1171.13 490.458 1168.08 493.927C1155.84 508.092 1142.29 525.052 1134.26 544.036C1131.61 550.348 1131.08 557.863 1131.08 563.019C1131.08 568.223 1131.66 573.716 1132.76 578.341C1134.09 584.219 1137.2 588.989 1140.49 594.048C1141.93 596.169 1143.38 598.385 1144.76 600.698C1146.09 603.251 1147.18 605.902 1148.23 608.407C1149.61 611.779 1151 615.104 1153.07 618.236C1158.14 625.945 1164.1 633.413 1169.81 640.592C1175.34 647.578 1181.05 654.757 1185.97 662.177C1209.5 697.062 1222.72 726.982 1227.79 756.132C1229.29 764.853 1230.11 773.67 1230.11 782.343C1230.11 793.184 1228.94 804.025 1226.59 814.528C1224.73 822.719 1221.96 831.103 1219.2 839.294C1214.41 853.652 1209.44 868.443 1209.44 882.946C1209.44 890.945 1210.82 898.124 1213.88 904.965C1219.94 918.794 1232.58 931.129 1246.03 944.185C1252.84 950.882 1259.87 957.725 1266.57 965.242C1268.01 966.927 1269.79 969.048 1271.76 971.456C1276.26 976.757 1281.8 983.406 1287.52 989.091C1298.41 999.691 1308.34 1002.58 1321.9 999.113C1333.04 996.174 1344.64 991.163 1356.75 985.718Z" fill="#385D7D" fill-opacity="0.22"/>
<path fill-rule="evenodd" clip-rule="evenodd" d="M1313.54 941.876C1283.78 937.87 1245.77 916.158 1236.38 890.152C1234.53 884.796 1233.56 879.295 1233.56 873.12C1233.56 861.829 1236.79 850.539 1239.67 840.599C1241 836.015 1242.26 831.576 1243.12 827.475C1246.07 813.628 1247.4 798.477 1247.4 779.757C1247.4 769.478 1247.05 759.057 1246.64 748.924C1246.23 738.743 1245.84 728.177 1245.84 717.707C1245.84 700.964 1246.94 687.116 1249.13 674.234C1249.75 671.146 1250.28 668.01 1250.85 665.066C1252.7 655.175 1254.49 645.815 1254.49 636.599C1254.49 624.198 1251.15 613.873 1243.99 604.272C1237.18 595.152 1234.14 587.818 1233.33 578.844C1232.87 573.44 1232.23 567.891 1231.54 562.487C1230.39 552.982 1229.17 543.092 1229.17 533.537V533.104C1229.23 511.488 1238.58 458.895 1265.91 443.697C1274.96 438.63 1285.39 438.1 1296.87 442.104C1312.32 447.508 1321.78 464.106 1325.12 476.651C1325.76 479.064 1326.4 481.524 1327.03 483.985C1331.52 501.355 1334.76 516.264 1337 529.581C1337.59 533.055 1337.99 536.577 1338.33 539.906C1339.32 548.689 1340.24 556.987 1344.73 565.576C1369.48 612.908 1435.39 643.981 1486.42 661.786C1525.05 675.247 1558.45 686.875 1574.13 718.624C1580.07 730.686 1583.64 748.057 1583.64 765.233V765.281C1583.64 778.164 1581.63 790.178 1577.93 800.069C1570.49 819.756 1554.93 837.462 1536.82 858.114L1535.96 858.983C1502.56 897.052 1469.06 915.965 1412.5 928.704L1406.89 929.91C1387.87 934.251 1369.87 938.305 1349.47 941.2C1336.08 943.178 1324.61 943.371 1313.54 941.876ZM1407.07 930.536L1412.66 929.282C1469.41 916.544 1503.09 897.582 1536.59 859.32L1537.46 858.451C1555.44 837.849 1571.13 820.045 1578.62 800.215C1582.44 790.323 1584.4 778.212 1584.4 765.281V765.233C1584.4 748.007 1580.81 730.493 1574.82 718.383C1559.02 686.393 1525.58 674.668 1486.7 661.206C1435.85 643.45 1370.05 612.426 1345.42 565.334C1340.98 556.842 1340.06 548.591 1339.09 539.858C1338.74 536.529 1338.33 533.007 1337.76 529.485C1335.5 516.168 1332.23 501.259 1327.72 483.889C1327.15 481.428 1326.52 478.967 1325.83 476.506C1322.42 463.816 1312.85 446.977 1297.1 441.477C1285.45 437.376 1274.79 438.003 1265.5 443.117C1237.89 458.461 1228.43 511.39 1228.36 533.104V533.537C1228.36 543.14 1229.58 552.982 1230.73 562.535C1231.42 567.94 1232.18 573.488 1232.57 578.892C1233.33 588.012 1236.44 595.442 1243.3 604.658C1250.39 614.115 1253.8 624.296 1253.8 636.599C1253.8 645.767 1252.01 655.127 1250.1 664.97C1249.52 667.914 1248.95 671.05 1248.37 674.137C1246.13 687.068 1245.08 700.868 1245.08 717.707C1245.08 728.177 1245.49 738.743 1245.9 748.924C1246.23 759.057 1246.64 769.478 1246.64 779.757C1246.64 798.429 1245.26 813.531 1242.43 827.379C1241.51 831.432 1240.24 835.823 1238.98 840.455C1236.09 850.443 1232.87 861.781 1232.87 873.12C1232.87 879.392 1233.73 884.989 1235.63 890.296C1245.08 916.544 1283.49 938.498 1313.42 942.552C1324.61 944.047 1336.14 943.806 1349.57 941.876C1370.05 938.885 1388.04 934.831 1407.07 930.536Z" fill="#385D7D" fill-opacity="0.22"/>
<path fill-rule="evenodd" clip-rule="evenodd" d="M948.041 1150.74C958.649 1149.68 978.243 1148.28 991.436 1151.36C1013.17 1156.43 1031.84 1171.13 1050 1185.3C1075.48 1205.36 1101.87 1226.04 1137.14 1219.72C1156.17 1216.25 1167.98 1207.72 1173.34 1193.35C1178.01 1180.91 1177.37 1165.63 1176.28 1148.37C1174.21 1116.94 1180.38 1095.59 1186.02 1083.25C1191.78 1070.71 1201.24 1059.24 1210.46 1048.01C1222.8 1033.06 1234.49 1018.89 1237.09 1002.88C1238.06 996.471 1237.83 991.169 1236.22 985.142C1232.3 970.197 1223.26 958.917 1213.69 946.913C1197.55 926.618 1180.78 905.599 1190.51 864.816C1192.6 855.897 1195.82 846.978 1199.1 837.578C1209.77 807.544 1220.66 776.45 1198.7 741.741C1179.79 710.309 1145.21 690.543 1111.73 671.502C1096.1 662.583 1079.92 653.375 1065.74 643.204C1047.63 630.139 1022.8 612.399 1031.38 590.609C1034.78 581.835 1036.46 572.819 1038.07 564.046C1040.72 550.163 1043.42 535.845 1053.11 522.973C1060.03 513.718 1069.88 506.583 1079.46 499.592C1083.88 496.363 1088.57 492.939 1092.83 489.42C1102.22 481.61 1113.29 475.295 1124 469.174C1133.11 463.966 1142.45 458.615 1150.86 452.3C1159.8 443.816 1167.63 436.392 1176.97 427.714C1188.39 417.253 1201.93 407.708 1215.02 398.5C1240.15 380.76 1263.83 364.128 1271.5 342.29C1276.96 326.911 1276.22 311.003 1269.25 290.707C1265.5 279.909 1258.24 265.591 1252.7 255.516C1241.63 235.075 1226.42 212.032 1212.19 194.002C1201.07 179.926 1185.38 169.223 1166.66 162.667H1164.69C1184.06 169.079 1200.2 179.974 1211.5 194.291C1225.73 212.369 1240.94 235.365 1252.01 255.805C1257.49 265.832 1264.81 280.053 1268.56 290.852C1275.48 311.1 1276.17 326.863 1270.86 342.145C1263.26 363.743 1239.62 380.374 1214.56 398.018C1201.47 407.226 1187.86 416.771 1176.45 427.328C1167.06 436.006 1159.16 443.382 1150.28 451.867C1141.99 458.134 1132.6 463.436 1123.54 468.691C1112.83 474.813 1101.76 481.177 1092.3 488.939C1088.04 492.554 1083.42 495.88 1078.93 499.11C1069.31 506.1 1059.46 513.283 1052.48 522.635C1042.73 535.604 1040.03 550.017 1037.43 563.95C1035.71 572.723 1034.03 581.738 1030.69 590.367C1021.94 612.592 1046.94 630.573 1065.21 643.637C1079.51 653.858 1095.64 663.065 1111.27 671.983C1144.75 691.074 1179.33 710.743 1198.01 741.982C1219.92 776.498 1208.96 807.496 1198.41 837.433C1195.07 846.834 1191.91 855.752 1189.77 864.718C1180.02 905.696 1196.8 926.81 1213.11 947.251C1222.62 959.158 1231.55 970.439 1235.48 985.335C1237.09 991.217 1237.32 996.471 1236.28 1002.79C1233.8 1018.6 1222.16 1032.77 1209.77 1047.67C1200.61 1058.85 1191.04 1070.47 1185.28 1083.05C1179.69 1095.44 1173.39 1116.85 1175.48 1148.42C1177.43 1177.93 1179.74 1211.48 1136.97 1219.14C1102.1 1225.36 1075.82 1204.78 1050.41 1184.87C1032.25 1170.6 1013.52 1155.85 991.612 1150.78C979.055 1147.8 960.95 1148.76 947.932 1150.06C927.067 1152.23 905.619 1157.39 882.972 1162.84C880.551 1163.41 878.13 1163.95 875.651 1164.57V1165.25C878.187 1164.62 880.666 1163.99 883.202 1163.41C905.849 1157.97 927.175 1152.81 948.041 1150.74Z" fill="#385D7D" fill-opacity="0.22"/>
</g>
</svg>
