<svg width="640" height="354" viewBox="0 0 640 354" fill="none" xmlns="http://www.w3.org/2000/svg">
<mask id="mask0_192_97" style="mask-type:alpha" maskUnits="userSpaceOnUse" x="-1" y="0" width="641" height="354">
<rect x="-1" width="641" height="354" fill="url(#paint0_linear_192_97)"/>
</mask>
<g mask="url(#mask0_192_97)">
<path fill-rule="evenodd" clip-rule="evenodd" d="M601.122 203.739C605.81 205.112 608.833 207.409 609.207 209.93C609.513 212.003 609.716 214.175 609.716 216.397C609.716 226.834 606.218 237.245 602.515 248.305C600.273 255.047 597.929 261.988 596.434 269.003C595.993 271.051 595.823 273.398 595.823 276.569C595.823 278.116 595.857 279.789 595.891 281.387C595.959 283.035 595.993 284.733 595.993 286.43C595.993 295.094 594.668 303.758 584.851 308.277C572.792 313.87 559.136 312.072 545.955 310.324C542.627 309.875 539.23 309.401 535.968 309.101C520.546 307.553 509.913 299.289 506.754 286.381C505.837 282.835 505.463 279.09 505.463 275.245C505.463 267.705 507.162 260.04 510.389 253.149C516.062 241.115 522.516 233.625 538.754 230.828C550.541 228.781 559.543 225.66 568.953 220.367C572.621 218.32 577.852 215.024 581.692 211.179C582.54 210.33 583.22 209.256 583.899 208.258C584.918 206.66 586.006 205.062 587.568 204.088C590.388 202.34 595.959 202.215 601.122 203.739ZM583.458 208.083C582.778 209.156 582.133 210.155 581.318 210.954C577.547 214.774 572.349 218.045 568.647 220.117C559.339 225.36 550.372 228.481 538.618 230.504C522.211 233.375 515.688 240.915 509.981 253.049C506.754 259.965 504.988 267.655 504.988 275.245C504.988 279.115 505.463 282.86 506.313 286.431C509.506 299.489 520.24 307.878 535.9 309.4C539.161 309.75 542.558 310.2 545.853 310.624C559.136 312.422 572.859 314.244 585.089 308.577C595.042 303.958 596.434 295.194 596.434 286.43C596.434 284.733 596.367 283.01 596.332 281.387C596.265 279.789 596.196 278.116 596.196 276.569C596.196 273.398 596.434 271.076 596.842 269.053C598.371 262.063 600.681 255.097 602.957 248.405C606.625 237.32 610.192 226.859 610.192 216.397C610.192 214.175 609.989 211.978 609.682 209.905C609.241 207.259 606.116 204.862 601.292 203.414C596.774 202.116 590.728 201.716 587.296 203.814C585.598 204.862 584.545 206.51 583.458 208.083Z" fill="#EB8D00"/>
<path fill-rule="evenodd" clip-rule="evenodd" d="M534.42 258.945C540.686 261.271 546.515 268.994 547.956 272.676C548.324 273.596 548.492 274.517 548.492 275.412C548.492 277.866 547.186 280.219 544.74 282.009C542.26 283.875 538.943 284.924 535.794 284.847C531.841 284.77 528.557 282.98 526.681 279.835C526.346 279.324 526.044 278.761 525.776 278.199C524.972 276.281 524.067 272.19 524.067 268.226C524.067 262.908 525.642 259.533 528.49 258.663C530.333 258.076 532.343 258.178 534.42 258.945ZM523.632 268.226C523.632 272.215 524.537 276.383 525.341 278.301C525.609 278.864 525.91 279.477 526.245 279.989C528.222 283.236 531.639 285.102 535.794 285.179C539.044 285.23 542.495 284.131 545.008 282.264C548.492 279.707 549.765 276.077 548.391 272.599C546.884 268.866 541.02 260.99 534.621 258.663C532.377 257.845 530.299 257.743 528.356 258.356C524.469 259.558 523.632 264.391 523.632 268.226Z" fill="#EB8D00"/>
<path fill-rule="evenodd" clip-rule="evenodd" d="M357.211 370.137C358.223 370.062 359.269 370.087 360.382 370.112C361.529 370.137 362.675 370.163 363.856 370.062C371.039 369.431 379.842 367.235 389.117 364.939C398.628 362.567 408.409 360.145 417.818 358.984C421.764 358.505 426.014 358.177 430.129 357.874C443.586 356.915 457.414 355.931 463.585 348.89C466.418 345.711 467.7 341.068 467.7 334.28C467.7 330.496 467.329 326.407 466.958 322.37C466.823 320.831 466.654 319.241 466.519 317.702C465.406 303.823 460.584 274.956 450.398 264.862C436.469 251.11 412.557 249.47 390.938 249.697C363.754 251.312 348.544 265.216 333.198 280.507L333.198 281.063C348.611 265.67 363.754 251.665 390.972 249.975C412.422 249.773 436.233 251.438 450.027 265.09C460.179 275.057 464.968 303.874 466.115 317.727C466.183 319.266 466.385 320.856 466.519 322.421C466.925 326.432 467.296 330.521 467.296 334.28C467.296 341.017 466.014 345.585 463.248 348.714C457.177 355.603 443.45 356.587 430.095 357.571C425.98 357.849 421.697 358.152 417.751 358.656C408.307 359.817 398.493 362.265 388.948 364.612C379.708 366.933 370.972 369.128 363.822 369.709C362.675 369.809 361.495 369.784 360.416 369.759C359.269 369.734 358.19 369.709 357.178 369.809C350.095 370.491 341.663 369.759 333.198 367.967L333.198 368.321C341.697 370.087 350.163 370.819 357.211 370.137Z" fill="#EB8D00"/>
<path fill-rule="evenodd" clip-rule="evenodd" d="M361.361 353.118C365.626 352.512 370.772 351.351 376.256 350.115C384.177 348.374 393.113 346.329 402.219 345.32C404.792 345.042 407.229 344.79 409.632 344.537C425.17 342.947 437.424 341.685 445.548 333.937C451.066 328.662 454.383 318.819 454.383 307.562C454.383 293.883 449.746 281.163 441.994 273.541C429.265 260.997 406.823 260.493 390.236 262.259C372.532 265.035 363.46 274.5 351.849 286.488C346.501 292.091 340.916 297.896 333.773 303.776C333.604 303.928 333.367 304.08 333.198 304.231L333.198 304.736C333.468 304.458 333.807 304.231 334.077 303.979C341.254 298.073 347.077 292.041 352.221 286.715C363.697 274.777 372.803 265.313 390.303 262.587C406.789 260.795 429.028 261.275 441.655 273.743C449.339 281.289 453.909 293.959 453.909 307.562C453.909 318.743 450.693 328.485 445.209 333.735C437.187 341.407 425.034 342.619 409.599 344.184C407.195 344.461 404.69 344.689 402.185 344.991C393.046 346.026 384.041 348.02 376.154 349.786C370.67 351.024 365.525 352.184 361.293 352.765C352.221 354.052 342.303 353.572 333.198 351.477L333.198 351.806C342.338 353.901 352.289 354.405 361.361 353.118Z" fill="#EB8D00"/>
<path fill-rule="evenodd" clip-rule="evenodd" d="M374.92 324.528C371.386 322.504 368.525 320.531 366.168 318.431C365.798 316.509 365.596 314.51 365.596 312.511C365.596 296.852 378.085 277.98 401.143 273.781C419.286 273.098 426.76 276.791 432.953 282.938C437.733 287.72 440.594 294.955 440.594 302.317C440.594 311.601 436.252 319.443 428.712 323.844C418.176 330.017 398.551 330.245 374.92 324.528ZM441.066 302.317C441.066 294.905 438.171 287.593 433.29 282.787C427.029 276.513 419.455 272.743 401.109 273.427C377.748 277.702 365.159 296.751 365.159 312.511C365.159 314.56 365.36 316.559 365.798 318.507L365.798 318.557L365.798 318.582C368.154 320.733 371.083 322.782 374.685 324.806L374.785 324.831C398.551 330.599 418.31 330.321 428.948 324.097C436.656 319.671 441.066 311.702 441.066 302.317Z" fill="#EB8D00"/>
<path fill-rule="evenodd" clip-rule="evenodd" d="M374.972 222.165C390.999 219.68 407.5 217.17 420.66 209.388C427.408 205.396 430.006 200.476 428.792 194.226C426.227 181.373 410.604 166.11 402.168 157.877C389.278 148.689 373.689 145.25 354.523 147.283C347.673 148.011 340.385 149.442 333.198 150.923L333.198 151.275C340.418 149.769 347.741 148.312 354.591 147.609C373.621 145.576 389.11 149.015 401.865 158.102C410.199 166.261 425.822 181.498 428.319 194.276C428.522 195.255 428.623 196.209 428.623 197.112C428.623 201.907 425.923 205.848 420.356 209.112C407.297 216.843 390.864 219.404 374.904 221.839C360.563 224.022 345.716 226.282 333.738 232.407C333.501 232.507 333.366 232.583 333.198 232.708L333.198 233.11C333.434 232.959 333.704 232.809 333.974 232.658C345.885 226.608 360.665 224.349 374.972 222.165Z" fill="#EB8D00"/>
<path fill-rule="evenodd" clip-rule="evenodd" d="M408.096 303.736C405.638 302.611 404.22 300.788 404.22 298.789C404.22 298.19 404.345 297.59 404.597 296.966C405.165 296.566 405.701 296.116 406.111 295.742C406.93 295.167 407.938 294.892 409.105 294.967C410.744 295.117 412.509 295.941 413.581 297.016C413.896 297.665 413.991 298.265 413.991 298.864C413.991 300.763 412.541 302.586 410.114 303.76C409.515 303.786 408.79 303.786 408.096 303.736ZM410.208 304.11L410.271 304.086C412.856 302.836 414.432 300.888 414.432 298.864C414.432 298.215 414.274 297.54 413.959 296.916L413.928 296.891C412.761 295.667 410.902 294.817 409.136 294.668C407.876 294.568 406.709 294.867 405.827 295.517C405.386 295.941 404.881 296.367 404.282 296.791L404.251 296.816L404.251 296.866C403.936 297.49 403.778 298.14 403.778 298.789C403.778 300.913 405.354 302.886 407.938 304.06L408.033 304.086C408.758 304.135 409.546 304.11 410.177 304.11L410.208 304.11Z" fill="#EB8D00"/>
<path fill-rule="evenodd" clip-rule="evenodd" d="M385.134 181.612C385.134 181.139 385.134 180.665 385.069 180.167C384.573 175.733 381.835 171.796 377.184 168.807C370.487 164.546 360.228 162.652 348.352 163.475C343.767 163.798 339.082 164.371 334.53 165.144L334.53 165.468C339.115 164.695 343.767 164.122 348.385 163.798C360.162 163.001 370.289 164.845 376.92 169.056C381.506 171.97 384.211 175.832 384.673 180.192C384.706 180.691 384.739 181.139 384.739 181.612C384.739 194.816 363.89 199.725 345.581 204.01C341.721 204.932 337.928 205.804 334.53 206.726L334.53 207.074C337.928 206.127 341.787 205.256 345.713 204.334C364.187 199.999 385.134 195.091 385.134 181.612Z" fill="#EB8D00"/>
<path fill-rule="evenodd" clip-rule="evenodd" d="M659.513 632.264C657.494 625.602 653.187 619.215 648.947 613.004C644.741 606.793 640.365 600.407 638.481 593.794C633.534 576.689 653.624 570.352 671.426 564.792C673.983 563.966 676.406 563.214 678.728 562.463C688.049 559.282 696.563 555.676 704.034 551.694C719.11 543.704 731.156 534.513 739.805 524.319C747.78 514.902 752.155 506.963 753.5 499.375C755.688 487.077 750.573 478.336 744.684 468.244C743.405 466.065 742.06 463.785 740.814 461.481C737.214 454.819 733.108 447.256 724.156 442.096C717.46 438.24 709.316 435.309 701.442 432.504L699.659 431.853C685.188 426.643 670.887 422.837 655.778 418.804C652.346 417.878 648.879 416.976 645.447 416.1C636.092 413.67 626.4 411.191 617.213 408.135C610.214 405.856 604.123 402.375 598.235 399.019C594.937 397.14 591.538 395.212 588.038 393.534C579.154 389.201 571.414 382.414 563.91 375.852C561.184 373.473 558.627 371.219 556.036 369.115C554.454 367.788 552.805 366.41 551.089 364.882C543.215 358.095 534.263 350.381 522.923 348.352C521.409 348.077 519.928 347.852 518.481 347.601C505.795 345.422 494.79 343.519 486.849 334.077C479.344 325.135 476.888 314.291 474.768 304.724C473.725 300.191 472.951 295.608 472.143 291.174C470.73 282.96 469.35 275.221 466.86 268.208C461.106 252.154 446.165 242.387 422.34 239.131C399.121 235.975 370.752 239.181 359.143 242.737C348.711 245.943 340.534 251.353 333.198 257.839L333.198 258.365C340.534 251.778 348.812 246.294 359.345 243.037C370.853 239.506 399.121 236.276 422.272 239.431C445.896 242.687 460.769 252.354 466.423 268.283C468.947 275.296 470.292 283.035 471.739 291.224C472.48 295.657 473.287 300.241 474.297 304.774C476.485 314.366 478.907 325.236 486.479 334.252C494.555 343.819 505.592 345.698 518.38 347.902C519.827 348.152 521.341 348.428 522.822 348.678C534.028 350.682 542.878 358.346 550.753 365.107C552.468 366.61 554.118 368.038 555.733 369.34C558.29 371.444 560.881 373.673 563.574 376.078C571.111 382.639 578.851 389.451 587.802 393.784C591.302 395.487 594.667 397.416 597.965 399.269C603.887 402.625 610.013 406.131 617.012 408.436C626.198 411.516 635.923 413.996 645.312 416.425C648.711 417.302 652.21 418.203 655.643 419.105C670.719 423.137 684.987 426.969 699.491 432.178L701.274 432.779C709.149 435.584 717.224 438.515 723.922 442.397C732.738 447.481 736.809 454.995 740.377 461.606C741.689 463.936 743.002 466.19 744.28 468.369C750.169 478.412 755.284 487.102 753.097 499.35C751.717 506.888 747.41 514.777 739.435 524.169C730.819 534.288 718.84 543.479 703.731 551.443C696.327 555.401 687.814 558.982 678.526 562.138C676.238 562.914 673.815 563.691 671.257 564.492C662.676 567.197 652.951 570.227 646.187 574.71C638.481 579.87 635.789 586.131 638.01 593.895C639.928 600.482 644.336 606.918 648.576 613.154C652.749 619.341 657.124 625.752 659.042 632.339C662.306 643.209 658.537 653.152 654.566 661.517L655.004 661.517C658.975 653.126 662.71 643.184 659.513 632.264Z" fill="#EB8D00"/>
<path fill-rule="evenodd" clip-rule="evenodd" d="M392.585 135.679C403.74 138.236 410.481 142.546 420.592 149.362C422.211 150.414 423.794 151.592 425.547 152.846C432.288 157.682 439.939 163.195 447.926 164.398C463.835 166.854 473.205 159.537 480.181 152.018C483.619 148.309 486.35 144.15 488.978 140.115C492.416 134.903 495.955 129.49 501.145 125.029C506.673 120.293 514.526 116.208 524.57 112.85C529.019 111.322 533.838 110.67 538.49 109.993C543.039 109.342 547.725 108.69 552.039 107.262C571.789 100.696 594.102 92.151 609.74 78.1423C616.548 72.0528 627.266 64.3598 640.04 62.3297C648.432 61.0249 655.78 62.8563 661.644 64.3348L662.723 64.5853C676.002 67.9183 707.752 77.8419 715.739 98.6416C717.189 102.375 718.234 106.961 719.38 111.773C720.762 117.837 722.244 124.127 724.536 128.688C728.075 135.83 732.996 140.917 738.557 146.33L739.332 147.107C744.658 152.269 751.298 158.71 750.421 167.105C749.612 174.372 744.523 182.692 736.366 189.859C728.142 197.126 718.166 201.987 708.998 203.215C703.067 204.017 698.281 204.368 693.697 204.719C689.686 205.045 685.945 205.27 681.8 205.847C661.071 208.528 644.523 215.92 632.693 227.849C623.087 237.522 616.346 250.428 612.672 266.24C607.886 286.74 616.885 304.181 620.963 310.671C627.502 321.046 643.175 332.172 657.364 341.77C671.486 351.293 679.845 356.355 702.258 357.483C709.471 357.834 716.414 357.408 723.222 356.982C725.85 356.831 728.547 356.631 731.244 356.531C733.198 356.456 735.186 356.33 737.31 356.18C744.118 355.704 751.163 355.278 758.409 356.18C773.34 358.109 779.946 364.525 778.463 375.852C776.642 390.612 763.464 403.517 744.927 408.73C730.198 412.864 714.796 409.532 702.325 406.876L700.303 406.45C679.743 402.064 663.7 396.1 651.264 388.231C644.253 383.745 637.647 378.834 631.243 374.047C628.918 372.243 626.457 370.439 624.03 368.685C620.66 366.179 617.525 363.422 614.526 360.716C610.785 357.383 606.808 353.899 602.325 350.942C595.955 346.758 588.743 343.65 582.574 341.119C562.285 332.924 544.388 327.211 528.008 323.652C513.178 320.445 501.415 311.599 496.494 299.971C490.192 284.96 490.933 263.484 498.651 236.119C502.493 222.712 512.807 214.693 529.457 212.412C548.398 209.781 557.836 200.233 567.812 190.184C570.374 187.578 573.036 184.922 575.834 182.316C587.63 171.64 598.786 176.953 610.616 182.591C615.908 185.122 621.334 187.703 626.895 188.806C635.591 190.585 644.759 188.305 653.657 186.1C658.308 184.947 662.656 183.869 666.969 183.318C687.461 180.737 703.64 178.131 710.313 170.387C713.852 166.227 714.357 160.89 711.763 154.023C711.392 152.92 710.886 151.718 710.38 150.414C709.302 147.758 708.123 144.751 707.415 142.295C706.1 138.01 705.325 133.549 704.583 128.838C703.707 123.801 702.864 118.639 701.247 112.95C698.854 104.305 693.259 96.6865 685.102 90.973C677.081 85.3344 666.969 81.7758 655.814 80.5984C651.061 80.0968 646.983 79.9469 642.534 80.9239C629.558 83.7809 620.424 92.5264 612.369 100.245C610.516 102.025 608.762 103.729 606.943 105.332L606.673 105.608C598.348 113.076 588.035 122.373 573.845 122.022C559.217 121.646 548.635 123.049 538.355 126.658C522.244 132.321 512.436 140.341 504.583 154.274C504.044 155.327 503.437 156.354 502.864 157.407C500.202 162.218 497.472 167.13 494 171.715C491.169 175.474 487.596 177.98 483.856 180.637C481.766 182.115 479.642 183.619 477.586 185.348C475.159 187.428 471.924 189.433 468.486 191.512C459.723 196.775 449.814 202.739 452.207 211.962C453.42 216.673 457.802 221.334 462.385 226.271C466.43 230.581 470.609 235.041 473.305 240.053C477.755 248.548 478.833 260.502 479.979 273.182C480.653 280.876 481.395 288.845 482.912 296.112C486.417 312.651 494.236 323.853 506.774 330.318C510.448 332.248 514.627 333.526 518.672 334.703C521.84 335.631 525.075 336.608 528.041 337.861C530.3 338.788 532.052 340.267 533.771 341.696C534.715 342.472 535.726 343.299 536.805 344C538.793 345.329 540.849 346.607 542.905 347.86C545.129 349.213 547.489 350.642 549.679 352.17C553.15 354.501 556.286 357.182 559.42 359.738C562.318 362.119 565.318 364.6 568.554 366.855C571.183 368.71 574.048 370.188 576.811 371.642C579.98 373.27 583.147 374.924 586.08 377.18C591.135 380.939 596.629 384.873 602.73 388.031C607.987 390.737 613.11 391.94 618.503 393.268C620.188 393.644 621.907 394.07 623.66 394.546C627.603 395.548 631.311 397.378 634.917 399.157C637.074 400.209 639.231 401.262 641.422 402.139C649.68 405.497 657.937 408.354 665.959 410.685C668.25 411.311 670.542 411.888 672.767 412.514C673.744 412.765 674.654 413.015 675.597 413.266C679.879 414.419 684.226 415.647 688.439 416.849C700.674 420.257 713.279 423.841 724.772 425.67C732.119 426.848 739.972 427.876 747.691 426.623C774.25 422.363 801.955 403.242 807.01 385.7C809.302 377.581 809.167 367.356 806.538 356.907C802.157 339.565 790.9 333.15 766.329 334.027C760.599 334.227 754.802 334.628 749.208 334.979C737.107 335.806 725.648 336.608 714.593 335.631C708.223 335.104 702.527 333.526 698.854 332.398C690.596 329.842 676.474 324.028 661.173 316.761C646.107 309.594 635.153 299.996 631.041 290.348C623.255 272.054 630.974 247.571 649.073 233.312C658.139 226.17 673.643 218.577 695.82 222.812C697.168 223.063 698.516 223.488 699.966 223.939C701.685 224.541 703.505 225.093 705.46 225.418C710.617 227.624 715.201 230.38 719.683 233.087C729.794 239.151 739.299 244.865 752.915 242.684C755.443 242.284 758.105 241.457 760.97 240.579C766.835 238.775 772.834 236.946 776.44 239.101C782.743 242.86 789.316 247.997 796.292 253.46C808.324 262.882 820.829 272.656 832.558 275.412C844.286 278.219 855.983 272.48 860.937 270.024C866.296 267.393 871.823 264.361 877.755 261.178C882.271 258.697 886.99 256.141 891.675 253.711C895.585 251.706 899.326 249.751 903.067 247.822C911.661 243.361 919.784 239.151 928.446 234.816C931.917 233.112 935.625 231.383 939.197 229.704C945.197 226.896 951.331 223.99 956.555 221.083C968.014 214.718 972.733 207.551 970.576 199.707C968.452 191.913 960.364 183.468 952.982 176.151C952.005 175.149 950.994 174.171 949.983 173.194C936.198 159.537 920.593 144.024 903.235 139.94C888.473 136.481 881.598 142.872 874.318 149.638C873.542 150.364 872.733 151.091 871.924 151.818C866.936 156.303 861.779 159.762 857.431 162.519C851.466 166.303 844.321 169.636 837.411 172.868C832.558 175.149 827.873 177.304 824.098 179.459C811.021 186.876 805.257 196.499 799.629 205.771C794.169 214.893 788.574 224.291 776.036 231.408C775.565 231.408 775.16 231.433 774.688 231.433C773.373 231.458 772.059 231.508 770.846 231.232C758.51 222.787 755.476 212.287 761.341 199.131C763.161 195.121 766.026 191.162 769.127 186.952C775.969 177.554 783.013 167.831 778.429 156.654C775.194 148.61 767.543 143.022 760.161 137.609C752.848 132.271 745.331 126.783 741.557 118.789C739.433 114.128 738.793 109.292 738.085 102.526C736.332 85.4349 733.704 77.1904 721.739 70.1732C705.898 60.9238 677.957 49.5241 666.396 46.0138C661.779 44.6394 658.341 43.7885 655.814 43.3839C635.658 40.4031 619.919 49.6015 608.392 57.9192C605.662 59.9481 603.1 62.1542 600.673 64.2842C598.449 66.2143 596.191 68.1938 593.798 70.0233C588.776 73.7318 582.844 76.7138 577.081 79.5959C574.148 81.0744 571.149 82.5529 568.284 84.1319C547.725 95.609 529.76 99.0676 510.077 95.3835C495.955 92.6769 478.092 86.5624 473.238 72.5038C471.452 67.3168 470.542 61.7532 469.665 55.8665C468.79 50.4285 467.913 44.7405 466.228 39.2013C464.745 34.3641 462.824 29.7769 460.902 25.3681C458.341 19.1744 455.847 13.314 454.836 7.27503C452.915 -3.32741 455.914 -12.7221 458.712 -21.8192C461.24 -29.8395 463.599 -37.4849 462.251 -44.9994L461.812 -44.9994C463.194 -37.5087 460.802 -29.9168 458.308 -21.8966C455.443 -12.7756 452.51 -3.35122 454.397 7.32261C455.443 13.4151 457.903 19.2518 460.532 25.4693C462.385 29.8543 464.307 34.4653 465.79 39.3024C467.475 44.8357 468.351 50.4522 469.194 55.8903C470.138 61.8037 470.98 67.3668 472.801 72.5543C476.71 83.8309 489.551 91.825 509.942 95.659C529.794 99.418 547.825 95.935 568.587 84.4074C571.418 82.8539 574.418 81.3499 577.283 79.8713C583.08 76.9649 589.079 73.9823 594.068 70.2238C596.528 68.3943 598.786 66.4148 600.977 64.5097C603.438 62.3797 605.965 60.1741 608.729 58.1691C620.121 49.8989 635.76 40.7542 655.746 43.735C658.24 44.1099 661.644 44.9606 666.228 46.3409C677.755 49.7978 705.662 61.1796 721.435 70.4243C733.265 77.3403 735.962 85.5854 737.68 102.551C738.389 109.342 738.995 114.178 741.22 118.915C744.927 126.959 752.544 132.497 759.824 137.86C767.543 143.473 774.823 148.76 778.025 156.729C782.507 167.806 775.496 177.479 768.722 186.801C765.655 191.036 762.723 194.996 760.937 199.005C754.971 212.337 758.105 222.938 770.542 231.533L770.643 231.558C771.992 231.834 773.373 231.809 774.688 231.733L776.103 231.733L776.171 231.733L776.238 231.683C788.877 224.541 794.573 215.068 800.067 205.922C805.595 196.675 811.391 187.077 824.368 179.735C828.143 177.604 832.794 175.424 837.681 173.144C844.59 169.911 851.702 166.553 857.735 162.769C862.083 160.012 867.239 156.554 872.261 152.018C873.104 151.291 873.845 150.565 874.654 149.838C881.867 143.172 888.675 136.857 903.1 140.265C920.323 144.325 935.861 159.762 949.612 173.369C950.623 174.372 951.634 175.374 952.646 176.351C960.026 183.619 968.048 192.039 970.171 199.757C972.261 207.45 967.644 214.542 956.319 220.833C951.095 223.765 944.927 226.621 938.962 229.427C935.389 231.107 931.715 232.811 928.244 234.54C919.548 238.85 911.426 243.085 902.797 247.546C899.089 249.476 895.281 251.43 891.405 253.46C886.72 255.866 882.002 258.397 877.485 260.903C871.587 264.11 866.026 267.143 860.7 269.774C855.746 272.179 844.219 277.868 832.693 275.111C821.031 272.355 808.662 262.607 796.596 253.209C789.619 247.772 783.047 242.609 776.71 238.825C772.902 236.57 766.768 238.449 760.801 240.304C757.971 241.156 755.274 241.983 752.848 242.359C739.433 244.539 729.996 238.825 719.986 232.811C715.47 230.13 710.819 227.323 705.662 225.118L705.561 225.093C703.64 224.791 701.854 224.216 700.135 223.639C698.651 223.188 697.303 222.737 695.955 222.487C678.429 219.153 661.678 222.913 648.769 233.137C630.57 247.421 622.817 272.054 630.603 290.473C634.816 300.146 645.837 309.844 660.902 316.986C676.272 324.279 690.394 330.168 698.685 332.674C702.393 333.826 708.123 335.405 714.526 335.956C725.648 336.909 737.107 336.132 749.241 335.33C754.836 334.929 760.633 334.553 766.329 334.353C778.766 333.902 787.495 335.33 793.663 338.788C799.899 342.347 803.876 348.111 806.1 356.957C808.729 367.381 808.897 377.556 806.538 385.625C801.55 403.066 773.98 422.062 747.59 426.297C739.972 427.525 732.187 426.497 724.873 425.37C713.38 423.515 700.808 419.957 688.642 416.524C684.394 415.346 680.047 414.118 675.766 412.965C674.822 412.715 673.879 412.464 672.901 412.188C670.677 411.637 668.386 410.985 666.094 410.358C658.106 408.054 649.882 405.221 641.658 401.863C639.467 400.986 637.31 399.909 635.153 398.881C631.547 397.127 627.805 395.248 623.794 394.22C622.042 393.769 620.29 393.343 618.638 392.942C613.279 391.664 608.156 390.436 602.999 387.805C596.898 384.622 591.405 380.688 586.417 376.929C583.484 374.699 580.215 373.02 577.115 371.366C574.317 369.963 571.486 368.459 568.823 366.63C565.655 364.399 562.622 361.893 559.757 359.513C556.622 356.932 553.421 354.3 549.949 351.895C547.758 350.416 545.433 348.963 543.174 347.584C541.152 346.357 539.096 345.079 537.107 343.775C536.063 343.049 535.052 342.246 534.074 341.469C532.321 340.017 530.569 338.588 528.21 337.61C525.244 336.282 522.008 335.33 518.874 334.403C514.83 333.2 510.65 331.947 507.01 330.067C494.54 323.652 486.855 312.551 483.35 296.062C481.799 288.82 481.091 280.876 480.383 273.157C479.238 260.452 478.193 248.473 473.676 239.928C471.014 234.891 466.835 230.38 462.79 226.07C458.173 221.183 453.825 216.572 452.645 211.911C450.32 202.89 460.094 196.975 468.756 191.738C472.194 189.633 475.497 187.678 477.923 185.573C479.979 183.844 482.069 182.316 484.192 180.887C487.967 178.181 491.54 175.7 494.405 171.891C497.876 167.28 500.64 162.293 503.269 157.531C503.842 156.479 504.414 155.451 504.987 154.399C512.773 140.541 522.48 132.572 538.523 126.959C548.735 123.375 559.285 121.997 573.845 122.373C588.203 122.699 598.617 113.326 607.01 105.809L607.28 105.533C609.099 103.929 610.886 102.25 612.706 100.471C621.132 92.4015 629.861 84.0564 642.669 81.2249C647.017 80.2973 651.061 80.4229 655.746 80.9239C678.631 83.2799 695.955 95.584 700.842 113.026C702.426 118.689 703.269 123.876 704.112 128.863C704.921 133.574 705.696 138.06 706.977 142.37C707.718 144.826 708.898 147.833 709.942 150.515C710.482 151.793 710.953 152.996 711.358 154.123C713.886 160.889 713.414 166.152 709.909 170.237C703.437 177.88 687.259 180.436 666.902 183.017C662.554 183.544 658.139 184.646 653.488 185.799C644.657 187.979 635.558 190.26 627.03 188.53C621.503 187.403 616.11 184.822 610.852 182.316C598.854 176.627 587.529 171.214 575.564 182.14C572.7 184.721 570.037 187.378 567.475 189.984C557.566 200.008 548.162 209.48 529.356 212.086C512.571 214.442 502.089 222.487 498.28 236.069C490.461 263.459 489.753 285.01 496.056 300.046C501.045 311.799 512.874 320.745 527.839 323.953C544.253 327.486 562.049 333.2 582.372 341.419C588.506 343.925 595.652 347.058 602.022 351.193C606.505 354.1 610.414 357.583 614.189 360.966C617.223 363.648 620.323 366.404 623.694 368.91C626.154 370.664 628.614 372.494 630.94 374.273C637.344 379.059 643.984 384.021 650.994 388.482C663.465 396.375 679.575 402.365 700.202 406.725L702.258 407.176C714.695 409.857 730.198 413.166 745.096 409.005C763.734 403.768 777.013 390.787 778.934 375.877C780.384 364.374 773.711 357.784 758.442 355.879C751.196 354.927 744.118 355.403 737.276 355.854C735.153 355.979 733.165 356.105 731.209 356.205C728.479 356.355 725.817 356.506 723.188 356.656C716.413 357.082 709.437 357.533 702.291 357.182C680.047 356.03 671.688 351.018 657.667 341.545C643.511 331.947 627.839 320.871 621.402 310.571C617.323 304.081 608.324 286.714 613.11 266.291C621.267 231.232 644.388 211.034 681.867 206.147C685.979 205.621 689.753 205.32 693.73 205.07C698.348 204.694 703.1 204.343 709.1 203.541C718.368 202.288 728.412 197.401 736.737 190.084C744.893 182.842 750.05 174.497 750.859 167.13C751.735 158.609 745.096 152.118 739.703 146.906L738.894 146.154C733.333 140.716 728.446 135.654 724.907 128.588C722.683 124.052 721.233 117.762 719.784 111.697C718.672 106.886 717.593 102.3 716.178 98.591C708.088 77.6413 676.204 67.6173 662.892 64.2592L661.779 64.0337C655.847 62.5052 648.5 60.6739 639.939 62.0292C627.03 64.0587 616.211 71.8023 609.403 77.9418C593.865 91.8749 571.621 100.471 551.836 106.961C547.589 108.365 542.939 109.041 538.422 109.668C533.738 110.344 528.884 111.021 524.368 112.55C514.29 115.908 506.369 120.042 500.808 124.804C495.584 129.264 492.045 134.727 488.642 139.965C485.979 143.999 483.248 148.159 479.81 151.843C472.901 159.236 463.667 166.503 447.994 164.072C440.141 162.869 432.558 157.432 425.851 152.595C424.132 151.342 422.48 150.189 420.862 149.086C410.785 142.27 404.011 137.96 392.719 135.379C384.293 133.474 369.228 133.324 358.375 135.078C349.679 136.456 341.287 138.185 333.198 139.915L333.198 140.265C341.32 138.511 349.712 136.807 358.476 135.379C369.262 133.675 384.226 133.8 392.585 135.679Z" fill="#EB8D00"/>
<path fill-rule="evenodd" clip-rule="evenodd" d="M314.372 299.212C313.629 299.858 312.711 300.479 311.905 301.075C311.059 301.621 310.277 302.192 309.566 302.788C296.468 313.54 289.252 325.013 289.252 334.996C289.252 344.904 295.925 353.273 309.095 359.853C316.2 363.453 324.7 366.284 333.198 368.022L333.198 367.7C324.768 365.962 316.407 363.131 309.327 359.629C296.332 353.049 289.691 344.779 289.691 334.996C289.691 325.087 296.867 313.714 309.87 302.962C310.58 302.415 311.362 301.869 312.209 301.298C313.055 300.702 313.901 300.057 314.747 299.435C320.502 294.593 325.783 289.404 330.896 284.387C331.674 283.642 332.385 282.922 333.198 282.152L333.198 281.631C332.284 282.475 331.438 283.344 330.557 284.213C325.411 289.255 320.127 294.419 314.372 299.212Z" fill="#EB8D00"/>
<path fill-rule="evenodd" clip-rule="evenodd" d="M310.559 332.193C310.559 335.658 312.128 338.998 315.189 342.113C318.026 345.001 320.903 346.407 323.901 347.914C325.174 348.516 326.479 349.194 327.816 349.948C329.577 350.525 331.404 351.028 333.198 351.454L333.198 351.103C331.469 350.676 329.74 350.224 328.077 349.671C326.739 348.893 325.435 348.265 324.13 347.637C321.126 346.181 318.326 344.749 315.519 341.937C312.52 338.848 310.982 335.608 310.982 332.193C310.982 323.102 321.488 314.362 330.719 306.653C331.6 305.949 332.383 305.297 333.198 304.593L333.198 304.117C332.285 304.87 331.404 305.623 330.425 306.427C321.095 314.162 310.559 322.976 310.559 332.193Z" fill="#EB8D00"/>
<path fill-rule="evenodd" clip-rule="evenodd" d="M53.0698 -12.3172C46.9378 -0.9441 39.3895 13.2203 23.8894 18.6069C15.4312 18.9811 8.21522 16.7778 0.595745 14.42C-10.0462 11.1417 -22.1124 7.38231 -41.0226 9.48471C-55.3754 11.112 -64.5774 17.3776 -75.2589 24.6469C-79.6423 27.658 -84.1918 30.7106 -89.3822 33.6445C-102.928 41.3176 -118.23 46.5557 -131.444 50.6121C-144.554 54.6981 -154.935 57.9051 -158.369 68.6083C-160.458 75.0242 -161.906 83.9968 -162.752 90.1371C-163.259 93.5454 -163.528 96.7038 -163.528 99.5355C-163.528 104.247 -162.816 108.308 -161.471 111.741C-158.575 119.009 -150.615 123.646 -140.543 129.461C-137.544 131.215 -134.474 132.994 -131.238 135.025C-128.983 136.403 -126.554 138.208 -123.927 140.138C-118.499 144.148 -112.874 148.283 -108.356 149.436C-106.607 149.862 -105.017 149.737 -103.237 149.637C-101.852 149.536 -100.333 149.436 -98.513 149.561L-98.418 149.586L-98.3468 149.536C-91.4394 145.652 -85.9088 140.915 -80.5205 136.353C-71.3503 128.584 -62.7576 121.215 -48.5709 118.458C-41.0859 116.979 -33.1025 117.531 -24.1062 120.062C-14.6353 122.794 -4.18327 129.11 5.21645 137.907C9.46536 141.867 13.8804 146.077 18.5961 150.539C39.9987 170.965 64.2972 194.148 85.4624 206.805L85.597 206.83C88.1922 207.256 91.1513 207.106 94.427 206.529C103.289 204.9 113.867 199.737 123.41 192.344C132.437 185.301 139.25 177.281 141.608 170.915C141.805 170.389 142.177 169.386 142.446 168.308C145.042 159.787 143.253 150.965 141.536 142.443C140.057 135.075 138.641 128.082 139.819 121.29C142.415 106.628 155.628 96.0772 176.018 92.3677C202.809 87.4556 219.622 100.989 235.937 114.097C247.964 123.746 260.37 133.746 276.78 136.378C292.217 138.859 308.865 135.601 319.886 133.446C324.335 132.594 328.783 131.541 333.198 130.413L333.198 130.087C328.75 131.24 324.267 132.268 319.752 133.145C308.801 135.276 292.217 138.534 276.883 136.052C260.608 133.446 248.233 123.496 236.27 113.847C219.891 100.714 202.975 87.1046 175.947 92.0417C155.359 95.7761 142.043 106.478 139.448 121.265C138.237 128.082 139.614 135.075 141.101 142.494C142.818 150.99 144.575 159.762 142.043 168.233C141.742 169.286 141.37 170.313 141.165 170.84C136.52 183.496 113.464 202.695 94.3558 206.203C91.1197 206.805 88.2238 206.905 85.7314 206.529C64.5978 193.897 40.2994 170.764 18.8968 150.338C14.2523 145.877 9.8373 141.666 5.5884 137.681C-3.88255 128.859 -14.3662 122.493 -23.9717 119.787C-33.0312 117.205 -41.0859 116.654 -48.6738 118.132C-62.9633 120.94 -71.6905 128.308 -80.8924 136.128C-86.2174 140.664 -91.7401 145.35 -98.5525 149.236C-100.372 149.11 -101.884 149.21 -103.268 149.286C-105.017 149.436 -106.536 149.536 -108.19 149.11C-112.605 147.983 -118.23 143.897 -123.626 139.887C-126.222 137.982 -128.714 136.153 -130.937 134.774C-134.173 132.744 -137.236 130.94 -140.274 129.185C-150.283 123.396 -158.203 118.809 -161.067 111.641C-163.219 106.203 -163.662 99.1596 -162.349 90.1876C-161.439 84.0217 -159.991 75.0747 -157.966 68.6832C-154.595 58.1546 -144.285 54.9475 -131.278 50.8912C-118.033 46.8052 -102.699 41.5908 -89.0816 33.9236C-83.8911 30.9897 -79.3733 27.8837 -74.9582 24.8964C-64.34 17.6568 -55.1777 11.4149 -40.9514 9.83508C-22.1836 7.73269 -10.1886 11.4387 0.429608 14.7229C8.11241 17.0807 15.36 19.3375 23.9527 18.9574L24.0556 18.9336C39.6901 13.446 47.3413 -0.765954 53.4416 -12.1925C55.1269 -15.3045 56.8122 -18.5115 57.8566 -22.0215C60.1828 -30.0866 61.4646 -37.7835 61.8682 -44.9994L61.3933 -44.9994C61.061 -37.8073 59.7081 -30.14 57.4215 -22.0927C56.4404 -18.6125 54.7234 -15.4055 53.0698 -12.3172Z" fill="#EB8D00"/>
<path fill-rule="evenodd" clip-rule="evenodd" d="M320.434 153.844C315.899 154.723 311.365 155.753 306.966 156.757C297.226 158.918 287.992 160.953 279.761 161.756C273.884 162.384 267.841 162.384 263.607 161.781C250.881 160.098 240.976 153.693 231.37 147.513C220.383 140.43 208.968 133.095 193.115 132.517C179.007 133.296 176.961 145.177 174.812 157.762C174.378 160.073 174.007 162.485 173.501 164.796C171.518 174.014 167.593 184.64 162.15 195.492C160.199 199.309 157.821 202.952 155.499 206.519C151.004 213.276 146.739 219.681 145.625 227.167C145.491 228.121 145.428 229.076 145.428 230.081C145.428 235.155 147.339 239.576 149.116 243.344C150.933 247.187 152.884 250.478 154.796 253.668C158.825 260.5 162.656 266.956 163.833 276.903C164.101 278.687 164.196 280.495 164.196 282.278C164.196 293.105 160.373 302.148 156.708 310.94C153.485 318.501 150.499 325.685 150.499 333.12C150.499 334.577 150.594 336.059 150.862 337.466C152.782 348.745 160.57 357.411 174.781 363.942C187.309 369.719 203.155 373.035 218.408 375.798C222.871 376.602 231.236 378.033 237.279 378.511C242.99 379.013 247.153 378.36 250.044 376.451C255.344 373.06 255.653 366.202 255.984 358.29C256.158 354.673 256.324 350.98 256.964 347.263C259.65 331.663 262.367 318.601 270.463 304.108C277.075 292.201 285.369 280.27 291.12 272.357C300.859 259.044 312.882 243.997 333.198 233.371L333.198 232.97C312.708 243.645 300.488 258.792 290.717 272.206C284.935 280.093 276.672 292.025 270.021 303.982C261.964 318.476 259.247 331.588 256.521 347.212C255.89 350.93 255.716 354.648 255.518 358.265C255.21 366.102 254.91 372.909 249.776 376.25C246.956 378.033 242.887 378.687 237.311 378.209C231.299 377.682 222.974 376.275 218.503 375.471C188.178 369.97 155.436 362.083 151.305 337.415C151.068 336.009 150.965 334.552 150.965 333.12C150.965 325.735 153.959 318.601 157.15 311.015C160.807 302.224 164.599 293.155 164.599 282.278C164.599 280.495 164.504 278.687 164.299 276.878C163.09 266.881 159.227 260.4 155.167 253.542C153.287 250.352 151.336 247.062 149.519 243.268C147.742 239.501 145.894 235.08 145.894 230.081C145.894 229.101 145.965 228.146 146.099 227.217C147.173 219.807 151.407 213.427 155.87 206.67C158.224 203.103 160.641 199.435 162.553 195.617C168.027 184.715 171.961 174.09 173.936 164.846C174.41 162.535 174.844 160.124 175.215 157.812C177.364 145.379 179.41 133.598 193.146 132.844C208.763 133.422 220.114 140.731 231.102 147.765C240.707 153.995 250.716 160.4 263.512 162.133C267.809 162.736 273.884 162.686 279.832 162.108C288.126 161.279 297.328 159.219 307.068 157.059C311.468 156.079 316.073 155.074 320.568 154.145C323.492 153.542 326.481 152.939 329.369 152.287C330.612 152.035 331.921 151.784 333.198 151.483L333.198 151.156C331.854 151.432 330.545 151.734 329.235 151.985C326.346 152.613 323.391 153.241 320.434 153.844Z" fill="#EB8D00"/>
<path fill-rule="evenodd" clip-rule="evenodd" d="M293.725 175.311C287.719 177.288 281.618 179.364 275.184 180.04C257.615 181.991 246.187 175.237 235.099 168.732C227.551 164.279 220.438 160.101 211.673 158.8C209.476 158.45 208.132 158.552 206.378 158.625C205.469 158.675 204.489 158.725 203.106 158.725L203.074 158.725C196.839 160.376 192.452 165.355 189.892 169.232C180.558 183.242 176.14 206.082 172.907 222.744C172.433 225.271 172.196 227.772 172.196 230.349C172.196 236.828 173.642 242.832 175.199 249.187C176.851 255.991 178.598 263.021 178.598 271.127C178.598 273.278 178.463 275.48 178.226 277.606C178.163 278.031 178.06 279.257 177.926 280.834C177.792 283.135 177.586 286.012 177.357 288.038C176.646 294.818 175.025 300.197 173.476 305.375C171.39 312.33 169.398 318.809 169.398 328.466C169.398 329.466 169.43 330.517 169.461 331.568C171.082 339.248 182.004 346.278 196.601 349.08C208.701 351.406 224.753 350.881 233.652 342.425C244.069 332.469 253.237 303.499 254.92 287.938C255.292 284.611 255.323 281.859 255.323 279.183C255.363 276.206 255.394 273.153 255.868 269.15C257.18 258.418 262.879 249.562 274.916 239.455C289.877 226.972 301.439 220.217 324.299 210.535C326.759 209.485 329.793 208.509 333.198 207.608L333.198 207.233C329.726 208.184 326.625 209.185 324.096 210.26C301.17 219.942 289.608 226.721 274.607 239.28C262.476 249.387 256.746 258.318 255.426 269.125C254.952 273.128 254.92 276.206 254.92 279.183C254.889 281.984 254.857 284.586 254.485 287.913C252.762 303.424 243.697 332.293 233.281 342.25C224.548 350.556 208.67 351.031 196.704 348.78C182.273 346.003 171.524 339.048 169.904 331.518C169.872 330.492 169.833 329.466 169.833 328.466C169.833 318.884 171.856 312.355 173.879 305.45C175.468 300.247 177.08 294.868 177.792 288.063C177.958 286.037 178.226 283.16 178.4 280.859C178.503 279.282 178.598 278.056 178.637 277.631C178.938 275.48 179.04 273.303 179.04 271.127C179.04 262.996 177.317 255.941 175.634 249.137C174.085 242.783 172.631 236.803 172.631 230.349C172.631 227.772 172.836 225.296 173.342 222.794C176.543 206.158 180.929 183.342 190.295 169.382C192.792 165.555 197.107 160.676 203.177 159.075C204.521 159.05 205.501 159 206.409 158.976C208.132 158.85 209.444 158.775 211.602 159.126C220.201 160.401 227.314 164.554 234.83 168.983C245.958 175.562 257.481 182.316 275.247 180.365C281.72 179.664 287.924 177.613 293.891 175.611C296.215 174.811 298.641 173.985 301.107 173.285C309.698 170.708 321.231 167.706 333.198 165.805L333.198 165.48C321.166 167.431 309.532 170.433 300.902 172.985C298.507 173.71 296.049 174.511 293.725 175.311Z" fill="#EB8D00"/>
<path fill-rule="evenodd" clip-rule="evenodd" d="M232.853 206.299C231.139 211.328 229.157 215.897 222.988 217.148C219.72 217.761 216.482 217.25 213.674 215.54C208.951 212.732 205.783 206.886 205.783 201.065C205.783 196.981 207.405 193.407 210.245 191.033L210.406 190.982C211.531 190.65 212.717 190.293 213.574 189.706C226.118 188.838 231.667 200.172 232.853 206.299ZM213.375 189.374L213.314 189.399C212.518 189.987 211.4 190.344 210.275 190.676L210.076 190.753L209.946 190.803C207.007 193.228 205.354 196.879 205.354 201.065C205.354 207.014 208.622 212.936 213.413 215.82C216.352 217.556 219.682 218.118 223.087 217.454C229.455 216.204 231.567 211.481 233.282 206.349L233.32 206.324L233.282 206.299C231.636 197.568 224.733 188.557 213.444 189.374L213.375 189.374Z" fill="#EB8D00"/>
<path fill-rule="evenodd" clip-rule="evenodd" d="M224.882 296.199C224.882 303.371 222.034 309.897 217.519 313.16C215.151 314.828 212.43 315.65 209.378 315.625C200.426 313.384 199.097 304.767 199.097 299.835C199.097 292.289 202.055 283.746 206.459 278.516L206.664 278.467C207.789 278.118 208.977 277.818 209.858 277.221C220.17 277.395 224.882 287.183 224.882 296.199ZM206.459 278.143L206.161 278.267L206.121 278.317C201.646 283.547 198.696 292.214 198.696 299.835C198.696 304.891 200.049 313.658 209.276 315.949L209.315 315.949C212.532 315.999 215.387 315.152 217.826 313.359C222.475 310.071 225.33 303.471 225.33 296.199C225.33 286.984 220.477 277.022 209.755 276.897L209.685 276.897L209.614 276.972C208.772 277.52 207.584 277.869 206.459 278.143Z" fill="#EB8D00"/>
<path fill-rule="evenodd" clip-rule="evenodd" d="M103.744 286.608C106.415 289.576 107.694 295.109 107.694 303.534C107.694 311.38 106.55 320.812 105.533 329.112C104.889 334.393 104.285 339.423 104.015 343.648C102.83 361.479 101.646 378.304 86.6798 391.156C77.0786 399.43 67.1118 406.095 42.4092 403.982C31.1946 403.027 17.5716 399.179 3.1459 395.104C0.610473 394.401 -1.92494 393.671 -4.49216 392.967C-5.97844 392.539 -7.49658 392.112 -9.0226 391.735C-22.2958 388.063 -33.7886 384.893 -43.6204 378.707C-54.8748 371.64 -60.5815 362.259 -60.5815 350.79C-60.5816 331.978 -45.4485 312.236 -31.2533 300.063C-10.2386 281.93 19.3281 279.616 50.5877 277.127L54.2756 276.799C65.4267 275.592 92.6249 274.109 103.744 286.608ZM50.556 276.774C19.193 279.29 -10.4373 281.653 -31.6268 299.837C-45.8538 312.085 -60.9869 331.852 -60.9869 350.79C-60.9869 362.334 -55.2484 371.816 -43.8907 378.984C-34.0271 385.17 -22.5024 388.364 -9.15766 392.011C-7.66342 392.413 -6.17718 392.841 -4.62731 393.243C-2.06009 393.998 0.475326 394.702 3.01075 395.407C17.4364 399.481 31.0594 403.353 42.3774 404.309C67.2786 406.447 77.3171 399.707 87.0137 391.382C102.091 378.405 103.204 361.53 104.452 343.673C104.722 339.448 105.334 334.418 105.97 329.137C107.019 320.812 108.14 311.406 108.14 303.534C108.14 295.033 106.852 289.45 104.15 286.432C92.8634 273.756 65.4267 275.29 54.2041 276.498L50.556 276.774Z" fill="#EB8D00"/>
<path fill-rule="evenodd" clip-rule="evenodd" d="M78.8735 297.818C90.2192 303.255 91.7123 313.955 91.7123 322.624C91.7123 325.656 91.5127 328.663 91.2412 331.745C90.2192 345.627 89.301 358.782 79.5841 369.08C69.0129 380.23 49.2038 386.319 26.6801 385.317C7.10252 384.465 -20.4513 378.977 -33.6654 366.374C-38.2563 361.989 -40.6357 356.401 -40.6357 349.761C-40.6357 336.381 -31.1184 322.825 -23.0303 315.282C-5.70435 299.196 16.5879 297.392 44.7565 295.187C46.4891 295.161 48.2218 295.137 49.9863 295.061C59.9108 294.886 70.1706 294.686 78.8735 297.818ZM44.7246 294.836C17.506 297.016 -5.97579 298.87 -23.4055 315.107C-31.5256 322.649 -41.011 336.28 -41.011 349.761C-41.011 356.476 -38.6636 362.114 -33.9768 366.6C-20.6909 379.278 7.00677 384.791 26.6482 385.668C49.3396 386.67 69.2844 380.531 79.8875 369.255C89.6763 358.907 90.6983 345.727 91.7123 331.745C91.9199 328.688 92.1594 325.656 92.1594 322.624C92.1594 313.879 90.6584 303.055 79.0731 297.517C70.2744 294.335 59.9427 294.535 49.9863 294.761C48.2218 294.786 46.4891 294.811 44.7246 294.836Z" fill="#EB8D00"/>
<path fill-rule="evenodd" clip-rule="evenodd" d="M72.2875 326.83C72.815 329.222 73.0511 331.538 73.0511 333.829C73.0511 343.546 68.3195 350.344 64.32 354.347C57.2893 361.32 45.2514 366.355 31.2924 368.168C17.5933 369.93 4.28785 368.143 -4.44337 363.359C-12.403 359.004 -16.5757 352.811 -16.5757 345.51C-16.5757 339.947 -14.0721 333.854 -9.44274 328.467C2.89434 314.116 27.7259 311.7 41.4172 311.574C59.3205 311.372 70.02 316.684 72.2875 326.83ZM-9.80487 328.315C-14.5051 333.753 -17.0403 339.871 -17.0403 345.51C-17.0403 352.962 -12.773 359.205 -4.67162 363.662C14.1922 373.983 49.8177 369.301 64.6506 354.523C68.7209 350.495 73.5156 343.647 73.5156 333.829C73.5156 331.538 73.2479 329.172 72.7204 326.78C70.3821 316.433 59.5488 311.045 41.4172 311.221C27.6551 311.372 2.65817 313.789 -9.80487 328.315Z" fill="#EB8D00"/>
<path fill-rule="evenodd" clip-rule="evenodd" d="M-115.112 229.364C-115.112 216.139 -106.791 200.626 -94.8818 191.725C-90.0139 188.029 -84.1106 185.213 -78.0415 182.422C-64.4175 176.212 -49.6161 170.53 -33.9533 165.526C-32.5387 165.602 -31.2348 165.376 -30.0258 165.124C-29.2197 164.973 -28.4136 164.847 -27.6786 164.772C-11.0675 165.878 7.78794 183.001 7.78795 196.955C7.78795 198.187 7.65356 199.369 7.35327 200.475C5.94662 205.579 0.541281 212.242 -8.7521 220.313C-22.3761 232.055 -46.3997 248.272 -69.3487 255.161C-72.0988 256.016 -75.5522 257.021 -78.4445 257.348C-90.0138 258.706 -99.9473 255.362 -107.897 247.467C-112.662 242.74 -115.112 236.656 -115.112 229.364ZM-78.3734 257.65C-75.4574 257.323 -71.9644 256.318 -69.1828 255.488C-46.1627 248.574 -22.0678 232.306 -8.41225 220.489C0.912743 212.393 6.38127 205.68 7.75631 200.525C8.09611 199.419 8.26208 198.212 8.26208 196.955C8.26208 182.85 -10.9016 165.551 -27.6786 164.47C-28.4768 164.52 -29.3224 164.671 -30.1206 164.847C-31.3692 165.023 -32.6099 165.275 -33.9533 165.174L-34.0165 165.174L-34.0481 165.199C-49.79 170.202 -64.6151 175.935 -78.2075 182.145C-84.3794 184.936 -90.2826 187.778 -95.2217 191.474C-107.194 200.45 -115.586 216.064 -115.586 229.364C-115.586 236.731 -113.065 242.891 -108.269 247.693C-100.184 255.689 -90.1166 259.058 -78.3734 257.65Z" fill="#EB8D00"/>
<path fill-rule="evenodd" clip-rule="evenodd" d="M307.291 284.652C304.389 287.75 301.283 290.696 298.318 293.566C291.178 300.465 284.446 306.987 281.277 314.163C275.976 322.195 273.271 329.9 273.271 337.228C273.271 343.296 275.104 349.138 278.807 354.602C289.581 370.792 313.126 379.907 333.198 383.407L333.198 383.054C313.291 379.58 289.88 370.54 279.177 354.45C271.172 342.44 272.005 328.919 281.646 314.289C284.808 307.138 291.547 300.641 298.719 293.743C301.652 290.897 304.719 287.951 307.653 284.829C310.79 281.48 313.857 278.005 316.79 274.656C322.16 268.537 327.429 262.57 333.198 257.307L333.198 256.779C327.262 262.117 321.893 268.235 316.421 274.48C313.488 277.829 310.452 281.304 307.291 284.652Z" fill="#EB8D00"/>
<path fill-rule="evenodd" clip-rule="evenodd" d="M92.141 230.981C95.5458 233.947 98.721 237.39 101.358 240.181C102.538 241.437 103.551 242.518 104.43 243.397C108.31 247.319 112.499 250.938 116.481 254.431C124.281 261.192 131.645 267.602 135.184 274.765C136.91 278.309 137.821 282.028 137.821 286.151C137.821 293.665 134.915 301.357 132.08 308.822C130.457 313.12 128.802 317.493 127.725 321.79C126.371 327.295 125.666 332.95 125.666 338.63C125.666 343.154 126.102 347.779 127.013 352.329C129.99 367.635 137.821 383.243 151.559 401.491C154.465 405.336 157.806 409.106 161.013 412.751C164.394 416.495 167.807 420.416 170.776 424.388C171.956 426.021 172.835 427.755 173.579 429.44C174.221 430.797 174.823 432.179 175.701 433.511C176.446 434.718 177.325 435.899 178.132 437.005C180.056 439.644 181.885 442.082 182.661 445.098C183.263 447.511 183.635 450.351 183.635 453.041C183.635 455.704 183.263 459.575 181.751 462.843C177.119 472.67 169.153 481.542 161.995 488.881C160.277 490.666 158.416 492.476 156.563 494.21C154.362 496.372 152.034 498.558 149.912 500.82C148.051 502.831 146.634 505.042 145.28 507.179C144.1 509.064 142.889 511.049 141.297 512.834C132.516 522.988 119.823 531.81 103.583 539.024C88.0869 545.86 75.8613 550.083 59.5894 541.789C54.5614 539.25 53.0728 536.184 51.3466 531.785C49.4621 527.085 49.2246 522.083 48.8841 517.283C48.5832 511.628 48.211 505.822 45.408 500.468C43.959 497.653 41.7261 495.215 39.5328 492.978C38.9627 492.325 38.3213 491.747 37.7433 491.169C35.344 488.781 32.8815 486.318 31.092 483.653C28.4552 479.632 25.5888 475.611 22.8174 471.74C21.0675 469.252 19.1751 466.688 17.4173 464.125C13.2998 458.218 9.07947 452.236 4.96203 446.455C2.56283 443.112 0.163625 439.82 -2.16432 436.477L-2.19603 436.427C-2.37022 436.301 -2.60772 436.125 -2.83735 436C-14.7938 419.914 -33.7658 413.731 -52.5081 409.433C-53.8938 409.106 -55.2794 408.78 -56.6255 408.478C-69.7301 405.562 -82.0824 402.798 -88.9079 392.844C-92.3127 387.968 -95.5907 379.197 -98.5601 366.755C-102.852 349.237 -104.166 332.774 -105.686 313.723L-105.789 312.416C-101.569 307.515 -95.4562 304.548 -88.8682 301.407C-85.7327 299.899 -82.4545 298.341 -79.4535 296.531C-73.1744 292.786 -66.9587 288.136 -60.442 283.235C-53.4899 278.108 -46.3952 272.754 -38.9997 268.406C-19.6873 256.945 4.4156 249.053 27.6792 241.438C31.4957 240.181 35.4152 238.899 39.1605 237.667C43.5155 236.184 47.9101 234.475 52.1622 232.791C59.3202 230.027 66.0031 227.387 72.5515 225.879C80.2558 224.12 85.9252 225.552 92.141 230.981ZM51.9959 232.54C47.7359 234.199 43.3493 235.908 38.9943 237.34C35.2411 238.622 31.3295 239.879 27.5129 241.136C4.21768 248.776 -19.9248 256.643 -39.3085 268.155C-46.7041 272.528 -53.7908 277.856 -60.7113 282.984C-67.2992 287.935 -73.4437 292.56 -79.7228 296.28C-82.6921 298.089 -85.9386 299.622 -89.1058 301.131C-95.6937 304.297 -101.941 307.288 -106.225 312.265L-106.264 312.315L-106.122 313.748C-104.61 332.799 -103.287 349.262 -99.0035 366.806C-95.963 379.272 -92.7244 388.119 -89.3433 392.995C-82.3912 403.099 -69.9676 405.839 -56.7601 408.78C-55.414 409.106 -54.0283 409.433 -52.6426 409.709C-33.9716 413.982 -15.0631 420.165 -3.20958 436.201L-3.11456 436.251C-2.90869 436.377 -2.74232 436.502 -2.53645 436.653C-0.176845 439.946 2.19065 443.263 4.55027 446.606C8.63604 452.412 12.9277 458.394 17.0135 464.301C18.803 466.864 20.6559 469.378 22.4137 471.891C25.2167 475.762 28.083 479.783 30.7515 483.779C32.5093 486.519 35.0114 488.957 37.371 491.345C37.9807 491.948 38.5905 492.551 39.1922 493.154C41.3539 495.366 43.5868 497.804 45.0041 500.619C47.8072 505.872 48.1081 511.678 48.4802 517.283C48.7495 522.134 49.09 527.135 50.9112 531.861C52.669 536.335 54.2209 539.451 59.3519 542.065C75.8612 550.485 88.1898 546.212 103.789 539.325C120.132 532.062 132.888 523.214 141.669 513.035C143.253 511.2 144.504 509.215 145.692 507.305C147.038 505.168 148.423 502.982 150.276 501.021C152.375 498.734 154.702 496.522 156.927 494.386C158.756 492.652 160.609 490.892 162.399 489.082C169.557 481.693 177.491 472.846 182.186 462.943C183.738 459.651 184.047 455.73 184.047 453.041C184.047 450.326 183.707 447.461 183.065 445.048C182.289 441.982 180.468 439.493 178.544 436.854C177.697 435.748 176.85 434.592 176.042 433.385C175.266 432.053 174.625 430.671 174.015 429.364C173.207 427.605 172.392 425.871 171.18 424.237C168.211 420.215 164.727 416.319 161.385 412.575C158.147 408.93 154.805 405.185 151.931 401.315C138.161 383.117 130.425 367.509 127.456 352.304C126.577 347.754 126.102 343.154 126.102 338.63C126.102 332.975 126.783 327.32 128.161 321.841C129.246 317.568 130.869 313.195 132.484 308.922C135.287 301.432 138.193 293.716 138.193 286.151C138.193 281.978 137.385 278.233 135.596 274.665C132.049 267.451 124.653 261.016 116.782 254.205C112.799 250.712 108.682 247.143 104.763 243.222C103.923 242.342 102.878 241.236 101.73 239.98C99.0931 237.215 95.8546 233.746 92.5052 230.78C86.1311 225.251 80.3192 223.743 72.3852 225.552C65.8686 227.085 59.0827 229.7 51.9959 232.54Z" fill="#EB8D00"/>
<path fill-rule="evenodd" clip-rule="evenodd" d="M77.0816 256.448C94.4437 258.524 116.622 269.774 122.102 283.25C123.183 286.025 123.752 288.876 123.752 292.076C123.752 297.927 121.865 303.777 120.183 308.927C119.409 311.303 118.675 313.603 118.17 315.728C116.448 322.903 115.675 330.754 115.675 340.455C115.675 345.78 115.88 351.18 116.117 356.431C116.354 361.707 116.583 367.182 116.583 372.607C116.583 381.283 115.943 388.459 114.664 395.134C114.301 396.734 113.993 398.359 113.661 399.885C112.58 405.01 111.537 409.86 111.537 414.636C111.537 421.061 113.488 426.412 117.664 431.387C121.636 436.112 123.412 439.913 123.886 444.563C124.154 447.363 124.526 450.239 124.928 453.039C125.599 457.964 126.31 463.089 126.31 468.04L126.31 468.265C126.278 479.466 120.823 506.718 104.874 514.593C99.5917 517.219 93.5042 517.494 86.8089 515.419C77.7922 512.619 72.2733 504.018 70.3231 497.517C69.952 496.267 69.5809 494.992 69.2098 493.717C66.5885 484.716 64.7015 476.991 63.3909 470.09C63.0513 468.29 62.8145 466.465 62.6171 464.74C62.0407 460.189 61.5039 455.889 58.8826 451.438C44.4417 426.912 5.98279 410.811 -23.7911 401.584C-46.3327 394.609 -65.8187 388.584 -74.9695 372.132C-78.4356 365.882 -80.5201 356.881 -80.5201 347.98L-80.5201 347.956C-80.5201 341.28 -79.3437 335.055 -77.1882 329.929C-72.8457 319.728 -63.7659 310.553 -53.2017 299.852L-52.6964 299.401C-33.2104 279.675 -13.6612 269.874 19.3419 263.274L22.6107 262.648C33.7117 260.399 44.2127 258.298 56.1191 256.798C63.9278 255.773 70.6231 255.673 77.0816 256.448ZM22.508 262.324L19.2472 262.974C-13.8664 269.574 -33.5183 279.4 -53.0675 299.227L-53.5728 299.677C-64.0659 310.352 -73.2168 319.578 -77.5909 329.854C-79.8174 334.979 -80.9622 341.255 -80.9622 347.956L-80.9622 347.98C-80.9622 356.906 -78.8699 365.982 -75.3722 372.257C-66.1503 388.833 -46.6406 394.909 -23.9568 401.885C5.71437 411.086 44.1101 427.162 58.4799 451.563C61.0696 455.964 61.6064 460.239 62.1749 464.765C62.3802 466.49 62.6171 468.315 62.9487 470.14C64.2672 477.041 66.1779 484.766 68.8071 493.767C69.1388 495.042 69.5099 496.317 69.9125 497.592C71.9022 504.168 77.4843 512.894 86.6746 515.743C93.4726 517.869 99.6942 517.544 105.111 514.894C121.225 506.943 126.744 479.516 126.784 468.265L126.784 468.04C126.784 463.064 126.073 457.964 125.402 453.014C124.999 450.213 124.557 447.338 124.328 444.538C123.886 439.813 122.07 435.963 118.067 431.187C113.93 426.287 111.94 421.011 111.94 414.636C111.94 409.885 112.982 405.035 114.096 399.934C114.435 398.409 114.767 396.784 115.106 395.184C116.417 388.484 117.025 381.333 117.025 372.607C117.025 367.182 116.788 361.707 116.551 356.431C116.354 351.18 116.117 345.78 116.117 340.455C116.117 330.779 116.922 322.954 118.572 315.778C119.109 313.677 119.851 311.402 120.586 309.002C122.275 303.827 124.154 297.951 124.154 292.076C124.154 288.826 123.649 285.926 122.544 283.175C117.025 269.574 94.6174 258.198 77.1526 256.098C70.623 255.323 63.8961 255.448 56.0559 256.448C44.11 257.998 33.6091 260.098 22.508 262.324Z" fill="#EB8D00"/>
<path fill-rule="evenodd" clip-rule="evenodd" d="M290.965 147.691C284.775 148.243 273.344 148.97 265.647 147.366C252.968 144.733 242.074 137.087 231.479 129.717C216.614 119.288 201.22 108.533 180.639 111.817C169.539 113.622 162.647 118.06 159.521 125.53C156.797 131.998 157.169 139.945 157.808 148.92C159.016 165.265 155.416 176.371 152.124 182.789C148.761 189.307 143.243 195.274 137.866 201.115C130.667 208.886 123.846 216.257 122.33 224.58C121.762 227.914 121.896 230.672 122.835 233.806C125.125 241.577 130.398 247.443 135.98 253.686C145.398 264.24 155.179 275.17 149.503 296.379C148.287 301.017 146.408 305.655 144.49 310.543C138.269 326.162 131.914 342.331 144.727 360.381C155.755 376.727 175.934 387.006 195.465 396.908C204.583 401.546 214.025 406.334 222.298 411.624C232.861 418.418 247.347 427.643 242.342 438.975C240.361 443.537 239.382 448.226 238.443 452.788C236.895 460.008 235.316 467.453 229.664 474.147C225.63 478.96 219.882 482.671 214.293 486.306C211.712 487.985 208.98 489.766 206.493 491.596C201.015 495.657 194.557 498.941 188.305 502.124C182.992 504.832 177.544 507.615 172.634 510.899C167.423 515.311 162.853 519.172 157.405 523.684C150.742 529.125 142.84 534.088 135.206 538.877C120.546 548.102 106.731 556.751 102.254 568.108C99.065 576.105 99.4992 584.378 103.565 594.932C105.752 600.548 109.991 607.993 113.22 613.233C119.678 623.862 128.551 635.846 136.856 645.222C143.345 652.542 152.495 658.107 163.421 661.517L164.566 661.517C153.269 658.183 143.851 652.517 137.259 645.071C128.954 635.67 120.08 623.712 113.622 613.083C110.425 607.868 106.154 600.473 103.967 594.857C99.9334 584.327 99.5308 576.13 102.625 568.183C107.062 556.952 120.854 548.303 135.474 539.128C143.108 534.339 151.05 529.375 157.705 523.885C163.184 519.372 167.795 515.537 172.973 511.124C177.813 507.865 183.291 505.108 188.573 502.375C194.825 499.192 201.283 495.882 206.801 491.846C209.288 489.966 211.98 488.236 214.601 486.556C220.214 482.922 225.961 479.186 230.035 474.323C235.719 467.579 237.298 460.083 238.814 452.838C239.816 448.275 240.795 443.588 242.745 439.1C247.853 427.543 233.264 418.192 222.606 411.398C214.262 406.083 204.851 401.295 195.733 396.657C176.202 386.73 156.024 376.501 145.129 360.256C132.348 342.307 138.743 326.187 144.893 310.619C146.843 305.73 148.69 301.092 149.937 296.429C155.621 275.12 145.832 264.14 136.319 253.51C130.769 247.318 125.559 241.452 123.27 233.705C122.33 230.647 122.196 227.914 122.804 224.63C124.248 216.407 131.038 209.037 138.269 201.29C143.614 195.474 149.195 189.432 152.558 182.889C155.819 176.446 159.489 165.316 158.274 148.895C157.137 133.552 155.787 116.104 180.741 112.118C201.086 108.884 216.417 119.589 231.243 129.942C241.837 137.363 252.763 145.034 265.544 147.666C272.87 149.221 283.433 148.719 291.028 148.043C303.201 146.914 315.714 144.232 328.927 141.399C330.339 141.098 331.752 140.822 333.198 140.497L333.198 140.146C331.718 140.472 330.272 140.797 328.793 141.098C315.58 143.931 303.138 146.613 290.965 147.691Z" fill="#EB8D00"/>
<path fill-rule="evenodd" clip-rule="evenodd" d="M-535.608 135.679C-524.458 138.236 -517.713 142.546 -507.601 149.362C-505.984 150.415 -504.399 151.593 -502.648 152.846C-495.903 157.682 -488.255 163.195 -480.267 164.398C-464.361 166.854 -454.993 159.536 -448.011 152.019C-444.58 148.31 -441.845 144.15 -439.214 140.115C-435.783 134.902 -432.24 129.49 -427.049 125.029C-421.525 120.293 -413.671 116.208 -403.622 112.85C-399.176 111.321 -394.358 110.67 -389.706 109.993C-385.156 109.342 -380.473 108.69 -376.154 107.262C-356.404 100.696 -334.094 92.1505 -318.458 78.1425C-311.65 72.0529 -300.927 64.3593 -288.152 62.3298C-279.767 61.025 -272.413 62.8558 -266.548 64.3343L-265.47 64.5854C-252.195 67.9178 -220.447 77.8414 -212.459 98.6411C-211.008 102.375 -209.962 106.961 -208.813 111.773C-207.434 117.837 -205.952 124.127 -203.662 128.688C-200.119 135.83 -195.198 140.917 -189.642 146.33L-188.865 147.107C-183.54 152.269 -176.898 158.709 -177.778 167.104C-178.586 174.372 -183.674 182.691 -191.829 189.858C-200.056 197.126 -210.033 201.988 -219.195 203.216C-225.131 204.018 -229.918 204.368 -234.499 204.719C-238.509 205.045 -242.249 205.271 -246.394 205.847C-267.127 208.528 -283.674 215.921 -295.507 227.849C-305.112 237.522 -311.848 250.428 -315.526 266.241C-320.313 286.739 -311.31 304.181 -307.236 310.672C-300.69 321.046 -285.022 332.173 -270.836 341.771C-256.713 351.294 -248.352 356.356 -225.939 357.483C-218.727 357.834 -211.785 357.408 -204.977 356.982C-202.346 356.832 -199.651 356.631 -196.949 356.531C-194.999 356.456 -193.01 356.331 -190.886 356.18C-184.078 355.704 -177.033 355.278 -169.789 356.18C-154.858 358.11 -148.249 364.525 -149.731 375.852C-151.553 390.612 -164.733 403.518 -183.27 408.73C-197.995 412.865 -213.402 409.532 -225.868 406.876L-227.897 406.45C-248.455 402.064 -264.495 396.1 -276.93 388.231C-283.944 383.746 -290.546 378.834 -296.949 374.048C-299.279 372.243 -301.736 370.439 -304.169 368.685C-307.537 366.179 -310.668 363.422 -313.671 360.716C-317.412 357.383 -321.39 353.899 -325.868 350.942C-332.24 346.757 -339.452 343.65 -345.618 341.119C-365.914 332.925 -383.809 327.211 -400.191 323.653C-415.019 320.445 -426.78 311.599 -431.701 299.971C-438.002 284.96 -437.265 263.484 -429.546 236.119C-425.702 222.712 -415.391 214.693 -398.74 212.412C-379.799 209.781 -370.36 200.234 -360.382 190.185C-357.822 187.579 -355.16 184.922 -352.362 182.316C-340.569 171.64 -329.411 176.953 -317.578 182.591C-312.284 185.122 -306.864 187.703 -301.3 188.806C-292.606 190.586 -283.437 188.305 -274.537 186.1C-269.885 184.947 -265.541 183.869 -261.222 183.318C-240.736 180.737 -224.552 178.131 -217.879 170.387C-214.345 166.227 -213.838 160.89 -216.437 154.023C-216.802 152.921 -217.309 151.718 -217.816 150.415C-218.894 147.758 -220.075 144.751 -220.78 142.296C-222.096 138.01 -222.872 133.549 -223.609 128.838C-224.489 123.801 -225.329 118.639 -226.946 112.95C-229.339 104.305 -234.934 96.6866 -243.097 90.9731C-251.118 85.3345 -261.222 81.776 -272.381 80.5985C-277.136 80.0969 -281.21 79.9464 -285.664 80.924C-298.637 83.781 -307.775 92.5266 -315.827 100.245C-317.681 102.024 -319.433 103.728 -321.256 105.332L-321.525 105.608C-329.847 113.076 -340.157 122.373 -354.351 122.022C-368.981 121.646 -379.561 123.049 -389.84 126.658C-405.952 132.321 -415.756 140.341 -423.61 154.274C-424.148 155.326 -424.759 156.354 -425.329 157.406C-427.992 162.218 -430.726 167.129 -434.198 171.715C-437.027 175.474 -440.601 177.98 -444.342 180.637C-446.426 182.115 -448.55 183.619 -450.611 185.348C-453.036 187.428 -456.269 189.432 -459.709 191.513C-468.474 196.775 -478.381 202.739 -475.987 211.961C-474.775 216.673 -470.392 221.334 -465.811 226.27C-461.761 230.581 -457.585 235.041 -454.89 240.054C-450.444 248.549 -449.359 260.502 -448.217 273.182C-447.544 280.875 -446.799 288.844 -445.285 296.112C-441.782 312.651 -433.96 323.853 -421.422 330.318C-417.745 332.248 -413.568 333.526 -409.526 334.704C-406.356 335.631 -403.123 336.608 -400.151 337.861C-397.892 338.788 -396.141 340.267 -394.421 341.695C-393.478 342.472 -392.471 343.299 -391.394 344.001C-389.404 345.329 -387.344 346.607 -385.291 347.861C-383.064 349.213 -380.71 350.642 -378.515 352.171C-375.044 354.501 -371.914 357.183 -368.775 359.739C-365.875 362.119 -362.879 364.6 -359.645 366.856C-357.014 368.71 -354.145 370.189 -351.387 371.642C-348.217 373.271 -345.047 374.925 -342.115 377.18C-337.059 380.939 -331.566 384.873 -325.464 388.031C-320.21 390.737 -315.082 391.94 -309.693 393.268C-308.005 393.644 -306.285 394.07 -304.533 394.546C-300.595 395.549 -296.886 397.378 -293.28 399.157C-291.124 400.21 -288.968 401.262 -286.773 402.139C-278.515 405.497 -270.257 408.355 -262.237 410.685C-259.946 411.312 -257.656 411.888 -255.429 412.514C-254.454 412.765 -253.543 413.016 -252.6 413.266C-248.32 414.419 -243.969 415.647 -239.753 416.85C-227.524 420.258 -214.915 423.841 -203.424 425.671C-196.077 426.848 -188.223 427.876 -180.504 426.623C-153.947 422.363 -126.24 403.242 -121.184 385.7C-118.894 377.581 -119.028 367.357 -121.66 356.906C-126.042 339.565 -137.296 333.15 -161.864 334.027C-167.594 334.228 -173.395 334.629 -178.99 334.979C-191.084 335.806 -202.544 336.608 -213.6 335.631C-219.972 335.105 -225.67 333.526 -229.339 332.398C-237.597 329.842 -251.72 324.028 -267.024 316.761C-282.089 309.594 -293.042 299.996 -297.155 290.348C-304.938 272.055 -297.218 247.571 -279.125 233.312C-270.059 226.17 -254.549 218.577 -232.375 222.812C-231.027 223.063 -229.68 223.489 -228.23 223.94C-226.51 224.541 -224.687 225.093 -222.738 225.418C-217.578 227.624 -212.997 230.38 -208.512 233.087C-198.399 239.151 -188.897 244.864 -175.281 242.684C-172.753 242.283 -170.09 241.456 -167.229 240.579C-161.365 238.776 -155.365 236.946 -151.759 239.101C-145.451 242.86 -138.881 247.997 -131.907 253.46C-119.869 262.883 -107.37 272.656 -95.6412 275.413C-83.9119 278.219 -72.2143 272.481 -67.261 270.025C-61.9036 267.393 -56.3718 264.361 -50.4438 261.179C-45.9264 258.698 -41.203 256.142 -36.5192 253.711C-32.612 251.706 -28.8714 249.752 -25.1307 247.822C-16.5318 243.361 -8.40859 239.151 0.245728 234.816C3.71696 233.112 7.42601 231.382 11.0003 229.703C16.9996 226.897 23.1338 223.99 28.3565 221.083C39.8163 214.718 44.5397 207.551 42.3761 199.707C40.2521 191.913 32.1685 183.468 24.7822 176.151C23.8074 175.148 22.8009 174.171 21.7864 173.194C8.00453 159.536 -7.60018 144.025 -24.9643 139.939C-39.721 136.482 -46.6 142.872 -53.8754 149.638C-54.6521 150.365 -55.4604 151.091 -56.2688 151.818C-61.2617 156.304 -66.421 159.762 -70.764 162.519C-76.7317 166.302 -83.8723 169.635 -90.7831 172.868C-95.6412 175.148 -100.325 177.304 -104.097 179.459C-117.174 186.876 -122.936 196.5 -128.57 205.772C-134.031 214.893 -139.626 224.291 -152.164 231.408C-152.631 231.408 -153.035 231.433 -153.511 231.433C-154.826 231.458 -156.134 231.508 -157.347 231.232C-169.686 222.787 -172.722 212.287 -166.857 199.131C-165.034 195.121 -162.173 191.162 -159.066 186.952C-152.227 177.554 -145.182 167.831 -149.77 156.655C-153.004 148.61 -160.652 143.022 -168.038 137.609C-175.345 132.271 -182.866 126.783 -186.638 118.789C-188.762 114.128 -189.404 109.292 -190.11 102.526C-191.861 85.435 -194.492 77.1899 -206.459 70.1734C-222.302 60.9239 -250.238 49.5242 -261.801 46.0138C-266.413 44.6395 -269.853 43.7826 -272.381 43.384C-292.535 40.4032 -308.274 49.6016 -319.805 57.9193C-322.532 59.9481 -325.091 62.1543 -327.525 64.2843C-329.744 66.2138 -332.002 68.1939 -334.396 70.0228C-339.42 73.7319 -345.348 76.7139 -351.118 79.596C-354.05 81.0745 -357.046 82.553 -359.915 84.1315C-380.473 95.6091 -398.431 99.0671 -418.117 95.3836C-432.24 92.6771 -450.104 86.5626 -454.954 72.5039C-456.745 67.3169 -457.656 61.7533 -458.528 55.8666C-459.408 50.4286 -460.279 44.7406 -461.968 39.2014C-463.45 34.3642 -465.367 29.777 -467.293 25.3682C-469.853 19.1745 -472.35 13.3141 -473.356 7.27506C-475.282 -3.32738 -472.278 -12.722 -469.481 -21.8192C-466.952 -29.8395 -464.599 -37.4849 -465.946 -44.9994L-466.382 -44.9994C-465.003 -37.5087 -467.396 -29.9168 -469.885 -21.8966C-472.754 -12.7756 -475.686 -3.35122 -473.8 7.32264C-472.754 13.4152 -470.289 19.2519 -467.666 25.4694C-465.811 29.8543 -463.885 34.4654 -462.403 39.3025C-460.723 44.8358 -459.844 50.4523 -459.004 55.8904C-458.06 61.8033 -457.212 67.3669 -455.398 72.5539C-451.482 83.831 -438.644 91.8251 -418.252 95.6591C-398.4 99.4182 -380.37 95.9346 -359.606 84.4075C-356.776 82.8535 -353.781 81.35 -350.912 79.8715C-345.118 76.9644 -339.119 73.9824 -334.126 70.2234C-331.669 68.3944 -329.411 66.4143 -327.215 64.5098C-324.759 62.3798 -322.23 60.1742 -319.465 58.1692C-308.076 49.899 -292.44 40.7543 -272.452 43.7351C-269.956 44.1099 -266.548 44.9607 -261.967 46.341C-250.444 49.7978 -222.531 61.1797 -206.76 70.4238C-194.928 77.3404 -192.233 85.585 -190.514 102.551C-189.808 109.342 -189.198 114.178 -186.979 118.914C-183.27 126.959 -175.654 132.497 -168.371 137.859C-160.652 143.473 -153.376 148.761 -150.174 156.73C-145.689 167.806 -152.703 177.479 -159.471 186.801C-162.538 191.037 -165.47 194.996 -167.261 199.006C-173.229 212.337 -170.09 222.937 -157.656 231.533L-157.553 231.558C-156.206 231.834 -154.826 231.809 -153.511 231.733L-152.092 231.733L-152.029 231.733L-151.958 231.683C-139.317 224.541 -133.627 215.069 -128.127 205.922C-122.603 196.675 -116.801 187.077 -103.828 179.734C-100.056 177.604 -95.4034 175.424 -90.5135 173.144C-83.6028 169.911 -76.4939 166.553 -70.4628 162.769C-66.1119 160.013 -60.9605 156.554 -55.9359 152.019C-55.0958 151.292 -54.3509 150.565 -53.5426 149.838C-46.3307 143.173 -39.5229 136.858 -25.099 140.266C-7.86967 144.325 7.66377 159.762 21.414 173.369C22.4284 174.372 23.4349 175.374 24.4493 176.351C31.8277 183.619 39.8479 192.039 41.9719 199.757C44.0642 207.451 39.4438 214.543 28.1187 220.832C22.896 223.764 16.7301 226.621 10.7625 229.428C7.19614 231.107 3.51883 232.811 0.0475961 234.54C-8.64634 238.85 -16.7697 243.085 -25.4002 247.546C-29.1092 249.476 -32.9133 251.431 -36.7887 253.46C-41.4725 255.866 -46.1959 258.397 -50.7132 260.903C-56.6096 264.111 -62.1731 267.143 -67.4988 269.774C-72.4521 272.18 -83.9753 277.868 -95.5064 275.112C-107.164 272.355 -119.536 262.607 -131.598 253.21C-138.58 247.771 -145.15 242.609 -151.482 238.825C-155.294 236.57 -161.428 238.449 -167.396 240.304C-170.225 241.156 -172.92 241.983 -175.345 242.359C-188.762 244.539 -198.201 238.825 -208.211 232.811C-212.728 230.13 -217.38 227.323 -222.532 225.118L-222.635 225.093C-224.552 224.792 -226.344 224.215 -228.063 223.639C-229.545 223.188 -230.893 222.737 -232.24 222.486C-249.77 219.153 -266.516 222.912 -279.426 233.137C-297.623 247.421 -305.381 272.055 -297.591 290.473C-293.383 300.147 -282.359 309.845 -267.293 316.987C-251.926 324.279 -237.803 330.168 -229.514 332.674C-225.805 333.827 -220.075 335.405 -213.671 335.957C-202.544 336.909 -191.084 336.132 -178.951 335.33C-173.364 334.929 -167.562 334.553 -161.864 334.353C-149.429 333.902 -140.704 335.33 -134.53 338.788C-128.301 342.347 -124.322 348.111 -122.095 356.957C-119.464 367.382 -119.298 377.556 -121.66 385.625C-126.645 403.067 -154.216 422.062 -180.607 426.297C-188.223 427.525 -196.006 426.498 -203.321 425.37C-214.812 423.516 -227.39 419.957 -239.555 416.524C-243.803 415.346 -248.146 414.118 -252.433 412.966C-253.376 412.715 -254.319 412.464 -255.294 412.189C-257.521 411.637 -259.812 410.986 -262.102 410.359C-270.091 408.053 -278.317 405.222 -286.535 401.864C-288.731 400.987 -290.886 399.909 -293.042 398.882C-296.648 397.127 -300.389 395.248 -304.399 394.221C-306.15 393.769 -307.91 393.343 -309.558 392.942C-314.915 391.664 -320.043 390.437 -325.194 387.805C-331.297 384.623 -336.789 380.688 -341.782 376.93C-344.714 374.699 -347.979 373.02 -351.078 371.366C-353.876 369.963 -356.713 368.459 -359.376 366.63C-362.538 364.4 -365.573 361.894 -368.442 359.513C-371.573 356.932 -374.774 354.301 -378.246 351.895C-380.441 350.417 -382.763 348.963 -385.022 347.584C-387.043 346.356 -389.095 345.078 -391.085 343.775C-392.131 343.049 -393.145 342.247 -394.12 341.47C-395.871 340.016 -397.623 338.588 -399.984 337.611C-402.949 336.283 -406.19 335.33 -409.32 334.403C-413.362 333.2 -417.547 331.947 -421.184 330.068C-433.659 323.653 -441.338 312.551 -444.849 296.062C-446.395 288.819 -447.1 280.875 -447.813 273.157C-448.954 260.452 -450 248.474 -454.518 239.928C-457.181 234.891 -461.357 230.38 -465.407 226.07C-470.019 221.183 -474.37 216.572 -475.551 211.911C-477.873 202.89 -468.102 196.976 -459.439 191.738C-456 189.633 -452.695 187.678 -450.27 185.573C-448.217 183.844 -446.125 182.316 -444.001 180.887C-440.229 178.181 -436.654 175.7 -433.793 171.891C-430.322 167.28 -427.556 162.293 -424.925 157.532C-424.355 156.479 -423.784 155.452 -423.205 154.399C-415.423 140.541 -405.715 132.572 -389.674 126.959C-379.458 123.375 -368.91 121.997 -354.351 122.373C-339.991 122.698 -329.577 113.326 -321.184 105.808L-320.915 105.533C-319.092 103.929 -317.309 102.25 -315.486 100.471C-307.062 92.4016 -298.336 84.0565 -285.529 81.225C-281.178 80.2974 -277.136 80.423 -272.452 80.924C-249.564 83.2795 -232.24 95.5842 -227.35 113.026C-225.773 118.689 -224.925 123.876 -224.085 128.863C-223.276 133.574 -222.5 138.06 -221.216 142.371C-220.479 144.827 -219.298 147.834 -218.252 150.515C-217.713 151.793 -217.245 152.996 -216.841 154.124C-214.313 160.89 -214.781 166.152 -218.284 170.237C-224.759 177.88 -240.934 180.436 -261.294 183.017C-265.645 183.543 -270.059 184.646 -274.711 185.799C-283.54 187.979 -292.638 190.26 -301.165 188.53C-306.689 187.403 -312.086 184.821 -317.341 182.316C-329.339 176.627 -340.664 171.214 -352.631 182.14C-355.492 184.721 -358.155 187.378 -360.723 189.984C-370.63 200.008 -380.029 209.48 -398.843 212.087C-415.621 214.442 -426.106 222.486 -429.918 236.069C-437.732 263.459 -438.446 285.01 -432.137 300.046C-427.152 311.799 -415.32 320.746 -400.357 323.953C-383.944 327.487 -366.144 333.2 -345.824 341.42C-339.69 343.926 -332.541 347.058 -326.177 351.193C-321.692 354.1 -317.784 357.584 -314.004 360.967C-310.977 363.648 -307.87 366.405 -304.502 368.91C-302.045 370.665 -299.58 372.494 -297.258 374.273C-290.855 379.06 -284.213 384.021 -277.199 388.482C-264.733 396.376 -248.621 402.365 -227.992 406.726L-225.939 407.176C-213.505 409.858 -197.995 413.166 -183.104 409.006C-164.464 403.768 -151.181 390.787 -149.263 375.877C-147.813 364.375 -154.486 357.784 -169.75 355.88C-177.001 354.927 -184.078 355.403 -190.918 355.854C-193.042 355.98 -195.031 356.105 -196.989 356.205C-199.715 356.356 -202.378 356.506 -205.009 356.656C-211.785 357.082 -218.759 357.533 -225.908 357.183C-248.146 356.03 -256.507 351.018 -270.526 341.545C-284.681 331.947 -300.357 320.871 -306.792 310.571C-310.874 304.081 -319.869 286.714 -315.082 266.291C-306.927 231.232 -283.809 211.034 -246.331 206.148C-242.218 205.621 -238.445 205.321 -234.467 205.07C-229.846 204.694 -225.099 204.343 -219.1 203.541C-209.827 202.288 -199.786 197.402 -191.457 190.084C-183.302 182.842 -178.142 174.497 -177.334 167.129C-176.462 158.609 -183.104 152.119 -188.493 146.906L-189.301 146.155C-194.865 140.717 -199.747 135.654 -203.289 128.587C-205.516 124.052 -206.966 117.762 -208.409 111.697C-209.526 106.886 -210.604 102.3 -212.015 98.5911C-220.106 77.6415 -251.989 67.6174 -265.304 64.2593L-266.413 64.0338C-272.349 62.5053 -279.696 60.674 -288.255 62.0288C-301.165 64.0588 -311.983 71.8024 -318.791 77.942C-334.332 91.8751 -356.578 100.471 -376.36 106.961C-380.607 108.364 -385.26 109.041 -389.777 109.668C-394.461 110.344 -399.311 111.021 -403.828 112.549C-413.909 115.907 -421.826 120.042 -427.39 124.803C-432.613 129.265 -436.147 134.728 -439.555 139.965C-442.218 144 -444.944 148.159 -448.384 151.843C-455.294 159.236 -464.527 166.503 -480.203 164.072C-488.057 162.869 -495.634 157.431 -502.346 152.595C-504.066 151.342 -505.715 150.189 -507.331 149.087C-517.412 142.27 -524.188 137.96 -535.474 135.379C-543.898 133.475 -558.964 133.324 -569.822 135.078C-578.515 136.457 -586.908 138.186 -595 139.915L-595 140.266C-586.877 138.512 -578.484 136.807 -569.719 135.379C-558.932 133.675 -543.97 133.8 -535.608 135.679Z" fill="#EB8D00"/>
</g>
<defs>
<linearGradient id="paint0_linear_192_97" x1="319.5" y1="0" x2="319.5" y2="342.168" gradientUnits="userSpaceOnUse">
<stop stop-color="#D9D9D9" stop-opacity="0"/>
<stop offset="0.354167" stop-color="#D9D9D9"/>
<stop offset="1" stop-color="#D9D9D9"/>
</linearGradient>
</defs>
</svg>
