<svg width="406" height="506" viewBox="0 0 406 506" fill="none" xmlns="http://www.w3.org/2000/svg">
<mask id="mask0_1_2423" style="mask-type:alpha" maskUnits="userSpaceOnUse" x="0" y="0" width="409" height="506">
<rect width="409" height="506" fill="url(#paint0_linear_1_2423)"/>
</mask>
<g mask="url(#mask0_1_2423)">
<path fill-rule="evenodd" clip-rule="evenodd" d="M171.602 -13.4509C172.875 -17.3131 175.004 -19.8037 177.342 -20.1117C179.264 -20.364 181.277 -20.5317 183.338 -20.5317C193.013 -20.5317 202.665 -17.6492 212.919 -14.5983C219.169 -12.7511 225.604 -10.82 232.108 -9.5888C234.006 -9.22513 236.182 -9.08492 239.121 -9.08492C240.556 -9.08492 242.107 -9.11309 243.589 -9.14127C245.116 -9.19697 246.69 -9.22514 248.264 -9.22514C256.296 -9.22514 264.328 -8.13349 268.518 -0.045568C273.703 9.88954 272.036 21.1404 270.416 31.9995C269.999 34.7417 269.559 37.5404 269.281 40.2276C267.847 52.9332 260.185 61.6934 248.218 64.2961C244.931 65.0516 241.459 65.3596 237.894 65.3596C230.904 65.3596 223.798 63.96 217.41 61.3016C206.253 56.6276 199.309 51.3101 196.716 37.9322C194.818 28.2212 191.925 20.8049 187.018 13.0525C185.12 10.0298 182.064 5.72014 178.5 2.55718C177.713 1.85802 176.717 1.29776 175.792 0.73817C174.31 -0.101223 172.829 -0.996992 171.926 -2.28459C170.305 -4.6075 170.19 -9.19697 171.602 -13.4509ZM175.63 1.10184C176.624 1.66209 177.55 2.19349 178.291 2.86514C181.833 5.97174 184.865 10.2539 186.786 13.3042C191.647 20.9727 194.54 28.3608 196.415 38.0443C199.077 51.5617 206.067 56.9355 217.317 61.6371C223.728 64.2961 230.858 65.7515 237.894 65.7515C241.482 65.7515 244.954 65.3596 248.264 64.6598C260.37 62.0289 268.148 53.1855 269.559 40.2833C269.883 37.5967 270.3 34.7981 270.694 32.0834C272.36 21.1404 274.05 9.83388 268.796 -0.241458C264.514 -8.44143 256.389 -9.58881 248.264 -9.5888C246.69 -9.5888 245.093 -9.53311 243.589 -9.50494C242.107 -9.44924 240.556 -9.39287 239.121 -9.39287C236.182 -9.39287 234.029 -9.5888 232.154 -9.92495C225.673 -11.1844 219.215 -13.0872 213.011 -14.9626C202.734 -17.9847 193.036 -20.9236 183.338 -20.9236C181.277 -20.9236 179.24 -20.7558 177.319 -20.5036C174.866 -20.1399 172.644 -17.5653 171.301 -13.5912C170.097 -9.86861 169.727 -4.88727 171.671 -2.06046C172.644 -0.660816 174.171 0.206747 175.63 1.10184Z" fill="#EB8D00"/>
<path fill-rule="evenodd" clip-rule="evenodd" d="M222.783 41.5029C224.94 36.341 232.099 31.5381 235.512 30.351C236.366 30.0477 237.219 29.9094 238.049 29.9094C240.324 29.9094 242.505 30.9858 244.165 33.0011C245.895 35.0438 246.867 37.7764 246.796 40.3714C246.725 43.6282 245.065 46.3333 242.15 47.8794C241.676 48.1553 241.154 48.4036 240.633 48.625C238.855 49.2874 235.062 50.0323 231.387 50.0323C226.457 50.0323 223.327 48.7351 222.522 46.389C221.977 44.8704 222.071 43.2142 222.783 41.5029ZM231.387 50.3913C235.085 50.3913 238.949 49.6457 240.728 48.9834C241.249 48.7626 241.818 48.5143 242.292 48.2385C245.302 46.6098 247.033 43.7939 247.104 40.3714C247.151 37.6939 246.132 34.8505 244.402 32.7803C242.031 29.9094 238.665 28.8605 235.441 29.9926C231.98 31.2348 224.679 36.0652 222.522 41.3372C221.763 43.1867 221.668 44.8985 222.237 46.4991C223.351 49.7014 227.832 50.3913 231.387 50.3913Z" fill="#EB8D00"/>
<path fill-rule="evenodd" clip-rule="evenodd" d="M325.867 187.5C325.797 186.667 325.821 185.805 325.844 184.888C325.867 183.943 325.891 182.999 325.797 182.026C325.212 176.108 323.177 168.855 321.048 161.214C318.849 153.378 316.603 145.32 315.527 137.568C315.083 134.317 314.779 130.816 314.498 127.426C313.609 116.339 312.696 104.946 306.17 99.8617C303.222 97.528 298.918 96.4718 292.625 96.4718C289.116 96.4718 285.326 96.7775 281.583 97.0832C280.156 97.1942 278.682 97.3333 277.255 97.4444C264.389 98.3614 237.626 102.335 228.268 110.726C215.519 122.202 213.998 141.903 214.209 159.714C215.706 182.11 228.596 194.641 242.773 207.284L243.287 207.284C229.017 194.586 216.034 182.11 214.466 159.686C214.279 142.014 215.823 122.396 228.479 111.032C237.72 102.668 264.435 98.7226 277.279 97.7775C278.705 97.722 280.179 97.5554 281.63 97.4444C285.349 97.1106 289.139 96.8049 292.625 96.8049C298.871 96.8049 303.105 97.8611 306.006 100.139C312.393 105.141 313.305 116.451 314.217 127.454C314.475 130.843 314.755 134.372 315.223 137.623C316.299 145.404 318.569 153.49 320.744 161.353C322.896 168.966 324.932 176.163 325.47 182.054C325.563 182.999 325.54 183.971 325.516 184.86C325.493 185.805 325.47 186.694 325.563 187.528C326.195 193.363 325.516 200.31 323.855 207.284L324.183 207.284C325.821 200.282 326.499 193.307 325.867 187.5Z" fill="#EB8D00"/>
<path fill-rule="evenodd" clip-rule="evenodd" d="M310.089 184.081C309.527 180.567 308.451 176.328 307.305 171.81C305.69 165.284 303.795 157.922 302.859 150.42C302.601 148.3 302.368 146.292 302.133 144.312C300.659 131.511 299.489 121.415 292.306 114.722C287.416 110.176 278.291 107.443 267.855 107.443C255.173 107.443 243.38 111.264 236.314 117.651C224.685 128.137 224.217 146.627 225.855 160.292C228.429 174.878 237.203 182.352 248.317 191.918C253.512 196.324 258.893 200.926 264.345 206.81C264.486 206.95 264.626 207.145 264.766 207.284L265.234 207.284C264.977 207.061 264.766 206.782 264.532 206.56C259.057 200.647 253.465 195.85 248.528 191.611C237.46 182.157 228.686 174.655 226.159 160.237C224.498 146.655 224.942 128.332 236.501 117.93C243.497 111.599 255.243 107.834 267.855 107.834C278.221 107.834 287.252 110.483 292.119 115.001C299.232 121.611 300.355 131.623 301.806 144.34C302.063 146.32 302.274 148.384 302.554 150.447C303.514 157.977 305.362 165.396 307 171.894C308.147 176.412 309.223 180.651 309.761 184.137C310.954 191.611 310.51 199.782 308.568 207.284L308.872 207.284C310.814 199.754 311.282 191.556 310.089 184.081Z" fill="#EB8D00"/>
<path fill-rule="evenodd" clip-rule="evenodd" d="M283.583 172.91C281.707 175.822 279.878 178.179 277.931 180.121C276.149 180.426 274.296 180.592 272.443 180.592C257.926 180.592 240.43 170.303 236.536 151.306C235.903 136.358 239.328 130.201 245.026 125.098C249.459 121.16 256.167 118.803 262.992 118.803C271.599 118.803 278.869 122.381 282.95 128.592C288.672 137.273 288.884 153.441 283.583 172.91ZM262.992 118.415C256.12 118.415 249.342 120.8 244.886 124.821C239.07 129.979 235.575 136.219 236.208 151.334C240.172 170.58 257.832 180.952 272.443 180.952C274.343 180.952 276.196 180.786 278.001 180.426L278.048 180.426L278.071 180.426C280.065 178.484 281.965 176.072 283.841 173.104L283.864 173.021C289.212 153.441 288.954 137.162 283.184 128.398C279.08 122.048 271.692 118.415 262.992 118.415Z" fill="#EB8D00"/>
<path fill-rule="evenodd" clip-rule="evenodd" d="M188.684 172.868C186.38 159.663 184.053 146.069 176.839 135.227C173.138 129.667 168.577 127.526 162.782 128.527C150.867 130.64 136.717 143.511 129.084 150.462C120.566 161.081 117.378 173.925 119.263 189.715C119.938 195.358 121.264 201.363 122.637 207.284L122.963 207.284C121.567 201.335 120.217 195.303 119.565 189.659C117.68 173.98 120.869 161.22 129.293 150.712C136.856 143.845 150.983 130.974 162.829 128.916C163.736 128.75 164.621 128.666 165.458 128.666C169.903 128.666 173.557 130.89 176.583 135.477C183.751 146.236 186.124 159.774 188.382 172.924C190.406 184.739 192.501 196.971 198.179 206.839C198.273 207.034 198.343 207.145 198.459 207.284L198.831 207.284C198.692 207.09 198.552 206.868 198.412 206.645C192.803 196.831 190.709 184.655 188.684 172.868Z" fill="#EB8D00"/>
<path fill-rule="evenodd" clip-rule="evenodd" d="M264.308 145.578C263.265 147.603 261.575 148.771 259.722 148.771C259.166 148.771 258.61 148.668 258.031 148.46C257.66 147.992 257.244 147.551 256.897 147.213C256.364 146.538 256.109 145.708 256.178 144.747C256.318 143.396 257.081 141.942 258.077 141.059C258.68 140.799 259.235 140.722 259.791 140.722C261.551 140.722 263.242 141.916 264.33 143.915C264.354 144.409 264.354 145.006 264.308 145.578ZM264.654 143.838L264.632 143.786C263.474 141.657 261.667 140.358 259.791 140.358C259.189 140.358 258.564 140.488 257.985 140.747L257.962 140.773C256.827 141.734 256.039 143.266 255.901 144.721C255.808 145.759 256.086 146.72 256.688 147.447C257.081 147.811 257.476 148.227 257.869 148.72L257.892 148.746L257.939 148.746C258.518 149.005 259.12 149.135 259.722 149.135C261.69 149.135 263.52 147.837 264.608 145.708L264.632 145.629C264.678 145.032 264.654 144.383 264.654 143.864L264.654 143.838Z" fill="#EB8D00"/>
<path fill-rule="evenodd" clip-rule="evenodd" d="M151.088 164.495C150.65 164.495 150.21 164.495 149.749 164.549C145.638 164.957 141.988 167.213 139.217 171.045C135.266 176.563 133.511 185.015 134.274 194.799C134.573 198.577 135.105 202.436 135.821 206.187L136.121 206.187C135.405 202.409 134.874 198.577 134.573 194.772C133.834 185.069 135.544 176.726 139.447 171.263C142.15 167.485 145.73 165.256 149.772 164.875C150.234 164.848 150.65 164.821 151.088 164.821C163.33 164.821 167.88 181.998 171.853 197.082C172.708 200.262 173.516 203.387 174.371 206.187L174.694 206.187C173.816 203.387 173.008 200.208 172.153 196.974C168.134 181.753 163.584 164.495 151.088 164.495Z" fill="#EB8D00"/>
<path fill-rule="evenodd" clip-rule="evenodd" d="M483.056 171.937C479.485 164.055 475.752 155.866 472.807 147.398C471.16 142.774 469.7 137.705 468.123 132.329C461.467 109.35 453.932 83.3059 430.557 83.3059L429.63 83.3059C421.142 83.5566 413.142 87.1223 407.948 90.1022C406.673 90.7711 405.351 91.495 404.052 92.2751C400.134 94.4199 396.076 96.6478 392.435 99.0714C381.814 106.118 369.617 109.545 357.884 112.887L357.721 112.915C356.724 113.221 355.658 113.5 354.521 113.75C346.637 115.756 336.828 118.291 333.721 129.293C331.333 137.761 333.536 148.624 335.646 159.096C336.411 162.94 337.13 166.562 337.64 169.987C339.332 181.853 339.472 193.078 337.941 203.273C337.732 204.582 337.524 205.919 337.246 207.284L337.57 207.284C337.826 205.947 338.034 204.637 338.243 203.328C339.727 193.107 339.634 181.826 337.918 169.932C337.408 166.478 336.689 162.857 335.924 159.013C333.791 148.568 331.657 137.761 333.999 129.405C337.06 118.569 346.776 116.118 354.591 114.14C355.727 113.834 356.794 113.555 357.791 113.277L357.93 113.249C369.733 109.907 381.954 106.453 392.597 99.4058C396.191 97.0104 400.249 94.7537 404.168 92.5533C405.49 91.8569 406.788 91.133 408.064 90.4085C413.235 87.4561 421.235 83.9186 429.63 83.6679C429.954 83.6404 430.279 83.6404 430.557 83.6404C453.7 83.6404 461.213 109.572 467.868 132.468C469.398 137.816 470.882 142.913 472.505 147.565C475.497 156.06 479.184 164.222 482.778 172.16C485.839 178.873 488.738 185.224 491.242 191.769C493.7 198.287 496.297 203.44 499.033 207.284L499.451 207.284C496.622 203.468 494.025 198.259 491.474 191.63C489.016 185.084 486.118 178.706 483.056 171.937Z" fill="#EB8D00"/>
<path fill-rule="evenodd" clip-rule="evenodd" d="M568.881 -61.5578C562.704 -59.8939 556.784 -56.3453 551.025 -52.852C545.267 -49.3868 539.346 -45.7821 533.216 -44.2297C517.358 -40.1545 511.483 -56.7057 506.329 -71.3721C505.563 -73.4791 504.866 -75.4753 504.169 -77.3881C501.22 -85.0674 497.877 -92.0819 494.185 -98.2368C486.778 -110.657 478.257 -120.582 468.807 -127.708C460.076 -134.278 452.716 -137.882 445.681 -138.991C434.28 -140.793 426.177 -136.579 416.82 -131.728C414.8 -130.674 412.687 -129.565 410.551 -128.539C404.375 -125.573 397.363 -122.19 392.579 -114.815C389.004 -109.298 386.287 -102.589 383.686 -96.1017L383.083 -94.6327C378.253 -82.7107 374.724 -70.9282 370.986 -58.4803C370.127 -55.6525 369.291 -52.7966 368.478 -49.9688C366.226 -42.2615 363.927 -34.2766 361.094 -26.7081C358.981 -20.9416 355.754 -15.9234 352.643 -11.072C350.901 -8.35493 349.113 -5.55446 347.557 -2.67123C343.541 4.64763 337.248 11.0248 331.165 17.207C328.96 19.4529 326.87 21.5599 324.919 23.6943C323.689 24.9977 322.412 26.3559 320.996 27.7701C314.703 34.2574 307.552 41.6323 305.671 50.9748C305.415 52.2228 305.207 53.4428 304.974 54.6348C302.954 65.0865 301.19 74.1527 292.436 80.6953C284.147 86.8782 274.093 88.9018 265.223 90.6485C261.021 91.5081 256.772 92.1455 252.662 92.8109C245.046 93.9755 237.872 95.1121 231.37 97.1637C216.487 101.904 207.432 114.214 204.413 133.843C201.487 152.972 204.46 176.344 207.756 185.909C210.728 194.503 215.744 201.24 221.758 207.284L222.245 207.284C216.138 201.24 211.054 194.42 208.035 185.742C204.761 176.261 201.766 152.972 204.692 133.898C207.71 114.436 216.672 102.182 231.44 97.5241C237.941 95.4445 245.116 94.3359 252.708 93.1439C256.818 92.5339 261.067 91.8685 265.27 91.0369C274.162 89.2342 284.24 87.2386 292.598 81.0003C301.468 74.3469 303.21 65.2534 305.253 54.7176C305.485 53.5256 305.741 52.2782 305.972 51.0582C307.83 41.8259 314.935 34.5344 321.204 28.0471C322.597 26.6335 323.921 25.2747 325.128 23.9439C327.079 21.8368 329.145 19.7025 331.374 17.484C337.458 11.2744 343.773 4.89727 347.79 -2.477C349.369 -5.36023 351.157 -8.13269 352.875 -10.8497C355.986 -15.7292 359.237 -20.7755 361.373 -26.5419C364.229 -34.1104 366.528 -42.1227 368.78 -49.858C369.593 -52.6578 370.428 -55.541 371.264 -58.3688C375.003 -70.7894 378.555 -82.5445 383.385 -94.4939L383.942 -95.9629C386.542 -102.451 389.259 -109.104 392.858 -114.622C397.571 -121.885 404.537 -125.24 410.667 -128.179C412.826 -129.26 414.916 -130.341 416.936 -131.395C426.247 -136.247 434.303 -140.461 445.658 -138.659C452.646 -137.522 459.961 -133.973 468.668 -127.403C478.048 -120.305 486.57 -110.435 493.953 -97.9872C497.622 -91.8877 500.942 -84.8738 503.868 -77.2219C504.587 -75.3365 505.307 -73.3403 506.05 -71.2332C508.558 -64.1633 511.368 -56.151 515.523 -50.5788C520.307 -44.2297 526.111 -42.0119 533.309 -43.8419C539.416 -45.4217 545.383 -49.0538 551.165 -52.547C556.9 -55.9849 562.844 -59.5889 568.95 -61.1693C579.027 -63.8583 588.245 -60.7535 596 -57.4819L596 -57.8423C588.222 -61.1139 579.004 -64.1914 568.881 -61.5578Z" fill="#EB8D00"/>
<path fill-rule="evenodd" clip-rule="evenodd" d="M552.83 75.0338C545.616 83.3685 538.797 91.26 529.884 94.3333C517.457 98.6808 508.078 87.8263 499.001 77.2767C498.443 76.6399 497.884 75.9751 497.326 75.3383C492.718 70.0221 487.203 66.007 481.85 62.1306C478.033 59.3611 474.054 56.454 470.493 53.1311C467.817 50.6112 464.977 48.2856 462.208 46.0427C460.346 44.464 458.438 42.9133 456.623 41.3353C453.574 38.7046 451.479 34.5239 449.408 30.4807C448.291 28.3213 447.151 26.023 445.847 24.1125C442.357 18.7684 437.423 14.6978 432.629 10.7661C423.855 3.5662 415.57 -3.2452 414.965 -17.3673C414.639 -25.7848 416.222 -36.2242 419.34 -46.0261C422.319 -55.302 427.928 -65.3535 434.77 -73.6328C439.424 -79.254 444.149 -81.884 448.803 -81.4134C457.088 -80.583 464.163 -70.1717 469.422 -61.1722C472.517 -55.8834 473.751 -50.7889 475.008 -45.3893C475.752 -42.2326 476.543 -39.0484 477.707 -35.6147C478.894 -32.209 480.337 -28.8581 481.664 -25.6186C483.851 -20.496 486.062 -15.2353 487.435 -9.58602C489.762 -0.143907 490.228 13.535 486.62 21.4265C483.13 29.0689 484.782 42.0275 488.459 48.8116C491.81 54.9588 500.165 58.8905 506.891 62.0472C508.427 62.7674 509.823 63.4597 511.103 64.0684C511.685 64.4009 512.313 64.7053 512.872 65.0377C515.059 66.1731 516.898 67.1978 519.016 67.6958C529.442 70.2437 536.656 64.2901 540.985 49.5312C545.569 34.0253 542.404 19.9032 532.072 9.76882C528.953 6.69554 525.346 4.34186 521.878 2.07096C520.319 1.04696 518.667 -0.0331091 517.107 -1.14119C516.688 -1.44558 516.293 -1.69458 515.874 -2.027C511.335 -5.23912 505.704 -9.25426 502.586 -13.9056C497.931 -20.8838 494.114 -28.4155 491.228 -36.3624C489.762 -40.4329 488.599 -44.5582 487.388 -48.9885C486.504 -52.1453 485.596 -55.3854 484.549 -58.6803C482.175 -66.212 478.545 -72.8852 475.939 -77.1493C471.028 -85.0962 462.185 -95.7846 453.411 -99.6889C439.494 -105.808 420.76 -89.4711 411.567 -77.0385C406.401 -70.0609 403.05 -61.3664 400.443 -53.7793C399.745 -51.73 399.07 -49.626 398.349 -47.6041C394.555 -36.2515 390.948 -25.5078 384.944 -15.595C383.012 -12.4103 381.43 -9.00458 379.871 -5.70968C378.777 -3.356 377.637 -0.864138 376.356 1.48955C373.122 7.49857 368.211 11.0425 363.37 14.033C361.16 15.4174 358.832 16.6917 356.598 17.9373C350.152 21.5092 343.496 25.2473 338.05 31.3392C334.606 35.2435 333.233 39.3414 333.978 43.5782C335.164 50.6112 341.727 55.9 347.475 58.4199C359.391 63.7367 373.215 61.7982 385.386 60.0813L386.945 59.8878C387.923 59.7489 388.877 59.6381 389.831 59.5C395.207 58.8631 400.28 58.2537 405.377 54.7926C406.191 54.2385 406.983 53.6851 407.797 53.1591C415.5 47.9257 422.157 43.3846 431 41.0583C436.538 39.5911 444.777 39.7292 449.804 43.4674C452.317 45.3224 453.387 48.1193 454.505 51.1099C455.203 52.9375 455.924 54.8199 456.972 56.5094C461.184 63.0719 466.909 68.2498 472.424 73.2896C477.824 78.1626 483.456 83.2577 487.668 89.6539C490.205 93.4755 492.299 98.2102 494.37 102.751C496.418 107.32 498.559 112.027 500.98 115.655C506.006 123.02 512.825 125.568 520.295 122.826C526.742 120.417 533.91 113.882 540.822 107.597C541.892 106.628 542.916 105.658 543.94 104.745C547.547 101.505 551.085 98.0994 554.483 94.8045C563.861 85.7496 572.705 77.1659 582.689 72.3477C586.645 70.4647 591.16 69.0802 596 67.9728L596 67.585C591.113 68.7204 586.552 70.0775 582.572 72.0433C572.565 76.8335 563.675 85.4726 554.273 94.5275C550.875 97.8224 547.385 101.201 543.754 104.44C542.73 105.382 541.683 106.323 540.682 107.293C533.77 113.578 526.626 120.085 520.203 122.467C512.872 125.18 506.146 122.688 501.235 115.406C498.839 111.834 496.79 107.348 494.65 102.613C492.578 98.0167 490.414 93.2539 487.901 89.4603C483.618 83.0087 478.033 77.9135 472.611 72.9846C467.095 67.9728 461.417 62.8229 457.228 56.2598C456.204 54.6544 455.482 52.7713 454.784 50.9716C453.621 47.9531 452.527 45.1015 449.99 43.163C444.87 39.3414 436.515 39.2032 430.93 40.6985C422.04 43.0795 415.361 47.5933 407.634 52.8541C406.843 53.3801 406.005 53.9067 405.214 54.5155C400.187 57.8939 395.16 58.4753 389.784 59.1401C388.854 59.2783 387.876 59.4165 386.899 59.5L385.363 59.7489C373.192 61.4384 359.437 63.3489 347.568 58.0875C340.447 54.9308 335.211 49.1994 334.257 43.4954C333.559 39.3968 334.908 35.3817 338.283 31.6162C343.659 25.5798 350.315 21.8416 356.715 18.2417C358.972 17.0235 361.299 15.7225 363.533 14.3654C368.374 11.3749 373.354 7.74757 376.636 1.65576C377.869 -0.697924 379.033 -3.13439 380.15 -5.5161C381.686 -8.81099 383.292 -12.2167 385.2 -15.3734C391.251 -25.3142 394.835 -36.0853 398.651 -47.4659C399.326 -49.5152 400.024 -51.5638 400.746 -53.6685C403.352 -61.2002 406.68 -69.8393 411.777 -76.7895C420.923 -89.1667 439.517 -105.421 453.295 -99.3291C462.022 -95.4802 470.819 -84.8192 475.683 -76.9003C478.312 -72.6636 481.92 -66.0457 484.293 -58.5421C485.341 -55.2746 486.248 -52.0071 487.109 -48.8778C488.32 -44.4474 489.46 -40.294 490.949 -36.2515C493.835 -28.2493 497.675 -20.6896 502.329 -13.6846C505.495 -8.97721 511.15 -4.96209 515.688 -1.69457C516.13 -1.44558 516.525 -1.14118 516.967 -0.808759C518.503 0.29867 520.179 1.35133 521.738 2.40335C525.206 4.64622 528.767 6.97254 531.885 10.0178C542.078 20.0693 545.22 34.0526 540.705 49.421C536.423 64.0131 529.325 69.8559 519.062 67.364C517.014 66.8374 515.152 65.8687 512.988 64.7053C512.429 64.4009 511.801 64.0684 511.219 63.736C509.963 63.0992 508.52 62.4624 507.007 61.7428C500.305 58.5581 491.996 54.6818 488.715 48.618C485.108 41.9167 483.456 29.1797 486.877 21.62C490.484 13.6732 490.041 -0.17193 487.714 -9.69682C486.364 -15.3454 484.107 -20.6342 481.966 -25.7848C480.593 -29.0243 479.196 -32.3752 478.01 -35.7809C476.823 -39.1593 476.055 -42.3707 475.31 -45.5001C474.03 -50.927 472.82 -56.0222 469.678 -61.3938C464.372 -70.4207 457.228 -80.9428 448.826 -81.7732C444.079 -82.2719 439.285 -79.6138 434.56 -73.9098C427.672 -65.5751 422.04 -55.4682 419.061 -46.1642C415.919 -36.3069 414.337 -25.7848 414.663 -17.3393C415.267 -3.05163 423.995 4.09222 432.442 11.0425C437.213 14.9748 442.147 19.0447 445.638 24.3335C446.895 26.2166 447.989 28.3767 449.152 30.675C451.223 34.7175 453.364 38.8989 456.413 41.6123C458.275 43.2184 460.206 44.7964 462.045 46.3197C464.768 48.59 467.607 50.9436 470.283 53.4081C473.867 56.7584 477.847 59.6381 481.687 62.407C487.039 66.3113 492.532 70.2991 497.093 75.6153C497.698 76.2521 498.21 76.8615 498.792 77.5538C507.915 88.1313 517.386 99.096 529.977 94.6937C538.937 91.5924 545.802 83.6729 553.063 75.3108C559.928 67.3633 567.05 59.1121 576.638 54.3219C582.782 51.276 589.461 49.5038 596 47.9257L596 47.5379C589.414 49.116 582.712 50.9162 576.521 54.0176C566.887 58.8077 559.765 67.0589 552.83 75.0338Z" fill="#EB8D00"/>
<path fill-rule="evenodd" clip-rule="evenodd" d="M564.073 -32.8553C559.15 -31.6088 554.111 -28.6457 548.794 -25.5165C539.947 -20.3378 530.821 -14.9657 522.416 -18.0949C507.299 -23.7164 501.494 -42.8798 496.363 -59.7723C495.294 -63.2336 494.319 -66.4736 493.251 -69.6028C490.929 -76.5541 487.98 -83.0339 484.52 -88.7388C479.156 -97.6556 472.562 -103.166 465.573 -108.982C464.504 -109.84 463.46 -110.754 462.368 -111.64C456.215 -116.846 448.715 -121.998 440.054 -120.502C437.337 -120.031 434.504 -118.314 431.788 -116.625C430.069 -115.545 428.42 -114.576 426.841 -113.883C425.657 -113.358 424.45 -112.831 423.242 -112.277C413.954 -108.317 404.364 -104.135 397.77 -95.1913C395.889 -92.6156 394.263 -89.265 392.685 -86.0805C391.872 -84.3631 391.105 -82.8125 390.316 -81.2893C387.019 -75.3076 384.209 -68.7171 381.864 -61.683C379.379 -54.0401 377.893 -45.8429 376.5 -37.8952C374.944 -29.3105 373.365 -20.4211 370.486 -12.3627C367.514 -4.08216 359.666 1.87148 352.723 7.0775C350.842 8.5174 349.054 9.87459 347.475 11.2318C342.761 15.136 338.651 19.8718 334.727 24.4689C332.149 27.4874 329.456 30.6166 326.623 33.4684C320.075 40.0596 317.149 51.3306 318.937 62.8784C322.118 83.0935 328.713 86.4448 342.993 89.2692C353.884 91.4014 366.562 90.9032 381.702 87.746C390.432 85.9186 398.745 79.1893 406.756 72.7368C409.682 70.3553 412.422 68.1117 415.115 66.201C426.354 58.0872 439.729 59.8045 450.805 70.7154C452.244 72.0999 453.661 73.4844 455.101 74.8136C463.529 82.8721 471.517 90.4597 475.743 102.562C477.624 107.823 478.855 113.445 480.062 118.9C481.223 124.245 482.407 129.756 484.242 134.99C486.958 142.827 492.276 151.495 498.151 157.642C503.212 162.959 510.875 168.691 518.631 166.005C525.852 163.485 530.078 153.71 534.583 143.381C537.462 136.818 540.434 130.06 544.359 124.439C549.467 117.1 556.294 110.481 560.984 106.134L561.472 105.663C571.526 96.3586 581 87.5519 593.585 84.5614C594.375 84.34 595.188 84.2012 596 84.0632L596 83.675C595.164 83.8411 594.352 84.0078 593.493 84.2012C580.861 87.1924 571.341 96.0258 561.309 105.359L560.775 105.83C556.085 110.177 549.258 116.851 544.127 124.189C540.179 129.839 537.23 136.651 534.328 143.214C529.846 153.488 525.62 163.18 518.538 165.645C510.945 168.332 503.375 162.654 498.359 157.393C492.601 151.356 487.144 142.522 484.521 134.851C482.709 129.645 481.502 124.134 480.364 118.845C479.156 113.362 477.926 107.712 476.045 102.423C471.749 90.2383 463.367 82.2632 455.24 74.5369C453.87 73.2077 452.407 71.8225 451.014 70.4379C439.775 59.4164 426.307 57.727 414.953 65.8688C412.236 67.8349 409.496 70.0505 406.617 72.4047C398.582 78.8845 390.316 85.5584 381.655 87.3858C366.539 90.5704 353.907 91.0693 343.04 88.8818C328.922 86.112 322.397 82.7894 319.239 62.795C317.451 51.3859 320.377 40.2536 326.809 33.7458C329.642 30.8654 332.359 27.7362 334.959 24.7177C338.883 20.1486 342.947 15.3854 347.637 11.5085C349.216 10.1794 351.027 8.82219 352.885 7.3823C359.851 2.14828 367.746 -3.80538 370.765 -12.1966C373.667 -20.3104 375.246 -29.2272 376.802 -37.8118C378.218 -45.7596 379.658 -53.9294 382.166 -61.517C384.488 -68.523 387.298 -75.1142 390.548 -81.0952C391.384 -82.5911 392.151 -84.197 392.963 -85.8864C394.519 -89.0709 396.145 -92.3662 398.025 -94.9419C404.573 -103.831 414.117 -107.958 423.335 -111.945C424.542 -112.499 425.75 -113.025 426.981 -113.524C428.583 -114.243 430.254 -115.324 431.903 -116.32C434.62 -117.982 437.43 -119.699 440.1 -120.142C448.668 -121.61 456.076 -116.514 462.206 -111.336C463.297 -110.422 464.319 -109.591 465.387 -108.705C472.376 -102.862 478.947 -97.4062 484.265 -88.5448C487.725 -82.8399 490.627 -76.3881 492.973 -69.4367C494.017 -66.3629 494.993 -63.0956 496.061 -59.6336C501.216 -42.6584 507.044 -23.4116 522.346 -17.7348C530.845 -14.5782 540.063 -19.9783 548.933 -25.2117C554.251 -28.3409 559.266 -31.2487 564.119 -32.4951C571.015 -34.2672 583.74 -34.9594 596 -34.6L596 -34.9874C583.717 -35.2922 570.969 -34.5999 564.073 -32.8553Z" fill="#EB8D00"/>
<path fill-rule="evenodd" clip-rule="evenodd" d="M473.5 187.35C471.728 179.954 468.862 172.337 466.089 164.996L465.6 163.732C463.805 158.864 462.337 153.668 460.775 148.169C457.606 136.924 454.344 125.293 447.842 116.907C442.086 109.511 432.694 105.249 422.044 105.249C416.078 105.249 410.345 106.596 405.475 109.181C399.719 112.233 395.058 115.834 391.213 120.261C387.997 123.918 383.313 125.843 378.792 127.74C375.762 128.95 372.639 130.27 369.912 132.057C361.663 137.584 356.489 145.309 354.928 154.465C353.483 162.962 353.623 173.96 353.786 184.545C353.856 191.007 353.972 197.688 353.716 203.874C353.67 204.947 353.599 206.129 353.53 207.284L353.833 207.284C353.903 206.129 353.972 204.974 354.019 203.874C354.276 197.716 354.182 191.007 354.089 184.545C353.926 173.96 353.786 162.989 355.231 154.521C356.769 145.502 361.896 137.831 370.076 132.359C372.755 130.6 375.879 129.307 378.885 128.07C383.429 126.173 388.137 124.248 391.422 120.509C395.244 116.137 399.882 112.535 405.615 109.511C410.462 106.954 416.125 105.606 422.044 105.606C432.601 105.606 441.923 109.841 447.632 117.182C454.064 125.513 457.35 137.088 460.473 148.306C462.057 153.778 463.502 159.03 465.32 163.869L465.833 165.134C468.583 172.503 471.426 180.064 473.197 187.46C474.199 191.612 475.061 196.204 475.923 200.658C476.343 202.94 476.762 205.139 477.182 207.284L477.508 207.284C477.065 205.139 476.646 202.884 476.203 200.575C475.387 196.121 474.525 191.502 473.5 187.35Z" fill="#EB8D00"/>
<path fill-rule="evenodd" clip-rule="evenodd" d="M459.254 193.734C458.537 187.859 457.705 181.209 455.717 175.39C454.931 173.007 453.706 171.039 452.503 169.099C451.579 167.658 450.677 166.162 449.937 164.472C448.85 162.089 447.995 159.428 447.093 156.574C444.458 148.538 441.776 140.225 434.378 137.87C432.621 137.316 430.309 137.066 427.327 137.066C424.182 137.066 420.876 137.371 417.917 137.676C416.738 137.731 415.651 137.842 414.634 137.953C405.04 138.674 394.798 143.052 387.169 149.73C377.967 157.738 375.332 171.233 374.13 180.765C373.228 187.582 372.419 197.696 375.17 206.231C375.309 206.591 375.424 206.951 375.54 207.284L375.887 207.284C375.748 206.896 375.586 206.508 375.447 206.093C372.719 197.668 373.552 187.582 374.407 180.793C375.609 171.371 378.245 157.932 387.354 150.007C394.937 143.384 405.155 139.006 414.657 138.285C415.674 138.23 416.761 138.119 417.94 138.009C420.899 137.731 424.205 137.399 427.327 137.399C430.263 137.399 432.552 137.704 434.309 138.258C441.568 140.558 444.226 148.787 446.793 156.685C447.717 159.595 448.596 162.227 449.66 164.638C450.4 166.328 451.347 167.824 452.249 169.294C453.428 171.233 454.653 173.201 455.44 175.5C457.404 181.292 458.237 187.914 458.954 193.789C459.485 197.946 459.693 202.601 459.67 207.284L459.948 207.284C459.994 202.573 459.762 197.918 459.254 193.734Z" fill="#EB8D00"/>
<path fill-rule="evenodd" clip-rule="evenodd" d="M108.505 158.357C110.875 149.166 114.871 143.612 121.19 135.282C122.165 133.949 123.258 132.644 124.419 131.2C128.903 125.647 134.014 119.343 135.129 112.763C137.406 99.6562 130.622 91.9365 123.653 86.1887C120.214 83.3563 116.358 81.1069 112.617 78.9411C107.785 76.1087 102.767 73.1933 98.6313 68.9173C94.24 64.363 90.4534 57.8931 87.3402 49.6184C85.9231 45.9529 85.3191 41.9823 84.6915 38.1503C84.0874 34.4018 83.4834 30.5416 82.1591 26.9877C76.0723 10.7159 68.1503 -7.66692 55.1631 -20.5506C49.5176 -26.16 42.3855 -34.9903 40.5035 -45.5143C39.2939 -52.4282 40.9916 -58.4816 42.3623 -63.3133L42.5946 -64.202C45.6846 -75.1425 54.8845 -101.3 74.1676 -107.881C77.6289 -109.075 81.8805 -109.936 86.3412 -110.88C91.9636 -112.018 97.795 -113.24 102.023 -115.128C108.644 -118.044 113.36 -122.098 118.379 -126.679L119.099 -127.318C123.885 -131.706 129.856 -137.176 137.639 -136.454C144.376 -135.787 152.089 -131.595 158.734 -124.875C165.471 -118.099 169.978 -109.88 171.116 -102.327C171.86 -97.4404 172.185 -93.4973 172.51 -89.7207C172.812 -86.4162 173.022 -83.3337 173.556 -79.9188C176.042 -62.8413 182.895 -49.2073 193.954 -39.461C202.922 -31.5467 214.886 -25.9935 229.546 -22.9665C248.55 -19.0234 264.72 -26.4375 270.737 -29.7975C280.355 -35.1849 290.67 -48.0967 299.569 -59.7869C308.397 -71.4215 313.09 -78.308 314.135 -96.7737C314.46 -102.716 314.066 -108.436 313.671 -114.045C313.531 -116.211 313.345 -118.432 313.252 -120.654C313.183 -122.264 313.067 -123.903 312.927 -125.652C312.486 -131.261 312.091 -137.065 312.927 -143.035C314.716 -155.336 320.664 -160.778 331.165 -159.557C344.849 -158.057 356.813 -147.2 361.646 -131.928C365.479 -119.793 362.389 -107.103 359.926 -96.8292L359.532 -95.1629C355.466 -78.2245 349.937 -65.0071 342.641 -54.7612C338.483 -48.9853 333.929 -43.5425 329.492 -38.2668C327.819 -36.3511 326.146 -34.3237 324.52 -32.3244C322.197 -29.5475 319.642 -26.9651 317.132 -24.4938C314.042 -21.4119 310.813 -18.1355 308.071 -14.4418C304.192 -9.19414 301.311 -3.25176 298.965 1.83003C291.368 18.5458 286.071 33.2911 282.772 46.786C279.798 59.0037 271.597 68.6946 260.817 72.7493C246.901 77.9415 226.99 77.331 201.62 70.972C189.191 67.8066 181.757 59.3093 179.643 45.5918C177.203 29.9866 168.352 22.2115 159.035 13.9923C156.619 11.882 154.157 9.68814 151.741 7.38327C141.843 -2.33502 146.769 -11.5264 151.996 -21.2728C154.342 -25.6324 156.735 -30.1031 157.758 -34.6847C159.407 -41.8488 157.293 -49.4019 155.249 -56.7324C154.18 -60.5645 153.181 -64.1465 152.67 -67.7004C150.277 -84.5834 147.861 -97.9124 140.682 -103.41C136.825 -106.325 131.877 -106.742 125.511 -104.604C124.489 -104.299 123.374 -103.882 122.165 -103.466C119.703 -102.577 116.915 -101.605 114.638 -101.022C110.665 -99.9391 106.53 -99.3005 102.163 -98.6894C97.4927 -97.9679 92.7066 -97.2732 87.4328 -95.9405C79.4177 -93.9693 72.3551 -89.3596 67.0582 -82.6396C61.8308 -76.0312 58.5317 -67.7004 57.4401 -58.5097C56.9751 -54.594 56.8361 -51.2347 57.7418 -47.5691C60.3906 -36.8786 68.4984 -29.3535 75.6542 -22.7171C77.304 -21.1899 78.8837 -19.7455 80.3703 -18.2464L80.6262 -18.0237C87.5492 -11.1653 96.1684 -2.66866 95.8435 9.02216C95.4949 21.0734 96.7955 29.792 100.141 38.2612C105.392 51.5341 112.826 59.6149 125.744 66.0848C126.719 66.5288 127.672 67.029 128.648 67.501C133.108 69.6942 137.662 71.9436 141.913 74.8041C145.398 77.1364 147.721 80.0798 150.184 83.1617C151.555 84.8835 152.949 86.6327 154.552 88.3271C156.48 90.3264 158.339 92.9916 160.267 95.8241C165.145 103.044 170.675 111.207 179.225 109.236C183.592 108.236 187.913 104.626 192.491 100.85C196.486 97.5178 200.622 94.0749 205.268 91.8536C213.144 88.188 224.226 87.2993 235.981 86.3552C243.114 85.8002 250.502 85.189 257.239 83.9393C272.573 81.0514 282.957 74.6095 288.952 64.2801C290.74 61.253 291.925 57.8101 293.017 54.4775C293.877 51.8677 294.782 49.2018 295.944 46.7586C296.804 44.8977 298.175 43.4541 299.499 42.0379C300.219 41.2602 300.986 40.427 301.636 39.5384C302.868 37.9002 304.052 36.2065 305.214 34.5127C306.468 32.6799 307.793 30.7361 309.21 28.9314C311.37 26.0716 313.856 23.4886 316.226 20.9062C318.434 18.5184 320.733 16.047 322.824 13.3811C324.544 11.2153 325.914 8.85496 327.262 6.57816C328.771 3.96772 330.305 1.35792 332.396 -1.05795C335.881 -5.22302 339.529 -9.74914 342.456 -14.7754C344.965 -19.107 346.08 -23.3276 347.311 -27.7708C347.66 -29.159 348.055 -30.5752 348.496 -32.0188C349.425 -35.2678 351.121 -38.3223 352.771 -41.2938C353.746 -43.0704 354.722 -44.8477 355.535 -46.6524C358.648 -53.456 361.297 -60.2589 363.458 -66.8679C364.039 -68.7556 364.573 -70.6439 365.154 -72.4767C365.386 -73.2818 365.618 -74.032 365.851 -74.809C366.92 -78.3361 368.058 -81.9181 369.173 -85.3891C372.332 -95.4685 375.655 -105.853 377.351 -115.322C378.443 -121.376 379.395 -127.846 378.234 -134.205C374.284 -156.086 356.558 -178.911 340.295 -183.076C332.768 -184.964 323.289 -184.853 313.601 -182.687C297.524 -179.078 291.577 -169.803 292.39 -149.56C292.576 -144.84 292.947 -140.063 293.273 -135.454C294.039 -125.485 294.782 -116.044 293.877 -106.937C293.389 -101.688 291.925 -96.9957 290.879 -93.9693C288.51 -87.1658 283.12 -75.5311 276.383 -62.9249C269.738 -50.5126 260.84 -41.4877 251.896 -38.1003C234.936 -31.6858 212.238 -38.0447 199.019 -52.9558C192.397 -60.4254 185.358 -73.1988 189.284 -91.4699C189.516 -92.5805 189.911 -93.6912 190.329 -94.8854C190.887 -96.3016 191.398 -97.8008 191.7 -99.4116C193.745 -103.66 196.3 -107.437 198.81 -111.13C204.432 -119.46 209.729 -127.291 207.707 -138.509C207.336 -140.592 206.569 -142.785 205.756 -145.145C204.083 -149.977 202.387 -154.92 204.385 -157.89C207.87 -163.083 212.633 -168.498 217.698 -174.246C226.433 -184.159 235.494 -194.461 238.049 -204.124C240.651 -213.787 235.331 -223.423 233.054 -227.504C230.615 -231.92 227.803 -236.474 224.853 -241.36C222.553 -245.081 220.183 -248.969 217.93 -252.829C216.071 -256.05 214.259 -259.132 212.47 -262.215C208.335 -269.295 204.432 -275.987 200.412 -283.123C198.833 -285.983 197.23 -289.038 195.673 -291.981C193.071 -296.924 190.376 -301.978 187.681 -306.282C181.78 -315.723 175.136 -319.61 167.864 -317.834C160.638 -316.084 152.809 -309.42 146.026 -303.338C145.096 -302.533 144.19 -301.7 143.284 -300.867C130.622 -289.51 116.241 -276.654 112.455 -262.353C109.248 -250.191 115.173 -244.527 121.446 -238.529C122.119 -237.889 122.793 -237.223 123.467 -236.557C127.625 -232.447 130.831 -228.199 133.387 -224.617C136.895 -219.702 139.985 -213.815 142.982 -208.123C145.096 -204.124 147.094 -200.264 149.092 -197.154C155.969 -186.381 164.89 -181.632 173.486 -176.995C181.942 -172.497 190.655 -167.887 197.253 -157.557C197.253 -157.169 197.276 -156.835 197.276 -156.447C197.299 -155.364 197.346 -154.281 197.09 -153.281C189.261 -143.118 179.526 -140.619 167.33 -145.451C163.613 -146.95 159.942 -149.31 156.039 -151.865C147.326 -157.502 138.312 -163.305 127.95 -159.529C120.493 -156.863 115.312 -150.56 110.294 -144.478C105.345 -138.453 100.257 -132.261 92.8461 -129.151C88.525 -127.402 84.0411 -126.874 77.7684 -126.291C61.924 -124.847 54.2805 -122.681 47.7751 -112.823C39.2001 -99.7726 28.6316 -76.7527 25.3772 -67.2283C24.1031 -63.4243 23.3142 -60.5919 22.9392 -58.5097C20.1757 -41.9042 28.7033 -28.9369 36.4146 -19.44C38.2955 -17.1912 40.3408 -15.0803 42.3155 -13.081C44.1048 -11.2489 45.94 -9.38802 47.6361 -7.4168C51.0742 -3.27916 53.8388 1.60807 56.5107 6.35621C57.8814 8.77208 59.2521 11.2434 60.716 13.6038C71.3562 30.5416 74.5626 45.3424 71.1471 61.5587C68.638 73.1933 62.9693 87.9105 49.9357 91.9091C45.127 93.3808 39.969 94.1304 34.5116 94.8525C29.4701 95.574 24.1968 96.2962 19.0615 97.6843C14.5771 98.9066 10.3243 100.489 6.23699 102.072C0.494959 104.182 -4.93818 106.237 -10.5368 107.07C-20.3662 108.653 -29.0758 106.182 -37.5096 103.877C-44.9451 101.794 -52.033 99.8507 -58.9996 100.961L-58.9996 101.322C-52.0551 100.184 -45.0168 102.155 -37.5813 104.21C-29.1255 106.57 -20.3882 108.986 -10.4927 107.431C-4.84443 106.57 0.566675 104.543 6.3308 102.378C10.396 100.85 14.6709 99.267 19.1553 98.0454C24.2851 96.6572 29.4921 95.9351 34.5337 95.241C40.0159 94.4634 45.1733 93.7693 49.9826 92.2695C60.4369 89.0486 67.8481 78.469 71.4025 61.6697C74.8875 45.3143 71.6585 30.4587 60.9714 13.3537C59.5312 11.0214 58.1368 8.55009 56.7661 6.18971C54.0715 1.41349 51.3064 -3.52925 47.822 -7.63881C46.1259 -9.66619 44.2907 -11.5264 42.5245 -13.3311C40.5498 -15.3585 38.5051 -17.4407 36.6462 -19.7181C28.9791 -29.1034 20.5012 -41.9878 23.2647 -58.4542C23.6122 -60.509 24.4009 -63.3133 25.6806 -67.0899C28.8853 -76.5862 39.4373 -99.578 48.0079 -112.573C54.4196 -122.32 62.0635 -124.542 77.7916 -125.957C84.0874 -126.541 88.5713 -127.041 92.9625 -128.873C100.42 -131.928 105.554 -138.203 110.526 -144.201C115.73 -150.56 120.632 -156.558 128.02 -159.196C138.289 -162.889 147.257 -157.113 155.899 -151.531C159.825 -149.005 163.496 -146.589 167.213 -145.118C179.573 -140.202 189.4 -142.785 197.369 -153.031L197.392 -153.114C197.648 -154.226 197.625 -155.364 197.555 -156.447L197.555 -157.613L197.555 -157.668L197.508 -157.724C190.887 -168.137 182.105 -172.83 173.626 -177.356C165.053 -181.91 156.154 -186.686 149.348 -197.377C147.373 -200.487 145.352 -204.319 143.237 -208.345C140.24 -214.037 137.127 -219.896 133.619 -224.867C131.064 -228.449 127.857 -232.697 123.652 -236.834C122.978 -237.529 122.305 -238.139 121.631 -238.806C115.451 -244.748 109.597 -250.357 112.756 -262.242C116.52 -276.432 130.831 -289.232 143.446 -300.561C144.376 -301.395 145.305 -302.228 146.211 -303.061C152.949 -309.142 160.755 -315.751 167.91 -317.5C175.043 -319.222 181.618 -315.418 187.449 -306.087C190.167 -301.784 192.815 -296.702 195.417 -291.787C196.974 -288.844 198.554 -285.817 200.157 -282.957C204.153 -275.793 208.079 -269.101 212.214 -261.992C214.004 -258.937 215.816 -255.8 217.698 -252.607C219.928 -248.747 222.274 -244.859 224.597 -241.138C227.571 -236.279 230.383 -231.698 232.822 -227.31C235.052 -223.228 240.326 -213.731 237.77 -204.235C235.214 -194.627 226.177 -184.437 217.465 -174.496C212.424 -168.748 207.638 -163.333 204.13 -158.112C202.039 -154.975 203.781 -149.921 205.5 -145.006C206.29 -142.674 207.057 -140.452 207.405 -138.453C209.427 -127.402 204.13 -119.626 198.554 -111.379C196.068 -107.659 193.466 -103.827 191.422 -99.5781L191.398 -99.4951C191.119 -97.9124 190.585 -96.4407 190.051 -95.0245C189.633 -93.8022 189.215 -92.6915 188.982 -91.5809C185.892 -77.1419 189.377 -63.3414 198.856 -52.7058C212.098 -37.7117 234.936 -31.3247 252.012 -37.7392C260.979 -41.2102 269.97 -50.2905 276.592 -62.7022C283.352 -75.3646 288.812 -86.9993 291.135 -93.8303C292.204 -96.8847 293.668 -101.605 294.178 -106.881C295.062 -116.044 294.341 -125.485 293.598 -135.482C293.226 -140.091 292.878 -144.868 292.692 -149.56C292.274 -159.807 293.598 -166.998 296.804 -172.08C300.103 -177.217 305.446 -180.494 313.647 -182.327C323.312 -184.492 332.745 -184.631 340.225 -182.687C356.395 -178.577 374.005 -155.864 377.931 -134.122C379.07 -127.846 378.117 -121.431 377.072 -115.406C375.353 -105.937 372.054 -95.5795 368.871 -85.5556C367.779 -82.0566 366.64 -78.4745 365.572 -74.948C365.34 -74.1704 365.108 -73.3934 364.852 -72.5877C364.341 -70.7549 363.736 -68.8673 363.155 -66.979C361.019 -60.398 358.393 -53.6225 355.28 -46.847C354.467 -45.0423 353.468 -43.265 352.515 -41.4877C350.889 -38.5168 349.147 -35.4343 348.194 -32.1298C347.776 -30.6862 347.381 -29.2425 347.009 -27.8818C345.824 -23.4667 344.686 -19.2461 342.246 -14.9975C339.296 -9.97116 335.649 -5.445 332.164 -1.33541C330.096 1.08045 328.539 3.77381 327.006 6.32807C325.705 8.63294 324.311 10.9652 322.615 13.1591C320.547 15.7696 318.224 18.2684 316.017 20.6287C313.624 23.2111 311.185 25.8489 308.954 28.7095C307.584 30.5142 306.236 32.4298 304.958 34.2907C303.82 35.9564 302.635 37.6507 301.427 39.289C300.753 40.1495 300.01 40.9826 299.29 41.7877C297.943 43.232 296.618 44.6757 295.712 46.6195C294.481 49.0628 293.598 51.7287 292.738 54.3111C291.623 57.643 290.461 61.0866 288.719 64.0855C282.772 74.3594 272.479 80.6903 257.193 83.5783C250.479 84.856 243.114 85.4391 235.958 86.0222C224.179 86.9663 213.074 87.8269 205.152 91.548C200.482 93.7412 196.3 97.1848 192.305 100.517C187.774 104.321 183.499 107.903 179.178 108.875C170.815 110.791 165.331 102.738 160.476 95.602C158.525 92.7696 156.712 90.0482 154.761 88.0489C153.158 86.3552 151.741 84.6334 150.416 82.8842C147.907 79.7743 145.607 76.8308 142.076 74.4705C137.801 71.6106 133.178 69.3338 128.764 67.1674C127.788 66.6953 126.835 66.2239 125.859 65.7518C113.012 59.3374 105.624 51.3402 100.42 38.1228C97.0978 29.7091 95.8198 21.0172 96.1684 9.02216C96.4707 -2.80709 87.7815 -11.3873 80.8121 -18.3019L80.5562 -18.5239C79.0696 -20.0231 77.5131 -21.4948 75.8633 -22.9946C68.3826 -29.9366 60.6459 -37.128 58.0209 -47.6801C57.161 -51.2621 57.2774 -54.594 57.7418 -58.4542C59.9261 -77.3084 71.333 -91.5809 87.5029 -95.6076C92.7535 -96.9121 97.5623 -97.6069 102.186 -98.3009C106.553 -98.9676 110.712 -99.6061 114.708 -100.661C116.985 -101.272 119.773 -102.244 122.259 -103.105C123.443 -103.549 124.559 -103.938 125.604 -104.271C131.877 -106.354 136.756 -105.965 140.542 -103.077C147.629 -97.7453 149.998 -84.4169 152.391 -67.6449C152.879 -64.0629 153.901 -60.4254 154.97 -56.5934C156.991 -49.3183 159.105 -41.8213 157.502 -34.7957C156.457 -30.2422 154.064 -25.799 151.741 -21.4674C146.467 -11.5819 141.448 -2.25211 151.578 7.60593C153.971 9.96564 156.434 12.1595 158.85 14.2698C168.143 22.4334 176.925 30.1812 179.341 45.6753C181.524 59.5039 188.982 68.1396 201.574 71.2776C226.967 77.7195 246.947 78.3025 260.887 73.1097C271.783 69.0001 280.076 59.2538 283.05 46.9251C286.326 33.4021 291.623 18.7404 299.243 1.99653C301.567 -3.05718 304.471 -8.94405 308.304 -14.1924C310.999 -17.8854 314.228 -21.1063 317.365 -24.2162C319.851 -26.7157 322.406 -29.27 324.729 -32.0469C326.356 -34.0736 328.052 -36.101 329.701 -38.0167C334.138 -43.2931 338.739 -48.7633 342.874 -54.5386C350.192 -64.8132 355.745 -78.086 359.787 -95.08L360.205 -96.7737C362.691 -107.02 365.758 -119.793 361.901 -132.067C357.045 -147.422 345.011 -158.363 331.188 -159.945C320.524 -161.139 314.414 -155.642 312.648 -143.062C311.765 -137.092 312.207 -131.261 312.625 -125.624C312.741 -123.875 312.858 -122.237 312.95 -120.626C313.09 -118.377 313.229 -116.184 313.369 -114.018C313.764 -108.436 314.182 -102.688 313.856 -96.8011C312.788 -78.4745 308.141 -71.588 299.36 -60.0369C290.461 -48.3742 280.193 -35.4624 270.644 -30.1586C264.627 -26.7986 248.527 -19.3845 229.593 -23.3276C197.09 -30.0476 178.365 -49.0963 173.835 -79.9743C173.346 -83.3617 173.068 -86.4717 172.836 -89.7481C172.487 -93.5527 172.162 -97.4678 171.419 -102.41C170.257 -110.047 165.726 -118.321 158.943 -125.18C152.228 -131.9 144.492 -136.148 137.662 -136.815C129.762 -137.536 123.745 -132.067 118.913 -127.624L118.216 -126.957C113.174 -122.375 108.482 -118.349 101.93 -115.433C97.725 -113.601 91.8936 -112.407 86.2712 -111.213C81.811 -110.297 77.5594 -109.408 74.1207 -108.242C54.6987 -101.577 45.4055 -75.3091 42.2923 -64.3411L42.0833 -63.4243C40.6662 -58.5371 38.9684 -52.4838 40.225 -45.4307C42.1064 -34.7957 49.2854 -25.8825 54.9772 -20.2731C67.8944 -7.47231 75.8633 10.8543 81.8806 27.1542C83.1817 30.6533 83.8089 34.4847 84.3897 38.2058C85.0169 42.0653 85.644 46.0639 87.0616 49.785C90.1748 58.0877 94.0078 64.6131 98.4222 69.1948C102.557 73.4989 107.622 76.4143 112.478 79.2186C116.218 81.4125 120.075 83.6618 123.49 86.4943C130.343 92.1866 137.081 99.7946 134.827 112.707C133.712 119.177 128.671 125.424 124.187 130.95C123.025 132.366 121.956 133.727 120.934 135.06C114.615 143.362 110.619 148.944 108.226 158.246C106.461 165.188 106.321 177.6 107.948 186.542C109.225 193.706 110.828 200.62 112.432 207.284L112.756 207.284C111.13 200.592 109.551 193.678 108.226 186.458C106.646 177.572 106.762 165.244 108.505 158.357Z" fill="#EB8D00"/>
<path fill-rule="evenodd" clip-rule="evenodd" d="M260.114 222.794C260.713 223.406 261.288 224.162 261.84 224.827C262.347 225.524 262.876 226.168 263.429 226.753C273.397 237.545 284.033 243.49 293.288 243.49C302.473 243.49 310.232 237.992 316.333 227.141C319.671 221.289 322.295 214.285 323.907 207.284L323.607 207.284C321.996 214.229 319.371 221.117 316.125 226.951C310.025 237.657 302.358 243.128 293.288 243.128C284.102 243.128 273.558 237.216 263.59 226.504C263.083 225.918 262.577 225.274 262.048 224.577C261.495 223.88 260.897 223.182 260.321 222.485C255.832 217.744 251.02 213.393 246.369 209.181C245.679 208.54 245.011 207.954 244.298 207.284L243.814 207.284C244.597 208.037 245.403 208.734 246.208 209.46C250.882 213.699 255.67 218.053 260.114 222.794Z" fill="#EB8D00"/>
<path fill-rule="evenodd" clip-rule="evenodd" d="M290.689 225.936C293.903 225.936 296.999 224.643 299.886 222.121C302.564 219.783 303.867 217.414 305.264 214.943C305.823 213.895 306.451 212.82 307.15 211.718C307.685 210.267 308.151 208.762 308.547 207.284L308.221 207.284C307.825 208.709 307.406 210.133 306.894 211.503C306.172 212.605 305.59 213.68 305.008 214.755C303.658 217.23 302.33 219.536 299.723 221.849C296.859 224.32 293.856 225.587 290.689 225.587C282.262 225.587 274.159 216.932 267.012 209.326C266.36 208.601 265.755 207.956 265.103 207.284L264.661 207.284C265.359 208.036 266.057 208.762 266.802 209.568C273.973 217.255 282.145 225.936 290.689 225.936Z" fill="#EB8D00"/>
<path fill-rule="evenodd" clip-rule="evenodd" d="M-28.7005 438.074C-18.1566 443.126 -5.02501 449.344 -0.0311403 462.114C0.315739 469.083 -1.72692 475.028 -3.91278 481.305C-6.95204 490.073 -10.4373 500.014 -8.48823 515.594C-6.9796 527.418 -1.17084 535 5.56842 543.8C8.35992 547.411 11.19 551.159 13.9099 555.436C21.0235 566.596 25.8797 579.203 29.6403 590.089C33.4284 600.89 36.4016 609.443 46.3243 612.272C52.2724 613.993 60.5907 615.186 66.2833 615.883C69.4432 616.3 72.3712 616.522 74.9964 616.522C79.3648 616.522 83.1292 615.935 86.3122 614.827C93.0504 612.441 97.3494 605.884 102.74 597.585C104.366 595.115 106.016 592.586 107.898 589.919C109.176 588.062 110.849 586.06 112.638 583.896C116.356 579.424 120.19 574.79 121.258 571.067C121.654 569.627 121.537 568.317 121.444 566.85C121.351 565.709 121.258 564.457 121.374 562.958L121.398 562.88L121.351 562.821C117.75 557.13 113.358 552.574 109.129 548.135C101.926 540.58 95.0952 533.5 92.5394 521.812C91.1684 515.646 91.6799 509.068 94.0265 501.657C96.5593 493.854 102.414 485.243 110.57 477.499C114.242 473.998 118.145 470.361 122.281 466.475C141.218 448.842 162.71 428.824 174.444 411.386L174.467 411.275C174.862 409.137 174.723 406.699 174.188 404.001C172.678 396.7 167.892 387.984 161.037 380.123C154.508 372.685 147.073 367.072 141.171 365.13C140.683 364.967 139.754 364.66 138.754 364.439C130.855 362.301 122.675 363.774 114.776 365.188C107.944 366.407 101.462 367.574 95.1651 366.603C81.5721 364.465 71.7903 353.579 68.3513 336.78C63.7974 314.708 76.3442 300.856 88.4964 287.414C97.4418 277.506 106.713 267.285 109.153 253.765C111.453 241.047 108.432 227.332 106.434 218.251C105.644 214.586 104.668 210.922 103.623 207.284L103.32 207.284C104.389 210.949 105.342 214.642 106.155 218.362C108.13 227.384 111.151 241.047 108.851 253.68C106.434 267.089 97.2095 277.284 88.264 287.14C76.0888 300.634 63.472 314.571 68.049 336.839C71.5112 353.8 81.4328 364.771 95.1415 366.909C101.462 367.907 107.944 366.772 114.822 365.547C122.699 364.132 130.831 362.685 138.685 364.771C139.661 365.019 140.613 365.325 141.102 365.495C152.835 369.321 170.634 388.317 173.887 404.059C174.444 406.725 174.537 409.111 174.188 411.165C162.478 428.576 141.032 448.595 122.095 466.228C117.959 470.054 114.055 473.692 110.361 477.192C102.182 484.995 96.2801 493.632 93.7711 501.546C91.3776 509.01 90.8667 515.646 92.2371 521.897C94.8398 533.67 101.671 540.86 108.921 548.441C113.126 552.828 117.471 557.378 121.073 562.991C120.957 564.49 121.049 565.735 121.119 566.876C121.258 568.317 121.351 569.568 120.957 570.931C119.911 574.568 116.123 579.203 112.406 583.648C110.64 585.787 108.944 587.84 107.666 589.672C105.783 592.338 104.111 594.861 102.484 597.364C97.117 605.61 92.8648 612.135 86.2192 614.495C81.1774 616.268 74.6479 616.633 66.3301 615.551C60.6139 614.801 52.3192 613.608 46.3937 611.939C36.6328 609.163 33.6596 600.669 29.8991 589.952C26.111 579.04 21.2768 566.407 14.1687 555.188C11.4487 550.912 8.56917 547.19 5.79968 543.552C-0.912036 534.804 -6.69881 527.255 -8.1634 515.535C-10.1125 500.073 -6.67674 490.19 -3.63197 481.442C-1.44612 475.113 0.646137 469.142 0.29375 462.062L0.271716 461.978C-4.81576 449.097 -17.9915 442.793 -28.5848 437.767C-31.4699 436.379 -34.4431 434.99 -37.6971 434.13C-45.1741 432.213 -52.3099 431.157 -58.9995 430.825L-58.9995 431.216C-52.3319 431.49 -45.2237 432.604 -37.7632 434.488C-34.5367 435.297 -31.5635 436.711 -28.7005 438.074Z" fill="#EB8D00"/>
<path fill-rule="evenodd" clip-rule="evenodd" d="M125.345 217.8C126.16 221.536 127.115 225.271 128.046 228.896C130.049 236.92 131.935 244.528 132.681 251.309C133.262 256.151 133.262 261.13 132.704 264.618C131.143 275.102 125.205 283.263 119.476 291.177C112.909 300.229 106.109 309.633 105.573 322.695C106.295 334.318 117.31 336.003 128.978 337.773C131.12 338.131 133.356 338.437 135.498 338.854C144.045 340.487 153.895 343.722 163.956 348.206C167.495 349.813 170.872 351.772 174.179 353.685C180.443 357.388 186.382 360.902 193.322 361.82C194.206 361.931 195.092 361.983 196.023 361.983C200.727 361.983 204.826 360.408 208.319 358.944C211.882 357.447 214.933 355.839 217.89 354.264C224.224 350.945 230.21 347.789 239.432 346.819C241.085 346.598 242.762 346.52 244.415 346.52C254.452 346.52 262.835 349.67 270.986 352.689C277.996 355.345 284.656 357.805 291.549 357.805C292.9 357.805 294.274 357.727 295.578 357.505C306.034 355.924 314.068 349.507 320.123 337.799C325.479 327.478 328.554 314.423 331.115 301.856C331.86 298.179 333.188 291.287 333.63 286.309C334.096 281.604 333.49 278.174 331.721 275.792C328.577 271.425 322.219 271.172 314.883 270.898C311.53 270.755 308.107 270.618 304.66 270.091C290.198 267.879 278.089 265.64 264.652 258.969C253.613 253.522 242.552 246.689 235.216 241.951C222.874 233.927 208.924 224.022 199.073 207.284L198.701 207.284C208.598 224.165 222.641 234.233 235.077 242.283C242.389 247.047 253.45 253.854 264.535 259.334C277.972 265.972 290.129 268.21 304.613 270.456C308.06 270.976 311.507 271.119 314.86 271.282C322.126 271.536 328.437 271.783 331.534 276.013C333.188 278.337 333.793 281.688 333.351 286.283C332.862 291.235 331.558 298.095 330.812 301.778C325.712 326.762 318.4 353.737 295.531 357.141C294.227 357.336 292.876 357.421 291.549 357.421C284.703 357.421 278.089 354.954 271.056 352.325C262.905 349.312 254.498 346.188 244.415 346.188C242.762 346.188 241.085 346.266 239.408 346.435C230.139 347.431 224.131 350.613 217.774 353.958C214.816 355.507 211.766 357.115 208.249 358.612C204.756 360.076 200.658 361.599 196.023 361.599C195.115 361.599 194.23 361.54 193.368 361.43C186.498 360.544 180.583 357.056 174.319 353.379C171.012 351.44 167.612 349.449 164.073 347.874C153.965 343.364 144.115 340.123 135.545 338.496C133.402 338.105 131.167 337.747 129.024 337.441C117.497 335.671 106.575 333.986 105.876 322.669C106.412 309.802 113.189 300.451 119.709 291.398C125.485 283.485 131.423 275.239 133.03 264.696C133.588 261.156 133.542 256.151 133.007 251.251C132.238 244.418 130.329 236.836 128.326 228.812C127.417 225.187 126.486 221.393 125.624 217.69C125.065 215.28 124.506 212.818 123.901 210.439C123.668 209.415 123.435 208.336 123.156 207.284L122.853 207.284C123.109 208.391 123.388 209.47 123.622 210.549C124.203 212.929 124.786 215.364 125.345 217.8Z" fill="#EB8D00"/>
<path fill-rule="evenodd" clip-rule="evenodd" d="M145.247 239.804C147.08 244.753 149.005 249.78 149.631 255.08C151.44 269.555 145.178 278.97 139.148 288.105C135.019 294.324 131.146 300.184 129.94 307.405C129.616 309.215 129.71 310.322 129.778 311.768C129.824 312.516 129.871 313.324 129.871 314.463L129.871 314.489C131.401 319.627 136.017 323.24 139.611 325.35C152.6 333.04 173.775 336.68 189.221 339.343C191.564 339.734 193.883 339.929 196.272 339.929C202.279 339.929 207.845 338.737 213.736 337.455C220.044 336.094 226.562 334.655 234.076 334.655C236.071 334.655 238.112 334.766 240.083 334.961C240.477 335.013 241.614 335.098 243.075 335.208C245.209 335.319 247.876 335.488 249.755 335.677C256.04 336.263 261.027 337.598 265.827 338.874C272.275 340.593 278.282 342.234 287.234 342.234C288.162 342.234 289.136 342.208 290.11 342.182C297.231 340.847 303.748 331.848 306.345 319.822C308.502 309.853 308.015 296.629 300.176 289.297C290.945 280.715 264.088 273.162 249.662 271.775C246.577 271.469 244.026 271.443 241.545 271.443C238.785 271.41 235.955 271.384 232.244 270.994C222.294 269.913 214.084 265.218 204.714 255.301C193.141 242.975 186.878 233.449 177.903 214.616C176.929 212.589 176.024 210.089 175.189 207.284L174.842 207.284C175.723 210.145 176.651 212.7 177.648 214.783C186.623 233.671 192.909 243.197 204.552 255.555C213.922 265.55 222.202 270.271 232.221 271.358C235.932 271.749 238.785 271.775 241.545 271.775C244.142 271.801 246.554 271.827 249.639 272.133C264.018 273.553 290.783 281.021 300.014 289.603C307.714 296.798 308.155 309.879 306.067 319.737C303.492 331.627 297.045 340.482 290.064 341.817C289.113 341.843 288.162 341.876 287.234 341.876C278.351 341.876 272.298 340.209 265.897 338.542C261.073 337.233 256.086 335.905 249.778 335.319C247.899 335.182 245.232 334.961 243.098 334.818C241.637 334.733 240.501 334.655 240.106 334.622C238.112 334.375 236.094 334.29 234.076 334.29C226.539 334.29 219.998 335.71 213.69 337.096C207.799 338.373 202.256 339.571 196.272 339.571C193.883 339.571 191.587 339.402 189.268 338.985C173.844 336.348 152.692 332.734 139.75 325.018C136.202 322.96 131.679 319.405 130.195 314.405C130.172 313.298 130.126 312.49 130.103 311.741C129.987 310.322 129.917 309.241 130.242 307.464C131.424 300.379 135.275 294.519 139.38 288.327C145.479 279.159 151.741 269.665 149.932 255.028C149.283 249.695 147.381 244.584 145.525 239.668C144.784 237.753 144.018 235.754 143.369 233.723C140.98 226.645 138.197 217.144 136.434 207.284L136.133 207.284C137.942 217.197 140.725 226.782 143.09 233.892C143.763 235.865 144.505 237.89 145.247 239.804Z" fill="#EB8D00"/>
<path fill-rule="evenodd" clip-rule="evenodd" d="M173.975 289.955C178.637 291.368 182.874 293.001 184.033 298.083C184.601 300.775 184.128 303.443 182.543 305.757C179.939 309.647 174.519 312.258 169.124 312.258C165.337 312.258 162.024 310.921 159.823 308.582L159.776 308.449C159.468 307.522 159.136 306.545 158.592 305.839C157.787 295.504 168.295 290.933 173.975 289.955ZM158.284 306.003L158.308 306.053C158.853 306.709 159.184 307.629 159.492 308.556L159.563 308.72L159.61 308.827C161.858 311.249 165.243 312.611 169.124 312.611C174.638 312.611 180.129 309.918 182.803 305.971C184.412 303.55 184.933 300.807 184.317 298.001C183.158 292.755 178.779 291.014 174.022 289.602L173.999 289.571L173.975 289.602C165.881 290.958 157.527 296.645 158.284 305.946L158.284 306.003Z" fill="#EB8D00"/>
<path fill-rule="evenodd" clip-rule="evenodd" d="M257.32 296.523C263.97 296.523 270.02 298.869 273.044 302.589C274.591 304.539 275.353 306.781 275.33 309.296C273.252 316.671 265.263 317.766 260.691 317.766C253.695 317.766 245.775 315.329 240.927 311.7L240.881 311.532C240.557 310.605 240.28 309.626 239.726 308.901C239.887 300.405 248.962 296.523 257.32 296.523ZM240.581 311.7L240.696 311.946L240.742 311.979C245.591 315.666 253.626 318.096 260.691 318.096C265.378 318.096 273.506 316.982 275.63 309.38L275.63 309.348C275.676 306.697 274.891 304.345 273.229 302.336C270.181 298.506 264.062 296.153 257.32 296.153C248.777 296.153 239.541 300.152 239.426 308.985L239.426 309.043L239.495 309.102C240.003 309.795 240.326 310.774 240.581 311.7Z" fill="#EB8D00"/>
<path fill-rule="evenodd" clip-rule="evenodd" d="M248.429 396.324C251.18 394.124 256.309 393.07 264.12 393.07C271.395 393.07 280.138 394.013 287.833 394.851C292.729 395.381 297.392 395.879 301.309 396.101C317.84 397.077 333.439 398.053 345.353 410.383C353.024 418.293 359.203 426.504 357.244 446.856C356.359 456.096 352.791 467.319 349.014 479.204C348.361 481.293 347.685 483.382 347.032 485.497C346.636 486.721 346.24 487.972 345.89 489.229C342.486 500.165 339.547 509.633 333.812 517.733C327.26 527.006 318.563 531.707 307.931 531.707C290.491 531.707 272.187 519.24 260.903 507.545C244.092 490.231 241.946 465.872 239.639 440.118L239.335 437.08C238.216 427.893 236.841 405.485 248.429 396.324ZM239.312 440.144C241.644 465.983 243.835 490.395 260.693 507.852C272.048 519.574 290.374 532.041 307.931 532.041C318.633 532.041 327.423 527.313 334.068 517.956C339.804 509.83 342.765 500.335 346.146 489.341C346.519 488.11 346.915 486.885 347.288 485.608C347.988 483.493 348.641 481.404 349.294 479.315C353.071 467.431 356.661 456.207 357.548 446.882C359.53 426.367 353.281 418.097 345.563 410.108C333.532 397.686 317.887 396.769 301.333 395.741C297.415 395.519 292.752 395.014 287.856 394.491C280.138 393.626 271.418 392.703 264.12 392.703C256.239 392.703 251.063 393.764 248.265 395.99C236.514 405.288 237.936 427.893 239.056 437.139L239.312 440.144Z" fill="#EB8D00"/>
<path fill-rule="evenodd" clip-rule="evenodd" d="M258.821 416.815C263.862 407.467 273.781 406.237 281.819 406.237C284.63 406.237 287.417 406.402 290.275 406.625C303.144 407.467 315.34 408.224 324.887 416.229C335.225 424.939 340.87 441.259 339.94 459.815C339.15 475.945 334.063 498.646 322.378 509.532C318.313 513.315 313.133 515.275 306.977 515.275C294.572 515.275 282.005 507.434 275.012 500.77C260.099 486.496 258.426 468.13 256.382 444.923C256.358 443.495 256.335 442.068 256.266 440.614C256.103 432.437 255.917 423.985 258.821 416.815ZM256.057 444.949C258.078 467.374 259.797 486.72 274.85 501.079C281.842 507.769 294.479 515.584 306.977 515.584C313.202 515.584 318.429 513.65 322.588 509.789C334.342 498.843 339.452 476.024 340.265 459.842C341.195 441.147 335.503 424.715 325.05 415.979C315.456 407.915 303.237 407.073 290.275 406.237C287.441 406.066 284.63 405.869 281.819 405.869C273.711 405.869 263.676 407.105 258.542 416.65C255.592 423.899 255.778 432.411 255.987 440.614C256.01 442.068 256.033 443.495 256.057 444.949Z" fill="#EB8D00"/>
<path fill-rule="evenodd" clip-rule="evenodd" d="M285.718 422.241C287.935 421.806 290.082 421.612 292.207 421.612C301.215 421.612 307.517 425.51 311.228 428.805C317.693 434.597 322.361 444.515 324.042 456.015C325.675 467.302 324.019 478.264 319.584 485.457C315.546 492.015 309.805 495.452 303.036 495.452C297.878 495.452 292.23 493.39 287.235 489.576C273.931 479.412 271.691 458.954 271.574 447.674C271.387 432.924 276.312 424.109 285.718 422.241ZM287.095 489.874C292.136 493.747 297.808 495.835 303.036 495.835C309.944 495.835 315.733 492.32 319.864 485.645C329.433 470.104 325.092 440.753 311.391 428.533C307.657 425.179 301.309 421.229 292.207 421.229C290.082 421.229 287.889 421.449 285.671 421.884C276.079 423.81 271.084 432.736 271.247 447.674C271.387 459.012 273.628 479.606 287.095 489.874Z" fill="#EB8D00"/>
<path fill-rule="evenodd" clip-rule="evenodd" d="M195.359 576.634C183.098 576.634 168.716 569.778 160.464 559.967C157.038 555.956 154.427 551.093 151.84 546.092C146.082 534.868 140.814 522.673 136.175 509.769C136.246 508.604 136.036 507.53 135.802 506.534C135.663 505.869 135.546 505.205 135.476 504.6C136.502 490.914 152.376 475.38 165.313 475.38C166.455 475.38 167.551 475.491 168.576 475.738C173.308 476.897 179.485 481.35 186.967 489.007C197.853 500.231 212.888 520.024 219.274 538.931C220.067 541.196 220.999 544.041 221.302 546.424C222.561 555.956 219.461 564.14 212.142 570.69C207.76 574.616 202.119 576.634 195.359 576.634ZM221.582 546.366C221.279 543.963 220.347 541.086 219.578 538.794C213.168 519.828 198.086 499.977 187.131 488.727C179.625 481.044 173.401 476.539 168.622 475.406C167.597 475.126 166.478 474.989 165.313 474.989C152.236 474.989 136.199 490.778 135.196 504.6C135.243 505.257 135.383 505.954 135.546 506.612C135.709 507.64 135.942 508.663 135.849 509.769L135.849 509.821L135.873 509.847C140.511 522.817 145.826 535.031 151.583 546.229C154.17 551.314 156.804 556.177 160.231 560.247C168.553 570.11 183.028 577.025 195.359 577.025C202.188 577.025 207.9 574.948 212.351 570.996C219.764 564.335 222.888 556.041 221.582 546.366Z" fill="#EB8D00"/>
<path fill-rule="evenodd" clip-rule="evenodd" d="M204.744 548.158C203.072 555.823 197.431 560.188 189.212 560.188C182.317 560.188 174.632 557.049 169.595 552.222C161.678 544.614 159.008 533.817 156.362 520.477C156.153 514.75 157.453 509.897 159.984 506.732C162.119 504.139 165.091 502.803 168.759 502.803C169.757 502.803 170.849 502.912 171.986 503.131C184.546 505.506 202.747 523.943 204.906 540.333C205.185 542.599 205.254 545.898 204.744 548.158ZM192.439 516.002C185.892 508.966 178.092 503.895 172.033 502.778C170.895 502.527 169.804 502.418 168.759 502.418C164.998 502.418 161.98 503.811 159.774 506.54C157.151 509.704 155.874 514.667 156.06 520.528C158.73 533.951 161.4 544.833 169.432 552.498C174.47 557.409 182.271 560.567 189.212 560.567C197.546 560.567 203.327 556.067 205.069 548.267C205.556 545.95 205.463 542.599 205.185 540.275C204.187 532.507 199.52 523.667 192.439 516.002Z" fill="#EB8D00"/>
<path fill-rule="evenodd" clip-rule="evenodd" d="M246.616 228.628C249.487 231.019 252.218 233.578 254.879 236.021C261.276 241.904 267.322 247.449 273.975 250.06C281.421 254.427 288.564 256.656 295.357 256.656C300.983 256.656 306.399 255.146 311.465 252.095C326.474 243.219 334.925 223.821 338.17 207.284L337.843 207.284C334.621 223.685 326.241 242.973 311.324 251.79C300.189 258.386 287.654 257.699 274.091 249.756C267.462 247.151 261.439 241.599 255.043 235.69C252.405 233.274 249.674 230.747 246.779 228.33C243.675 225.745 240.453 223.218 237.348 220.802C231.676 216.378 226.144 212.037 221.265 207.284L220.774 207.284C225.723 212.174 231.396 216.598 237.185 221.106C240.29 223.523 243.511 226.024 246.616 228.628Z" fill="#EB8D00"/>
<path fill-rule="evenodd" clip-rule="evenodd" d="M353.802 235.563C355.828 241.4 360.278 244.224 367.43 244.224C371.042 244.224 374.793 243.502 377.821 242.923L377.914 242.923C378.567 242.78 379.289 242.728 380.034 242.728C382.876 242.728 385.789 243.723 388.584 244.693C390.029 245.22 391.543 245.715 393.011 246.073C394.176 246.404 395.341 246.626 396.505 246.932C401.305 248.038 406.29 249.203 410.787 251.663C412.557 252.632 414.398 253.576 416.168 254.487C424.951 258.997 434.014 263.669 439.909 272.747C440.281 273.301 440.608 273.88 440.933 274.433C445.057 281.682 448.622 289.459 452.046 297.015C455.914 305.507 459.921 314.253 464.743 322.245C469.403 330.047 475.67 338.683 481.751 347.013C483.87 349.941 485.851 352.681 487.784 355.395C497.43 368.95 506.539 381.731 523.313 381.731L523.336 381.731C527.646 381.731 532.189 380.931 537.314 379.298C551.852 374.651 577.526 363.028 586.285 337.85C588.615 331.186 590.176 321.861 591.807 312.034C593.065 304.596 594.346 296.904 596 290.481L596 289.264C594.183 295.934 592.832 304.095 591.527 311.956C589.873 321.802 588.312 331.076 586.029 337.714C577.293 362.807 551.712 374.319 537.245 378.966C532.143 380.599 527.599 381.4 523.336 381.4L523.313 381.4C506.679 381.4 497.616 368.677 488.041 355.148C486.107 352.46 484.103 349.694 481.983 346.818C475.926 338.462 469.659 329.8 464.953 322.056C460.177 314.084 456.193 305.312 452.326 296.845C448.878 289.296 445.313 281.494 441.19 274.244C440.864 273.691 440.514 273.053 440.141 272.526C434.2 263.396 425.114 258.691 416.308 254.155C414.491 253.244 412.674 252.274 410.927 251.331C406.384 248.845 401.398 247.68 396.575 246.548C395.387 246.294 394.222 246.02 393.081 245.715C391.636 245.357 390.145 244.83 388.677 244.335C385.858 243.365 382.947 242.337 380.034 242.337C379.289 242.337 378.543 242.422 377.867 242.532L377.728 242.558C374.746 243.144 371.018 243.86 367.43 243.86C360.441 243.86 356.061 241.094 354.105 235.452C352.054 229.641 352.73 219.788 353.335 211.047C353.429 209.719 353.522 208.474 353.592 207.284L353.289 207.284C353.219 208.474 353.149 209.719 353.056 211.019C352.427 219.788 351.775 229.693 353.802 235.563Z" fill="#EB8D00"/>
<path fill-rule="evenodd" clip-rule="evenodd" d="M392.846 225.558C400.956 226.911 408.691 229.668 416.122 232.374C420.927 234.11 425.919 235.923 430.982 237.333C434.217 238.227 437.428 238.929 440.288 239.439C443.218 239.931 445.819 240.199 447.976 240.199C452.406 240.199 455.031 239.146 455.852 237.033C458.126 231.404 459.86 219.17 459.953 207.284L459.672 207.284C459.579 219.112 457.821 231.27 455.617 236.899C454.844 238.846 452.242 239.822 447.976 239.822C445.843 239.822 443.265 239.605 440.335 239.088C437.475 238.578 434.287 237.869 431.053 236.982C425.99 235.572 421.044 233.785 416.239 232.023C408.762 229.343 401.027 226.528 392.87 225.175C384.853 223.88 378.477 217.517 374.728 207.284L374.376 207.284C378.173 217.734 384.666 224.173 392.846 225.558Z" fill="#EB8D00"/>
<path fill-rule="evenodd" clip-rule="evenodd" d="M196.858 405.884C199.607 403.079 202.8 400.463 205.386 398.291C206.552 397.319 207.553 396.484 208.369 395.759C212.004 392.563 215.359 389.112 218.598 385.831C224.866 379.405 230.808 373.338 237.449 370.422C240.735 369 244.183 368.25 248.004 368.25C254.971 368.25 262.102 370.644 269.022 372.979C273.007 374.316 277.061 375.68 281.046 376.567C286.149 377.683 291.392 378.263 296.657 378.263C300.852 378.263 305.14 377.904 309.357 377.154C323.547 374.701 338.017 368.25 354.934 356.931C358.499 354.537 361.995 351.784 365.373 349.142C368.845 346.357 372.48 343.545 376.162 341.099C377.676 340.127 379.284 339.402 380.846 338.789C382.104 338.261 383.385 337.765 384.62 337.041C385.739 336.428 386.834 335.704 387.859 335.038C390.306 333.453 392.566 331.946 395.362 331.307C397.599 330.811 400.232 330.504 402.725 330.504C405.195 330.504 408.784 330.811 411.813 332.057C420.924 335.873 429.149 342.436 435.953 348.333C437.607 349.749 439.285 351.282 440.893 352.808C442.897 354.622 444.924 356.54 447.021 358.288C448.885 359.821 450.936 360.989 452.916 362.104C454.664 363.076 456.505 364.075 458.159 365.386C467.573 372.62 475.752 383.078 482.439 396.457C488.777 409.224 492.692 419.296 485.002 432.702C482.649 436.845 479.806 438.071 475.729 439.493C471.371 441.046 466.734 441.242 462.284 441.522C457.041 441.77 451.658 442.077 446.695 444.386C444.085 445.58 441.825 447.419 439.751 449.226C439.145 449.696 438.609 450.224 438.073 450.701C435.86 452.677 433.576 454.706 431.106 456.18C427.378 458.353 423.65 460.714 420.062 462.998C417.755 464.439 415.378 465.998 413.001 467.447C407.525 470.839 401.979 474.316 396.62 477.708C393.521 479.685 390.469 481.661 387.369 483.579L387.323 483.605C387.207 483.749 387.043 483.945 386.927 484.134C372.014 493.984 366.282 509.615 362.297 525.056C361.995 526.198 361.692 527.339 361.412 528.448C358.709 539.245 356.146 549.422 346.919 555.045C342.398 557.85 334.266 560.551 322.732 562.997C306.491 566.533 291.228 567.616 273.566 568.868L272.354 568.953C267.811 565.476 265.061 560.44 262.148 555.012C260.75 552.429 259.306 549.728 257.628 547.256C254.156 542.083 249.845 536.962 245.302 531.593C240.548 525.865 235.585 520.02 231.554 513.927C220.928 498.016 213.612 478.158 206.552 458.992C205.386 455.848 204.198 452.619 203.056 449.533C201.682 445.945 200.097 442.324 198.536 438.821C195.973 432.924 193.526 427.418 192.128 422.023C190.497 415.676 191.825 411.005 196.858 405.884ZM198.303 438.958C199.841 442.468 201.425 446.082 202.753 449.67C203.942 452.762 205.107 455.985 206.272 459.129C213.355 478.321 220.648 498.212 231.321 514.181C235.375 520.274 240.315 526.113 245.069 531.815C249.659 537.242 253.946 542.304 257.395 547.478C259.073 549.924 260.494 552.599 261.892 555.208C264.828 560.636 267.601 565.783 272.215 569.312L272.261 569.344L273.589 569.227C291.252 567.981 306.514 566.892 322.779 563.362C334.336 560.857 342.538 558.189 347.059 555.404C356.425 549.676 358.966 539.441 361.692 528.559C361.995 527.45 362.297 526.309 362.554 525.167C366.515 509.784 372.247 494.206 387.113 484.441L387.16 484.362C387.277 484.193 387.393 484.056 387.533 483.886C390.586 481.942 393.661 479.991 396.76 478.047C402.143 474.681 407.688 471.145 413.164 467.779C415.541 466.305 417.871 464.778 420.202 463.33C423.79 461.021 427.518 458.659 431.223 456.461C433.763 455.013 436.023 452.951 438.237 451.007C438.796 450.505 439.355 450.003 439.914 449.507C441.965 447.726 444.225 445.886 446.835 444.719C451.705 442.409 457.087 442.161 462.284 441.855C466.781 441.633 471.418 441.352 475.798 439.852C479.946 438.404 482.835 437.125 485.258 432.898C493.065 419.296 489.103 409.139 482.719 396.288C475.985 382.823 467.782 372.314 458.345 365.079C456.644 363.774 454.804 362.744 453.033 361.765C451.052 360.656 449.025 359.515 447.207 357.988C445.087 356.259 443.036 354.341 441.056 352.508C439.448 351.001 437.817 349.475 436.139 348.001C429.289 342.103 421.087 335.567 411.906 331.698C408.853 330.42 405.219 330.165 402.725 330.165C400.209 330.165 397.552 330.446 395.316 330.974C392.473 331.613 390.166 333.114 387.719 334.699C386.694 335.397 385.622 336.095 384.503 336.76C383.269 337.4 381.987 337.928 380.775 338.43C379.145 339.096 377.537 339.768 376.022 340.766C372.294 343.212 368.682 346.083 365.21 348.836C361.832 351.504 358.36 354.257 354.771 356.625C337.901 367.969 323.431 374.343 309.334 376.789C305.116 377.513 300.852 377.904 296.657 377.904C291.415 377.904 286.172 377.343 281.092 376.208C277.131 375.315 273.077 373.977 269.115 372.647C262.172 370.337 255.018 367.943 248.004 367.943C244.136 367.943 240.664 368.608 237.356 370.083C230.668 373.005 224.703 379.098 218.388 385.583C215.15 388.864 211.841 392.256 208.206 395.485C207.39 396.177 206.365 397.038 205.2 397.984C202.637 400.156 199.421 402.824 196.672 405.584C191.545 410.835 190.147 415.624 191.825 422.16C193.246 427.529 195.67 433.12 198.303 438.958Z" fill="#EB8D00"/>
<path fill-rule="evenodd" clip-rule="evenodd" d="M220.468 418.291C222.392 403.987 232.822 385.715 245.315 381.2C247.888 380.309 250.531 379.841 253.498 379.841C258.922 379.841 264.346 381.395 269.12 382.781C271.323 383.418 273.455 384.023 275.425 384.44C282.077 385.858 289.356 386.495 298.349 386.495C303.286 386.495 308.293 386.326 313.16 386.131C318.051 385.936 323.127 385.747 328.157 385.747C336.2 385.747 342.853 386.274 349.041 387.328C350.525 387.627 352.032 387.881 353.445 388.154C358.197 389.045 362.694 389.904 367.121 389.904C373.078 389.904 378.038 388.297 382.651 384.856C387.032 381.584 390.555 380.12 394.866 379.73C397.462 379.509 400.128 379.203 402.724 378.871C407.29 378.319 412.041 377.733 416.631 377.733L416.84 377.733C427.224 377.759 452.489 382.254 459.79 395.394C462.224 399.745 462.479 404.761 460.555 410.277C457.959 417.705 449.986 422.252 443.959 423.859C442.8 424.165 441.618 424.47 440.436 424.776C432.092 426.936 424.929 428.49 418.532 429.57C416.863 429.85 415.171 430.045 413.572 430.208C409.353 430.683 405.366 431.125 401.24 433.285C378.502 445.182 363.575 476.867 355.021 501.397C348.555 519.968 342.969 536.022 327.717 543.561C321.922 546.417 313.577 548.134 305.326 548.134L305.303 548.134C299.114 548.134 293.343 547.165 288.591 545.389C279.134 541.812 270.627 534.331 260.707 525.628L260.289 525.211C242.001 509.157 232.915 493.051 226.795 465.861L226.216 463.168C224.13 454.022 222.183 445.371 220.792 435.561C219.842 429.128 219.749 423.612 220.468 418.291ZM225.915 463.252L226.518 465.939C232.637 493.22 241.746 509.411 260.127 525.517L260.544 525.933C270.442 534.578 278.995 542.117 288.521 545.721C293.273 547.555 299.091 548.499 305.303 548.499L305.326 548.499C313.601 548.499 322.015 546.775 327.833 543.893C343.2 536.295 348.833 520.222 355.3 501.534C363.83 477.088 378.734 445.455 401.356 433.616C405.436 431.483 409.399 431.04 413.595 430.572C415.194 430.403 416.886 430.208 418.578 429.935C424.976 428.848 432.138 427.274 440.482 425.108C441.664 424.835 442.847 424.529 444.029 424.197C450.125 422.558 458.214 417.959 460.856 410.387C462.827 404.787 462.526 399.661 460.069 395.199C452.698 381.922 427.271 377.375 416.84 377.343L416.631 377.343C412.018 377.343 407.29 377.928 402.701 378.481C400.104 378.813 397.439 379.177 394.843 379.366C390.462 379.73 386.893 381.226 382.465 384.524C377.922 387.933 373.031 389.572 367.121 389.572C362.717 389.572 358.22 388.713 353.492 387.796C352.078 387.516 350.571 387.243 349.088 386.963C342.876 385.884 336.247 385.383 328.157 385.383C323.127 385.383 318.051 385.578 313.16 385.773C308.293 385.936 303.286 386.131 298.349 386.131C289.379 386.131 282.124 385.467 275.471 384.108C273.524 383.666 271.415 383.054 269.19 382.449C264.392 381.057 258.945 379.509 253.498 379.509C250.485 379.509 247.796 379.925 245.246 380.836C232.637 385.383 222.09 403.844 220.143 418.232C219.425 423.612 219.54 429.154 220.468 435.613C221.905 445.455 223.852 454.107 225.915 463.252Z" fill="#EB8D00"/>
<path fill-rule="evenodd" clip-rule="evenodd" d="M557.826 441.956C549.549 448.795 544.574 458.517 543.062 470.758C542.481 475.547 542.923 480.785 543.388 485.822C543.876 491.112 544.364 496.598 543.667 501.745C542.876 507.674 540.203 512.964 536.832 515.32C534.437 517.005 531.81 517.2 529.044 515.951C520.092 503.574 512.792 495.349 501.772 489.98C498.611 488.484 495.425 487.149 491.473 485.685C489.52 484.963 487.59 484.189 485.684 483.466C473.734 478.788 461.342 473.972 441.185 475.963C431.514 476.907 424.237 479.035 417.866 486.681C413.682 491.75 410.497 497.841 407.474 503.711C405.266 507.953 402.987 512.352 400.383 516.289C399.035 518.28 397.477 520.246 395.943 522.159C393.687 525.009 391.339 527.918 389.619 531.184C386.038 537.913 385.876 549.132 387.224 556.693C388.991 566.552 394.292 575.024 399.593 582.859C400.895 584.798 402.15 586.933 403.499 589.178C407.056 595.242 410.729 601.502 415.844 604.743C421.447 608.257 427.98 608.283 434.211 607.756C436.35 607.593 438.535 606.871 440.674 606.233C443.789 605.238 446.998 604.157 450.113 604.854C461.18 607.203 473.711 616.372 481.732 624.18C486.079 628.391 490.032 633.154 493.449 638.36C496.146 642.401 498.703 646.5 501.447 650.88C506.12 658.324 510.956 666.055 516.466 673.668C521.557 680.787 528.229 687.49 538.668 683.195C544.597 680.729 549.688 676.525 554.431 672.367C561.452 666.217 567.823 657.582 573.96 649.188C579.587 641.516 584.911 634.26 590.165 629.829C591.583 628.612 593.28 627.479 596 626.731L596 626.367C593.211 627.115 591.42 628.306 589.979 629.523C584.678 634.013 579.377 641.242 573.728 648.993C567.613 657.302 561.266 665.97 554.268 672.094C549.386 676.382 544.457 680.429 538.575 682.837C528.276 687.099 521.72 680.455 516.675 673.447C511.211 665.834 506.352 658.103 501.702 650.658C498.959 646.279 496.355 642.153 493.682 638.138C490.264 632.933 486.312 628.143 481.895 623.874C473.85 616.066 461.272 606.845 450.159 604.489C446.974 603.825 443.743 604.854 440.581 605.875C438.465 606.513 436.303 607.235 434.187 607.398C428.003 607.899 421.517 607.899 415.96 604.405C410.938 601.223 407.265 594.989 403.731 589.008C402.406 586.737 401.15 584.577 399.825 582.612C394.571 574.861 389.247 566.415 387.527 556.609C386.201 549.106 386.364 538.024 389.875 531.38C391.572 528.139 393.897 525.23 396.175 522.38C397.686 520.493 399.29 518.528 400.593 516.511C403.266 512.548 405.521 508.175 407.707 503.906C410.776 498.01 413.914 491.971 418.099 486.961C424.399 479.399 431.607 477.239 441.209 476.295C461.319 474.356 473.687 479.152 485.614 483.831C487.497 484.547 489.45 485.295 491.38 486.043C495.332 487.514 498.517 488.815 501.633 490.338C512.629 495.629 519.93 503.854 528.811 516.231L528.834 516.257L528.881 516.289C531.787 517.558 534.507 517.337 536.994 515.652C540.435 513.237 543.179 507.81 543.969 501.804C544.667 496.624 544.155 491.112 543.69 485.796C543.248 480.753 542.807 475.547 543.365 470.816C544.853 458.654 549.781 449.043 557.988 442.262C567.358 434.479 580.47 430.881 596 431.571L596 431.18C580.4 430.517 567.241 434.148 557.826 441.956Z" fill="#EB8D00"/>
<path fill-rule="evenodd" clip-rule="evenodd" d="M119.641 242.079C120.153 247.178 120.827 256.596 119.339 262.937C116.898 273.383 109.81 282.359 102.977 291.087C93.3087 303.334 83.3376 316.017 86.3822 332.973C88.0558 342.118 92.1698 347.796 99.0958 350.372C105.092 352.615 112.46 352.31 120.78 351.783C135.933 350.788 146.23 353.754 152.179 356.466C158.222 359.237 163.754 363.783 169.169 368.212C176.374 374.144 183.207 379.763 190.923 381.012C194.014 381.48 196.571 381.37 199.476 380.596C206.681 378.71 212.119 374.365 217.907 369.767C227.691 362.007 237.825 353.949 257.487 358.625C261.787 359.627 266.086 361.175 270.618 362.755C285.098 367.88 300.089 373.116 316.823 362.56C331.976 353.474 341.505 336.85 350.686 320.759C354.985 313.246 359.424 305.467 364.328 298.651C370.627 289.949 379.18 278.014 389.685 282.137C393.915 283.77 398.261 284.576 402.491 285.35C409.184 286.625 416.087 287.926 422.293 292.583C426.755 295.906 430.195 300.641 433.565 305.246C435.122 307.373 436.772 309.624 438.469 311.672C442.234 316.186 445.279 321.506 448.23 326.658C450.741 331.035 453.321 335.523 456.365 339.568C460.455 343.861 464.035 347.627 468.218 352.115C473.262 357.604 477.863 364.114 482.303 370.404C490.855 382.482 498.874 393.864 509.402 397.552C516.817 400.179 524.486 399.822 534.271 396.472C539.477 394.671 546.38 391.178 551.237 388.518C561.092 383.197 572.201 375.887 580.893 369.045C587.68 363.698 592.84 356.16 596 347.158L596 346.215C592.909 355.523 587.657 363.282 580.754 368.713C572.038 375.555 560.952 382.866 551.098 388.186C546.263 390.82 539.407 394.339 534.201 396.14C524.439 399.464 516.84 399.796 509.472 397.246C499.06 393.591 491.042 382.228 482.535 370.183C478.096 363.893 473.494 357.35 468.404 351.867C464.22 347.354 460.665 343.555 456.574 339.289C453.553 335.302 450.996 330.788 448.463 326.437C445.512 321.285 442.443 315.965 438.701 311.419C436.958 309.37 435.355 307.152 433.797 304.993C430.428 300.368 426.965 295.633 422.456 292.277C416.204 287.594 409.254 286.293 402.537 285.045C398.308 284.219 393.962 283.412 389.801 281.806C379.087 277.598 370.418 289.617 364.12 298.398C359.192 305.272 354.753 313.025 350.453 320.537C341.25 336.628 331.767 353.253 316.706 362.228C300.066 372.758 285.121 367.49 270.688 362.423C266.156 360.817 261.857 359.295 257.534 358.267C237.778 353.585 227.598 361.65 217.744 369.487C212.003 374.059 206.565 378.352 199.383 380.238C196.547 381.012 194.014 381.123 190.97 380.622C183.347 379.432 176.513 373.838 169.332 367.88C163.94 363.477 158.338 358.879 152.272 356.108C146.299 353.422 135.98 350.397 120.757 351.399C106.533 352.336 90.3567 353.448 86.6611 332.889C83.6634 316.128 93.5876 303.497 103.186 291.282C110.066 282.554 117.177 273.552 119.618 263.022C121.059 256.986 120.594 248.284 119.967 242.027C118.92 231.998 116.434 221.689 113.808 210.803C113.529 209.639 113.273 208.476 112.971 207.284L112.646 207.284C112.948 208.503 113.25 209.695 113.529 210.913C116.155 221.799 118.642 232.05 119.641 242.079Z" fill="#EB8D00"/>
<path fill-rule="evenodd" clip-rule="evenodd" d="M108.505 923.069C110.875 913.882 114.871 908.325 121.19 899.994C122.166 898.662 123.258 897.356 124.42 895.913C128.903 890.357 134.015 884.056 135.129 877.474C137.406 864.37 130.622 856.652 123.653 850.9C120.214 848.073 116.358 845.82 112.617 843.652C107.785 840.825 102.767 837.906 98.6316 833.63C94.2403 829.079 90.4536 822.608 87.3405 814.329C85.9229 810.666 85.3189 806.696 84.6917 802.863C84.0877 799.116 83.4837 795.257 82.1593 791.698C76.0726 775.427 68.1501 757.047 55.1634 744.165C49.5178 738.556 42.3852 729.722 40.5037 719.196C39.2941 712.288 40.9913 706.229 42.362 701.397L42.5948 700.509C45.6843 689.573 54.8843 663.416 74.1674 656.835C77.6291 655.64 81.8808 654.778 86.3415 653.831C91.9633 652.695 97.7948 651.474 102.023 649.587C108.645 646.669 113.361 642.614 118.379 638.037L119.099 637.397C123.885 633.009 129.855 627.538 137.638 628.262C144.376 628.928 152.089 633.12 158.734 639.839C165.471 646.616 169.978 654.837 171.117 662.385C171.86 667.275 172.185 671.219 172.511 674.993C172.812 678.297 173.022 681.379 173.556 684.793C176.042 701.874 182.895 715.507 193.954 725.256C202.922 733.169 214.887 738.719 229.546 741.749C248.55 745.692 264.72 738.275 270.737 734.919C280.356 729.526 290.671 716.617 299.569 704.93C308.397 693.295 313.09 686.406 314.136 667.941C314.461 661.999 314.066 656.28 313.671 650.671C313.532 648.503 313.346 646.283 313.253 644.057C313.183 642.451 313.067 640.812 312.928 639.062C312.486 633.453 312.091 627.649 312.928 621.681C314.716 609.379 320.664 603.934 331.165 605.155C344.849 606.657 356.814 617.515 361.646 632.787C365.479 644.919 362.389 657.612 359.927 667.882L359.532 669.554C355.466 686.491 349.937 699.706 342.642 709.951C338.483 715.729 333.93 721.168 329.492 726.444C327.819 728.364 326.147 730.388 324.52 732.392C322.197 735.167 319.642 737.746 317.133 740.221C314.043 743.303 310.813 746.58 308.072 750.27C304.192 755.519 301.311 761.461 298.965 766.541C291.368 783.262 286.071 798.006 282.772 811.502C279.798 823.718 271.597 833.408 260.817 837.462C246.901 842.653 226.991 842.046 201.621 835.686C189.191 832.52 181.757 824.025 179.643 810.307C177.204 794.702 168.352 786.925 159.036 778.705C156.62 776.596 154.157 774.402 151.741 772.097C141.844 762.381 146.769 753.188 151.996 743.44C154.343 739.078 156.736 734.612 157.758 730.029C159.408 722.866 157.293 715.311 155.249 707.979C154.18 704.146 153.181 700.568 152.67 697.01C150.277 680.131 147.861 666.799 140.682 661.301C136.825 658.389 131.877 657.971 125.511 660.112C124.489 660.413 123.374 660.831 122.166 661.249C119.703 662.137 116.915 663.109 114.639 663.69C110.666 664.774 106.53 665.414 102.163 666.022C97.4931 666.746 92.7069 667.438 87.4331 668.77C79.4179 670.742 72.3554 675.352 67.0584 682.077C61.831 688.685 58.532 697.01 57.4403 706.203C56.9753 710.121 56.8358 713.477 57.7421 717.146C60.3908 727.835 68.4987 735.363 75.6545 741.997C77.3037 743.525 78.8835 744.968 80.3706 746.469L80.626 746.691C87.5495 753.547 96.1687 762.042 95.8433 773.736C95.4946 785.789 96.7959 794.506 100.141 802.974C105.392 816.249 112.826 824.325 125.743 830.796C126.719 831.24 127.672 831.743 128.648 832.213C133.108 834.407 137.662 836.659 141.913 839.519C145.398 841.85 147.722 844.795 150.184 847.877C151.555 849.594 152.949 851.344 154.552 853.041C156.48 855.039 158.339 857.703 160.267 860.537C165.146 867.759 170.675 875.92 179.225 873.948C183.593 872.949 187.914 869.339 192.49 865.565C196.487 862.228 200.622 858.787 205.269 856.567C213.144 852.904 224.226 852.01 235.982 851.07C243.114 850.515 250.502 849.901 257.24 848.654C272.573 845.768 282.958 839.323 288.952 828.994C290.74 825.964 291.925 822.523 293.017 819.193C293.877 816.581 294.783 813.918 295.945 811.469C296.804 809.608 298.175 808.165 299.499 806.748C300.219 805.971 300.986 805.142 301.637 804.254C302.868 802.615 304.053 800.918 305.215 799.227C306.469 797.392 307.793 795.453 309.21 793.644C311.371 790.784 313.857 788.205 316.227 785.619C318.434 783.23 320.734 780.762 322.825 778.098C324.544 775.93 325.915 773.566 327.262 771.294C328.772 768.682 330.306 766.071 332.397 763.655C335.882 759.489 339.529 754.964 342.456 749.937C344.965 745.608 346.08 741.383 347.312 736.943C347.66 735.552 348.055 734.136 348.496 732.693C349.426 729.447 351.122 726.392 352.771 723.421C353.747 721.645 354.723 719.869 355.536 718.06C358.649 711.257 361.298 704.453 363.458 697.845C364.039 695.958 364.573 694.072 365.154 692.237C365.387 691.434 365.619 690.683 365.851 689.906C366.92 686.38 368.058 682.795 369.173 679.322C372.333 669.247 375.655 658.859 377.351 649.391C378.443 643.339 379.395 636.868 378.234 630.508C374.284 608.629 356.558 585.802 340.295 581.636C332.768 579.749 323.289 579.86 313.601 582.028C297.524 585.639 291.577 594.91 292.39 615.151C292.576 619.872 292.948 624.652 293.273 629.261C294.039 639.225 294.783 648.666 293.877 657.775C293.389 663.025 291.925 667.719 290.88 670.742C288.51 677.546 283.12 689.181 276.383 701.789C269.739 714.201 260.84 723.225 251.896 726.614C234.936 733.026 212.238 726.666 199.019 711.759C192.398 704.29 185.358 691.512 189.285 673.243C189.517 672.133 189.912 671.023 190.33 669.828C190.887 668.411 191.399 666.909 191.7 665.303C193.745 661.053 196.301 657.279 198.81 653.583C204.432 645.252 209.729 637.423 207.708 626.206C207.336 624.123 206.569 621.929 205.756 619.572C204.084 614.74 202.388 609.797 204.385 606.826C207.87 601.629 212.633 596.216 217.698 590.471C226.433 580.552 235.494 570.256 238.05 560.592C240.651 550.929 235.331 541.291 233.054 537.211C230.615 532.797 227.804 528.239 224.853 523.355C222.553 519.634 220.184 515.742 217.93 511.883C216.071 508.664 214.259 505.583 212.471 502.501C208.335 495.416 204.432 488.724 200.413 481.594C198.833 478.734 197.23 475.678 195.673 472.733C193.071 467.791 190.376 462.737 187.682 458.434C181.78 448.993 175.136 445.101 167.864 446.884C160.639 448.634 152.809 455.294 146.025 461.379C145.096 462.182 144.19 463.011 143.284 463.847C130.622 475.202 116.242 488.058 112.454 502.364C109.249 514.521 115.173 520.189 121.445 526.183C122.119 526.822 122.793 527.488 123.467 528.154C127.625 532.268 130.831 536.519 133.387 540.097C136.895 545.013 139.985 550.896 142.982 556.59C145.096 560.592 147.094 564.451 149.092 567.559C155.969 578.332 164.89 583.079 173.486 587.722C181.943 592.22 190.655 596.83 197.253 607.159C197.253 607.545 197.277 607.878 197.277 608.269C197.3 609.353 197.346 610.431 197.091 611.43C189.261 621.596 179.527 624.097 167.33 619.265C163.612 617.763 159.942 615.406 156.039 612.847C147.327 607.212 138.312 601.407 127.951 605.188C120.493 607.852 115.312 614.152 110.294 620.238C105.346 626.258 100.258 632.454 92.8464 635.562C88.5253 637.312 84.0414 637.841 77.7687 638.422C61.9242 639.865 54.2802 642.033 47.7753 651.892C39.2003 664.944 28.6318 687.96 25.3774 697.486C24.1032 701.286 23.3089 704.12 22.9394 706.203C20.1759 722.807 28.7035 735.774 36.4148 745.275C38.2957 747.521 40.341 749.63 42.3157 751.634C44.1045 753.462 45.9402 755.323 47.6358 757.295C51.0744 761.435 53.839 766.319 56.5109 771.072C57.8816 773.488 59.2523 775.956 60.7157 778.32C71.3565 795.257 74.5623 810.052 71.1474 826.271C68.6382 837.906 62.9695 852.624 49.936 856.619C45.1272 858.095 39.9693 858.846 34.5118 859.564C29.4703 860.289 24.197 861.007 19.0617 862.398C14.5773 863.619 10.3245 865.199 6.23718 866.786C0.495112 868.895 -4.93799 870.951 -10.5367 871.781C-20.366 873.367 -29.0757 870.893 -37.5095 868.588C-44.945 866.505 -52.0329 864.566 -58.9995 865.676L-58.9995 866.035C-52.0549 864.899 -45.0167 866.871 -37.5812 868.921C-29.1253 871.284 -20.3881 873.7 -10.4926 872.146C-4.84424 871.284 0.566858 869.254 6.33099 867.092C10.3962 865.565 14.671 863.978 19.1555 862.757C24.2853 861.373 29.4923 860.648 34.5339 859.956C40.0156 859.179 45.1735 858.48 49.9823 856.985C60.4372 853.76 67.8483 843.182 71.4028 826.382C74.8877 810.026 71.6582 795.172 60.9716 778.065C59.5309 775.734 58.137 773.266 56.7663 770.902C54.0712 766.129 51.3067 761.187 47.8217 757.073C46.1261 755.049 44.2904 753.188 42.5248 751.38C40.5501 749.355 38.5053 747.273 36.6465 744.994C28.9793 735.611 20.5014 722.729 23.2649 706.262C23.6124 704.205 24.4011 701.397 25.6808 697.624C28.8855 688.13 39.4375 665.134 48.0076 652.14C54.4198 642.392 62.0632 640.172 77.7919 638.755C84.0877 638.174 88.5716 637.671 92.9623 635.843C100.42 632.787 105.555 626.512 110.526 620.512C115.73 614.152 120.632 608.158 128.02 605.521C138.289 601.825 147.257 607.603 155.899 613.18C159.826 615.706 163.497 618.122 167.214 619.598C179.573 624.515 189.4 621.929 197.369 611.684L197.392 611.599C197.648 610.489 197.625 609.353 197.555 608.269L197.555 607.101L197.555 607.048L197.509 606.99C190.887 596.575 182.106 591.887 173.626 587.356C165.053 582.805 156.155 578.026 149.348 567.337C147.373 564.229 145.352 560.396 143.238 556.368C140.241 550.674 137.128 544.817 133.62 539.849C131.064 536.264 127.858 532.02 123.653 527.88C122.979 527.188 122.305 526.574 121.631 525.908C115.452 519.967 109.597 514.358 112.757 502.475C116.52 488.28 130.831 475.482 143.447 464.154C144.376 463.318 145.306 462.489 146.211 461.653C152.949 455.574 160.755 448.967 167.91 447.217C175.043 445.493 181.618 449.3 187.449 458.63C190.167 462.933 192.816 468.013 195.418 472.929C196.974 475.868 198.554 478.897 200.157 481.757C204.153 488.92 208.079 495.612 212.215 502.723C214.004 505.778 215.816 508.913 217.698 512.105C219.928 515.964 222.275 519.856 224.598 523.577C227.572 528.435 230.382 533.019 232.822 537.407C235.052 541.487 240.326 550.981 237.77 560.481C235.215 570.086 226.178 580.278 217.465 590.216C212.424 595.968 207.638 601.381 204.13 606.598C202.039 609.739 203.781 614.792 205.501 619.709C206.291 622.04 207.057 624.26 207.406 626.258C209.427 637.312 204.13 645.088 198.554 653.335C196.069 657.057 193.466 660.889 191.422 665.134L191.399 665.218C191.12 666.799 190.585 668.274 190.051 669.691C189.633 670.912 189.214 672.022 188.982 673.132C185.892 687.575 189.377 701.371 198.856 712.008C212.099 726.999 234.936 733.391 252.012 726.973C260.98 723.506 269.971 714.423 276.592 702.011C283.353 689.351 288.813 677.715 291.135 670.886C292.204 667.83 293.668 663.109 294.179 657.834C295.062 648.666 294.342 639.225 293.598 629.229C293.226 624.625 292.878 619.846 292.692 615.151C292.274 604.907 293.598 597.718 296.804 592.632C300.103 587.5 305.447 584.222 313.648 582.387C323.312 580.219 332.745 580.082 340.226 582.028C356.396 586.135 374.006 608.851 377.932 630.593C379.071 636.868 378.118 643.28 377.072 649.306C375.353 658.774 372.054 669.136 368.871 679.158C367.78 682.658 366.641 686.236 365.573 689.769C365.34 690.546 365.108 691.323 364.852 692.126C364.341 693.96 363.737 695.847 363.156 697.734C361.019 704.316 358.394 711.094 355.28 717.864C354.467 719.673 353.468 721.449 352.516 723.225C350.889 726.196 349.147 729.278 348.195 732.582C347.776 734.025 347.381 735.474 347.009 736.832C345.825 741.246 344.687 745.47 342.247 749.714C339.296 754.742 335.649 759.267 332.164 763.38C330.096 765.796 328.54 768.486 327.006 771.039C325.705 773.344 324.311 775.682 322.616 777.876C320.548 780.481 318.225 782.982 316.018 785.345C313.625 787.924 311.185 790.562 308.955 793.422C307.584 795.231 306.237 797.144 304.959 799.005C303.82 800.67 302.635 802.361 301.427 803.999C300.754 804.861 300.01 805.697 299.29 806.5C297.943 807.943 296.618 809.386 295.712 811.332C294.481 813.774 293.598 816.444 292.739 819.023C291.624 822.353 290.462 825.801 288.719 828.798C282.772 839.075 272.48 845.402 257.193 848.295C250.479 849.568 243.114 850.149 235.959 850.736C224.18 851.677 213.075 852.539 205.152 856.26C200.482 858.454 196.301 861.895 192.304 865.232C187.774 869.032 183.499 872.616 179.178 873.589C170.815 875.502 165.332 867.452 160.476 860.315C158.524 857.481 156.713 854.759 154.761 852.761C153.158 851.069 151.741 849.346 150.417 847.596C147.907 844.488 145.607 841.543 142.076 839.186C137.801 836.326 133.178 834.048 128.764 831.88C127.788 831.41 126.836 830.94 125.86 830.463C113.012 824.051 105.624 816.053 100.42 802.837C97.0981 794.421 95.8201 785.73 96.1687 773.736C96.4704 761.905 87.7817 753.325 80.8118 746.411L80.5565 746.189C79.0694 744.687 77.5128 743.218 75.8635 741.716C68.3828 734.775 60.6462 727.587 58.0212 717.035C57.1612 713.451 57.2776 710.121 57.7421 706.262C59.9258 687.405 71.3333 673.132 87.5032 669.103C92.7532 667.804 97.5626 667.105 102.186 666.413C106.553 665.747 110.712 665.107 114.708 664.05C116.985 663.442 119.773 662.47 122.259 661.608C123.444 661.164 124.559 660.778 125.604 660.445C131.877 658.363 136.756 658.748 140.543 661.634C147.628 666.968 149.999 680.295 152.391 697.068C152.879 700.653 153.902 704.29 154.97 708.123C156.991 715.396 159.105 722.892 157.502 729.918C156.457 734.469 154.064 738.915 151.741 743.244C146.467 753.129 141.449 762.46 151.578 772.319C153.971 774.676 156.434 776.87 158.85 778.986C168.143 787.147 176.924 794.891 179.341 810.392C181.525 824.214 188.982 832.853 201.575 835.993C226.968 842.431 246.947 843.019 260.887 837.821C271.783 833.714 280.077 823.966 283.051 811.639C286.327 798.117 291.624 783.452 299.244 766.71C301.567 761.657 304.471 755.767 308.304 750.524C310.999 746.829 314.229 743.61 317.365 740.495C319.851 738.001 322.407 735.441 324.729 732.666C326.356 730.642 328.052 728.612 329.702 726.699C334.139 721.423 338.739 715.951 342.874 710.173C350.193 699.902 355.745 686.628 359.788 669.632L360.206 667.941C362.692 657.697 365.758 644.919 361.902 632.65C357.046 617.293 345.011 606.35 331.188 604.77C320.525 603.575 314.415 609.073 312.649 621.648C311.766 627.622 312.207 633.453 312.625 639.088C312.742 640.838 312.858 642.477 312.951 644.089C313.09 646.336 313.23 648.529 313.369 650.697C313.764 656.28 314.182 662.026 313.857 667.915C312.788 686.236 308.142 693.125 299.36 704.675C290.462 716.337 280.193 729.252 270.644 734.553C264.628 737.916 248.527 745.327 229.593 741.383C197.091 734.664 178.365 715.618 173.835 684.741C173.347 681.352 173.068 678.244 172.836 674.967C172.487 671.16 172.162 667.249 171.418 662.306C170.257 654.667 165.727 646.394 158.943 639.532C152.229 632.813 144.492 628.563 137.662 627.897C129.763 627.178 123.746 632.65 118.913 637.09L118.216 637.756C113.175 642.34 108.482 646.362 101.93 649.28C97.7253 651.115 91.8938 652.31 86.2715 653.498C81.8107 654.419 77.5596 655.307 74.121 656.469C54.6989 663.136 45.4057 689.403 42.2925 700.372L42.0835 701.286C40.6664 706.177 38.9686 712.23 40.2246 719.281C42.1067 729.918 49.2856 738.83 54.9775 744.439C67.8946 757.243 75.8635 775.571 81.8808 791.868C83.1815 795.368 83.8092 799.2 84.39 802.922C85.0172 806.781 85.6443 810.777 87.0614 814.499C90.1745 822.804 94.0081 829.327 98.422 833.91C102.558 838.213 107.623 841.125 112.478 843.933C116.219 846.127 120.075 848.373 123.49 851.207C130.344 856.9 137.081 864.507 134.828 877.422C133.712 883.892 128.671 890.134 124.187 895.665C123.025 897.082 121.957 898.44 120.935 899.772C114.615 908.077 110.619 913.66 108.227 922.957C106.461 929.898 106.321 942.31 107.947 951.256C109.225 958.418 110.828 965.333 112.431 971.999L112.757 971.999C111.131 965.307 109.55 958.392 108.227 951.171C106.647 942.284 106.763 929.957 108.505 923.069Z" fill="#EB8D00"/>
</g>
<defs>
<linearGradient id="paint0_linear_1_2423" x1="204.5" y1="0" x2="204.5" y2="489.088" gradientUnits="userSpaceOnUse">
<stop stop-color="#D9D9D9" stop-opacity="0"/>
<stop offset="0.356478" stop-color="#D9D9D9"/>
<stop offset="1" stop-color="#D9D9D9"/>
</linearGradient>
</defs>
</svg>
