<svg width="1286" height="1295" viewBox="0 0 1286 1295" fill="none" xmlns="http://www.w3.org/2000/svg">
<mask id="mask0_200_268" style="mask-type:alpha" maskUnits="userSpaceOnUse" x="0" y="0" width="1286" height="1295">
<rect width="1286" height="1295" fill="#FDF8E9"/>
</mask>
<g mask="url(#mask0_200_268)">
<path fill-rule="evenodd" clip-rule="evenodd" d="M-229.895 1458.62C-219.405 1436.71 -206.495 1409.44 -179.982 1399.07C-165.516 1398.35 -153.181 1402.59 -140.155 1407.13C-121.943 1413.46 -101.309 1420.69 -68.9753 1416.63C-44.4224 1413.5 -28.6879 1401.44 -10.4163 1387.44C-2.92389 1381.66 4.85669 1375.77 13.7321 1370.12C36.902 1355.36 63.0693 1345.27 85.6629 1337.45C108.083 1329.59 125.834 1323.41 131.713 1302.81C135.287 1290.45 137.765 1273.18 139.206 1261.36C140.07 1254.79 140.532 1248.72 140.532 1243.26C140.532 1234.19 139.321 1226.37 137.016 1219.76C132.06 1205.77 118.457 1196.84 101.224 1185.65C96.0944 1182.27 90.8495 1178.84 85.3165 1174.94C81.4547 1172.28 77.3044 1168.81 72.8093 1165.09C63.5307 1157.37 53.9044 1149.41 46.182 1147.19C43.1848 1146.37 40.4758 1146.61 37.4203 1146.8C35.0577 1147 32.4637 1147.19 29.3515 1146.95L29.1796 1146.9L29.0633 1147C17.2489 1154.48 7.79584 1163.6 -1.4259 1172.38C-17.1022 1187.34 -31.8002 1201.52 -56.0649 1206.83C-68.8603 1209.68 -82.5189 1208.62 -97.9083 1203.74C-114.104 1198.48 -131.971 1186.32 -148.052 1169.39C-155.313 1161.76 -162.864 1153.66 -170.933 1145.07C-207.533 1105.74 -249.088 1061.11 -285.283 1036.74L-285.513 1036.69C-289.952 1035.87 -295.023 1036.16 -300.615 1037.27C-315.773 1040.41 -333.87 1050.35 -350.181 1064.58C-365.628 1078.14 -377.27 1093.58 -381.304 1105.84C-381.65 1106.85 -382.284 1108.78 -382.745 1110.86C-387.183 1127.26 -384.129 1144.25 -381.189 1160.65C-378.653 1174.84 -376.232 1188.3 -378.25 1201.38C-382.688 1229.61 -405.281 1249.92 -440.151 1257.06C-485.971 1266.52 -514.732 1240.46 -542.628 1215.23C-563.204 1196.65 -584.414 1177.4 -612.482 1172.33C-638.879 1167.55 -667.352 1173.83 -686.199 1177.98C-693.807 1179.62 -701.415 1181.64 -708.965 1183.81V1184.44C-701.357 1182.22 -693.692 1180.24 -685.968 1178.56C-667.236 1174.45 -638.879 1168.18 -612.655 1172.96C-584.817 1177.98 -563.665 1197.13 -543.204 1215.71C-515.193 1240.99 -486.26 1267.2 -440.036 1257.69C-404.82 1250.5 -382.054 1229.9 -377.616 1201.43C-375.541 1188.3 -377.904 1174.84 -380.44 1160.56C-383.379 1144.2 -386.376 1127.31 -382.054 1111C-381.535 1108.97 -380.901 1107 -380.555 1105.98C-372.601 1081.62 -333.178 1044.65 -300.498 1037.9C-294.965 1036.74 -290.009 1036.55 -285.743 1037.27C-249.606 1061.59 -208.051 1106.13 -171.452 1145.45C-163.498 1154.04 -155.948 1162.15 -148.685 1169.82C-132.49 1186.81 -114.566 1199.06 -98.1384 1204.27C-82.6354 1209.24 -68.8603 1210.31 -55.8917 1207.46C-31.4537 1202.05 -16.5258 1187.87 -0.791321 1172.81C8.31543 1164.08 17.7672 1155.06 29.4097 1147.58C32.5219 1147.82 35.1159 1147.63 37.4785 1147.48C40.4758 1147.19 43.0697 1147 45.8937 1147.82C53.4443 1149.99 63.0693 1157.85 72.291 1165.58C76.7294 1169.24 80.9932 1172.76 84.7983 1175.42C90.3313 1179.33 95.5761 1182.8 100.763 1186.18C117.881 1197.33 131.425 1206.16 136.325 1219.96C140.014 1230.43 140.762 1243.99 138.514 1261.26C136.958 1273.13 134.481 1290.36 131.022 1302.66C125.259 1322.93 107.622 1329.11 85.3747 1336.93C62.7229 1344.78 36.4988 1354.82 13.2138 1369.59C4.33844 1375.23 -3.38531 1381.22 -10.9359 1386.96C-29.0911 1400.9 -44.7674 1412.92 -69.0903 1415.96C-101.194 1420.01 -121.712 1412.87 -139.867 1406.55C-153.009 1402.01 -165.399 1397.68 -180.097 1398.4L-180.271 1398.44C-207.013 1409.01 -220.097 1436.37 -230.528 1458.37C-233.41 1464.36 -236.292 1470.54 -238.079 1477.29C-242.056 1492.83 -244.246 1507.64 -244.938 1521.54H-244.131C-243.555 1507.68 -241.249 1492.92 -237.33 1477.43C-235.658 1470.73 -232.719 1464.56 -229.895 1458.62Z" fill="#385D7D" fill-opacity="0.22"/>
<path fill-rule="evenodd" clip-rule="evenodd" d="M57.3615 993.418C57.3615 1018.75 43.1128 1048.47 22.7167 1065.52C14.3854 1072.6 4.2733 1078 -6.12567 1083.34C-29.4513 1095.24 -54.7891 1106.13 -81.6194 1115.71C-84.032 1115.57 -86.2728 1116 -88.3418 1116.48C-89.7207 1116.77 -91.0995 1117.01 -92.3634 1117.16C-120.803 1115.04 -153.091 1082.24 -153.091 1055.5C-153.091 1053.14 -152.861 1050.88 -152.345 1048.76C-149.932 1038.98 -140.682 1026.22 -124.767 1010.76C-101.44 988.264 -60.3045 957.198 -21.0063 944.001C-16.2946 942.363 -10.3773 940.437 -5.43559 939.81C14.3854 937.209 31.3918 943.615 45.0086 958.739C53.1667 967.794 57.3615 979.45 57.3615 993.418ZM-5.5506 939.233C-10.5491 939.858 -16.5247 941.785 -21.2932 943.374C-60.7064 956.62 -101.959 987.783 -125.341 1010.42C-141.314 1025.93 -150.679 1038.79 -153.035 1048.66C-153.608 1050.78 -153.897 1053.09 -153.897 1055.5C-153.897 1082.52 -121.089 1115.66 -92.3634 1117.73C-90.9845 1117.64 -89.5475 1117.35 -88.1686 1117.01C-86.0428 1116.67 -83.917 1116.19 -81.6194 1116.39H-81.5044L-81.4475 1116.34C-54.5008 1106.75 -29.1063 1095.77 -5.83746 1083.87C4.73335 1078.53 14.8455 1073.08 23.2905 1066C43.8015 1048.81 58.1653 1018.9 58.1653 993.418C58.1653 979.306 53.8568 967.506 45.6405 958.306C31.7937 942.989 14.5586 936.535 -5.5506 939.233Z" fill="#385D7D" fill-opacity="0.22"/>
<path fill-rule="evenodd" clip-rule="evenodd" d="M-1.06903 972.591C15.0849 976.064 24.2836 987.785 24.2836 1004.86C24.2836 1019.18 17.6721 1035.15 7.4964 1045.62C-8.5425 1062.06 -31.3093 1067.61 -59.421 1073.11C-71.4938 1073.54 -81.7263 1070.84 -88.396 1065.58C-93.8574 1061.15 -96.6746 1054.97 -96.6746 1047.35C-96.6746 1045.28 -96.4446 1043.01 -95.9845 1040.65C-90.9833 1014.55 -52.1194 976.74 -17.568 972.254C-12.7968 971.674 -5.84024 971.53 -1.06903 972.591ZM-68.8497 998.155C-83.6816 1011.76 -94.3743 1027.96 -96.7315 1040.55C-97.2497 1042.91 -97.4784 1045.18 -97.4784 1047.35C-97.4784 1055.17 -94.5475 1061.44 -88.7979 1066.02C-82.1296 1071.47 -71.6657 1074.12 -59.306 1073.74C-31.0211 1068.19 -8.08245 1062.64 8.07147 1045.95C18.4204 1035.49 25.0887 1019.28 25.0887 1004.86C25.0887 987.544 15.6031 975.533 -0.83902 971.916C-5.72525 970.903 -12.7968 971.096 -17.683 971.674C-34.0684 973.749 -52.6945 983.444 -68.8497 998.155Z" fill="#385D7D" fill-opacity="0.22"/>
<path fill-rule="evenodd" clip-rule="evenodd" d="M201.916 839.713C208.374 842.075 215.063 844.535 223.021 846.801C236.571 850.706 250.18 852.297 263.327 853.889C278.377 855.673 292.504 857.361 304.21 862.278L305.594 862.953C315.05 868.257 323.181 872.79 329.408 879.637C337.308 888.315 341.401 899.888 341.401 913.051C341.401 933.206 331.254 953.457 315.626 964.499C304.555 972.213 291.409 975.299 277.512 973.225C257.906 969.706 246.432 956.012 234.322 941.595C223.194 928.288 211.661 914.642 193.383 909.434C181.388 906.06 167.895 907.698 153.653 909.434C138.315 911.363 122.515 913.292 108.387 908.663C88.1481 902.106 67.7358 882.24 60.8739 862.52C59.5478 858.71 58.9714 855.286 58.9714 851.719C58.9714 850.176 59.0282 848.585 59.3164 846.849C71.1376 834.506 99.9692 830.937 123.783 829.25C165.416 826.405 182.311 832.529 201.916 839.713ZM58.6818 846.512L58.625 846.608L58.5668 846.753C58.2786 848.489 58.1636 850.127 58.1636 851.719C58.1636 855.336 58.855 858.807 60.1243 862.664C67.043 882.577 87.7448 902.636 108.099 909.242C122.457 913.966 138.315 911.989 153.711 910.11C167.953 908.374 181.33 906.734 193.094 910.013C211.2 915.124 222.617 928.769 233.688 941.932C245.394 955.867 257.445 970.284 277.397 973.804C291.524 975.926 304.901 972.84 316.031 964.98C331.887 953.842 342.209 933.447 342.209 913.051C342.209 899.742 337.884 888.074 329.985 879.251C323.699 872.355 315.108 867.534 306.054 862.52L304.555 861.7C292.735 856.734 278.55 855.046 263.384 853.261C250.295 851.719 236.744 850.127 223.251 846.223C215.294 843.908 208.606 841.449 202.262 839.086C182.599 831.901 165.531 825.73 123.726 828.671C99.7378 830.407 70.618 833.927 58.6818 846.512Z" fill="#385D7D" fill-opacity="0.22"/>
<path fill-rule="evenodd" clip-rule="evenodd" d="M-296.447 988.704C-302.274 983.019 -307.699 976.418 -312.199 971.071C-314.218 968.661 -315.949 966.59 -317.449 964.903C-324.085 957.386 -331.24 950.448 -338.048 943.751C-351.377 930.79 -363.956 918.504 -370.015 904.772C-372.957 897.979 -374.515 890.847 -374.515 882.945C-374.515 868.539 -369.553 853.795 -364.706 839.485C-361.936 831.247 -359.109 822.863 -357.263 814.624C-354.955 804.073 -353.743 793.231 -353.743 782.342C-353.743 773.669 -354.493 764.804 -356.051 756.083C-361.129 726.74 -374.515 696.819 -397.999 661.84C-402.961 654.467 -408.674 647.241 -414.155 640.254C-419.925 633.075 -425.753 625.558 -430.831 617.945C-432.85 614.813 -434.35 611.49 -435.62 608.262C-436.716 605.659 -437.755 603.01 -439.255 600.456C-440.524 598.144 -442.025 595.879 -443.409 593.759C-446.698 588.699 -449.814 584.026 -451.141 578.244C-452.18 573.619 -452.814 568.174 -452.814 563.018C-452.814 557.911 -452.18 550.491 -449.583 544.227C-441.678 525.388 -428.061 508.38 -415.829 494.311C-412.886 490.89 -409.712 487.421 -406.539 484.097C-402.788 479.953 -398.807 475.762 -395.172 471.425C-391.998 467.57 -389.575 463.33 -387.267 459.235C-385.247 455.622 -383.17 451.815 -380.458 448.394C-365.456 428.929 -343.761 412.016 -316.007 398.189C-289.523 385.083 -268.636 376.989 -240.823 392.888C-232.226 397.754 -229.688 403.633 -226.745 412.064C-223.514 421.074 -223.109 430.663 -222.533 439.865C-222.013 450.707 -221.378 461.837 -216.589 472.099C-214.108 477.496 -210.3 482.169 -206.549 486.457C-205.568 487.71 -204.472 488.818 -203.491 489.926C-199.395 494.503 -195.183 499.226 -192.124 504.333C-187.624 512.042 -182.719 519.751 -177.988 527.171C-174.987 531.941 -171.757 536.855 -168.756 541.77C-161.716 553.093 -154.504 564.56 -147.465 575.642C-143.368 582.05 -139.27 588.362 -135.289 594.771L-135.233 594.867C-134.943 595.108 -134.54 595.445 -134.135 595.685C-113.709 626.522 -81.2824 638.375 -49.2587 646.614C-46.8934 647.241 -44.5267 647.866 -42.2196 648.445C-19.8317 654.034 1.2869 659.333 12.9429 678.414C18.7696 687.761 24.3676 704.576 29.4446 728.427C36.7733 762.01 39.0236 793.568 41.619 830.09L41.7921 832.596C34.5798 841.992 24.1362 847.677 12.8848 853.699C7.51816 856.591 1.92151 859.577 -3.21368 863.046C-13.9455 870.226 -24.5623 879.139 -35.6988 888.534C-47.5849 898.364 -59.7023 908.626 -72.3381 916.962C-105.343 938.933 -146.541 954.062 -186.296 968.661C-192.817 971.071 -199.51 973.528 -205.914 975.889C-213.358 978.732 -220.859 982.007 -228.129 985.235C-240.362 990.536 -251.786 995.595 -262.981 998.485C-276.136 1001.86 -285.83 999.112 -296.447 988.704ZM-227.841 985.718C-220.57 982.538 -213.07 979.261 -205.626 976.514C-199.222 974.057 -192.528 971.648 -186.008 969.239C-146.194 954.592 -104.94 939.511 -71.8198 917.443C-59.1827 909.06 -47.0652 898.846 -35.2374 889.017C-23.9859 879.524 -13.4841 870.659 -2.75226 863.528C2.32611 860.059 7.86456 857.12 13.288 854.23C24.5408 848.158 35.2145 842.425 42.5431 832.884L42.5999 832.788L42.3699 830.042C39.7733 793.52 37.5229 761.961 30.1943 728.331C25.0022 704.432 19.4624 687.472 13.6926 678.124C1.80652 658.756 -19.4272 653.504 -41.9883 647.866C-44.2967 647.241 -46.662 646.614 -49.0273 646.084C-80.936 637.893 -113.248 626.041 -133.501 595.3L-133.674 595.204C-134.02 594.963 -134.308 594.723 -134.655 594.433C-138.694 588.122 -142.733 581.761 -146.772 575.353C-153.753 564.223 -161.082 552.756 -168.064 541.433C-171.122 536.518 -174.295 531.7 -177.295 526.883C-182.084 519.462 -186.989 511.753 -191.548 504.092C-194.548 498.84 -198.817 494.167 -202.856 489.589C-203.896 488.433 -204.933 487.277 -205.973 486.12C-209.665 481.88 -213.473 477.207 -215.897 471.81C-220.685 461.74 -221.205 450.61 -221.84 439.865C-222.301 430.567 -222.879 420.978 -225.995 411.92C-228.995 403.343 -231.649 397.369 -240.42 392.359C-268.636 376.217 -289.696 384.409 -316.353 397.61C-344.28 411.535 -366.091 428.495 -381.093 448.009C-383.805 451.526 -385.94 455.332 -387.959 458.993C-390.267 463.089 -392.633 467.281 -395.807 471.039C-399.384 475.424 -403.365 479.664 -407.174 483.76C-410.289 487.084 -413.463 490.457 -416.521 493.926C-428.753 508.092 -442.313 525.051 -450.333 544.035C-452.988 550.347 -453.507 557.863 -453.507 563.018C-453.507 568.222 -452.93 573.715 -451.834 578.341C-450.506 584.218 -447.391 588.988 -444.102 594.048C-442.659 596.168 -441.217 598.384 -439.832 600.697C-438.505 603.25 -437.409 605.901 -436.37 608.406C-434.985 611.779 -433.6 615.103 -431.523 618.235C-426.445 625.943 -420.502 633.412 -414.79 640.592C-409.251 647.578 -403.538 654.756 -398.634 662.177C-375.092 697.06 -361.879 726.981 -356.801 756.131C-355.301 764.852 -354.493 773.669 -354.493 782.342C-354.493 793.183 -355.647 804.023 -358.013 814.528C-359.859 822.718 -362.629 831.102 -365.398 839.293C-370.188 853.651 -375.15 868.443 -375.15 882.945C-375.15 890.944 -373.765 898.123 -370.707 904.965C-364.648 918.793 -352.012 931.128 -338.568 944.184C-331.759 950.882 -324.72 957.724 -318.027 965.24C-316.585 966.927 -314.796 969.047 -312.834 971.456C-308.333 976.756 -302.793 983.405 -297.082 989.09C-286.175 999.69 -276.251 1002.58 -262.691 999.112C-251.556 996.173 -239.958 991.162 -227.841 985.718Z" fill="#385D7D" fill-opacity="0.22"/>
<path fill-rule="evenodd" clip-rule="evenodd" d="M-191.98 219.58L-191.808 219.676C-188.646 221.124 -186.002 222.572 -183.588 223.827C-175.137 228.267 -169.964 230.874 -155.939 232.273C-144.844 233.287 -133.406 232.901 -122.368 232.563C-109.378 232.129 -95.8695 231.646 -82.5911 233.528C-35.5122 240.044 12.9455 271.464 30.19 306.698C31.8571 310.075 33.983 314.757 34.6731 317.943C35.1913 320.501 35.535 322.913 35.535 325.182C35.535 345.84 11.2784 350.618 -12.1176 355.203C-17.3489 356.265 -22.752 357.327 -27.7532 358.533C-47.0086 363.263 -59.7133 369.585 -69.0825 379.094C-78.3949 388.651 -84.4882 401.537 -88.7411 420.794C-90.4082 428.613 -91.2702 435.805 -91.2702 442.803C-91.2702 456.221 -88.2811 469.011 -81.3259 485.661C-81.039 486.385 -80.7508 487.061 -80.4639 487.786C-76.6697 497.004 -73.3937 504.871 -63.1612 510.421C-43.2726 521.088 -11.1406 529.775 11.5653 525.673C33.8679 521.667 38.3522 508.104 42.9503 493.77C43.8704 490.971 44.7906 488.171 45.8244 485.372C47.5497 480.98 49.2736 477.505 51.3439 474.416C65.8293 452.746 78.9928 428.854 92.6732 399.075C104.285 373.785 129.921 361.525 154.466 349.7C178.379 338.165 203.154 326.292 214.939 302.595C216.721 298.975 217.698 294.92 217.698 290.48C217.698 285.219 216.376 279.428 213.788 273.202C206.776 256.309 185.163 241.154 167.113 229.86C138.832 212.147 103.653 190.138 81.0036 164.076C80.4299 163.352 79.8548 162.676 79.3365 162H78.3595C79.0497 162.773 79.7397 163.593 80.4299 164.414C103.078 190.525 138.314 212.581 166.653 230.391C184.646 241.588 206.143 256.695 213.098 273.395C215.629 279.573 216.893 285.316 216.893 290.48C216.893 294.824 216.031 298.782 214.248 302.354C202.522 325.81 177.977 337.683 154.121 349.17C129.346 361.043 103.768 373.447 91.9831 398.882C78.3027 428.613 65.1961 452.503 50.7106 474.127C48.6416 477.215 46.8027 480.739 45.1356 485.227C44.0423 487.978 43.1803 490.826 42.2615 493.577C37.6053 507.767 33.236 521.136 11.3934 525.045C-11.1406 529.1 -42.9857 520.46 -62.7593 509.89C-72.7618 504.485 -76.0378 496.666 -79.717 487.593C-80.062 486.869 -80.3489 486.144 -80.6371 485.42C-87.6491 468.866 -90.5232 456.124 -90.5232 442.803C-90.5232 435.853 -89.7181 428.71 -87.9942 420.988C-79.8888 383.775 -64.5982 368.186 -27.5232 359.161C-22.5788 357.905 -17.1757 356.844 -12.0026 355.83C11.7385 351.197 36.2251 346.323 36.2251 325.182C36.2251 322.865 35.9951 320.405 35.42 317.846C34.673 314.612 32.5459 309.834 30.8788 306.456C22.3716 288.984 6.04715 271.995 -14.9917 258.481C-35.6854 245.112 -59.6552 236.086 -82.4761 232.852C-95.8114 231.067 -109.378 231.501 -122.368 231.935C-133.406 232.322 -144.844 232.659 -155.88 231.598C-169.734 230.343 -174.85 227.64 -183.299 223.248C-185.6 222.09 -188.301 220.642 -191.405 219.097C-203.419 206.693 -209.628 191.973 -209.628 175.37C-209.628 170.978 -209.168 166.537 -208.247 162H-209.053C-209.915 166.537 -210.316 170.978 -210.316 175.37C-210.316 192.166 -204.166 206.983 -191.98 219.58Z" fill="#385D7D" fill-opacity="0.22"/>
<path fill-rule="evenodd" clip-rule="evenodd" d="M-136.504 197.41C-125.218 200.628 -113.528 201.253 -99.9938 201.973C-95.3294 202.213 -90.4351 202.405 -85.1375 202.838C-64.6927 204.375 -43.6161 207.641 -23.1726 210.859C-3.01744 214.029 16.0444 217.007 31.0739 217.583H31.2471L31.3621 217.439C33.0901 215.47 34.8181 213.357 34.8181 210.859C34.8181 210.427 34.7598 209.946 34.5866 209.514L34.5298 209.418C30.2106 203.126 26.2377 196.402 22.4367 189.917C17.0228 180.599 11.4951 171.185 4.46956 162.492H3.60487C10.7455 171.233 16.2744 180.791 21.7452 190.158C25.5462 196.642 29.5191 203.414 33.8965 209.706C34.0116 210.09 34.0116 210.427 34.0116 210.763C34.0116 213.068 32.5136 215.086 30.902 216.911C15.9862 216.382 -2.95923 213.405 -23.0576 210.283C-43.501 207.016 -64.5777 203.702 -85.0793 202.213C-90.3769 201.781 -95.2726 201.541 -99.9369 201.349C-113.47 200.628 -125.045 200.052 -136.274 196.786C-151.765 192.415 -161.785 181.656 -161.785 169.456C-161.785 167.151 -161.44 164.797 -160.749 162.492H-161.497C-162.132 164.797 -162.477 167.151 -162.477 169.456C-162.477 181.896 -152.284 192.847 -136.504 197.41Z" fill="#385D7D" fill-opacity="0.22"/>
<path fill-rule="evenodd" clip-rule="evenodd" d="M3.59364 410.448C9.66388 411.359 14.6245 414.048 17.9519 418.224C20.2279 421.056 21.3943 424.369 21.3943 428.114C21.3943 443.284 2.83452 460.614 -12.3411 464.215C-27.6317 464.07 -34.4028 452.453 -34.4028 440.979C-34.4028 430.417 -29.2081 420.625 -20.6278 415.44C-13.7416 411.263 -4.28577 409.295 3.59364 410.448ZM-35.2202 440.979C-35.2202 452.79 -28.1581 464.743 -12.3411 464.839H-12.2233C3.24318 461.19 22.0953 443.476 22.0953 428.114C22.0953 424.273 20.9275 420.864 18.6515 417.84C15.1495 413.52 10.013 410.784 3.76819 409.823C-4.34395 408.623 -14.0325 410.64 -21.0946 414.96C-29.7331 420.193 -35.2202 430.227 -35.2202 440.979Z" fill="#385D7D" fill-opacity="0.22"/>
<path fill-rule="evenodd" clip-rule="evenodd" d="M89.5959 240.497L91.3171 241.118C114.605 249.377 142.596 261.361 152.462 281.222C152.634 282.224 152.747 283.227 152.747 284.182C152.747 294.924 142.136 302.18 131.755 304.616C97.7987 306.334 83.4012 281.842 72.8466 264.034C72.1011 262.841 71.4705 261.552 70.7249 260.454C69.5206 258.401 68.0294 256.3 66.6519 254.199C62.809 248.852 58.966 243.266 58.966 238.11C58.966 237.012 59.1392 235.866 59.5397 234.816C67.6843 232.715 79.3282 236.869 89.5959 240.497ZM58.966 234.338L58.9092 234.482C58.3922 235.58 58.1636 236.869 58.1636 238.11C58.1636 243.41 62.1216 249.091 65.9645 254.534C67.3407 256.586 68.8318 258.687 70.0361 260.74C70.7817 261.886 71.4704 263.079 72.1592 264.321C82.7706 282.32 97.34 306.955 131.87 305.188C142.653 302.753 153.494 295.258 153.494 284.182C153.494 283.227 153.379 282.129 153.149 281.031C143.169 260.883 115.064 248.852 91.604 240.545L89.9396 239.924C79.3864 236.2 67.5707 231.999 59.1392 234.291L58.966 234.338Z" fill="#385D7D" fill-opacity="0.22"/>
<path fill-rule="evenodd" clip-rule="evenodd" d="M407.429 443.315C415.311 447.592 419.225 454.736 419.225 464.507C419.225 468.201 418.706 472.235 417.613 476.707C416.923 479.575 416.175 481.907 415.426 483.851C411.975 492.358 406.221 496.246 393.967 498.191C381.539 500.281 366.407 500.572 352.485 499.065C334.246 497.17 315.719 488.178 315.719 474.665C315.719 468.93 319 463 325.5 457.07C335.166 448.37 349.838 442.245 365.774 440.398C376.246 439.232 398.339 438.26 407.429 443.315ZM324.925 456.632C318.366 462.659 314.971 468.735 314.971 474.665C314.971 488.567 333.785 497.802 352.311 499.746C366.407 501.204 381.596 500.912 394.139 498.871C406.394 496.878 412.608 492.698 416.118 484.047C416.923 482.102 417.671 479.72 418.303 476.852C419.455 472.283 420.03 468.249 420.03 464.507C420.03 454.445 415.886 447.154 407.833 442.732C398.569 437.677 377.051 438.454 365.717 439.767C349.608 441.661 334.649 447.787 324.925 456.632Z" fill="#385D7D" fill-opacity="0.22"/>
<path fill-rule="evenodd" clip-rule="evenodd" d="M419.899 1041.78C411.923 1039.13 406.78 1034.72 406.144 1029.87C405.623 1025.88 405.277 1021.71 405.277 1017.43C405.277 997.361 411.229 977.339 417.529 956.068C421.344 943.103 425.332 929.755 427.874 916.262C428.625 912.325 428.915 907.811 428.915 901.713C428.915 898.737 428.857 895.519 428.798 892.446C428.683 889.278 428.625 886.012 428.625 882.748C428.625 866.086 430.88 849.424 447.582 840.733C468.098 829.978 491.332 833.434 513.756 836.796C519.419 837.66 525.198 838.573 530.748 839.149C556.985 842.125 575.076 858.019 580.45 882.844C582.01 889.662 582.646 896.864 582.646 904.259C582.646 918.759 579.756 933.5 574.266 946.752C564.614 969.896 553.633 984.301 526.007 989.679C505.954 993.617 490.639 999.618 474.63 1009.8C468.388 1013.73 459.488 1020.07 452.956 1027.47C451.512 1029.1 450.356 1031.17 449.2 1033.08C447.467 1036.16 445.617 1039.23 442.958 1041.1C438.161 1044.47 428.683 1044.71 419.899 1041.78ZM449.951 1033.42C451.108 1031.36 452.205 1029.44 453.592 1027.9C460.008 1020.55 468.85 1014.26 475.149 1010.28C490.985 1000.19 506.242 994.193 526.239 990.303C554.153 984.781 565.25 970.281 574.959 946.945C580.45 933.644 583.456 918.855 583.456 904.259C583.456 896.816 582.646 889.614 581.201 882.748C575.768 857.635 557.506 841.501 530.863 838.573C525.315 837.901 519.535 837.036 513.929 836.22C491.332 832.762 467.983 829.258 447.177 840.157C430.244 849.04 427.874 865.894 427.874 882.748C427.874 886.012 427.989 889.326 428.047 892.446C428.162 895.519 428.279 898.737 428.279 901.713C428.279 907.811 427.874 912.277 427.18 916.166C424.579 929.61 420.65 943.007 416.777 955.876C410.536 977.195 404.467 997.313 404.467 1017.43C404.467 1021.71 404.814 1025.93 405.335 1029.92C406.086 1035.01 411.402 1039.61 419.609 1042.4C427.296 1044.9 437.583 1045.67 443.421 1041.63C446.311 1039.61 448.103 1036.45 449.951 1033.42Z" fill="#385D7D" fill-opacity="0.22"/>
<path fill-rule="evenodd" clip-rule="evenodd" d="M532.861 935.125C521.947 930.672 511.791 915.89 509.281 908.842C508.64 907.08 508.348 905.318 508.348 903.605C508.348 898.906 510.624 894.404 514.885 890.977C519.204 887.404 524.982 885.397 530.469 885.545C537.355 885.691 543.075 889.118 546.344 895.138C546.927 896.116 547.452 897.194 547.921 898.27C549.321 901.941 550.896 909.772 550.896 917.359C550.896 927.539 548.153 934 543.193 935.664C539.982 936.789 536.48 936.593 532.861 935.125ZM551.655 917.359C551.655 909.723 550.079 901.746 548.678 898.074C548.212 896.997 547.687 895.823 547.103 894.844C543.66 888.628 537.706 885.055 530.469 884.908C524.807 884.81 518.795 886.914 514.418 890.488C508.348 895.382 506.13 902.332 508.524 908.989C511.15 916.134 521.364 931.21 532.511 935.664C536.422 937.23 540.041 937.426 543.425 936.252C550.197 933.951 551.655 924.7 551.655 917.359Z" fill="#385D7D" fill-opacity="0.22"/>
<path fill-rule="evenodd" clip-rule="evenodd" d="M836.239 722.572C834.513 722.716 832.728 722.668 830.828 722.62C828.87 722.572 826.913 722.523 824.898 722.717C812.638 723.925 797.612 728.131 781.782 732.528C765.548 737.071 748.854 741.711 732.793 743.934C726.059 744.852 718.806 745.481 711.782 746.06C688.813 747.897 665.212 749.782 654.677 763.267C649.843 769.356 647.655 778.249 647.655 791.249C647.655 798.499 648.288 806.329 648.921 814.062C649.151 817.009 649.439 820.054 649.669 823.003C651.569 849.584 659.8 904.874 677.186 924.207C700.961 950.546 741.774 953.689 778.673 953.253C825.072 950.16 851.033 923.53 877.226 894.241V893.178C850.918 922.66 825.072 949.483 778.615 952.721C742.004 953.108 701.363 949.919 677.819 923.771C660.492 904.681 652.318 849.488 650.36 822.954C650.245 820.006 649.899 816.961 649.669 813.964C648.978 806.281 648.345 798.451 648.345 791.249C648.345 778.346 650.533 769.598 655.253 763.605C665.615 750.41 689.045 748.526 711.84 746.64C718.863 746.108 726.174 745.529 732.909 744.563C749.027 742.339 765.779 737.651 782.07 733.156C797.842 728.71 812.753 724.505 824.957 723.393C826.913 723.2 828.928 723.248 830.77 723.297C832.728 723.345 834.569 723.393 836.296 723.2C848.385 721.896 862.777 723.297 877.226 726.729V726.052C862.719 722.668 848.27 721.267 836.239 722.572Z" fill="#385D7D" fill-opacity="0.22"/>
<path fill-rule="evenodd" clip-rule="evenodd" d="M829.302 755.992C822.043 757.147 813.287 759.359 803.954 761.714C790.475 765.031 775.268 768.925 759.773 770.849C755.394 771.378 751.246 771.858 747.157 772.34C720.716 775.369 699.863 777.772 686.038 792.532C676.648 802.581 671.003 821.33 671.003 842.774C671.003 868.831 678.895 893.063 692.086 907.583C713.746 931.478 751.938 932.438 780.164 929.073C810.291 923.785 825.729 905.756 845.488 882.918C854.589 872.246 864.094 861.188 876.249 849.986C876.537 849.696 876.941 849.408 877.227 849.12V848.158C876.767 848.687 876.191 849.12 875.731 849.6C863.519 860.85 853.609 872.342 844.855 882.486C825.326 905.227 809.831 923.256 780.05 928.449C751.996 931.862 714.15 930.948 692.663 907.197C679.586 892.822 671.81 868.687 671.81 842.774C671.81 821.475 677.282 802.917 686.614 792.917C700.266 778.301 720.947 775.993 747.214 773.012C751.305 772.484 755.567 772.05 759.829 771.474C775.383 769.503 790.706 765.704 804.128 762.339C813.46 759.983 822.215 757.771 829.417 756.666C844.855 754.214 861.732 755.128 877.227 759.118V758.493C861.674 754.502 844.74 753.541 829.302 755.992Z" fill="#385D7D" fill-opacity="0.22"/>
<path fill-rule="evenodd" clip-rule="evenodd" d="M805.99 810.318C812.059 814.169 816.972 817.923 821.019 821.918C821.655 825.576 822.002 829.379 822.002 833.182C822.002 862.976 800.555 898.884 760.96 906.874C729.803 908.173 716.97 901.145 706.334 889.449C698.126 880.352 693.213 866.586 693.213 852.579C693.213 834.914 700.67 819.992 713.617 811.618C731.71 799.873 765.41 799.44 805.99 810.318ZM692.403 852.579C692.403 866.682 697.375 880.592 705.756 889.737C716.507 901.675 729.514 908.847 761.018 907.547C801.133 899.413 822.753 863.168 822.753 833.182C822.753 829.283 822.406 825.48 821.655 821.774V821.678V821.63C817.608 817.538 812.58 813.64 806.394 809.789L806.221 809.741C765.41 798.766 731.48 799.296 713.212 811.137C699.976 819.559 692.403 834.722 692.403 852.579Z" fill="#385D7D" fill-opacity="0.22"/>
<path fill-rule="evenodd" clip-rule="evenodd" d="M806.029 1006.89C778.712 1011.67 750.588 1016.49 728.158 1031.45C716.656 1039.13 712.227 1048.58 714.298 1060.6C718.67 1085.31 745.297 1114.65 759.676 1130.47C781.646 1148.14 808.216 1154.75 840.882 1150.84C852.557 1149.44 864.979 1146.69 877.229 1143.84V1143.17C864.922 1146.06 852.442 1148.86 840.767 1150.21C808.331 1154.12 781.932 1147.51 760.193 1130.04C745.987 1114.36 719.36 1085.06 715.103 1060.5C714.758 1058.62 714.586 1056.79 714.586 1055.05C714.586 1045.83 719.187 1038.26 728.676 1031.98C750.933 1017.12 778.942 1012.2 806.146 1007.52C830.588 1003.32 855.893 998.976 876.309 987.202C876.712 987.009 876.943 986.864 877.229 986.622V985.851C876.827 986.14 876.367 986.429 875.907 986.72C855.605 998.349 830.414 1002.69 806.029 1006.89Z" fill="#385D7D" fill-opacity="0.22"/>
<path fill-rule="evenodd" clip-rule="evenodd" d="M748.882 849.229C753.434 851.427 756.061 854.993 756.061 858.901C756.061 860.073 755.828 861.245 755.361 862.466C754.31 863.248 753.318 864.127 752.559 864.859C751.042 865.983 749.175 866.52 747.015 866.374C743.98 866.08 740.711 864.469 738.727 862.369C738.142 861.098 737.968 859.926 737.968 858.754C737.968 855.042 740.653 851.477 745.146 849.181C746.256 849.131 747.598 849.131 748.882 849.229ZM744.972 848.497L744.855 848.545C740.069 850.987 737.151 854.797 737.151 858.754C737.151 860.024 737.443 861.343 738.026 862.564L738.084 862.612C740.244 865.007 743.688 866.667 746.957 866.96C749.291 867.155 751.451 866.57 753.084 865.299C753.901 864.469 754.836 863.638 755.945 862.808L756.003 862.76V862.662C756.586 861.44 756.878 860.17 756.878 858.901C756.878 854.749 753.961 850.89 749.175 848.594L748.999 848.545C747.656 848.448 746.198 848.497 745.03 848.497H744.972Z" fill="#385D7D" fill-opacity="0.22"/>
<path fill-rule="evenodd" clip-rule="evenodd" d="M787.731 1083.93C787.731 1084.84 787.731 1085.76 787.845 1086.72C788.702 1095.3 793.439 1102.91 801.486 1108.69C813.072 1116.93 830.821 1120.59 851.366 1119C859.3 1118.37 867.404 1117.26 875.28 1115.77V1115.14C867.347 1116.64 859.3 1117.74 851.309 1118.37C830.935 1119.91 813.414 1116.35 801.942 1108.21C794.009 1102.57 789.329 1095.1 788.53 1086.67C788.473 1085.71 788.416 1084.84 788.416 1083.93C788.416 1058.4 824.486 1048.91 856.16 1040.62C862.838 1038.84 869.401 1037.15 875.28 1035.37V1034.7C869.401 1036.53 862.724 1038.21 855.933 1039.99C823.972 1048.38 787.731 1057.87 787.731 1083.93Z" fill="#385D7D" fill-opacity="0.22"/>
<path fill-rule="evenodd" clip-rule="evenodd" d="M804.173 395.531C787.877 402.941 770.946 410.689 753.439 416.801C743.879 420.217 733.399 423.248 722.284 426.521C674.775 440.332 620.93 455.971 620.93 504.478V506.402C621.449 524.015 628.821 540.616 634.981 551.395C636.364 554.042 637.861 556.786 639.474 559.481C643.908 567.613 648.514 576.034 653.525 583.589C668.094 605.629 675.178 630.941 682.089 655.29L682.146 655.627C682.779 657.696 683.355 659.909 683.874 662.268C688.02 678.629 693.26 698.984 716.007 705.433C733.514 710.388 755.974 705.817 777.625 701.438C785.572 699.851 793.059 698.359 800.142 697.3C824.674 693.787 847.882 693.498 868.959 696.674C871.665 697.108 874.43 697.54 877.252 698.117V697.444C874.488 696.914 871.78 696.482 869.074 696.049C847.94 692.968 824.618 693.162 800.027 696.722C792.886 697.781 785.4 699.273 777.453 700.86C755.857 705.288 733.514 709.715 716.238 704.854C693.835 698.503 688.768 678.34 684.68 662.123C684.047 659.765 683.47 657.551 682.894 655.483L682.837 655.193C675.926 630.699 668.786 605.339 654.216 583.252C649.264 575.794 644.598 567.372 640.049 559.239C638.609 556.496 637.113 553.802 635.615 551.155C629.511 540.424 622.197 523.822 621.679 506.402C621.622 505.729 621.622 505.055 621.622 504.478C621.622 456.452 675.235 440.86 722.572 427.05C733.629 423.874 744.167 420.795 753.784 417.426C771.348 411.219 788.222 403.567 804.634 396.108C818.512 389.755 831.643 383.741 845.176 378.544C858.651 373.442 869.304 368.053 877.251 362.375V361.509C869.362 367.38 858.594 372.769 844.888 378.063C831.355 383.164 818.167 389.178 804.173 395.531Z" fill="#385D7D" fill-opacity="0.22"/>
<path fill-rule="evenodd" clip-rule="evenodd" d="M662.664 179.435C680.635 219.521 714.625 246.325 760.959 256.853C773.878 259.799 790.413 261.828 806.375 263.856C826.241 266.368 846.738 268.976 860.976 273.129C867.121 275.013 872.517 277.524 877.225 280.856V280.084C872.517 276.896 867.234 274.337 861.264 272.598C846.91 268.3 826.412 265.74 806.49 263.228C790.528 261.2 773.935 259.123 761.131 256.226C715.141 245.745 681.267 219.134 663.352 179.194C661.86 175.91 660.022 170.259 658.875 165.429C658.645 164.319 658.358 163.159 658.185 162H657.381C657.669 163.208 657.841 164.367 658.128 165.574C659.277 170.404 661.171 176.103 662.664 179.435Z" fill="#385D7D" fill-opacity="0.22"/>
<path fill-rule="evenodd" clip-rule="evenodd" d="M319.038 218.321C322.493 231.148 329.861 243.444 337.114 255.402C344.308 267.361 351.793 279.657 355.016 292.388C363.477 325.322 329.112 337.522 298.661 348.227C294.286 349.817 290.142 351.265 286.17 352.711C270.226 358.835 255.662 365.778 242.883 373.446C217.094 388.828 196.487 406.525 181.693 426.15C168.052 444.281 160.568 459.567 158.266 474.177C154.525 497.854 163.274 514.683 173.347 534.115C175.535 538.31 177.837 542.699 179.967 547.135C186.126 559.961 193.149 574.523 208.461 584.457C219.916 591.883 233.846 597.525 247.316 602.926L250.366 604.179C275.119 614.209 299.583 621.538 325.428 629.302C331.299 631.086 337.229 632.821 343.1 634.509C359.102 639.187 375.681 643.961 391.395 649.843C403.368 654.232 413.787 660.935 423.86 667.396C429.501 671.013 435.316 674.725 441.302 677.957C456.498 686.298 469.739 699.366 482.575 711.999C487.238 716.58 491.612 720.92 496.044 724.97C498.75 727.526 501.57 730.179 504.507 733.119C517.976 746.188 533.288 761.039 552.685 764.945C555.277 765.476 557.81 765.909 560.285 766.392C581.985 770.587 600.809 774.251 614.393 792.431C627.231 809.646 631.432 830.525 635.059 848.945C636.843 857.673 638.167 866.496 639.548 875.032C641.966 890.848 644.326 905.748 648.586 919.25C658.429 950.159 683.987 968.965 724.741 975.233C764.459 981.309 812.986 975.137 832.845 968.29C850.689 962.118 864.676 951.701 877.225 939.213V938.2C864.676 950.883 850.516 961.442 832.498 967.712C812.813 974.51 764.459 980.73 724.856 974.654C684.447 968.386 659.005 949.774 649.334 919.105C645.016 905.604 642.715 890.704 640.24 874.936C638.973 866.4 637.592 857.577 635.865 848.848C632.122 830.381 627.979 809.453 615.027 792.093C601.212 773.673 582.332 770.056 560.457 765.813C557.982 765.331 555.392 764.8 552.859 764.319C533.69 760.461 518.551 745.705 505.082 732.686C502.147 729.793 499.325 727.044 496.562 724.537C492.187 720.486 487.756 716.195 483.15 711.565C470.257 698.931 457.016 685.816 441.705 677.474C435.719 674.195 429.963 670.482 424.321 666.913C414.19 660.452 403.713 653.701 391.74 649.265C376.026 643.334 359.39 638.56 343.33 633.883C337.517 632.195 331.531 630.459 325.659 628.723C299.871 620.96 275.464 613.582 250.654 603.552L247.604 602.395C234.133 596.995 220.319 591.352 208.863 583.879C193.782 574.09 186.818 559.623 180.715 546.894C178.47 542.409 176.225 538.069 174.039 533.874C163.964 514.537 155.215 497.806 158.956 474.225C161.316 459.712 168.684 444.522 182.327 426.44C197.064 406.958 217.556 389.261 243.401 373.928C256.065 366.309 270.628 359.414 286.515 353.338C290.43 351.843 294.575 350.348 298.949 348.805C313.628 343.597 330.264 337.762 341.833 329.132C355.016 319.198 359.621 307.143 355.821 292.195C352.541 279.513 345 267.12 337.747 255.113C330.609 243.203 323.126 230.859 319.845 218.177C314.262 197.249 320.708 178.106 327.501 162H326.753C319.96 178.154 313.57 197.297 319.038 218.321Z" fill="#385D7D" fill-opacity="0.22"/>
<path fill-rule="evenodd" clip-rule="evenodd" d="M602.63 251.53C619.932 266.492 636.315 280.633 642.695 299.118C651.721 324.89 629.187 344.341 607.286 363.164C605.964 364.322 604.584 365.48 603.262 366.639C592.225 376.195 583.89 387.633 575.843 398.734C570.093 406.649 564.058 414.902 557.16 422.286C551.928 427.837 547.1 433.725 542.444 439.469C539.167 443.33 535.948 447.287 532.672 451.051C527.21 457.374 518.531 461.718 510.138 466.013C505.655 468.331 500.883 470.695 496.917 473.398C485.823 480.637 477.372 490.87 469.21 500.812C454.263 519.007 440.123 536.189 410.805 537.443C393.331 538.119 371.659 534.837 351.31 528.37C332.053 522.192 311.186 510.56 293.999 496.372C282.329 486.719 276.869 476.921 277.846 467.268C279.57 450.086 301.184 435.414 319.867 424.507C330.846 418.088 341.423 415.53 352.632 412.923C359.185 411.379 365.796 409.739 372.924 407.325C379.994 404.863 386.951 401.871 393.676 399.12C404.31 394.584 415.232 389.999 426.959 387.15C446.561 382.324 474.958 381.359 491.341 388.84C507.207 396.079 534.109 392.653 548.192 385.027C560.954 378.077 569.116 360.75 575.669 346.803C577.165 343.617 578.602 340.721 579.865 338.067C580.556 336.86 581.187 335.557 581.878 334.399C584.235 329.862 586.362 326.049 587.396 321.657C592.685 300.035 580.326 285.073 549.686 276.096C517.496 266.588 488.179 273.152 467.14 294.581C460.76 301.048 455.874 308.529 451.159 315.72C449.033 318.954 446.791 322.381 444.491 325.614C443.859 326.483 443.342 327.304 442.652 328.173C435.983 337.585 427.648 349.263 417.992 355.731C403.505 365.383 387.869 373.299 371.372 379.284C362.921 382.324 354.357 384.738 345.16 387.248C338.607 389.082 331.88 390.964 325.04 393.135C309.404 398.059 295.551 405.588 286.698 410.993C270.201 421.176 248.012 439.517 239.906 457.712C227.203 486.574 261.118 525.426 286.928 544.49C301.414 555.205 319.464 562.155 335.214 567.56C339.469 569.008 343.837 570.408 348.034 571.903C371.602 579.771 393.906 587.251 414.485 599.703C421.096 603.71 428.166 606.991 435.007 610.225C439.893 612.493 445.066 614.858 449.952 617.513C462.427 624.221 469.784 634.405 475.992 644.444C478.866 649.029 481.512 653.855 484.098 658.488C491.513 671.857 499.273 685.661 511.92 696.955C520.025 704.098 528.532 706.945 537.328 705.4C551.928 702.94 562.908 689.329 568.139 677.409C579.177 652.697 575.152 624.028 571.588 598.786L571.186 595.553C570.898 593.525 570.668 591.547 570.381 589.568C569.059 578.42 567.794 567.898 560.609 557.328C559.459 555.639 558.31 553.997 557.218 552.309C546.353 536.334 536.926 522.53 532.096 504.19C529.051 492.704 529.337 475.618 537.098 465.193C540.949 459.98 546.755 457.761 552.963 455.443C556.758 453.996 560.666 452.5 564.173 450.328C577.797 441.592 588.546 429.72 599.009 418.281C609.125 407.084 619.702 395.404 632.981 386.668C640.914 381.407 650.743 377.063 660.171 372.769C669.655 368.521 679.428 364.081 686.958 359.061C702.249 348.637 707.538 334.495 701.847 319.003C696.845 305.633 683.279 290.769 670.23 276.434C668.218 274.214 666.206 272.09 664.309 269.967C657.584 262.486 650.514 255.15 643.673 248.103C624.875 228.653 607.056 210.313 597.053 189.608C593.144 181.403 590.27 172.04 587.971 162.001H587.166C589.523 172.136 592.34 181.596 596.421 189.849C606.366 210.602 624.3 229.039 643.098 248.538C649.938 255.584 656.952 262.824 663.677 270.353C665.632 272.476 667.586 274.648 669.598 276.724C682.647 291.058 696.155 305.874 701.1 319.195C706.733 334.399 701.558 348.346 686.441 358.531C679.026 363.501 669.713 367.749 659.883 372.189C650.342 376.485 640.454 380.973 632.579 386.185C619.185 395.066 608.608 406.649 598.375 417.895C587.971 429.333 577.28 441.109 563.655 449.797C560.322 451.92 556.413 453.417 552.677 454.865C546.41 457.277 540.49 459.546 536.466 464.807C528.532 475.424 528.245 492.752 531.35 504.334C536.293 522.771 545.663 536.623 556.584 552.647C557.676 554.288 558.77 556.025 560.034 557.666C567.047 568.091 568.254 578.516 569.634 589.665C569.921 591.595 570.208 593.623 570.381 595.65L570.898 598.835C574.405 624.076 578.372 652.601 567.449 677.215C560.896 691.984 548.997 702.843 537.156 704.822C528.647 706.269 520.312 703.47 512.495 696.472C499.963 685.323 492.203 671.52 484.729 658.247C482.2 653.566 479.5 648.74 476.682 644.107C470.474 634.067 462.944 623.739 450.297 616.933C445.411 614.375 440.353 611.963 435.408 609.646C428.568 606.461 421.498 603.13 414.945 599.173C394.308 586.624 371.947 579.191 348.321 571.277C344.067 569.877 339.814 568.429 335.444 566.933C319.809 561.527 301.874 554.625 287.445 544.055C261.75 525.089 228.007 486.526 240.653 457.953C248.644 439.855 270.776 421.611 287.215 411.523C296.011 406.071 309.749 398.589 325.327 393.667C332.11 391.494 338.894 389.612 345.39 387.826C354.587 385.316 363.21 382.952 371.602 379.863C388.215 373.878 403.908 365.915 418.451 356.262C428.223 349.698 436.559 337.97 443.342 328.558C443.859 327.641 444.491 326.822 445.181 325.905C447.48 322.719 449.665 319.244 451.849 316.011C456.505 308.819 461.335 301.434 467.657 294.967C488.524 273.828 517.553 267.312 549.457 276.675C579.75 285.556 591.88 300.276 586.707 321.561C585.614 325.807 583.603 329.669 581.187 334.158C580.556 335.316 579.865 336.618 579.175 337.826C577.853 340.432 576.531 343.424 575.037 346.561C568.426 360.461 560.379 377.691 547.79 384.497C533.879 391.977 507.437 395.404 491.743 388.309C475.245 380.828 446.503 381.746 426.729 386.572C415.003 389.371 404.023 394.052 393.331 398.493C386.606 401.34 379.649 404.236 372.579 406.697C365.566 409.159 358.899 410.752 352.402 412.296C341.136 414.95 330.558 417.46 319.407 423.976C300.667 434.979 278.823 449.797 277.099 467.22C276.064 477.066 281.582 487.008 293.424 496.806C310.726 511.092 331.708 522.772 351.023 528.949C371.487 535.465 393.331 538.747 410.864 538.071C440.525 536.817 455.355 518.717 469.784 501.198C477.947 491.304 486.397 481.072 497.376 473.832C501.285 471.226 505.77 468.957 510.541 466.545C518.933 462.249 527.614 457.809 533.247 451.486C536.581 447.625 539.857 443.619 543.019 439.806C547.732 434.16 552.618 428.271 557.735 422.721C564.69 415.289 570.668 407.036 576.416 399.072C584.522 387.971 592.8 376.581 603.837 367.121C605.159 365.867 606.424 364.805 607.861 363.598C629.82 344.678 652.582 325.036 643.443 298.925C637.005 280.343 620.564 266.106 603.205 251.047C586.706 236.81 569.576 222.041 559.632 202.156C553.309 189.415 549.629 175.563 546.353 162.001H545.548C548.824 175.66 552.562 189.559 559 202.398C568.944 222.379 586.074 237.147 602.63 251.53Z" fill="#385D7D" fill-opacity="0.22"/>
<path fill-rule="evenodd" clip-rule="evenodd" d="M378.954 228.296C381.544 238.517 387.701 248.98 394.203 260.021C404.963 278.391 416.125 297.34 409.623 314.793C397.943 346.181 358.125 358.235 323.026 368.89C315.834 371.108 309.102 373.133 302.6 375.35C288.156 380.172 274.693 386.295 262.839 393.479C244.312 404.617 232.861 418.311 220.778 432.823C218.994 435.041 217.096 437.21 215.254 439.477C204.437 452.253 193.733 467.826 196.842 485.811C197.82 491.452 201.387 497.334 204.897 502.975C207.14 506.543 209.154 509.967 210.594 513.245C211.686 515.705 212.779 518.211 213.931 520.718C222.159 540.004 230.848 559.917 249.432 573.611C254.784 577.515 261.746 580.891 268.362 584.169C271.931 585.856 275.153 587.448 278.318 589.087C290.746 595.933 304.44 601.767 319.056 606.637C334.936 611.796 351.968 614.882 368.482 617.775C386.319 621.005 404.79 624.284 421.534 630.262C438.739 636.434 451.11 652.73 461.927 667.146C464.919 671.052 467.739 674.765 470.559 678.043C478.671 687.831 488.511 696.365 498.063 704.513C504.335 709.866 510.836 715.458 516.762 721.341C530.457 734.937 553.876 741.012 577.87 737.299C619.873 730.694 626.837 717 632.705 687.349C637.136 664.736 636.1 638.411 629.54 606.974C625.743 588.846 611.761 571.586 598.354 554.951C593.406 548.876 588.744 543.186 584.774 537.594C567.915 514.258 571.483 486.486 594.154 463.487C597.031 460.498 599.908 457.557 602.669 454.567C619.413 437.066 635.179 420.48 660.324 411.705C671.257 407.799 682.937 405.244 694.272 402.736C705.378 400.326 716.828 397.868 727.703 394.058C743.987 388.417 761.998 377.375 774.771 365.177C785.818 354.667 797.729 338.755 792.148 322.652C786.912 307.657 766.601 298.882 745.139 289.528C731.502 283.55 717.461 277.378 705.781 269.23C690.532 258.623 676.78 244.448 667.747 234.708L666.768 233.696C647.436 212.819 629.137 193.147 622.923 167.015C622.463 165.375 622.175 163.688 621.888 162H621.082C621.427 163.736 621.773 165.424 622.175 167.207C628.39 193.436 646.744 213.204 666.136 234.033L667.115 235.142C676.148 244.882 690.015 259.057 705.263 269.712C717.001 277.909 731.155 284.032 744.792 290.058C766.14 299.365 786.279 308.139 791.4 322.845C796.982 338.611 785.185 354.329 774.253 364.744C761.709 376.701 743.354 388.031 727.415 393.479C716.598 397.24 705.148 399.747 694.157 402.11C682.765 404.617 671.027 407.173 660.036 411.078C634.719 419.997 618.148 437.404 602.094 454.278C599.333 457.123 596.454 460.161 593.578 463.054C570.677 486.39 567.167 514.354 584.084 537.931C588.169 543.572 592.772 549.261 597.664 555.24C611.128 571.923 624.995 589.087 628.792 607.071C635.409 638.459 636.445 664.688 631.9 687.252C626.145 716.567 619.241 730.115 577.697 736.673C553.991 740.386 530.86 734.311 517.338 720.954C511.353 715.073 504.851 709.431 498.58 704.031C489.086 695.883 479.189 687.445 471.134 677.706C468.372 674.428 465.552 670.667 462.56 666.809C451.685 652.345 439.314 635.952 421.879 629.684C405.02 623.657 386.493 620.378 368.655 617.148C352.141 614.207 335.166 611.217 319.401 606.01C304.843 601.189 291.148 595.355 278.721 588.605C275.613 586.87 272.276 585.278 268.766 583.59C262.149 580.36 255.302 576.985 249.95 573.08C231.48 559.484 222.906 539.667 214.621 520.525C213.471 518.019 212.377 515.511 211.341 512.956C209.845 509.63 207.601 506.158 205.53 502.735C202.077 497.093 198.51 491.259 197.589 485.715C194.54 467.924 205.127 452.542 215.887 439.814C217.786 437.548 219.512 435.427 221.353 433.208C233.494 418.696 244.83 405.052 263.242 394.01C275.096 386.826 288.501 380.799 302.945 375.929C309.332 373.76 316.121 371.735 323.314 369.517C358.585 358.813 398.576 346.711 410.372 314.938C416.93 297.291 405.71 278.15 394.836 259.732C388.334 248.69 382.292 238.276 379.702 228.199C376.021 213.879 374.582 187.458 375.329 162H374.524C373.891 187.506 375.329 213.976 378.954 228.296Z" fill="#385D7D" fill-opacity="0.22"/>
<path fill-rule="evenodd" clip-rule="evenodd" d="M-222.557 241.764C-208.334 258.921 -188.121 269.235 -162.667 272.367C-152.705 273.572 -141.82 272.656 -131.34 271.693C-120.34 270.68 -108.938 269.668 -98.2268 271.114C-85.9023 272.753 -74.9039 278.295 -70.0082 285.283C-66.4954 290.247 -66.0935 295.693 -68.6848 301.428C-94.4258 319.983 -111.53 335.116 -122.701 357.959C-125.811 364.513 -128.575 371.116 -131.627 379.309C-133.125 383.358 -134.738 387.357 -136.234 391.309C-145.966 416.081 -155.986 441.768 -151.84 483.552C-149.882 503.6 -145.448 518.686 -129.554 531.891C-119.015 540.566 -106.347 547.168 -94.1376 553.433C-85.3272 558.011 -76.1704 562.734 -67.9933 568.132C-63.8472 570.927 -59.758 574.156 -55.7852 577.337C-49.853 582.012 -43.8071 586.88 -37.0116 590.446C-23.0173 597.868 0.305679 598.205 16.0266 595.41C36.5282 591.747 54.1489 580.759 70.4463 569.771C74.4773 567.071 78.9116 564.469 83.5773 561.674C96.1887 554.301 109.203 546.685 115.941 536.084C123.254 524.469 123.313 510.926 122.218 498.01C121.873 493.576 120.375 489.046 119.05 484.613C116.977 478.155 114.731 471.504 116.171 465.046C121.066 442.105 140.127 416.129 156.367 399.503C165.121 390.49 175.026 382.297 185.851 375.212C194.26 369.622 202.782 364.321 211.882 358.634C227.373 348.947 243.439 338.922 259.276 327.501C274.075 316.946 288.011 303.115 279.086 281.476C273.96 269.186 265.207 258.632 256.57 248.801C243.785 234.246 225.818 221.041 208.369 208.318C192.417 196.655 177.329 185.619 168.115 174.727C165.581 171.787 163.22 168.269 161.665 162.63H160.917C162.471 168.413 164.948 172.124 167.481 175.112C176.811 186.1 191.84 197.089 207.966 208.8C225.241 221.475 243.267 234.632 255.993 249.138C264.919 259.259 273.327 269.476 278.336 281.669C287.205 303.018 273.384 316.609 258.815 327.068C242.979 338.393 226.911 348.465 211.42 358.104C202.322 363.791 193.741 369.189 185.391 374.731C174.565 381.815 164.603 390.008 155.734 399.164C139.494 415.84 120.318 441.913 115.422 464.95C114.041 471.552 116.171 478.251 118.302 484.805C119.627 489.191 121.123 493.673 121.47 498.058C122.506 510.878 122.506 524.324 115.249 535.842C108.627 546.252 95.6704 553.867 83.2309 561.192C78.5084 563.94 74.0172 566.542 69.928 569.288C53.8039 580.181 36.24 591.217 15.8534 594.783C0.247467 597.531 -22.7872 597.193 -36.6083 589.916C-43.3456 586.397 -49.3929 581.578 -55.3237 576.856C-59.2398 573.723 -63.329 570.398 -67.5319 567.698C-75.7672 562.156 -84.8658 557.482 -93.7343 552.951C-106.001 546.589 -118.555 540.083 -128.978 531.408C-144.699 518.348 -149.192 503.408 -151.15 483.504C-155.181 441.816 -145.218 416.177 -135.486 391.454C-133.988 387.551 -132.433 383.502 -130.878 379.502C-127.827 371.309 -125.119 364.706 -121.953 358.248C-110.953 335.453 -93.8493 320.32 -68.1083 301.91L-68.0501 301.862L-67.9933 301.765C-65.3438 295.741 -65.8053 290.102 -69.3181 284.946C-74.3274 277.813 -85.6154 272.126 -98.1117 270.488C-108.88 269.042 -120.34 270.102 -131.397 271.066C-141.878 271.982 -152.705 272.897 -162.552 271.741C-187.832 268.656 -207.816 258.439 -221.924 241.427C-238.106 222.005 -245.593 194.824 -244.153 162.63H-244.958C-246.341 194.968 -238.798 222.246 -222.557 241.764Z" fill="#385D7D" fill-opacity="0.22"/>
<path fill-rule="evenodd" clip-rule="evenodd" d="M793.971 232.111C809.008 234.47 824.507 235.529 839.545 236.637C852.681 237.552 865.358 238.467 877.226 240.152V239.526C865.3 237.841 852.566 236.926 839.603 236.011C824.564 234.903 809.065 233.796 794.086 231.436C741.885 223.299 710.657 201.485 703.858 168.308C703.398 166.141 703.109 164.071 702.878 162H702.13C702.303 164.119 702.59 166.189 703.11 168.452C709.966 201.871 741.367 223.876 793.971 232.111Z" fill="#385D7D" fill-opacity="0.22"/>
<path fill-rule="evenodd" clip-rule="evenodd" d="M835.635 416.554C820.197 420.215 804.298 426.136 788.975 431.866L786.335 432.877C776.176 436.584 765.329 439.617 753.85 442.844C730.377 449.391 706.1 456.131 688.596 469.565C673.156 481.457 664.261 500.861 664.261 522.865C664.261 535.189 667.073 547.034 672.468 557.097C678.838 568.989 686.356 578.619 695.597 586.563C703.23 593.207 707.248 602.884 711.208 612.225C713.733 618.485 716.488 624.936 720.219 630.57C731.755 647.613 747.881 658.302 766.993 661.528C784.728 664.513 807.685 664.224 829.781 663.888C843.269 663.742 857.215 663.502 870.128 664.032C872.367 664.128 874.834 664.273 877.245 664.417V663.79C874.834 663.646 872.424 663.502 870.128 663.406C857.273 662.876 843.269 663.069 829.781 663.261C807.685 663.598 784.786 663.888 767.108 660.902C748.283 657.725 732.271 647.132 720.85 630.232C717.177 624.696 714.479 618.244 711.897 612.033C707.936 602.644 703.919 592.918 696.114 586.13C686.988 578.233 679.47 568.651 673.156 556.808C667.819 546.793 665.006 535.093 665.006 522.865C665.006 501.053 673.845 481.794 689.17 469.999C706.559 456.71 730.721 449.92 754.137 443.469C765.559 440.196 776.521 437.21 786.622 433.454L789.262 432.395C804.643 426.714 820.427 420.84 835.865 417.181C844.532 415.11 854.116 413.329 863.414 411.547C868.177 410.681 872.768 409.814 877.245 408.947V408.274C872.768 409.189 868.062 410.055 863.242 410.97C853.944 412.655 844.302 414.437 835.635 416.554Z" fill="#385D7D" fill-opacity="0.22"/>
<path fill-rule="evenodd" clip-rule="evenodd" d="M849.071 445.131C836.863 446.625 823.044 448.361 810.952 452.506C805.999 454.145 801.911 456.7 797.88 459.207C794.886 461.135 791.776 463.015 788.264 464.557C783.312 466.824 777.783 468.607 771.852 470.487C755.153 475.982 737.879 481.575 732.985 497.001C731.833 500.664 731.315 505.485 731.315 511.703C731.315 518.259 731.948 525.153 732.581 531.322C732.696 533.781 732.926 536.047 733.158 538.168C734.654 558.173 743.753 579.529 757.63 595.436C774.271 614.622 802.313 620.118 822.122 622.624C836.288 624.505 857.305 626.192 875.041 620.455C875.789 620.166 876.538 619.926 877.229 619.684V618.961C876.423 619.25 875.616 619.587 874.753 619.876C857.247 625.565 836.288 623.829 822.18 622.047C802.602 619.539 774.674 614.044 758.206 595.051C744.443 579.24 735.346 557.932 733.848 538.12C733.733 535.999 733.503 533.733 733.273 531.274C732.696 525.105 732.006 518.211 732.006 511.703C732.006 505.581 732.639 500.808 733.791 497.145C738.57 482.008 755.672 476.465 772.083 471.114C778.13 469.186 783.599 467.354 788.61 465.136C792.121 463.593 795.231 461.618 798.284 459.737C802.313 457.278 806.402 454.724 811.182 453.084C823.217 448.987 836.978 447.252 849.186 445.757C857.824 444.648 867.497 444.215 877.229 444.263V443.684C867.439 443.588 857.765 444.071 849.071 445.131Z" fill="#385D7D" fill-opacity="0.22"/>
<path fill-rule="evenodd" clip-rule="evenodd" d="M758.744 163.077V163.125C761.977 192.809 800.821 209.427 877.237 213.846V213.174C801.282 208.803 762.727 192.424 759.495 163.125C759.552 162.933 759.61 162.693 759.61 162.501H758.859C758.802 162.645 758.744 162.885 758.744 163.077Z" fill="#385D7D" fill-opacity="0.22"/>
<path fill-rule="evenodd" clip-rule="evenodd" d="M853.886 170.537C860.313 173.756 867.775 176.974 876.27 177.55V176.974C868.061 176.301 860.658 173.179 854.403 170.009C852.508 167.415 851.418 164.87 851.131 162.516H850.442C850.672 165.014 851.763 167.608 853.771 170.441L853.886 170.537Z" fill="#385D7D" fill-opacity="0.22"/>
<path fill-rule="evenodd" clip-rule="evenodd" d="M775.837 1172.67C756.79 1167.76 745.281 1159.47 728.017 1146.37C725.254 1144.35 722.55 1142.09 719.557 1139.68C708.049 1130.38 694.985 1119.79 681.347 1117.48C654.185 1112.76 638.187 1126.82 626.275 1141.27C620.405 1148.4 615.743 1156.39 611.255 1164.15C605.385 1174.16 599.343 1184.56 590.481 1193.14C581.043 1202.24 567.635 1210.09 550.486 1216.54C542.89 1219.48 534.661 1220.73 526.72 1222.03C518.951 1223.29 510.951 1224.54 503.586 1227.28C469.864 1239.9 431.767 1256.32 405.067 1283.24C393.442 1294.95 375.142 1309.73 353.332 1313.63C339.004 1316.14 326.458 1312.62 316.445 1309.78L314.604 1309.3C291.93 1302.89 237.722 1283.82 224.083 1243.85C221.608 1236.67 219.825 1227.86 217.868 1218.61C215.508 1206.96 212.976 1194.87 209.063 1186.11C203.021 1172.38 194.62 1162.6 185.124 1152.2L183.801 1150.71C174.708 1140.79 163.371 1128.41 164.868 1112.28C166.249 1098.31 174.938 1082.32 188.865 1068.55C202.906 1054.58 219.94 1045.24 235.593 1042.88C245.72 1041.34 253.892 1040.66 261.718 1039.99C268.567 1039.36 274.955 1038.93 282.032 1037.82C317.423 1032.67 345.679 1018.46 365.877 995.539C382.279 976.949 393.787 952.147 400.06 921.759C408.232 882.364 392.867 848.846 385.904 836.372C374.739 816.434 347.98 795.051 323.754 776.606C299.642 758.305 285.37 748.577 247.102 746.41C234.787 745.736 222.932 746.554 211.308 747.373C206.82 747.662 202.216 748.048 197.611 748.24C194.275 748.384 190.879 748.625 187.253 748.914C175.629 749.829 163.601 750.648 151.229 748.914C125.736 745.206 114.458 732.877 116.989 711.109C120.097 682.743 142.598 657.941 174.248 647.924C199.396 639.978 225.695 646.382 246.987 651.488L250.44 652.306C285.543 660.734 312.935 672.196 334.169 687.319C346.139 695.939 357.419 705.378 368.352 714.577C372.322 718.043 376.524 721.511 380.667 724.882C386.422 729.698 391.774 734.996 396.895 740.197C403.282 746.602 410.072 753.297 417.727 758.98C428.602 767.022 440.918 772.994 451.449 777.858C486.091 793.606 516.649 804.586 544.616 811.425C569.937 817.589 590.02 834.589 598.423 856.936C609.183 885.784 607.918 927.056 594.74 979.646C588.18 1005.41 570.57 1020.82 542.141 1025.2C509.801 1030.26 493.688 1048.61 476.654 1067.92C472.281 1072.93 467.734 1078.04 462.958 1083.04C442.817 1103.56 423.769 1093.35 403.571 1082.51C394.536 1077.65 385.271 1072.69 375.775 1070.57C360.929 1067.15 345.275 1071.53 330.084 1075.77C322.142 1077.99 314.719 1080.06 307.353 1081.12C272.365 1086.08 244.742 1091.09 233.348 1105.97C227.306 1113.96 226.443 1124.22 230.873 1137.42C231.507 1139.54 232.37 1141.85 233.233 1144.35C235.075 1149.46 237.088 1155.24 238.297 1159.95C240.541 1168.19 241.865 1176.76 243.131 1185.82C244.627 1195.5 246.066 1205.42 248.828 1216.35C252.913 1232.97 262.467 1247.61 276.393 1258.59C290.088 1269.42 307.353 1276.26 326.4 1278.52C334.515 1279.49 341.477 1279.78 349.074 1277.9C371.229 1272.41 386.824 1255.6 400.577 1240.77C403.742 1237.35 406.736 1234.07 409.842 1230.99L410.304 1230.46C424.517 1216.11 442.126 1198.24 466.354 1198.92C491.329 1199.64 509.398 1196.94 526.95 1190.01C554.456 1179.12 571.203 1163.71 584.611 1136.93C585.532 1134.91 586.568 1132.94 587.546 1130.91C592.092 1121.67 596.753 1112.23 602.681 1103.42C607.515 1096.19 613.615 1091.38 620.002 1086.27C623.57 1083.43 627.195 1080.54 630.707 1077.22C634.85 1073.22 640.373 1069.37 646.243 1065.37C661.205 1055.26 678.124 1043.79 674.039 1026.07C671.967 1017.02 664.485 1008.06 656.66 998.572C649.753 990.289 642.618 981.717 638.015 972.085C630.418 955.759 628.577 932.787 626.62 908.418C625.47 893.633 624.203 878.318 621.613 864.352C615.628 832.567 602.278 811.04 580.871 798.614C574.598 794.906 567.463 792.45 560.556 790.187C555.148 788.405 549.623 786.527 544.56 784.119C540.703 782.336 537.711 779.495 534.776 776.75C533.165 775.258 531.438 773.668 529.596 772.32C526.201 769.767 522.691 767.311 519.181 764.903C515.383 762.303 511.354 759.557 507.614 756.62C501.688 752.141 496.335 746.988 490.983 742.076C486.034 737.5 480.913 732.733 475.388 728.398C470.899 724.834 466.008 721.993 461.289 719.199C455.879 716.07 450.471 712.891 445.464 708.557C436.832 701.332 427.452 693.771 417.036 687.703C408.059 682.503 399.312 680.191 390.104 677.639C387.227 676.916 384.292 676.097 381.3 675.183C374.567 673.256 368.237 669.74 362.079 666.321C358.397 664.298 354.714 662.276 350.974 660.59C336.874 654.137 322.775 648.646 309.079 644.167C305.167 642.963 301.253 641.855 297.455 640.651C295.787 640.17 294.232 639.689 292.622 639.207C285.312 636.991 277.888 634.631 270.695 632.32C249.806 625.771 228.285 618.883 208.661 615.368C196.116 613.104 182.708 611.13 169.529 613.538C124.183 621.724 76.8792 658.47 68.2474 692.183C64.3341 707.786 64.5641 727.435 69.0539 747.517C76.5341 780.844 95.7542 793.173 137.706 791.487C147.489 791.102 157.388 790.331 166.939 789.657C187.599 788.067 207.165 786.527 226.04 788.405C236.916 789.416 246.641 792.45 252.913 794.618C267.013 799.53 291.125 810.702 317.25 824.669C342.974 838.443 361.677 856.887 368.697 875.429C381.99 910.585 368.812 957.637 337.91 985.04C322.43 998.765 295.958 1013.36 258.093 1005.22C255.792 1004.74 253.49 1003.92 251.015 1003.05C248.08 1001.9 244.973 1000.84 241.635 1000.21C232.83 995.972 225.003 990.675 217.35 985.473C200.086 973.818 183.858 962.838 160.609 967.029C156.293 967.798 151.748 969.388 146.856 971.074C136.843 974.541 126.599 978.057 120.443 973.916C109.681 966.691 98.4593 956.818 86.5475 946.319C66.0039 928.212 44.6539 909.429 24.6272 904.132C4.60194 898.738 -15.3679 909.767 -23.8264 914.487C-32.9765 919.543 -42.4147 925.371 -52.5416 931.487C-60.2533 936.255 -68.31 941.167 -76.3084 945.838C-82.9849 949.691 -89.3717 953.447 -95.76 957.155C-110.434 965.728 -124.302 973.818 -139.092 982.15C-145.019 985.425 -151.349 988.748 -157.449 991.975C-167.692 997.369 -178.166 1002.95 -187.086 1008.54C-206.651 1020.77 -214.707 1034.55 -211.025 1049.62C-207.399 1064.6 -193.589 1080.83 -180.986 1094.89C-179.317 1096.82 -177.59 1098.7 -175.864 1100.58C-152.327 1126.82 -125.684 1156.63 -96.0468 1164.48C-70.8417 1171.13 -59.1031 1158.85 -46.673 1145.84C-45.3483 1144.45 -43.9681 1143.05 -42.5865 1141.65C-34.0698 1133.03 -25.2648 1126.39 -17.8414 1121.09C-7.65628 1113.82 4.54376 1107.41 16.3405 1101.2C24.6272 1096.82 32.627 1092.68 39.0721 1088.53C61.3991 1074.28 71.2406 1055.79 80.8506 1037.97C90.1725 1020.44 99.7258 1002.38 121.133 988.7C121.938 988.7 122.629 988.652 123.434 988.652C125.679 988.604 127.923 988.508 129.994 989.037C151.056 1005.27 156.236 1025.45 146.223 1050.73C143.116 1058.43 138.224 1066.04 132.929 1074.13C121.248 1092.19 109.221 1110.88 117.047 1132.36C122.571 1147.82 135.634 1158.56 148.238 1168.96C160.724 1179.22 173.558 1189.77 180.003 1205.13C183.628 1214.09 184.721 1223.38 185.93 1236.38C188.923 1269.23 193.411 1285.07 213.84 1298.56C240.887 1316.33 288.593 1338.24 308.332 1344.99C316.215 1347.63 322.085 1349.26 326.4 1350.04C360.814 1355.77 387.687 1338.09 407.369 1322.11C412.029 1318.21 416.404 1313.97 420.547 1309.88C424.344 1306.17 428.201 1302.36 432.286 1298.85C440.861 1291.72 450.989 1285.99 460.829 1280.45C465.836 1277.61 470.957 1274.77 475.849 1271.73C510.951 1249.68 541.625 1243.03 575.231 1250.11C599.343 1255.31 629.843 1267.06 638.13 1294.08C641.18 1304.05 642.733 1314.74 644.23 1326.05C645.725 1336.5 647.222 1347.43 650.099 1358.08C652.632 1367.38 655.912 1376.19 659.192 1384.66C663.565 1396.57 667.823 1407.83 669.55 1419.44C672.83 1439.81 667.708 1457.87 662.932 1475.35C658.615 1490.76 654.588 1505.45 656.89 1519.9H657.638C655.278 1505.5 659.364 1490.91 663.622 1475.5C668.514 1457.97 673.52 1439.86 670.298 1419.34C668.514 1407.64 664.313 1396.42 659.825 1384.47C656.66 1376.04 653.379 1367.18 650.847 1357.89C647.97 1347.25 646.473 1336.46 645.035 1326.01C643.423 1314.64 641.985 1303.95 638.877 1293.98C632.202 1272.31 610.277 1256.95 575.461 1249.58C541.566 1242.36 510.779 1249.05 475.331 1271.2C470.497 1274.19 465.376 1277.08 460.484 1279.92C450.586 1285.51 440.342 1291.24 431.826 1298.46C427.624 1301.98 423.769 1305.78 420.029 1309.44C415.827 1313.54 411.512 1317.77 406.792 1321.63C387.342 1337.52 360.64 1355.1 326.515 1349.37C322.257 1348.65 316.445 1347.01 308.619 1344.36C288.938 1337.72 241.29 1315.84 214.358 1298.08C194.159 1284.78 189.555 1268.94 186.621 1236.34C185.411 1223.29 184.376 1213.99 180.578 1204.89C174.248 1189.43 161.243 1178.79 148.813 1168.48C135.634 1157.69 123.204 1147.53 117.738 1132.22C110.084 1110.93 122.054 1092.34 133.621 1074.42C138.858 1066.29 143.864 1058.68 146.913 1050.97C157.099 1025.35 151.748 1004.98 130.513 988.46L130.341 988.411C128.038 987.881 125.679 987.929 123.434 988.074H121.018H120.903L120.788 988.171C99.2075 1001.9 89.4825 1020.1 80.1024 1037.68C70.6642 1055.45 60.7672 1073.89 38.6107 1088C32.1656 1092.1 24.224 1096.29 15.8805 1100.67C4.08369 1106.88 -8.05951 1113.34 -18.3597 1120.61C-25.7831 1125.91 -34.5881 1132.55 -43.1616 1141.27C-44.6014 1142.67 -45.8666 1144.06 -47.2481 1145.46C-59.5632 1158.27 -71.1867 1170.41 -95.8168 1163.86C-125.223 1156.05 -151.752 1126.39 -175.231 1100.24C-176.957 1098.31 -178.684 1096.38 -180.41 1094.51C-193.012 1080.54 -206.709 1064.36 -210.334 1049.52C-213.902 1034.74 -206.019 1021.11 -186.682 1009.02C-177.764 1003.39 -167.232 997.899 -157.047 992.505C-150.947 989.279 -144.674 986.003 -138.747 982.68C-123.9 974.397 -110.032 966.258 -95.2986 957.686C-88.9685 953.977 -82.4666 950.221 -75.8483 946.319C-67.8498 941.696 -59.7932 936.832 -52.0816 932.016C-42.0114 925.852 -32.5164 920.024 -23.4232 914.968C-14.9646 910.345 4.71693 899.413 24.3972 904.71C44.3088 910.008 65.4274 928.742 86.0292 946.802C97.9409 957.251 109.163 967.173 119.982 974.445C126.484 978.78 136.958 975.168 147.144 971.604C151.978 969.966 156.581 968.377 160.724 967.654C183.628 963.465 199.741 974.445 216.833 986.003C224.543 991.156 232.485 996.551 241.29 1000.79L241.462 1000.84C244.742 1001.41 247.792 1002.52 250.727 1003.63C253.26 1004.5 255.561 1005.36 257.863 1005.84C287.787 1012.25 316.387 1005.03 338.429 985.377C369.502 957.926 382.739 910.585 369.445 875.189C362.252 856.599 343.434 837.961 317.712 824.236C291.47 810.221 267.358 798.903 253.202 794.087C246.872 791.873 237.088 788.838 226.155 787.779C207.165 785.949 187.599 787.442 166.883 788.983C157.329 789.754 147.431 790.475 137.706 790.861C116.471 791.727 101.567 788.983 91.0359 782.337C80.3893 775.498 73.5992 764.421 69.8008 747.421C65.3124 727.387 65.0256 707.834 69.0539 692.327C77.5706 658.808 124.643 622.303 169.701 614.164C182.708 611.804 196.001 613.779 208.488 615.946C228.111 619.51 249.576 626.348 270.35 632.946C277.602 635.21 285.025 637.57 292.333 639.785C293.945 640.266 295.555 640.747 297.225 641.278C301.023 642.337 304.935 643.59 308.849 644.794C322.487 649.224 336.529 654.666 350.57 661.12C354.31 662.805 357.994 664.876 361.677 666.85C367.834 670.221 374.222 673.833 381.07 675.808C384.062 676.675 387.054 677.493 389.874 678.264C399.024 680.72 407.771 683.08 416.576 688.137C426.992 694.254 436.372 701.814 444.889 709.038C449.896 713.325 455.477 716.551 460.771 719.73C465.548 722.426 470.381 725.316 474.928 728.832C480.338 733.118 485.516 737.934 490.408 742.509C495.759 747.469 501.226 752.527 507.154 757.149C510.894 759.991 514.865 762.784 518.721 765.433C522.173 767.792 525.684 770.248 529.079 772.754C530.863 774.15 532.589 775.691 534.258 777.184C537.251 779.976 540.243 782.722 544.271 784.6C549.335 787.153 554.86 788.983 560.211 790.765C567.117 793.077 574.253 795.485 580.468 799.097C601.76 811.425 614.88 832.76 620.865 864.449C623.513 878.366 624.721 893.633 625.93 908.467C627.887 932.883 629.67 955.903 637.382 972.326C641.927 982.006 649.063 990.675 655.969 998.958C663.852 1008.35 671.277 1017.21 673.29 1026.17C677.26 1043.5 660.572 1054.87 645.783 1064.94C639.913 1068.98 634.273 1072.74 630.13 1076.78C626.62 1080.11 623.052 1083.04 619.427 1085.79C612.982 1090.99 606.882 1095.76 601.99 1103.08C596.063 1111.94 591.345 1121.52 586.855 1130.67C585.877 1132.7 584.9 1134.67 583.921 1136.69C570.628 1163.33 554.055 1178.64 526.663 1189.43C509.226 1196.32 491.213 1198.96 466.354 1198.24C441.839 1197.62 424.057 1215.63 409.727 1230.07L409.267 1230.61C406.16 1233.69 403.11 1236.91 400.002 1240.33C385.616 1255.84 370.712 1271.88 348.844 1277.32C341.42 1279.1 334.515 1278.86 326.515 1277.9C287.442 1273.37 257.863 1249.72 249.518 1216.21C246.815 1205.32 245.375 1195.35 243.936 1185.77C242.555 1176.72 241.232 1168.09 239.045 1159.81C237.78 1155.09 235.765 1149.31 233.981 1144.16C233.06 1141.7 232.255 1139.39 231.565 1137.22C227.248 1124.22 228.053 1114.11 234.038 1106.26C245.088 1091.57 272.71 1086.66 307.468 1081.7C314.892 1080.68 322.43 1078.57 330.372 1076.35C345.449 1072.16 360.986 1067.78 375.545 1071.1C384.982 1073.27 394.19 1078.23 403.167 1083.04C423.654 1093.98 442.989 1104.38 463.419 1083.38C468.309 1078.42 472.856 1073.32 477.229 1068.31C494.148 1049.04 510.204 1030.84 542.315 1025.83C570.973 1021.3 588.87 1005.84 595.373 979.742C608.723 927.104 609.932 885.687 599.17 856.791C590.653 834.204 570.455 817.012 544.905 810.848C516.879 804.057 486.494 793.077 451.794 777.28C441.321 772.464 429.121 766.444 418.244 758.497C410.591 752.912 403.916 746.217 397.471 739.716C392.291 734.562 386.997 729.265 381.242 724.449C377.042 721.078 372.84 717.562 368.87 714.143C357.935 704.944 346.599 695.408 334.63 686.836C313.337 671.667 285.83 660.156 250.612 651.777L247.102 650.91C225.867 645.757 199.396 639.399 173.96 647.394C142.138 657.46 119.464 682.405 116.184 711.061C113.709 733.166 125.103 745.832 151.173 749.492C163.544 751.322 175.629 750.407 187.311 749.54C190.936 749.3 194.331 749.059 197.67 748.866C202.331 748.577 206.876 748.288 211.365 747.999C222.933 747.18 234.845 746.313 247.045 746.988C285.025 749.203 299.297 758.835 323.235 777.039C347.405 795.485 374.164 816.77 385.156 836.564C392.119 849.038 407.484 882.413 399.312 921.662C385.385 989.037 345.909 1027.85 281.917 1037.24C274.897 1038.26 268.452 1038.83 261.661 1039.32C253.777 1040.04 245.663 1040.71 235.42 1042.25C219.595 1044.66 202.446 1054.05 188.231 1068.11C174.306 1082.03 165.501 1098.07 164.12 1112.23C162.624 1128.6 173.96 1141.08 183.168 1151.09L184.549 1152.54C194.044 1162.99 202.388 1172.72 208.431 1186.3C212.228 1195.02 214.703 1207.1 217.178 1218.76C219.076 1228 220.918 1236.82 223.335 1243.95C237.146 1284.21 291.585 1303.47 314.315 1309.92L316.215 1310.36C326.344 1313.29 338.889 1316.81 353.505 1314.21C375.545 1310.31 394.017 1295.43 405.642 1283.63C432.171 1256.85 470.151 1240.33 503.931 1227.86C511.183 1225.16 519.123 1223.86 526.835 1222.66C534.833 1221.36 543.12 1220.06 550.831 1217.12C568.038 1210.67 581.561 1202.72 591.057 1193.57C599.977 1185 606.018 1174.5 611.83 1164.43C616.377 1156.68 621.038 1148.69 626.908 1141.61C638.705 1127.4 654.472 1113.43 681.232 1118.1C694.64 1120.42 707.587 1130.87 719.039 1140.16C721.974 1142.57 724.794 1144.79 727.557 1146.9C744.762 1160 756.329 1168.29 775.607 1173.25C789.994 1176.91 815.717 1177.2 834.248 1173.82C849.094 1171.18 863.423 1167.85 877.235 1164.53V1163.86C863.366 1167.23 849.038 1170.5 834.074 1173.25C815.659 1176.52 790.109 1176.28 775.837 1172.67Z" fill="#385D7D" fill-opacity="0.22"/>
<path fill-rule="evenodd" clip-rule="evenodd" d="M908.446 858.432C909.704 857.183 911.26 855.982 912.627 854.829C914.061 853.773 915.387 852.668 916.592 851.516C938.797 830.718 951.029 808.528 951.029 789.219C951.029 770.056 939.717 753.868 917.39 741.141C905.347 734.176 890.937 728.701 876.532 725.339V725.963C890.822 729.325 904.995 734.801 916.998 741.573C939.027 754.3 950.285 770.296 950.285 789.219C950.285 808.384 938.12 830.382 916.078 851.18C914.873 852.236 913.547 853.293 912.113 854.397C910.678 855.55 909.244 856.798 907.81 858C898.054 867.366 889.101 877.404 880.434 887.107C879.115 888.548 877.909 889.94 876.532 891.429V892.437C878.081 890.805 879.515 889.124 881.008 887.443C889.732 877.692 898.69 867.702 908.446 858.432Z" fill="#385D7D" fill-opacity="0.22"/>
<path fill-rule="evenodd" clip-rule="evenodd" d="M916.402 794.865C916.402 788.199 913.642 781.775 908.257 775.785C903.263 770.23 898.203 767.526 892.927 764.627C890.687 763.468 888.392 762.164 886.039 760.714C882.94 759.604 879.725 758.638 876.57 757.817V758.493C879.612 759.314 882.654 760.184 885.58 761.246C887.934 762.744 890.228 763.952 892.525 765.159C897.81 767.96 902.736 770.714 907.675 776.123C912.952 782.064 915.658 788.296 915.658 794.865C915.658 812.35 897.173 829.159 880.931 843.988C879.382 845.341 878.004 846.596 876.57 847.949V848.866C878.176 847.417 879.725 845.969 881.448 844.423C897.864 829.546 916.402 812.591 916.402 794.865Z" fill="#385D7D" fill-opacity="0.22"/>
<path fill-rule="evenodd" clip-rule="evenodd" d="M1355.7 1458.61C1366.19 1436.71 1379.1 1409.44 1405.61 1399.07C1420.07 1398.35 1432.41 1402.59 1445.45 1407.13C1463.64 1413.44 1484.28 1420.68 1516.62 1416.63C1541.17 1413.5 1556.9 1401.44 1575.17 1387.44C1582.67 1381.65 1590.45 1375.77 1599.33 1370.12C1622.49 1355.35 1648.66 1345.26 1671.26 1337.45C1693.68 1329.59 1711.43 1323.41 1717.31 1302.81C1720.88 1290.45 1723.36 1273.18 1724.8 1261.36C1725.67 1254.79 1726.13 1248.71 1726.13 1243.26C1726.13 1234.19 1724.91 1226.37 1722.61 1219.76C1717.66 1205.77 1704.05 1196.84 1686.82 1185.65C1681.69 1182.27 1676.44 1178.84 1670.91 1174.93C1667.05 1172.28 1662.9 1168.81 1658.4 1165.09C1649.12 1157.37 1639.5 1149.41 1631.77 1147.19C1628.78 1146.37 1626.06 1146.61 1623.02 1146.8C1620.65 1147 1618.05 1147.19 1614.94 1146.95L1614.78 1146.9L1614.66 1147C1602.84 1154.48 1593.39 1163.6 1584.17 1172.38C1568.49 1187.34 1553.79 1201.52 1529.53 1206.83C1516.73 1209.68 1503.08 1208.62 1487.69 1203.74C1471.49 1198.48 1453.62 1186.32 1437.54 1169.39C1430.28 1161.76 1422.73 1153.66 1414.66 1145.07C1378.06 1105.74 1336.5 1061.11 1300.31 1036.74L1300.08 1036.69C1295.64 1035.87 1290.58 1036.16 1284.97 1037.27C1269.82 1040.41 1251.73 1050.35 1235.41 1064.58C1219.97 1078.14 1208.32 1093.58 1204.29 1105.84C1203.95 1106.85 1203.31 1108.78 1202.85 1110.86C1198.41 1127.26 1201.47 1144.25 1204.41 1160.65C1206.94 1174.84 1209.36 1188.3 1207.34 1201.38C1202.91 1229.61 1180.31 1249.92 1145.44 1257.06C1099.62 1266.52 1070.87 1240.46 1042.96 1215.23C1022.4 1196.65 1001.18 1177.4 973.114 1172.33C946.714 1167.55 918.244 1173.83 899.394 1177.98C891.787 1179.62 884.179 1181.64 876.629 1183.81V1184.44C884.236 1182.22 891.902 1180.24 899.624 1178.55C918.352 1174.45 946.714 1168.18 972.938 1172.96C1000.77 1177.98 1021.94 1197.13 1042.4 1215.71C1070.41 1240.99 1099.34 1267.19 1145.56 1257.69C1180.77 1250.5 1203.54 1229.9 1207.98 1201.43C1210.05 1188.3 1207.7 1174.84 1205.15 1160.56C1202.22 1144.2 1199.21 1127.31 1203.54 1111C1204.06 1108.97 1204.69 1107 1205.04 1105.98C1212.99 1081.61 1252.42 1044.65 1285.1 1037.9C1290.63 1036.74 1295.58 1036.55 1299.85 1037.27C1335.99 1061.59 1377.54 1106.13 1414.15 1145.45C1422.09 1154.04 1429.64 1162.15 1436.91 1169.82C1453.1 1186.81 1471.03 1199.06 1487.46 1204.27C1502.95 1209.24 1516.73 1210.3 1529.71 1207.46C1554.14 1202.05 1569.07 1187.87 1584.81 1172.81C1593.91 1164.08 1603.36 1155.06 1615.01 1147.58C1618.12 1147.82 1620.71 1147.62 1623.07 1147.48C1626.06 1147.19 1628.66 1147 1631.49 1147.82C1639.04 1149.99 1648.66 1157.85 1657.89 1165.57C1662.33 1169.24 1666.59 1172.76 1670.39 1175.42C1675.93 1179.33 1681.16 1182.8 1686.36 1186.18C1703.48 1197.32 1717.02 1206.15 1721.92 1219.96C1725.6 1230.43 1726.36 1243.99 1724.11 1261.26C1722.56 1273.13 1720.08 1290.36 1716.62 1302.66C1710.85 1322.93 1693.22 1329.11 1670.97 1336.92C1648.32 1344.78 1622.1 1354.82 1598.81 1369.58C1589.93 1375.23 1582.21 1381.21 1574.66 1386.96C1556.5 1400.9 1540.83 1412.92 1516.5 1415.96C1484.4 1420.01 1463.89 1412.87 1445.73 1406.55C1432.59 1402.01 1420.2 1397.67 1405.5 1398.4L1405.32 1398.44C1378.59 1409.01 1365.5 1436.37 1355.07 1458.37C1352.19 1464.36 1349.3 1470.53 1347.52 1477.29C1343.54 1492.82 1341.35 1507.64 1340.66 1521.53H1341.47C1342.04 1507.68 1344.35 1492.92 1348.26 1477.43C1349.94 1470.73 1352.88 1464.55 1355.7 1458.61Z" fill="#385D7D" fill-opacity="0.22"/>
<path fill-rule="evenodd" clip-rule="evenodd" d="M898.473 1138.15C906.24 1136.47 914.007 1134.49 921.544 1132.56C938.229 1128.42 954.047 1124.51 968.147 1122.97C978.214 1121.77 988.566 1121.77 995.819 1122.92C1017.62 1126.15 1034.59 1138.44 1051.04 1150.3C1069.86 1163.89 1089.42 1177.96 1116.57 1179.07C1140.74 1177.57 1144.25 1154.78 1147.93 1130.63C1148.67 1126.2 1149.31 1121.57 1150.17 1117.14C1153.57 1099.45 1160.29 1079.07 1169.62 1058.25C1172.96 1050.92 1177.03 1043.93 1181.01 1037.09C1188.71 1024.13 1196.02 1011.84 1197.93 997.475C1198.16 995.644 1198.26 993.812 1198.26 991.884C1198.26 982.149 1194.99 973.668 1191.94 966.438C1188.83 959.065 1185.49 952.751 1182.22 946.63C1175.31 933.522 1168.75 921.136 1166.74 902.051C1166.28 898.63 1166.11 895.16 1166.11 891.738C1166.11 870.966 1172.66 853.617 1178.94 836.749C1184.46 822.243 1189.58 808.459 1189.58 794.194C1189.58 791.398 1189.41 788.556 1188.95 785.856C1185.67 764.217 1172.32 747.59 1147.98 735.06C1126.52 723.975 1099.38 717.614 1073.25 712.313C1065.6 710.77 1051.27 708.024 1040.92 707.108C1031.14 706.144 1024.01 707.397 1019.05 711.059C1009.97 717.565 1009.45 730.723 1008.88 745.904C1008.58 752.843 1008.29 759.928 1007.2 767.06C1002.6 796.989 997.943 822.05 984.074 849.857C972.748 872.702 958.54 895.593 948.689 910.774C932.004 936.317 911.409 965.186 876.608 985.572V986.342C911.707 965.86 932.64 936.799 949.379 911.063C959.284 895.931 973.438 873.039 984.831 850.099C998.633 822.291 1003.29 797.133 1007.96 767.158C1009.04 760.024 1009.34 752.891 1009.68 745.952C1010.2 730.915 1010.72 717.855 1019.51 711.445C1024.34 708.024 1031.31 706.771 1040.87 707.686C1051.16 708.698 1065.42 711.397 1073.08 712.939C1125.03 723.494 1181.12 738.626 1188.2 785.953C1188.6 788.652 1188.78 791.447 1188.78 794.194C1188.78 808.363 1183.65 822.05 1178.18 836.604C1171.92 853.472 1165.42 870.87 1165.42 891.738C1165.42 895.16 1165.59 898.63 1165.94 902.1C1168.01 921.281 1174.62 933.714 1181.58 946.872C1184.8 952.992 1188.14 959.305 1191.25 966.583C1194.3 973.812 1197.47 982.293 1197.47 991.884C1197.47 993.764 1197.34 995.596 1197.11 997.379C1195.27 1011.6 1188.02 1023.84 1180.38 1036.8C1176.34 1043.64 1172.2 1050.68 1168.93 1058.01C1159.55 1078.92 1152.81 1099.31 1149.43 1117.04C1148.62 1121.48 1147.87 1126.1 1147.24 1130.54C1143.56 1154.39 1140.05 1177 1116.52 1178.44C1089.77 1177.33 1070.32 1163.31 1051.5 1149.82C1035.05 1137.86 1017.9 1125.57 995.981 1122.25C988.62 1121.09 978.214 1121.19 968.025 1122.3C953.817 1123.89 938.053 1127.84 921.368 1131.98C913.831 1133.86 905.943 1135.79 898.243 1137.57C893.234 1138.73 888.113 1139.89 883.166 1141.14C881.038 1141.62 878.794 1142.1 876.608 1142.68V1143.31C878.909 1142.78 881.153 1142.2 883.396 1141.72C888.345 1140.51 893.407 1139.31 898.473 1138.15Z" fill="#385D7D" fill-opacity="0.22"/>
<path fill-rule="evenodd" clip-rule="evenodd" d="M944.278 1097.87C954.561 1094.06 965.008 1090.06 976.022 1088.75C1006.1 1084.99 1025.67 1098.01 1044.65 1110.55C1057.58 1119.14 1069.76 1127.2 1084.76 1129.7C1088.52 1130.38 1090.82 1130.18 1093.83 1130.04C1095.38 1129.95 1097.06 1129.85 1099.43 1129.85H1099.48C1110.16 1126.67 1117.67 1117.07 1122.05 1109.59C1138.04 1082.58 1145.6 1038.54 1151.13 1006.42C1151.95 1001.55 1152.35 996.722 1152.35 991.754C1152.35 979.261 1149.88 967.685 1147.21 955.433C1144.38 942.314 1141.39 928.76 1141.39 913.132C1141.39 908.983 1141.62 904.739 1142.03 900.639C1142.14 899.819 1142.31 897.455 1142.54 894.416C1142.77 889.979 1143.12 884.432 1143.52 880.525C1144.73 867.453 1147.51 857.083 1150.16 847.098C1153.73 833.69 1157.14 821.197 1157.14 802.578C1157.14 800.649 1157.09 798.623 1157.03 796.597C1154.26 781.789 1135.56 768.235 1110.57 762.833C1089.85 758.348 1062.37 759.361 1047.13 775.663C1029.3 794.86 1013.6 850.716 1010.72 880.718C1010.08 887.133 1010.03 892.439 1010.03 897.6C1009.96 903.339 1009.91 909.225 1009.09 916.943C1006.85 937.635 997.091 954.71 976.482 974.197C950.867 998.266 931.071 1011.29 891.932 1029.96C887.72 1031.98 882.525 1033.86 876.696 1035.6V1036.32C882.64 1034.49 887.95 1032.56 892.279 1030.49C931.531 1011.82 951.327 998.748 977.01 974.534C997.781 955.047 1007.59 937.827 1009.85 916.991C1010.66 909.273 1010.72 903.339 1010.72 897.6C1010.77 892.198 1010.83 887.182 1011.46 880.766C1014.41 850.861 1029.93 795.199 1047.77 776.001C1062.72 759.987 1089.9 759.07 1110.39 763.412C1135.1 768.766 1153.5 782.175 1156.28 796.693C1156.33 798.671 1156.4 800.649 1156.4 802.578C1156.4 821.052 1152.93 833.642 1149.47 846.954C1146.75 856.987 1143.99 867.357 1142.77 880.477C1142.49 884.384 1142.03 889.931 1141.73 894.368C1141.55 897.407 1141.39 899.771 1141.32 900.591C1140.81 904.739 1140.63 908.935 1140.63 913.132C1140.63 928.808 1143.58 942.41 1146.47 955.529C1149.12 967.781 1151.61 979.309 1151.61 991.754C1151.61 996.722 1151.26 1001.5 1150.39 1006.32C1144.91 1038.4 1137.4 1082.39 1121.36 1109.3C1117.09 1116.68 1109.7 1126.09 1099.31 1129.17C1097.01 1129.22 1095.33 1129.32 1093.77 1129.37C1090.82 1129.61 1088.58 1129.75 1084.88 1129.08C1070.16 1126.62 1057.98 1118.61 1045.11 1110.07C1026.06 1097.39 1006.33 1084.36 975.914 1088.13C964.832 1089.48 954.21 1093.43 943.993 1097.29C940.015 1098.83 935.861 1100.43 931.639 1101.78C916.93 1106.74 897.185 1112.53 876.696 1116.2V1116.83C897.296 1113.06 917.214 1107.28 931.991 1102.36C936.091 1100.96 940.299 1099.41 944.278 1097.87Z" fill="#385D7D" fill-opacity="0.22"/>
<path fill-rule="evenodd" clip-rule="evenodd" d="M1047.31 1036.78C1050.34 1027.26 1053.84 1018.62 1064.75 1016.25C1070.53 1015.09 1076.25 1016.06 1081.22 1019.29C1089.57 1024.61 1095.17 1035.67 1095.17 1046.68C1095.17 1054.4 1092.3 1061.16 1087.28 1065.65L1086.99 1065.75C1085.01 1066.38 1082.91 1067.05 1081.39 1068.16C1059.21 1069.81 1049.4 1048.37 1047.31 1036.78ZM1081.74 1068.79L1081.85 1068.74C1083.26 1067.63 1085.24 1066.96 1087.22 1066.33L1087.58 1066.18L1087.81 1066.09C1093 1061.5 1095.93 1054.59 1095.93 1046.68C1095.93 1035.42 1090.15 1024.22 1081.68 1018.76C1076.48 1015.48 1070.59 1014.42 1064.57 1015.67C1053.31 1018.04 1049.58 1026.97 1046.55 1036.68L1046.48 1036.73L1046.55 1036.78C1049.46 1053.29 1061.66 1070.34 1081.62 1068.79H1081.74Z" fill="#385D7D" fill-opacity="0.22"/>
<path fill-rule="evenodd" clip-rule="evenodd" d="M1062.81 864.173C1062.81 850.418 1067.71 837.903 1075.48 831.646C1079.55 828.447 1084.23 826.87 1089.48 826.918C1104.88 831.216 1107.17 847.742 1107.17 857.199C1107.17 871.671 1102.08 888.054 1094.5 898.084L1094.15 898.179C1092.22 898.848 1090.17 899.422 1088.66 900.568C1070.92 900.234 1062.81 881.462 1062.81 864.173ZM1094.5 898.8L1095.02 898.562L1095.09 898.466C1102.79 888.436 1107.86 871.814 1107.86 857.199C1107.86 847.504 1105.53 830.691 1089.66 826.297H1089.59C1084.06 826.201 1079.15 827.826 1074.95 831.264C1066.95 837.569 1062.04 850.227 1062.04 864.173C1062.04 881.844 1070.39 900.95 1088.83 901.189H1088.96L1089.08 901.046C1090.53 899.995 1092.57 899.326 1094.5 898.8Z" fill="#385D7D" fill-opacity="0.22"/>
<path fill-rule="evenodd" clip-rule="evenodd" d="M1269.91 881.915C1265.37 876.222 1263.19 865.607 1263.19 849.443C1263.19 834.389 1265.14 816.295 1266.87 800.372C1267.96 790.24 1268.99 780.589 1269.45 772.484C1271.47 738.274 1273.49 705.994 1298.97 681.338C1315.31 665.463 1332.28 652.677 1374.34 656.73C1393.43 658.563 1416.62 665.946 1441.18 673.762C1445.5 675.113 1449.81 676.512 1454.19 677.864C1456.72 678.684 1459.3 679.503 1461.9 680.227C1484.5 687.272 1504.06 693.353 1520.8 705.221C1539.96 718.78 1549.68 736.777 1549.68 758.78C1549.68 794.872 1523.91 832.749 1499.75 856.102C1463.97 890.89 1413.63 895.33 1360.41 900.106L1354.13 900.734C1335.15 903.05 1288.84 905.896 1269.91 881.915ZM1360.47 900.782C1413.86 895.956 1464.31 891.422 1500.38 856.536C1524.6 833.038 1550.37 795.113 1550.37 758.78C1550.37 736.633 1540.6 718.442 1521.26 704.691C1504.47 692.821 1484.85 686.693 1462.13 679.697C1459.58 678.925 1457.05 678.105 1454.42 677.333C1450.04 675.886 1445.73 674.534 1441.41 673.183C1416.85 665.366 1393.66 657.936 1374.39 656.102C1332 652.001 1314.91 664.932 1298.4 680.903C1272.73 705.801 1270.83 738.177 1268.71 772.434C1268.25 780.541 1267.21 790.192 1266.12 800.324C1264.34 816.295 1262.43 834.34 1262.43 849.443C1262.43 865.752 1264.62 876.464 1269.22 882.254C1288.44 906.572 1335.15 903.629 1354.26 901.312L1360.47 900.782Z" fill="#385D7D" fill-opacity="0.22"/>
<path fill-rule="evenodd" clip-rule="evenodd" d="M890.391 347.011C899.177 331.882 900.084 314.013 892.859 299.268C889.185 291.871 883.562 285.579 876.559 280.776V281.545C883.275 286.156 888.612 292.159 892.112 299.46C899.339 314.061 898.487 331.785 889.759 346.723C886.947 351.621 882.528 356.185 876.559 360.604V361.469C882.93 356.905 887.464 352.054 890.391 347.011Z" fill="#385D7D" fill-opacity="0.22"/>
<path fill-rule="evenodd" clip-rule="evenodd" d="M921.801 886.862C926.795 880.927 932.139 875.283 937.241 869.785C949.527 856.567 961.111 844.073 966.564 830.324C975.684 814.936 980.339 800.175 980.339 786.137C980.339 774.511 977.186 763.319 970.813 752.851C952.274 721.834 911.761 704.37 877.223 697.665V698.341C911.477 704.998 951.76 722.316 970.177 753.142C983.952 776.152 982.517 802.056 965.928 830.083C960.488 843.784 948.892 856.23 936.551 869.446C931.504 874.898 926.226 880.542 921.179 886.523C915.78 892.939 910.503 899.597 905.455 906.013C896.216 917.735 887.15 929.167 877.223 939.25V940.263C887.437 930.036 896.675 918.314 906.091 906.35C911.139 899.934 916.362 893.277 921.801 886.862Z" fill="#385D7D" fill-opacity="0.22"/>
<path fill-rule="evenodd" clip-rule="evenodd" d="M935.442 663.343C947.58 659.153 953.452 649.953 953.452 635.166C953.452 627.7 951.95 619.945 950.746 613.684V613.491C950.448 612.142 950.34 610.649 950.34 609.108C950.34 603.232 952.41 597.211 954.427 591.431C955.523 588.444 956.551 585.313 957.295 582.279C957.985 579.871 958.445 577.463 959.081 575.055C961.382 565.132 963.804 554.824 968.919 545.528C970.935 541.867 972.897 538.062 974.791 534.402C984.169 516.243 993.885 497.506 1012.76 485.319C1013.91 484.549 1015.12 483.874 1016.27 483.201C1031.34 474.675 1047.51 467.305 1063.22 460.225C1080.88 452.229 1099.06 443.945 1115.68 433.974C1131.91 424.341 1149.86 411.384 1167.18 398.812C1173.27 394.429 1178.97 390.335 1184.61 386.337C1212.8 366.396 1239.37 347.563 1239.37 312.883V312.835C1239.37 303.925 1237.71 294.532 1234.31 283.935C1224.65 253.879 1200.48 200.8 1148.13 182.689C1134.27 177.872 1114.88 174.645 1094.45 171.274C1078.98 168.673 1062.99 166.023 1049.63 162.604H1047.1C1060.97 166.36 1077.94 169.154 1094.29 171.851C1114.76 175.271 1134.04 178.498 1147.85 183.219C1200.02 201.281 1223.96 254.168 1233.62 284.08C1237.02 294.628 1238.68 304.021 1238.68 312.835V312.883C1238.68 347.274 1212.23 366.011 1184.1 385.807C1178.51 389.805 1172.76 393.948 1166.78 398.331C1149.4 410.855 1131.39 423.811 1115.29 433.541C1098.71 443.414 1080.47 451.652 1062.87 459.646C1047.17 466.776 1030.95 474.145 1015.87 482.67C1014.72 483.345 1013.4 484.067 1012.3 484.838C993.316 497.121 983.533 515.906 974.102 534.112C972.207 537.87 970.191 541.627 968.229 545.239C963.06 554.631 960.638 564.939 958.283 574.909C957.755 577.367 957.187 579.775 956.551 582.135C955.807 585.121 954.711 588.204 953.682 591.239C951.666 597.067 949.528 603.087 949.528 609.108C949.528 610.649 949.704 612.19 949.934 613.588L949.988 613.876C951.206 620.042 952.695 627.749 952.695 635.166C952.695 649.616 946.944 658.671 935.212 662.717C923.128 666.955 902.642 665.559 884.466 664.307C881.704 664.114 879.116 663.922 876.642 663.777V664.403C879.116 664.547 881.704 664.693 884.408 664.885C902.642 666.185 923.236 667.534 935.442 663.343Z" fill="#385D7D" fill-opacity="0.22"/>
<path fill-rule="evenodd" clip-rule="evenodd" d="M898.541 403.824C929.068 385.058 947.268 351.781 947.268 314.782C947.268 305.592 946.104 296.645 943.885 288.229C935.171 255.389 908.189 244.845 875.279 240.153V240.782C885.687 242.233 895.456 244.264 904.292 247.456C925.401 255.05 937.782 268.06 943.195 288.325C945.4 296.741 946.51 305.641 946.51 314.782C946.51 351.588 928.418 384.671 898.067 403.292C891.618 405.371 883.768 407.112 875.279 408.854V409.483C883.885 407.789 891.851 405.952 898.473 403.872L898.541 403.824Z" fill="#385D7D" fill-opacity="0.22"/>
<path fill-rule="evenodd" clip-rule="evenodd" d="M915.28 582.641C918.148 565.967 923.994 550.063 929.731 534.785C933.412 524.906 937.255 514.64 940.245 504.231C942.14 497.579 943.628 490.977 944.71 485.098C945.752 479.073 946.321 473.724 946.321 469.29C946.321 460.182 944.088 454.784 939.609 453.097C927.674 448.422 901.734 444.855 876.535 444.663V445.242C901.613 445.434 927.39 449.048 939.325 453.579C943.452 455.169 945.522 460.519 945.522 469.29C945.522 473.675 945.062 478.977 943.966 485.001C942.884 490.881 941.382 497.435 939.501 504.085C936.51 514.496 932.722 524.665 928.987 534.545C923.304 549.918 917.336 565.822 914.468 582.593C911.721 599.076 898.23 612.185 876.535 619.895V620.619C898.69 612.812 912.343 599.461 915.28 582.641Z" fill="#385D7D" fill-opacity="0.22"/>
<path fill-rule="evenodd" clip-rule="evenodd" d="M896.054 214.845C923.669 215.712 947.606 216.434 961.76 231.841C976.482 247.826 980.745 275.751 983.735 296.118C984.074 298.14 984.425 300.162 984.71 302.087C985.291 305.554 985.576 309.262 985.576 313.017C985.576 333.817 977.172 355.965 969.175 377.39C961.99 396.553 954.561 416.39 953.235 434.878V434.926L953.303 434.974C956.916 445.567 970.38 448.215 981.773 447.156C1026.36 444.17 1062.79 431.026 1107.71 401.753C1116.68 395.878 1125.83 390.342 1134.69 384.998C1149.66 375.897 1163.87 367.327 1177.26 357.313C1197.4 342.291 1207.53 323.514 1207.53 301.366C1207.53 275.703 1193.26 246.815 1168.24 222.115C1135.33 196.694 1091.72 192.89 1049.89 191.157C1046.62 191.012 1043.27 190.964 1039.59 190.868C1022.8 190.483 1001.85 190.049 991.502 183.164C982.409 177.098 975.386 169.924 969.175 162.605H968.309C974.588 170.116 981.665 177.435 991.096 183.694C1001.57 190.675 1022.62 191.109 1039.54 191.542C1043.22 191.638 1046.62 191.686 1049.84 191.783C1091.49 193.516 1135.04 197.32 1167.78 222.597C1192.57 247.152 1206.84 275.848 1206.84 301.366C1206.84 323.321 1196.71 342.05 1176.8 356.832C1163.34 366.798 1149.25 375.416 1134.23 384.468C1125.37 389.812 1116.29 395.349 1107.25 401.223C1062.49 430.448 1026.08 443.545 981.665 446.529C970.677 447.541 957.498 445.037 954.047 434.83C955.305 416.438 962.68 396.697 969.865 377.583C977.917 356.109 986.266 333.913 986.266 313.017C986.266 309.262 985.914 305.506 985.454 301.991C985.115 300.114 984.831 298.092 984.534 296.07C981.435 275.607 977.172 247.537 962.328 231.504C947.944 215.856 923.953 215.086 896.054 214.171C890.243 213.979 884.26 213.834 878.219 213.545C877.701 213.449 877.183 213.449 876.608 213.401V214.027C877.183 214.027 877.643 214.075 878.161 214.075C884.26 214.46 890.185 214.653 896.054 214.845Z" fill="#385D7D" fill-opacity="0.22"/>
<path fill-rule="evenodd" clip-rule="evenodd" d="M1268.3 205.553L1268.36 205.648C1272.51 209.926 1278.87 216.39 1287.56 215.677L1287.73 215.63L1287.86 215.534C1289.14 214.156 1290.71 212.92 1292.17 211.875L1292.29 211.827V211.732C1294.22 203.889 1295.27 195.856 1295.27 187.871C1295.27 179.696 1294.16 171.568 1292.17 163.63H1291.42C1293.46 171.568 1294.45 179.696 1294.45 187.871C1294.45 195.809 1293.51 203.747 1291.54 211.494C1290.13 212.54 1288.67 213.681 1287.33 215.012C1279.16 215.63 1273.27 209.641 1268.94 205.268L1268.83 205.173C1261.47 197.615 1255.87 187.728 1250.04 177.176C1247.52 172.661 1244.89 168.098 1242.16 163.63H1241.28C1244.08 168.193 1246.76 172.899 1249.28 177.462C1255.16 188.014 1260.78 197.995 1268.3 205.553Z" fill="#385D7D" fill-opacity="0.22"/>
<path fill-rule="evenodd" clip-rule="evenodd" d="M882.882 177.572C893.27 176.851 902.451 169.839 902.451 162.538H901.653C901.653 169.551 892.868 176.275 882.825 176.899C880.644 177.092 878.578 177.092 876.57 176.947V177.572C878.578 177.716 880.701 177.764 882.882 177.572Z" fill="#385D7D" fill-opacity="0.22"/>
<path fill-rule="evenodd" clip-rule="evenodd" d="M1145.27 243.426C1159.73 255.76 1168.31 273.325 1168.31 290.411C1168.31 300.921 1165.02 310.711 1158.63 318.774C1145.22 335.955 1119.24 342.962 1094.03 349.873C1082.45 352.992 1071.51 355.968 1061.66 359.855C1052.23 361.008 1046.7 356.544 1044.45 345.697C1041.87 333.699 1037.48 320.981 1033.17 308.743C1029.31 297.993 1025.74 287.723 1023.49 278.269C1022.46 273.901 1021.93 269.63 1021.93 265.503C1021.93 251.633 1027.75 239.395 1037.08 233.588C1068 214.343 1121.61 223.221 1145.27 243.426ZM1021.19 265.503C1021.19 269.678 1021.7 274.045 1022.75 278.364C1024.99 287.915 1028.62 298.137 1032.42 308.983C1036.68 321.125 1041.18 333.795 1043.65 345.793C1046.06 356.88 1052 361.727 1061.84 360.431H1061.89C1071.74 356.544 1082.69 353.568 1094.26 350.401C1119.59 343.538 1145.73 336.388 1159.32 319.109C1165.65 310.951 1169.05 301.017 1169.05 290.411C1169.05 273.085 1160.42 255.424 1145.84 242.946C1133.81 232.724 1114.23 225.285 1093.5 222.981C1071.64 220.534 1050.84 224.229 1036.56 233.06C1027.06 238.963 1021.19 251.441 1021.19 265.503Z" fill="#385D7D" fill-opacity="0.22"/>
<path fill-rule="evenodd" clip-rule="evenodd" d="M1289.14 988.706C1283.32 983.02 1277.9 976.419 1273.39 971.071C1271.37 968.661 1269.64 966.591 1268.14 964.904C1261.51 957.387 1254.35 950.449 1247.55 943.752C1234.22 930.792 1221.63 918.504 1215.58 904.773C1212.63 897.979 1211.08 890.849 1211.08 882.946C1211.08 868.541 1216.04 853.796 1220.89 839.486C1223.66 831.247 1226.49 822.863 1228.33 814.625C1230.64 804.073 1231.85 793.232 1231.85 782.343C1231.85 773.67 1231.11 764.804 1229.55 756.083C1224.46 726.741 1211.08 696.82 1187.6 661.84C1182.64 654.468 1176.92 647.241 1171.44 640.254C1165.67 633.076 1159.83 625.559 1154.76 617.946C1152.74 614.815 1151.24 611.491 1149.97 608.262C1148.87 605.66 1147.85 603.01 1146.34 600.457C1145.07 598.144 1143.57 595.88 1142.19 593.76C1138.9 588.7 1135.78 584.027 1134.45 578.245C1133.42 573.62 1132.79 568.175 1132.79 563.019C1132.79 557.913 1133.42 550.492 1136.01 544.228C1143.92 525.389 1157.53 508.381 1169.77 494.312C1172.7 490.891 1175.88 487.422 1179.05 484.097C1182.81 479.953 1186.79 475.762 1190.42 471.426C1193.6 467.571 1196.02 463.332 1198.33 459.236C1200.35 455.622 1202.42 451.816 1205.14 448.395C1220.14 428.93 1241.84 412.017 1269.59 398.189C1296.07 385.084 1316.96 376.989 1344.77 392.889C1353.36 397.756 1355.91 403.634 1358.86 412.065C1362.08 421.076 1362.48 430.664 1363.06 439.866C1363.58 450.707 1364.21 461.837 1369 472.1C1371.48 477.496 1375.3 482.17 1379.05 486.458C1380.02 487.711 1381.12 488.819 1382.1 489.927C1386.2 494.504 1390.41 499.227 1393.47 504.334C1397.98 512.043 1402.87 519.752 1407.61 527.172C1410.6 531.942 1413.83 536.857 1416.84 541.771C1423.88 553.094 1431.09 564.562 1438.12 575.643C1442.22 582.051 1446.32 588.363 1450.3 594.772L1450.36 594.868C1450.65 595.108 1451.06 595.446 1451.45 595.686C1471.88 626.523 1504.31 638.376 1536.34 646.615C1538.7 647.241 1541.07 647.867 1543.37 648.446C1565.77 654.035 1586.88 659.335 1598.54 678.415C1604.36 687.762 1609.96 704.577 1615.03 728.428C1622.37 762.01 1624.62 793.569 1627.21 830.091L1627.39 832.596C1620.18 841.992 1609.73 847.678 1598.47 853.7C1593.11 856.591 1587.51 859.578 1582.38 863.048C1571.65 870.226 1561.03 879.14 1549.89 888.535C1538.01 898.364 1525.89 908.628 1513.25 916.963C1480.25 938.934 1439.06 954.062 1399.3 968.661C1392.78 971.071 1386.08 973.528 1379.68 975.889C1372.24 978.732 1364.73 982.009 1357.46 985.236C1345.23 990.536 1333.81 995.596 1322.62 998.486C1309.45 1001.86 1299.76 999.113 1289.14 988.706ZM1357.75 985.718C1365.03 982.538 1372.52 979.262 1379.97 976.516C1386.38 974.058 1393.06 971.649 1399.59 969.24C1439.4 954.593 1480.65 939.512 1513.78 917.444C1526.42 909.061 1538.53 898.847 1550.35 889.017C1561.61 879.525 1572.11 870.66 1582.84 863.529C1587.92 860.06 1593.47 857.121 1598.88 854.23C1610.14 848.159 1620.81 842.426 1628.13 832.885L1628.2 832.789L1627.96 830.043C1625.37 793.521 1623.11 761.962 1615.79 728.331C1610.6 704.433 1605.06 687.473 1599.28 678.125C1587.4 658.757 1566.17 653.504 1543.6 647.867C1541.3 647.241 1538.93 646.615 1536.57 646.085C1504.66 637.894 1472.35 626.041 1452.09 595.301L1451.93 595.205C1451.57 594.964 1451.29 594.723 1450.94 594.434C1446.91 588.122 1442.86 581.762 1438.83 575.354C1431.85 564.224 1424.51 552.757 1417.53 541.434C1414.47 536.519 1411.3 531.701 1408.3 526.883C1403.51 519.463 1398.61 511.754 1394.05 504.093C1391.05 498.841 1386.77 494.167 1382.74 489.59C1381.7 488.434 1380.66 487.277 1379.63 486.121C1375.93 481.881 1372.12 477.208 1369.69 471.811C1364.9 461.741 1364.39 450.611 1363.75 439.866C1363.29 430.567 1362.71 420.979 1359.6 411.921C1356.6 403.345 1353.94 397.37 1345.18 392.36C1316.96 376.218 1295.89 384.41 1269.24 397.612C1241.31 411.536 1219.51 428.496 1204.5 448.01C1201.8 451.527 1199.66 455.333 1197.63 458.995C1195.33 463.09 1192.96 467.282 1189.79 471.04C1186.21 475.424 1182.23 479.665 1178.43 483.76C1175.3 487.085 1172.13 490.458 1169.08 493.927C1156.84 508.092 1143.29 525.052 1135.26 544.036C1132.61 550.348 1132.08 557.863 1132.08 563.019C1132.08 568.223 1132.66 573.716 1133.76 578.341C1135.09 584.219 1138.2 588.989 1141.49 594.048C1142.93 596.169 1144.38 598.385 1145.76 600.698C1147.09 603.251 1148.18 605.902 1149.23 608.407C1150.61 611.779 1152 615.104 1154.07 618.236C1159.14 625.945 1165.1 633.413 1170.81 640.592C1176.34 647.578 1182.05 654.757 1186.97 662.177C1210.5 697.062 1223.72 726.982 1228.79 756.132C1230.29 764.853 1231.11 773.67 1231.11 782.343C1231.11 793.184 1229.94 804.025 1227.59 814.528C1225.73 822.719 1222.96 831.103 1220.2 839.294C1215.41 853.652 1210.44 868.443 1210.44 882.946C1210.44 890.945 1211.82 898.124 1214.88 904.965C1220.94 918.794 1233.58 931.129 1247.03 944.185C1253.84 950.882 1260.87 957.725 1267.57 965.242C1269.01 966.927 1270.79 969.048 1272.76 971.456C1277.26 976.757 1282.8 983.406 1288.52 989.091C1299.41 999.691 1309.34 1002.58 1322.9 999.113C1334.04 996.174 1345.64 991.163 1357.75 985.718Z" fill="#385D7D" fill-opacity="0.22"/>
<path fill-rule="evenodd" clip-rule="evenodd" d="M1314.54 941.876C1284.78 937.87 1246.77 916.158 1237.38 890.152C1235.53 884.796 1234.56 879.295 1234.56 873.12C1234.56 861.829 1237.79 850.539 1240.67 840.599C1242 836.015 1243.26 831.576 1244.12 827.475C1247.07 813.628 1248.4 798.477 1248.4 779.757C1248.4 769.478 1248.05 759.057 1247.64 748.924C1247.23 738.743 1246.84 728.177 1246.84 717.707C1246.84 700.964 1247.94 687.116 1250.13 674.234C1250.75 671.146 1251.28 668.01 1251.85 665.066C1253.7 655.175 1255.49 645.815 1255.49 636.599C1255.49 624.198 1252.15 613.873 1244.99 604.272C1238.18 595.152 1235.14 587.818 1234.33 578.844C1233.87 573.44 1233.23 567.891 1232.54 562.487C1231.39 552.982 1230.17 543.092 1230.17 533.537V533.104C1230.23 511.488 1239.58 458.895 1266.91 443.697C1275.96 438.63 1286.39 438.1 1297.87 442.104C1313.32 447.508 1322.78 464.106 1326.12 476.651C1326.76 479.064 1327.4 481.524 1328.03 483.985C1332.52 501.355 1335.76 516.264 1338 529.581C1338.59 533.055 1338.99 536.577 1339.33 539.906C1340.32 548.689 1341.24 556.987 1345.73 565.576C1370.48 612.908 1436.39 643.981 1487.42 661.786C1526.05 675.247 1559.45 686.875 1575.13 718.624C1581.07 730.686 1584.64 748.057 1584.64 765.233V765.281C1584.64 778.164 1582.63 790.178 1578.93 800.069C1571.49 819.756 1555.93 837.462 1537.82 858.114L1536.96 858.983C1503.56 897.052 1470.06 915.965 1413.5 928.704L1407.89 929.91C1388.87 934.251 1370.87 938.305 1350.47 941.2C1337.08 943.178 1325.61 943.371 1314.54 941.876ZM1408.07 930.536L1413.66 929.282C1470.41 916.544 1504.09 897.582 1537.59 859.32L1538.46 858.451C1556.44 837.849 1572.13 820.045 1579.62 800.215C1583.44 790.323 1585.4 778.212 1585.4 765.281V765.233C1585.4 748.007 1581.81 730.493 1575.82 718.383C1560.02 686.393 1526.58 674.668 1487.7 661.206C1436.85 643.45 1371.05 612.426 1346.42 565.334C1341.98 556.842 1341.06 548.591 1340.09 539.858C1339.74 536.529 1339.33 533.007 1338.76 529.485C1336.5 516.168 1333.23 501.259 1328.72 483.889C1328.15 481.428 1327.52 478.967 1326.83 476.506C1323.42 463.816 1313.85 446.977 1298.1 441.477C1286.45 437.376 1275.79 438.003 1266.5 443.117C1238.89 458.461 1229.43 511.39 1229.36 533.104V533.537C1229.36 543.14 1230.58 552.982 1231.73 562.535C1232.42 567.94 1233.18 573.488 1233.57 578.892C1234.33 588.012 1237.44 595.442 1244.3 604.658C1251.39 614.115 1254.8 624.296 1254.8 636.599C1254.8 645.767 1253.01 655.127 1251.1 664.97C1250.52 667.914 1249.95 671.05 1249.37 674.137C1247.13 687.068 1246.08 700.868 1246.08 717.707C1246.08 728.177 1246.49 738.743 1246.9 748.924C1247.23 759.057 1247.64 769.478 1247.64 779.757C1247.64 798.429 1246.26 813.531 1243.43 827.379C1242.51 831.432 1241.24 835.823 1239.98 840.455C1237.09 850.443 1233.87 861.781 1233.87 873.12C1233.87 879.392 1234.73 884.989 1236.63 890.296C1246.08 916.544 1284.49 938.498 1314.42 942.552C1325.61 944.047 1337.14 943.806 1350.57 941.876C1371.05 938.885 1389.04 934.831 1408.07 930.536Z" fill="#385D7D" fill-opacity="0.22"/>
<path fill-rule="evenodd" clip-rule="evenodd" d="M949.041 1150.74C959.649 1149.68 979.243 1148.28 992.436 1151.36C1014.17 1156.43 1032.84 1171.13 1051 1185.3C1076.48 1205.36 1102.87 1226.04 1138.14 1219.72C1157.17 1216.25 1168.98 1207.72 1174.34 1193.35C1179.01 1180.91 1178.37 1165.63 1177.28 1148.37C1175.21 1116.94 1181.38 1095.59 1187.02 1083.25C1192.78 1070.71 1202.24 1059.24 1211.46 1048.01C1223.8 1033.06 1235.49 1018.89 1238.09 1002.88C1239.06 996.471 1238.83 991.169 1237.22 985.142C1233.3 970.197 1224.26 958.917 1214.69 946.913C1198.55 926.618 1181.78 905.599 1191.51 864.816C1193.6 855.897 1196.82 846.978 1200.1 837.578C1210.77 807.544 1221.66 776.45 1199.7 741.741C1180.79 710.309 1146.21 690.543 1112.73 671.502C1097.1 662.583 1080.92 653.375 1066.74 643.204C1048.63 630.139 1023.8 612.399 1032.38 590.609C1035.78 581.835 1037.46 572.819 1039.07 564.046C1041.72 550.163 1044.42 535.845 1054.11 522.973C1061.03 513.718 1070.88 506.583 1080.46 499.592C1084.88 496.363 1089.57 492.939 1093.83 489.42C1103.22 481.61 1114.29 475.295 1125 469.174C1134.11 463.966 1143.45 458.615 1151.86 452.3C1160.8 443.816 1168.63 436.392 1177.97 427.714C1189.39 417.253 1202.93 407.708 1216.02 398.5C1241.15 380.76 1264.83 364.128 1272.5 342.29C1277.96 326.911 1277.22 311.003 1270.25 290.707C1266.5 279.909 1259.24 265.591 1253.7 255.516C1242.63 235.075 1227.42 212.032 1213.19 194.002C1202.07 179.926 1186.38 169.223 1167.66 162.667H1165.69C1185.06 169.079 1201.2 179.974 1212.5 194.291C1226.73 212.369 1241.94 235.365 1253.01 255.805C1258.49 265.832 1265.81 280.053 1269.56 290.852C1276.48 311.1 1277.17 326.863 1271.86 342.145C1264.26 363.743 1240.62 380.374 1215.56 398.018C1202.47 407.226 1188.86 416.771 1177.45 427.328C1168.06 436.006 1160.16 443.382 1151.28 451.867C1142.99 458.134 1133.6 463.436 1124.54 468.691C1113.83 474.813 1102.76 481.177 1093.3 488.939C1089.04 492.554 1084.42 495.88 1079.93 499.11C1070.31 506.1 1060.46 513.283 1053.48 522.635C1043.73 535.604 1041.03 550.017 1038.43 563.95C1036.71 572.723 1035.03 581.738 1031.69 590.367C1022.94 612.592 1047.94 630.573 1066.21 643.637C1080.51 653.858 1096.64 663.065 1112.27 671.983C1145.75 691.074 1180.33 710.743 1199.01 741.982C1220.92 776.498 1209.96 807.496 1199.41 837.433C1196.07 846.834 1192.91 855.752 1190.77 864.718C1181.02 905.696 1197.8 926.81 1214.11 947.251C1223.62 959.158 1232.55 970.439 1236.48 985.335C1238.09 991.217 1238.32 996.471 1237.28 1002.79C1234.8 1018.6 1223.16 1032.77 1210.77 1047.67C1201.61 1058.85 1192.04 1070.47 1186.28 1083.05C1180.69 1095.44 1174.39 1116.85 1176.48 1148.42C1178.43 1177.93 1180.74 1211.48 1137.97 1219.14C1103.1 1225.36 1076.82 1204.78 1051.41 1184.87C1033.25 1170.6 1014.52 1155.85 992.612 1150.78C980.055 1147.8 961.95 1148.76 948.932 1150.06C928.067 1152.23 906.619 1157.39 883.972 1162.84C881.551 1163.41 879.13 1163.95 876.651 1164.57V1165.25C879.187 1164.62 881.666 1163.99 884.202 1163.41C906.849 1157.97 928.175 1152.81 949.041 1150.74Z" fill="#385D7D" fill-opacity="0.22"/>
</g>
</svg>
