<svg width="354" height="68" viewBox="0 0 354 68" fill="none" xmlns="http://www.w3.org/2000/svg">
<g clip-path="url(#clip0_1_2)">
<rect width="354" height="68" fill="white"/>
<path fill-rule="evenodd" clip-rule="evenodd" d="M28.8693 98.1805C26.5731 95.323 25.4686 89.9966 25.4686 81.8851C25.4686 74.3306 26.4569 65.2505 27.3285 57.2606C27.8809 52.1758 28.4038 47.3331 28.6362 43.2655C29.6534 26.0986 30.6706 9.90014 43.546 -2.47288C51.7997 -10.4387 60.3733 -16.8553 81.6187 -14.8212C91.2676 -13.9015 102.98 -10.1966 115.39 -6.27419C117.57 -5.59597 119.749 -4.89424 121.958 -4.21603C123.237 -3.80463 124.545 -3.39265 125.853 -3.02945C137.275 0.505616 147.156 3.55642 155.613 9.51284C165.292 16.3167 170.203 25.3481 170.203 36.3888C170.203 54.5002 157.183 73.5073 144.977 85.2262C126.899 102.684 101.469 104.911 74.5852 107.309L71.4174 107.623C61.8266 108.786 38.4307 110.214 28.8693 98.1805ZM74.6146 107.647C101.585 105.226 127.073 102.95 145.296 85.4442C157.532 73.6524 170.552 54.6213 170.552 36.3888C170.552 25.2752 165.612 16.1469 155.846 9.24604C147.36 3.29019 137.449 0.214711 125.969 -3.29626C124.69 -3.68356 123.411 -4.09495 122.074 -4.48226C119.866 -5.20866 117.686 -5.88689 115.506 -6.56453C103.096 -10.4875 91.3838 -14.2159 81.6481 -15.1362C60.2284 -17.1944 51.5967 -10.7049 43.2555 -2.69092C30.2933 9.80317 29.3342 26.0498 28.2589 43.2414C28.0265 47.309 27.5028 52.1517 26.9512 57.2365C26.0499 65.2505 25.0908 74.3065 25.0908 81.8851C25.0908 90.0689 26.1952 95.4441 28.52 98.3497C38.2277 110.553 61.8266 109.076 71.4755 107.914L74.6146 107.647Z" fill="#FBF1D4" fill-opacity="0.4"/>
<path fill-rule="evenodd" clip-rule="evenodd" d="M50.2269 87.6257C40.5104 82.3601 39.23 71.9999 39.23 63.6044C39.23 60.6689 39.405 57.7569 39.6374 54.7727C40.5104 41.3302 41.2958 28.5922 49.6158 18.6199C58.6631 7.82247 75.6237 1.92628 94.9113 2.89655C111.668 3.72164 135.262 9.03544 146.578 21.2403C150.506 25.4863 152.542 30.8971 152.542 37.3269C152.542 50.2835 144.396 63.4104 137.472 70.7135C122.636 86.2911 103.552 88.0383 79.4348 90.1733C77.9514 90.1974 76.4673 90.2215 74.9545 90.2944C66.4602 90.4642 57.674 90.6587 50.2269 87.6257ZM79.4642 90.513C102.766 88.402 122.869 86.6067 137.793 70.8833C144.746 63.5803 152.862 50.381 152.862 37.3269C152.862 30.8242 150.855 25.3647 146.84 21.0217C135.465 8.74452 111.756 3.40606 94.9407 2.55686C75.5075 1.5866 58.4307 7.53098 49.354 18.45C40.9759 28.4706 40.1029 41.2332 39.23 54.7727C39.0557 57.7328 38.852 60.6689 38.852 63.6044C38.852 72.0728 40.1317 82.5547 50.0519 87.9166C57.5872 90.9984 66.4308 90.8039 74.9545 90.5859C76.4673 90.5618 77.9514 90.5371 79.4642 90.513Z" fill="#FBF1D4" fill-opacity="0.4"/>
<path fill-rule="evenodd" clip-rule="evenodd" d="M55.6473 59.3951C55.1845 57.104 54.9822 54.8846 54.9822 52.6898C54.9822 43.3791 59.0913 36.8667 62.5639 33.0315C68.6704 26.3504 79.1171 21.526 91.2426 19.7898C103.136 18.1011 114.684 19.8139 122.265 24.3967C129.182 28.5692 132.8 34.5033 132.8 41.4977C132.8 46.8287 130.629 52.6658 126.606 57.8275C115.899 71.5759 94.3393 73.8916 82.4455 74.0121C66.9047 74.2049 57.6154 69.1155 55.6473 59.3951ZM126.925 57.9721C131.005 52.7622 133.204 46.901 133.204 41.4977C133.204 34.3581 129.501 28.3764 122.468 24.1069C106.088 14.2178 75.1523 18.7042 62.2748 32.8628C58.744 36.7221 54.5768 43.2827 54.5768 52.6898C54.5768 54.8846 54.8086 57.1521 55.2714 59.4433C57.2968 69.3571 66.7024 74.5188 82.4455 74.3495C94.3967 74.2049 116.101 71.8892 126.925 57.9721Z" fill="#FBF1D4" fill-opacity="0.4"/>
<path fill-rule="evenodd" clip-rule="evenodd" d="M38.5847 151.769C35.6411 148.916 32.9006 145.604 30.627 142.92C29.6071 141.711 28.7328 140.671 27.9747 139.825C24.6224 136.053 21.0079 132.571 17.5683 129.211C10.8348 122.707 4.48024 116.542 1.41953 109.65C-0.0670801 106.242 -0.854103 102.663 -0.854103 98.6976C-0.854103 91.4685 1.65277 84.0695 4.10126 76.8887C5.50043 72.7546 6.92873 68.5476 7.86156 64.4129C9.02749 59.1181 9.63965 53.6775 9.63965 48.2133C9.63965 43.8612 9.26074 39.4127 8.47365 35.0365C5.90854 20.3115 -0.854098 5.29681 -12.7179 -12.2563C-15.2247 -15.9561 -18.1105 -19.5824 -20.8797 -23.0882C-23.7946 -26.691 -26.7387 -30.463 -29.3038 -34.2832C-30.3241 -35.8548 -31.082 -37.5228 -31.7233 -39.1426C-32.2771 -40.4485 -32.8018 -41.778 -33.5597 -43.0598C-34.2009 -44.22 -34.9588 -45.3567 -35.6584 -46.4204C-37.3199 -48.9594 -38.894 -51.3045 -39.5644 -54.2061C-40.0891 -56.527 -40.4097 -59.2594 -40.4097 -61.8466C-40.4097 -64.4091 -40.0891 -68.1329 -38.7774 -71.2761C-34.7839 -80.7297 -27.9046 -89.2647 -21.725 -96.3245C-20.2384 -98.0413 -18.6352 -99.7821 -17.032 -101.45C-15.1373 -103.53 -13.126 -105.633 -11.2895 -107.809C-9.68638 -109.744 -8.46206 -111.871 -7.29613 -113.926C-6.27587 -115.74 -5.22649 -117.65 -3.8565 -119.366C3.72234 -129.135 14.6825 -137.621 28.7034 -144.56C42.0826 -151.137 52.6345 -155.199 66.6851 -147.22C71.0279 -144.778 72.3104 -141.828 73.7972 -137.597C75.4296 -133.076 75.634 -128.264 75.9252 -123.646C76.1877 -118.206 76.5083 -112.621 78.9275 -107.471C80.1812 -104.763 82.1049 -102.418 83.9998 -100.266C84.4954 -99.637 85.0491 -99.081 85.5447 -98.525C87.6139 -96.2281 89.742 -93.8584 91.2869 -91.2953C93.5605 -87.4269 96.0385 -83.5585 98.4283 -79.8352C99.9445 -77.4414 101.576 -74.9753 103.092 -72.5092C106.649 -66.827 110.292 -61.0725 113.848 -55.5115C115.918 -52.296 117.988 -49.1287 119.999 -45.9127L120.028 -45.8644C120.174 -45.7434 120.378 -45.5741 120.582 -45.4536C130.901 -29.9793 147.283 -24.0315 163.46 -19.8968C164.655 -19.5824 165.851 -19.2685 167.017 -18.9782C178.327 -16.1735 188.995 -13.5141 194.884 -3.93938C197.827 0.7513 200.655 9.18933 203.22 21.1578C206.923 38.0104 208.059 53.8468 209.371 72.1739L209.458 73.4317C205.814 78.1464 200.538 80.9993 194.854 84.0214C192.143 85.4725 189.316 86.9712 186.722 88.712C181.3 92.3148 175.937 96.7874 170.311 101.502C164.306 106.435 158.185 111.585 151.801 115.768C135.128 126.793 114.315 134.385 94.2311 141.711C90.9369 142.92 87.5558 144.153 84.3204 145.338C80.5599 146.764 76.7708 148.408 73.0979 150.028C66.9182 152.688 61.1466 155.227 55.4913 156.677C48.8454 158.37 43.9482 156.991 38.5847 151.769ZM73.2435 150.27C76.9164 148.674 80.7056 147.03 84.466 145.652C87.7014 144.419 91.0831 143.21 94.3767 142.001C114.49 134.651 135.331 127.083 152.063 116.009C158.447 111.802 164.569 106.677 170.544 101.744C176.228 96.9808 181.533 92.5323 186.955 88.9536C189.52 87.2127 192.318 85.7381 195.058 84.2876C200.743 81.2408 206.135 78.3639 209.837 73.5762L209.866 73.528L209.75 72.1498C208.438 53.8227 207.301 37.9857 203.599 21.1096C200.976 9.11703 198.177 0.606137 195.263 -4.08452C189.258 -13.8038 178.531 -16.4392 167.133 -19.2685C165.967 -19.5824 164.772 -19.8968 163.577 -20.1631C147.458 -24.273 131.134 -30.2209 120.903 -45.647L120.815 -45.6952C120.64 -45.8163 120.495 -45.9367 120.32 -46.0819C118.279 -49.2492 116.239 -52.4411 114.198 -55.6566C110.671 -61.2418 106.969 -66.9963 103.442 -72.6784C101.897 -75.1445 100.294 -77.5624 98.7784 -79.9798C96.3591 -83.7036 93.8811 -87.5721 91.5781 -91.4164C90.0626 -94.0518 87.9058 -96.3968 85.8653 -98.6943C85.3403 -99.2743 84.816 -99.8544 84.291 -100.435C82.4255 -102.563 80.5018 -104.908 79.2775 -107.616C76.8583 -112.669 76.5958 -118.254 76.2752 -123.646C76.0421 -128.312 75.7502 -133.124 74.1759 -137.67C72.6604 -141.973 71.3198 -144.971 66.8888 -147.486C52.6345 -155.586 41.9951 -151.475 28.5284 -144.85C14.4201 -137.863 3.40167 -129.352 -4.17718 -119.56C-5.54716 -117.795 -6.62566 -115.885 -7.64592 -114.048C-8.81186 -111.992 -10.007 -109.889 -11.6102 -108.003C-13.4175 -105.802 -15.4288 -103.675 -17.3527 -101.619C-18.9267 -99.9514 -20.5299 -98.2588 -22.0748 -96.5179C-28.2544 -89.4093 -35.1046 -80.899 -39.1563 -71.3725C-40.4972 -68.2052 -40.7595 -64.4332 -40.7595 -61.8466C-40.7595 -59.2353 -40.468 -56.4788 -39.9142 -54.1573C-39.2438 -51.2081 -37.6697 -48.8143 -36.0082 -46.2753C-35.2795 -45.2115 -34.5507 -44.0995 -33.8511 -42.9387C-33.1807 -41.6575 -32.6269 -40.3275 -32.1022 -39.0703C-31.4026 -37.3776 -30.703 -35.7097 -29.6536 -34.1381C-27.0885 -30.2696 -24.0861 -26.5217 -21.2003 -22.9189C-18.402 -19.4131 -15.5162 -15.8109 -13.0385 -12.0871C-1.14558 5.41785 5.52963 20.4326 8.09474 35.0606C8.85263 39.4368 9.26074 43.8612 9.26074 48.2133C9.26074 53.6534 8.6777 59.0934 7.48258 64.3648C6.54982 68.4747 5.15064 72.6817 3.75147 76.7923C1.3321 83.9973 -1.17477 91.4203 -1.17477 98.6976C-1.17477 102.711 -0.475184 106.314 1.06973 109.747C4.13045 116.686 10.5142 122.876 17.3059 129.428C20.7455 132.789 24.3017 136.222 27.6828 139.994C28.4115 140.841 29.3152 141.904 30.3064 143.113C32.58 145.773 35.3786 149.109 38.2641 151.962C43.7738 157.282 48.7873 158.732 55.6376 156.991C61.2628 155.517 67.1219 153.002 73.2435 150.27Z" fill="#FBF1D4" fill-opacity="0.4"/>
<path fill-rule="evenodd" clip-rule="evenodd" d="M51.4115 128.269C36.3794 126.26 17.1813 115.364 12.4328 102.313C11.5006 99.6258 11.0053 96.8654 11.0053 93.7664C11.0053 88.1008 12.6367 82.4347 14.0933 77.4474C14.7634 75.1471 15.4042 72.9197 15.8413 70.8616C17.327 63.9125 17.997 56.3099 17.997 46.9154C17.997 41.7582 17.8222 36.5282 17.6183 31.4433C17.4143 26.335 17.2104 21.0321 17.2104 15.778C17.2104 7.37663 17.7639 0.427563 18.8709 -6.03723C19.1914 -7.58702 19.4536 -9.16091 19.7449 -10.6378C20.6771 -15.601 21.5802 -20.2986 21.5802 -24.9227C21.5802 -31.1453 19.8906 -36.3271 16.2782 -41.1452C12.8406 -45.7217 11.2967 -49.4019 10.8888 -53.9049C10.6557 -56.6172 10.3353 -59.4012 9.98569 -62.1135C9.40306 -66.8833 8.79132 -71.8465 8.79132 -76.6405V-76.8585C8.82044 -87.7058 13.5398 -114.098 27.3484 -121.724C31.9223 -124.267 37.1949 -124.533 42.9924 -122.523C50.7997 -119.811 55.5773 -111.482 57.2672 -105.187C57.5871 -103.977 57.9077 -102.742 58.2283 -101.507C60.5006 -92.7901 62.1316 -85.3086 63.2684 -78.6263C63.5597 -76.8826 63.7634 -75.1154 63.9384 -73.4445C64.4333 -69.0379 64.8995 -64.8734 67.1717 -60.5637C79.6692 -36.8114 112.968 -21.2183 138.749 -12.284C158.268 -5.52886 175.135 0.306502 183.059 16.2381C186.059 22.2915 187.865 31.0078 187.865 39.6272V39.6519C187.865 46.1161 186.846 52.1454 184.981 57.1086C181.224 66.9874 173.358 75.8735 164.21 86.236L163.773 86.6721C146.906 105.776 129.98 115.267 101.402 121.659L98.5759 122.264C88.9626 124.444 79.8736 126.477 69.5609 127.93C62.8022 128.923 57.0047 129.019 51.4115 128.269ZM98.6634 122.579L101.489 121.949C130.155 115.557 147.168 106.042 164.094 86.8414L164.531 86.4059C173.62 76.0669 181.544 67.1325 185.331 57.1814C187.254 52.2177 188.244 46.1408 188.244 39.6519V39.6272C188.244 30.9837 186.438 22.1945 183.408 16.1171C175.426 0.0643578 158.53 -5.8192 138.895 -12.5743C113.2 -21.4846 79.9611 -37.0536 67.5211 -60.6848C65.2782 -64.9462 64.812 -69.0866 64.3171 -73.4686C64.1421 -75.1395 63.9384 -76.9073 63.6471 -78.6745C62.511 -85.3574 60.8499 -92.8389 58.5776 -101.555C58.2864 -102.79 57.9658 -104.025 57.6165 -105.26C55.898 -111.627 51.0615 -120.077 43.1086 -122.838C37.2243 -124.896 31.8348 -124.581 27.1447 -122.015C13.1902 -114.315 8.4126 -87.754 8.38348 -76.8585V-76.6405C8.38348 -71.8224 8.99523 -66.8827 9.57785 -62.0888C9.92744 -59.3771 10.3062 -56.5925 10.5101 -53.8809C10.8888 -49.3049 12.4619 -45.5759 15.9286 -40.9513C19.5119 -36.2061 21.2306 -31.0971 21.2306 -24.9227C21.2306 -20.3227 20.3275 -15.6251 19.3662 -10.686C19.0749 -9.20909 18.7836 -7.63521 18.4922 -6.08542C17.3561 0.403472 16.8317 7.32786 16.8317 15.778C16.8317 21.0321 17.0356 26.335 17.2395 31.4433C17.4143 36.5282 17.6183 41.7582 17.6183 46.9154C17.6183 56.2858 16.9192 63.8637 15.4917 70.8128C15.0255 72.8468 14.3847 75.0501 13.7437 77.3745C12.2871 82.3865 10.6557 88.0762 10.6557 93.7664C10.6557 96.9141 11.0928 99.7228 12.0541 102.386C16.8317 115.557 36.2338 126.574 51.3534 128.608C57.0047 129.359 62.8309 129.238 69.619 128.269C79.9611 126.768 89.0501 124.734 98.6634 122.579Z" fill="#FBF1D4" fill-opacity="0.4"/>
<path fill-rule="evenodd" clip-rule="evenodd" d="M349.519 -234.82C351.264 -228.384 354.986 -222.214 358.65 -216.213C362.285 -210.212 366.066 -204.041 367.694 -197.653C371.968 -181.126 354.608 -175.004 339.224 -169.632C337.014 -168.834 334.92 -168.108 332.914 -167.382C324.859 -164.309 317.502 -160.825 311.046 -156.977C298.018 -149.258 287.608 -140.377 280.134 -130.529C273.243 -121.43 269.462 -113.76 268.299 -106.428C266.409 -94.547 270.829 -86.1021 275.918 -76.3507C277.023 -74.2455 278.186 -72.0433 279.262 -69.817C282.373 -63.3809 285.921 -56.0732 293.657 -51.0882C299.443 -47.3621 306.481 -44.5305 313.285 -41.8205L314.826 -41.1917C327.331 -36.1584 339.69 -32.4805 352.746 -28.5845C355.713 -27.6894 358.708 -26.8184 361.674 -25.9715C369.758 -23.6242 378.134 -21.2286 386.072 -18.2765C392.121 -16.0744 397.384 -12.7108 402.473 -9.4684C405.323 -7.65353 408.26 -5.79047 411.284 -4.16898C418.961 0.016789 425.65 6.5745 432.135 12.9142C434.49 15.2128 436.7 17.3909 438.939 19.4232C440.306 20.7056 441.731 22.0368 443.214 23.5125C450.019 30.0703 457.754 37.5232 467.554 39.4832C468.863 39.7494 470.142 39.9669 471.393 40.209C482.355 42.3142 491.865 44.1532 498.727 53.2757C505.213 61.9146 507.335 72.3918 509.167 81.6355C510.069 86.0152 510.737 90.443 511.435 94.7263C512.657 102.663 513.849 110.14 516.001 116.916C520.974 132.426 533.885 141.863 554.474 145.009C574.538 148.058 599.053 144.96 609.086 141.525C618.1 138.427 625.167 133.2 631.506 126.933V126.425C625.167 132.789 618.013 138.088 608.911 141.234C598.966 144.646 574.538 147.767 554.532 144.718C534.118 141.573 521.265 132.233 516.379 116.843C514.198 110.068 513.035 102.591 511.785 94.6781C511.145 90.3948 510.447 85.9669 509.575 81.5867C507.684 72.3195 505.591 61.8176 499.047 53.1065C492.069 43.8629 482.53 42.048 471.479 39.9187C470.229 39.6765 468.921 39.4103 467.641 39.1687C457.957 37.2328 450.309 29.8282 443.505 23.2951C442.022 21.8434 440.597 20.4641 439.201 19.2057C436.991 17.1729 434.752 15.0194 432.425 12.6962C425.912 6.35648 419.223 -0.224794 411.488 -4.4111C408.464 -6.0567 405.556 -7.91977 402.706 -9.71054C397.588 -12.953 392.295 -16.3406 386.247 -18.5669C378.308 -21.5431 369.904 -23.9386 361.79 -26.2859C358.854 -27.1328 355.829 -28.0039 352.863 -28.8749C339.835 -32.7708 327.506 -36.4729 314.972 -41.5061L313.431 -42.0868C306.626 -44.7967 299.647 -47.6283 293.86 -51.3786C286.241 -56.2907 282.723 -63.5502 279.64 -69.9381C278.506 -72.1885 277.372 -74.3666 276.267 -76.4718C271.178 -86.175 266.757 -94.5711 268.648 -106.404C269.84 -113.687 273.562 -121.31 280.454 -130.384C287.899 -140.16 298.251 -149.04 311.308 -156.735C317.706 -160.558 325.062 -164.018 333.088 -167.067C335.066 -167.817 337.16 -168.568 339.37 -169.342C346.786 -171.955 355.19 -174.883 361.034 -179.214C367.694 -184.199 370.02 -190.249 368.101 -197.75C366.444 -204.114 362.634 -210.332 358.97 -216.358C355.364 -222.335 351.584 -228.529 349.926 -234.893C347.105 -245.395 350.362 -255.001 353.794 -263.083H353.416C349.984 -254.977 346.756 -245.371 349.519 -234.82Z" fill="#FBF1D4" fill-opacity="0.4"/>
<path fill-rule="evenodd" clip-rule="evenodd" d="M492.286 -218.46C501.027 -210.952 509.304 -203.856 512.527 -194.58C517.086 -181.647 505.703 -171.886 494.639 -162.44C493.971 -161.859 493.274 -161.278 492.606 -160.697C487.03 -155.901 482.819 -150.162 478.754 -144.591C475.849 -140.619 472.801 -136.477 469.316 -132.772C466.673 -129.987 464.234 -127.032 461.882 -124.15C460.226 -122.212 458.6 -120.226 456.945 -118.337C454.186 -115.164 449.801 -112.985 445.561 -110.829C443.296 -109.666 440.886 -108.48 438.882 -107.123C433.277 -103.491 429.008 -98.3559 424.885 -93.3669C417.334 -84.2363 410.19 -75.6141 395.38 -74.9847C386.552 -74.6456 375.603 -76.2923 365.324 -79.5376C355.595 -82.6378 345.054 -88.4748 336.371 -95.5949C330.475 -100.439 327.717 -105.355 328.211 -110.199C329.082 -118.822 340.001 -126.184 349.439 -131.658C354.986 -134.879 360.329 -136.162 365.991 -137.471C369.302 -138.245 372.641 -139.069 376.243 -140.28C379.814 -141.515 383.329 -143.017 386.726 -144.397C392.099 -146.674 397.616 -148.974 403.54 -150.404C413.443 -152.826 427.789 -153.31 436.065 -149.556C444.08 -145.923 457.671 -147.643 464.786 -151.469C471.232 -154.957 475.356 -163.652 478.667 -170.651C479.422 -172.249 480.148 -173.703 480.786 -175.034C481.135 -175.64 481.454 -176.294 481.803 -176.875C482.994 -179.152 484.068 -181.065 484.591 -183.269C487.263 -194.119 481.019 -201.627 465.54 -206.132C449.278 -210.903 434.468 -207.61 423.839 -196.856C420.616 -193.611 418.147 -189.857 415.766 -186.248C414.692 -184.626 413.559 -182.906 412.397 -181.283C412.078 -180.847 411.817 -180.435 411.468 -179.999C408.099 -175.277 403.888 -169.416 399.01 -166.171C391.692 -161.327 383.793 -157.354 375.459 -154.351C371.19 -152.826 366.863 -151.614 362.217 -150.355C358.906 -149.435 355.508 -148.49 352.052 -147.4C344.153 -144.93 337.155 -141.151 332.683 -138.439C324.348 -133.329 313.139 -124.126 309.044 -114.995C302.627 -100.512 319.76 -81.0151 332.799 -71.4485C340.117 -66.0715 349.235 -62.5841 357.192 -59.8718C359.342 -59.1449 361.548 -58.4426 363.669 -57.692C375.575 -53.7439 386.842 -49.9902 397.238 -43.7417C400.578 -41.7312 404.15 -40.0844 407.606 -38.4617C410.074 -37.3234 412.688 -36.1368 415.156 -34.8045C421.458 -31.4381 425.175 -26.328 428.311 -21.2902C429.763 -18.9893 431.099 -16.5674 432.406 -14.2424C436.152 -7.53378 440.072 -0.607086 446.461 5.06073C450.556 8.64514 454.854 10.0739 459.297 9.29868C466.673 8.0639 472.22 1.23361 474.862 -4.74808C480.438 -17.1486 478.405 -31.535 476.605 -44.2019L476.402 -45.8245C476.256 -46.8418 476.14 -47.8345 475.995 -48.8277C475.327 -54.4221 474.688 -59.702 471.058 -65.006C470.477 -65.8535 469.897 -66.6775 469.345 -67.5249C463.857 -75.5412 459.094 -82.4685 456.654 -91.6714C455.115 -97.4356 455.26 -106.01 459.181 -111.241C461.126 -113.857 464.06 -114.97 467.196 -116.133C469.113 -116.86 471.087 -117.61 472.859 -118.701C479.741 -123.084 485.172 -129.042 490.457 -134.782C495.568 -140.401 500.911 -146.262 507.619 -150.646C511.627 -153.286 516.593 -155.466 521.355 -157.621C526.147 -159.752 531.084 -161.98 534.888 -164.499C542.612 -169.73 545.285 -176.827 542.409 -184.601C539.883 -191.31 533.029 -198.769 526.437 -205.963C525.421 -207.077 524.404 -208.142 523.446 -209.208C520.048 -212.962 516.477 -216.643 513.021 -220.18C503.525 -229.94 494.522 -239.143 489.469 -249.533C487.494 -253.651 486.042 -258.349 484.881 -263.387H484.474C485.665 -258.301 487.088 -253.554 489.15 -249.412C494.174 -238.998 503.234 -229.746 512.731 -219.962C516.186 -216.425 519.729 -212.793 523.127 -209.014C524.114 -207.949 525.102 -206.859 526.118 -205.817C532.71 -198.624 539.534 -191.189 542.032 -184.505C544.878 -176.875 542.264 -169.876 534.627 -164.765C530.881 -162.271 526.176 -160.14 521.21 -157.912C516.39 -155.756 511.395 -153.504 507.416 -150.888C500.65 -146.431 495.307 -140.619 490.137 -134.976C484.881 -129.236 479.48 -123.326 472.597 -118.967C470.913 -117.901 468.938 -117.15 467.051 -116.424C463.885 -115.213 460.895 -114.075 458.861 -111.435C454.854 -106.107 454.709 -97.4115 456.277 -91.5991C458.774 -82.3474 463.508 -75.3961 469.025 -67.3551C469.577 -66.5317 470.129 -65.6601 470.768 -64.8368C474.311 -59.605 474.92 -54.3739 475.618 -48.7789C475.763 -47.8104 475.908 -46.7931 475.995 -45.7757L476.256 -44.1772C478.028 -31.511 480.032 -17.1968 474.514 -4.84503C471.203 2.56592 465.192 8.01514 459.21 9.00833C454.912 9.73474 450.701 8.33014 446.752 4.81802C440.421 -0.776363 436.501 -7.70304 432.725 -14.3635C431.447 -16.7126 430.083 -19.1345 428.66 -21.4595C425.523 -26.4973 421.719 -31.6802 415.33 -35.0954C412.862 -36.3789 410.307 -37.5896 407.809 -38.7521C404.353 -40.3506 400.782 -42.0221 397.471 -44.0079C387.045 -50.3052 375.749 -54.0348 363.814 -58.0065C361.664 -58.7088 359.516 -59.4358 357.309 -60.1863C349.41 -62.8991 340.349 -66.3625 333.06 -71.6665C320.079 -81.1844 303.033 -100.536 309.422 -114.874C313.458 -123.956 324.639 -133.111 332.944 -138.173C337.387 -140.909 344.328 -144.664 352.197 -147.134C355.624 -148.224 359.051 -149.168 362.333 -150.065C366.979 -151.324 371.335 -152.511 375.575 -154.06C383.967 -157.064 391.896 -161.06 399.242 -165.904C404.179 -169.198 408.39 -175.083 411.817 -179.806C412.078 -180.266 412.397 -180.678 412.746 -181.138C413.907 -182.736 415.011 -184.48 416.114 -186.103C418.467 -189.712 420.906 -193.417 424.1 -196.662C434.642 -207.271 449.307 -210.54 465.425 -205.842C480.728 -201.385 486.856 -193.998 484.243 -183.317C483.69 -181.186 482.674 -179.249 481.454 -176.996C481.135 -176.415 480.786 -175.761 480.438 -175.155C479.77 -173.848 479.102 -172.346 478.347 -170.772C475.007 -163.797 470.942 -155.151 464.582 -151.735C457.554 -147.982 444.196 -146.262 436.268 -149.822C427.934 -153.576 413.414 -153.116 403.424 -150.694C397.5 -149.289 391.954 -146.94 386.552 -144.712C383.154 -143.283 379.64 -141.83 376.068 -140.595C372.525 -139.36 369.157 -138.56 365.875 -137.785C360.184 -136.453 354.84 -135.194 349.207 -131.924C339.74 -126.402 328.704 -118.967 327.833 -110.223C327.31 -105.283 330.098 -100.294 336.08 -95.3769C344.821 -88.2081 355.421 -82.3468 365.179 -79.2473C375.517 -75.9773 386.552 -74.3306 395.409 -74.6697C410.393 -75.2991 417.886 -84.3815 425.175 -93.173C429.299 -98.1379 433.567 -103.273 439.114 -106.906C441.089 -108.214 443.354 -109.352 445.765 -110.563C450.004 -112.718 454.389 -114.946 457.235 -118.119C458.92 -120.057 460.575 -122.067 462.172 -123.98C464.553 -126.814 467.022 -129.769 469.606 -132.554C473.12 -136.283 476.14 -140.425 479.044 -144.421C483.139 -149.992 487.321 -155.708 492.896 -160.455C493.564 -161.084 494.203 -161.617 494.929 -162.222C506.023 -171.717 517.522 -181.574 512.905 -194.677C509.652 -204.001 501.347 -211.146 492.577 -218.702C484.242 -225.847 475.588 -233.258 470.565 -243.236C467.37 -249.63 465.511 -256.581 463.857 -263.387H463.45C465.105 -256.533 466.993 -249.558 470.245 -243.115C475.269 -233.088 483.923 -225.677 492.286 -218.46Z" fill="#FBF1D4" fill-opacity="0.4"/>
<path fill-rule="evenodd" clip-rule="evenodd" d="M379.787 -229.815C381.095 -224.686 384.206 -219.435 387.49 -213.895C392.926 -204.676 398.565 -195.168 395.281 -186.409C389.38 -170.659 369.265 -164.61 351.533 -159.263C347.9 -158.15 344.499 -157.133 341.214 -156.021C333.917 -153.601 327.116 -150.529 321.127 -146.924C311.768 -141.334 305.983 -134.463 299.879 -127.18C298.978 -126.067 298.019 -124.979 297.088 -123.841C291.624 -117.43 286.216 -109.615 287.787 -100.59C288.281 -97.7596 290.083 -94.8075 291.856 -91.977C292.989 -90.1863 294.007 -88.4684 294.734 -86.8233C295.286 -85.5891 295.838 -84.3314 296.42 -83.0731C300.577 -73.3951 304.966 -63.4027 314.354 -56.5311C317.058 -54.5716 320.575 -52.8779 323.918 -51.2328C325.72 -50.3859 327.348 -49.5872 328.947 -48.765C335.226 -45.3292 342.144 -42.4017 349.527 -39.958C357.55 -37.3691 366.154 -35.8205 374.497 -34.3688C383.508 -32.7479 392.839 -31.1023 401.298 -28.1025C409.99 -25.0053 416.239 -16.8277 421.704 -9.59349C423.215 -7.63345 424.64 -5.77039 426.064 -4.12534C430.162 0.786228 435.133 5.06891 439.959 9.15768C443.127 11.8436 446.412 14.6499 449.405 17.6021C456.324 24.4249 468.155 27.4734 480.276 25.6103C501.496 22.2956 505.014 15.424 507.978 0.544647C510.216 -10.803 509.693 -24.0132 506.379 -39.7887C504.461 -48.8855 497.398 -57.5473 490.625 -65.8947C488.125 -68.9431 485.77 -71.7983 483.764 -74.6047C475.247 -86.315 477.05 -100.252 488.503 -111.793C489.956 -113.292 491.409 -114.768 492.805 -116.269C501.263 -125.051 509.228 -133.374 521.931 -137.777C527.454 -139.737 533.355 -141.02 539.081 -142.278C544.691 -143.488 550.476 -144.721 555.97 -146.633C564.196 -149.464 573.295 -155.005 579.748 -161.126C585.329 -166.4 591.346 -174.385 588.527 -182.466C585.881 -189.99 575.62 -194.394 564.778 -199.088C557.889 -202.088 550.796 -205.185 544.895 -209.273C537.192 -214.596 530.244 -221.71 525.681 -226.597L525.186 -227.105C515.42 -237.582 506.176 -247.453 503.037 -260.567C502.804 -261.389 502.659 -262.236 502.514 -263.083H502.106C502.281 -262.212 502.456 -261.365 502.659 -260.47C505.798 -247.308 515.071 -237.388 524.867 -226.936L525.361 -226.379C529.925 -221.492 536.93 -214.379 544.633 -209.032C550.563 -204.918 557.714 -201.846 564.603 -198.821C575.387 -194.151 585.561 -189.748 588.149 -182.369C590.968 -174.457 585.009 -166.57 579.486 -161.343C573.149 -155.343 563.876 -149.658 555.824 -146.924C550.36 -145.036 544.575 -143.778 539.023 -142.593C533.268 -141.334 527.338 -140.052 521.785 -138.092C508.995 -133.616 500.624 -124.882 492.514 -116.414C491.119 -114.986 489.665 -113.462 488.212 -112.01C476.642 -100.3 474.869 -86.2668 483.415 -74.4354C485.479 -71.6049 487.805 -68.7498 490.276 -65.7495C497.078 -57.378 504.083 -48.765 506.001 -39.74C509.344 -23.9891 509.868 -10.8271 507.572 0.49588C504.664 15.2065 501.177 22.0052 480.189 25.2959C468.213 27.1589 456.528 24.1104 449.697 17.4081C446.673 14.4566 443.388 11.6255 440.22 8.91556C435.424 4.82678 430.424 0.592868 426.355 -4.29462C424.96 -5.93964 423.535 -7.8268 422.023 -9.76274C416.529 -17.0211 410.28 -25.2474 401.472 -28.3929C392.955 -31.4173 383.595 -33.0623 374.584 -34.6832C366.242 -36.159 357.666 -37.6594 349.702 -40.2724C342.347 -42.6921 335.429 -45.6195 329.151 -49.0065C327.581 -49.8775 325.895 -50.6762 324.122 -51.5231C320.779 -53.1441 317.32 -54.8379 314.616 -56.7973C305.285 -63.6202 300.954 -73.5644 296.768 -83.1701C296.187 -84.4278 295.635 -85.6861 295.111 -86.9685C294.356 -88.6376 293.222 -90.3796 292.176 -92.0975C290.431 -94.9286 288.629 -97.856 288.164 -100.638C286.624 -109.566 291.972 -117.285 297.408 -123.672C298.367 -124.809 299.239 -125.874 300.169 -126.987C306.303 -134.269 312.029 -141.116 321.331 -146.657C327.319 -150.262 334.092 -153.287 341.388 -155.73C344.615 -156.819 348.044 -157.835 351.678 -158.948C369.497 -164.319 389.7 -170.392 395.659 -186.337C398.972 -195.192 393.304 -204.797 387.81 -214.04C384.526 -219.581 381.473 -224.807 380.165 -229.863C378.305 -237.049 377.578 -250.308 377.956 -263.083H377.549C377.229 -250.284 377.956 -237.001 379.787 -229.815Z" fill="#FBF1D4" fill-opacity="0.4"/>
<path fill-rule="evenodd" clip-rule="evenodd" d="M-133.23 233.078C-127.873 232.546 -117.973 231.844 -111.305 233.392C-100.328 235.932 -90.894 243.311 -81.7222 250.423C-68.8526 260.487 -55.5171 270.865 -37.6976 267.696C-28.0891 265.954 -22.1201 261.672 -19.4122 254.463C-17.0538 248.222 -17.374 240.553 -17.9273 231.892C-18.9755 216.12 -15.86 205.403 -13.0065 199.21C-10.0948 192.92 -5.31973 187.163 -0.66098 181.526C5.56995 174.026 11.4807 166.914 12.7909 158.883C13.2859 155.665 13.1695 153.004 12.3542 149.98C10.3743 142.481 5.80292 136.82 0.969528 130.797C-7.1832 120.612 -15.6562 110.065 -10.7354 89.5984C-9.68719 85.123 -8.05669 80.648 -6.397 75.9304C-1.01044 60.8595 4.49268 45.2554 -6.60085 27.8377C-16.1512 12.065 -33.6212 2.14667 -50.5381 -7.4091C-58.4288 -11.8846 -66.6106 -16.5047 -73.7734 -21.6091C-82.916 -28.1651 -95.4654 -37.0679 -91.1269 -48.0024C-89.4091 -52.4051 -88.5647 -56.9287 -87.7495 -61.3314C-86.41 -68.2988 -85.0415 -75.4837 -80.15 -81.9427C-76.6559 -86.5875 -71.6769 -90.1679 -66.8436 -93.6754C-64.6015 -95.2964 -62.2431 -97.0137 -60.0885 -98.7798C-55.3424 -102.699 -49.752 -105.868 -44.3362 -108.94C-39.7358 -111.553 -35.0188 -114.238 -30.7678 -117.407C-26.2547 -121.665 -22.2948 -125.391 -17.5779 -129.745C-11.8128 -134.995 -4.97035 -139.785 1.63924 -144.405C14.3341 -153.307 26.3012 -161.654 30.1739 -172.612C32.9397 -180.329 32.5609 -188.312 29.0384 -198.497C27.1455 -203.916 23.4769 -211.101 20.6816 -216.157C15.0912 -226.414 7.40431 -237.977 0.212448 -247.025C-5.40709 -254.089 -13.3268 -259.459 -22.7898 -262.749H-23.7798C-13.9966 -259.532 -5.84384 -254.065 -0.136948 -246.88C7.05492 -237.808 14.7418 -226.269 20.3322 -216.011C23.0983 -210.98 26.7962 -203.843 28.6884 -198.424C32.1829 -188.264 32.5322 -180.353 29.8532 -172.685C26.0099 -161.847 14.0721 -153.501 1.40627 -144.647C-5.20325 -140.026 -12.0748 -135.236 -17.84 -129.938C-22.586 -125.584 -26.575 -121.883 -31.059 -117.625C-35.2518 -114.48 -39.9978 -111.819 -44.5692 -109.182C-49.9849 -106.11 -55.5753 -102.917 -60.3505 -99.0219C-62.5052 -97.2076 -64.8345 -95.5385 -67.1056 -93.9176C-71.9681 -90.4095 -76.9471 -86.805 -80.4702 -82.112C-85.391 -75.6048 -86.7595 -68.3711 -88.0697 -61.3801C-88.9432 -56.9769 -89.7876 -52.4532 -91.4764 -48.1229C-95.9021 -36.9709 -83.2654 -27.9476 -74.0354 -21.3916C-66.8145 -16.2631 -58.6617 -11.6425 -50.771 -7.16696C-33.8542 2.4129 -16.3841 12.2831 -6.95023 27.9588C4.11412 45.2801 -1.41806 60.8348 -6.74644 75.8581C-8.4352 80.5752 -10.0366 85.0507 -11.114 89.5503C-16.0347 110.113 -7.56171 120.709 0.678375 130.966C5.48267 136.941 9.99575 142.602 11.9757 150.077C12.7909 153.028 12.9074 155.665 12.3833 158.834C11.1313 166.769 5.24969 173.881 -1.01044 181.356C-5.64 186.969 -10.4734 192.799 -13.3851 199.113C-16.2094 205.33 -19.3831 216.071 -18.3349 231.916C-17.3449 246.722 -16.1803 263.559 -37.7849 267.405C-55.4006 270.526 -68.6779 260.196 -81.5184 250.205C-90.6902 243.045 -100.153 235.642 -111.217 233.102C-117.565 231.602 -126.708 232.086 -133.288 232.739C-143.828 233.828 -154.66 236.416 -166.103 239.15C-167.326 239.44 -168.548 239.706 -169.801 240.02V240.36C-168.52 240.045 -167.267 239.731 -165.986 239.44C-154.544 236.706 -143.77 234.118 -133.23 233.078Z" fill="#FBF1D4" fill-opacity="0.4"/>
<path fill-rule="evenodd" clip-rule="evenodd" d="M580.286 244.085C570.664 241.62 564.85 237.463 556.128 230.89C554.732 229.875 553.367 228.739 551.854 227.53C546.04 222.866 539.441 217.549 532.551 216.389C518.829 214.021 510.747 221.078 504.73 228.328C501.764 231.905 499.409 235.916 497.142 239.808C494.176 244.834 491.124 250.054 486.647 254.356C481.879 258.924 475.106 262.863 466.442 266.101C462.605 267.575 458.448 268.203 454.436 268.856C450.511 269.485 446.47 270.113 442.749 271.491C425.713 277.822 406.467 286.063 392.979 299.573C387.106 305.445 377.861 312.864 366.843 314.822C359.605 316.08 353.267 314.314 348.208 312.888L347.278 312.647C335.824 309.433 308.438 299.862 301.548 279.804C300.298 276.203 299.397 271.78 298.409 267.14C297.217 261.292 295.938 255.226 293.961 250.828C290.908 243.94 286.664 239.034 281.867 233.814L281.199 233.064C276.605 228.086 270.878 221.875 271.634 213.779C272.332 206.771 276.721 198.747 283.757 191.835C290.85 184.827 299.455 180.139 307.363 178.955C312.479 178.181 316.607 177.843 320.561 177.505C324.021 177.19 327.248 176.973 330.823 176.417C348.703 173.831 362.977 166.702 373.181 155.198C381.466 145.87 387.28 133.424 390.45 118.175C394.578 98.4054 386.816 81.5856 383.298 75.3262C377.657 65.3212 364.139 54.5909 351.9 45.3347C339.72 36.1513 332.51 31.2695 313.177 30.1822C306.956 29.8437 300.967 30.2545 295.095 30.6654C292.827 30.8105 290.502 31.0039 288.175 31.1003C286.49 31.1726 284.774 31.2936 282.942 31.4388C277.07 31.8978 270.994 32.3087 264.744 31.4388C251.865 29.578 246.167 23.391 247.446 12.4673C249.016 -1.76707 260.383 -14.213 276.372 -19.2399C289.077 -23.2271 302.363 -20.0133 313.119 -17.4514L314.863 -17.0406C332.597 -12.8112 346.435 -7.05963 357.162 0.529202C363.209 4.85494 368.907 9.59152 374.431 14.2076C376.437 15.9473 378.559 17.6876 380.652 19.3791C383.56 21.7959 386.263 24.4542 388.851 27.0643C392.077 30.2786 395.507 33.6381 399.374 36.4898C404.869 40.5252 411.09 43.5221 416.41 45.9629C433.911 53.8656 449.348 59.3757 463.477 62.8074C476.268 65.9007 486.414 74.4317 490.659 85.6457C496.095 100.122 495.456 120.833 488.799 147.223C485.485 160.152 476.588 167.886 462.227 170.085C445.889 172.623 437.749 181.83 429.144 191.522C426.934 194.035 424.637 196.597 422.224 199.11C412.05 209.405 402.427 204.282 392.223 198.844C387.658 196.403 382.978 193.914 378.181 192.85C370.681 191.135 362.773 193.334 355.098 195.461C351.086 196.573 347.336 197.612 343.615 198.143C325.94 200.633 311.985 203.146 306.229 210.614C303.177 214.625 302.741 219.773 304.979 226.395C305.299 227.458 305.735 228.618 306.171 229.875C307.101 232.436 308.118 235.337 308.729 237.705C309.863 241.838 310.532 246.139 311.171 250.682C311.927 255.54 312.654 260.519 314.049 266.005C316.113 274.342 320.939 281.689 327.975 287.199C334.893 292.637 343.615 296.069 353.238 297.204C357.337 297.688 360.854 297.832 364.692 296.89C375.884 294.135 383.763 285.701 390.711 278.257C392.31 276.541 393.822 274.898 395.391 273.351L395.624 273.085C402.805 265.884 411.7 256.918 423.94 257.256C436.557 257.618 445.685 256.265 454.552 252.785C468.448 247.324 476.908 239.59 483.682 226.153C484.147 225.138 484.67 224.147 485.165 223.132C487.461 218.492 489.816 213.755 492.811 209.333C495.252 205.708 498.334 203.291 501.561 200.729C503.363 199.303 505.195 197.853 506.968 196.186C509.062 194.18 511.852 192.246 514.817 190.241C522.376 185.166 530.923 179.414 528.859 170.52C527.813 165.977 524.033 161.482 520.08 156.721C516.591 152.564 512.986 148.262 510.661 143.429C506.823 135.236 505.892 123.709 504.904 111.48C504.323 104.061 503.683 96.3754 502.375 89.3672C499.351 73.4167 492.607 62.6141 481.792 56.3788C478.623 54.518 475.019 53.2856 471.53 52.15C468.797 51.2555 466.006 50.3134 463.448 49.105C461.5 48.2104 459.989 46.7846 458.506 45.407C457.692 44.6582 456.819 43.8606 455.889 43.1841C454.174 41.9029 452.401 40.6704 450.627 39.462C448.709 38.1572 446.674 36.7796 444.784 35.3055C441.79 33.058 439.086 30.472 436.382 28.007C433.882 25.7108 431.295 23.3187 428.504 21.1435C426.236 19.355 423.765 17.9291 421.381 16.5274C418.648 14.957 415.916 13.3618 413.387 11.1866C409.026 7.56147 404.287 3.76705 399.025 0.721989C394.49 -1.88757 390.071 -3.04775 385.42 -4.32843C383.966 -4.69106 382.484 -5.10188 380.972 -5.56091C377.571 -6.52773 374.373 -8.2921 371.262 -10.0077C369.402 -11.0227 367.541 -12.0378 365.652 -12.8835C358.529 -16.1219 351.406 -18.8772 344.487 -21.1247C342.511 -21.7289 340.534 -22.2849 338.615 -22.8891C337.772 -23.1307 336.987 -23.3722 336.173 -23.6138C332.48 -24.7258 328.73 -25.9101 325.096 -27.0697C314.544 -30.3563 303.671 -33.8128 293.758 -35.5766C287.42 -36.7127 280.646 -37.7036 273.989 -36.4952C251.08 -32.3869 227.183 -13.9473 222.823 2.97007C220.846 10.7999 220.962 20.6603 223.23 30.7377C227.009 47.4617 236.719 53.6482 257.912 52.8024C262.854 52.6091 267.855 52.2223 272.68 51.8838C283.117 51.0863 293.001 50.3134 302.537 51.2555C308.032 51.7633 312.945 53.2856 316.113 54.3734C323.236 56.8384 335.417 62.4448 348.615 69.4536C361.61 76.3653 371.059 85.621 374.605 94.9254C381.321 112.568 374.663 136.179 359.052 149.93C351.232 156.818 337.859 164.14 318.73 160.056C317.567 159.814 316.404 159.404 315.154 158.969C313.671 158.389 312.102 157.857 310.415 157.543C305.967 155.416 302.013 152.757 298.147 150.147C289.426 144.299 281.227 138.789 269.483 140.892C267.302 141.278 265.006 142.075 262.535 142.922C257.476 144.661 252.301 146.426 249.191 144.348C243.754 140.722 238.085 135.768 232.068 130.499C221.689 121.413 210.904 111.987 200.786 109.329C190.67 106.623 180.581 112.157 176.308 114.525C171.686 117.062 166.918 119.987 161.802 123.056C157.906 125.449 153.836 127.914 149.795 130.258C146.422 132.191 143.196 134.076 139.969 135.937C132.556 140.239 125.55 144.299 118.078 148.48C115.084 150.123 111.886 151.791 108.804 153.41C103.63 156.117 98.3386 158.92 93.8323 161.723C83.9483 167.862 79.8782 174.773 81.7382 182.338C83.5703 189.854 90.547 197.998 96.914 205.055C97.7568 206.022 98.6291 206.964 99.5014 207.907C111.392 221.078 124.852 236.037 139.824 239.976C152.557 243.312 158.487 237.149 164.767 230.624C165.436 229.923 166.133 229.222 166.831 228.521C171.134 224.196 175.582 220.86 179.332 218.202C184.477 214.553 190.641 211.338 196.6 208.221C200.786 206.022 204.828 203.943 208.084 201.865C219.363 194.712 224.335 185.431 229.19 176.49C233.899 167.693 238.725 158.63 249.539 151.767C249.946 151.767 250.296 151.742 250.702 151.742C251.836 151.718 252.97 151.67 254.016 151.936C264.656 160.08 267.273 170.206 262.215 182.894C260.645 186.76 258.174 190.579 255.499 194.639C249.598 203.702 243.522 213.079 247.476 223.857C250.266 231.615 256.865 237.004 263.232 242.224C269.541 247.372 276.024 252.664 279.28 260.374C281.111 264.869 281.663 269.533 282.274 276.058C283.786 292.54 286.053 300.491 296.374 307.258C310.037 316.178 334.138 327.172 344.11 330.557C348.092 331.882 351.058 332.703 353.238 333.093C370.623 335.968 384.199 327.097 394.142 319.075C396.496 317.119 398.706 314.991 400.799 312.937C402.717 311.076 404.666 309.167 406.729 307.402C411.061 303.826 416.178 300.95 421.149 298.171C423.678 296.745 426.266 295.319 428.737 293.796C446.47 282.728 461.966 279.393 478.943 282.946C491.124 285.556 506.532 291.452 510.719 305.01C512.259 310.013 513.044 315.378 513.8 321.055C514.556 326.299 515.312 331.785 516.765 337.127C518.045 341.792 519.702 346.215 521.359 350.467C523.568 356.44 525.719 362.092 526.592 367.916C528.249 378.141 525.661 387.201 523.248 395.974C521.067 403.708 519.033 411.081 520.196 418.328H520.574C519.382 411.104 521.446 403.783 523.597 396.048C526.068 387.252 528.597 378.164 526.97 367.87C526.068 361.994 523.946 356.366 521.679 350.37C520.08 346.141 518.422 341.694 517.143 337.029C515.69 331.693 514.934 326.276 514.207 321.032C513.393 315.329 512.666 309.964 511.096 304.962C507.724 294.087 496.648 286.377 479.059 282.68C461.936 279.055 446.383 282.414 428.475 293.531C426.033 295.029 423.446 296.479 420.975 297.905C415.974 300.708 410.799 303.585 406.497 307.209C404.374 308.973 402.427 310.882 400.537 312.72C398.415 314.774 396.235 316.901 393.85 318.835C384.024 326.81 370.535 335.629 353.296 332.754C351.144 332.393 348.208 331.572 344.254 330.241C334.312 326.908 310.241 315.931 296.635 307.016C286.432 300.346 284.105 292.395 282.623 276.034C282.012 269.485 281.489 264.82 279.57 260.253C276.372 252.495 269.802 247.154 263.523 241.982C256.865 236.569 250.586 231.47 247.824 223.785C243.958 213.103 250.005 203.774 255.848 194.784C258.494 190.7 261.023 186.881 262.563 183.015C267.709 170.158 265.006 159.935 254.278 151.646L254.191 151.621C253.028 151.356 251.836 151.38 250.702 151.453H249.481H249.423L249.365 151.501C238.463 158.389 233.55 167.524 228.812 176.344C224.044 185.262 219.044 194.518 207.851 201.599C204.595 203.654 200.583 205.756 196.368 207.955C190.408 211.073 184.274 214.311 179.07 217.96C175.32 220.619 170.872 223.954 166.54 228.328C165.813 229.029 165.174 229.73 164.476 230.43C158.255 236.859 152.383 242.949 139.94 239.662C125.084 235.748 111.682 220.86 99.8213 207.738C98.949 206.771 98.0768 205.804 97.2045 204.862C90.8382 197.853 83.9189 189.733 82.0876 182.289C80.2849 174.87 84.2675 168.031 94.036 161.965C98.5416 159.137 103.862 156.383 109.007 153.676C112.089 152.057 115.258 150.413 118.252 148.746C125.753 144.589 132.759 140.505 140.202 136.203C143.4 134.342 146.684 132.457 150.028 130.499C154.068 128.18 158.138 125.739 162.034 123.322C167.122 120.229 171.918 117.304 176.512 114.767C180.785 112.447 190.728 106.961 200.67 109.619C210.729 112.278 221.398 121.679 231.806 130.741C237.823 135.985 243.492 140.964 248.958 144.613C252.243 146.788 257.534 144.976 262.68 143.187C265.122 142.366 267.447 141.568 269.541 141.206C281.111 139.103 289.251 144.613 297.886 150.413C301.781 152.999 305.793 155.706 310.241 157.833L310.328 157.857C311.985 158.147 313.526 158.702 315.008 159.258C316.288 159.693 317.451 160.128 318.614 160.37C333.731 163.584 348.179 159.959 359.314 150.099C375.012 136.324 381.699 112.568 374.983 94.805C371.349 85.4764 361.843 76.1238 348.848 69.2361C335.591 62.2033 323.41 56.524 316.259 54.1072C313.061 52.9958 308.118 51.473 302.595 50.9416C293.002 50.023 283.117 50.7724 272.652 51.5459C267.826 51.9326 262.825 52.2946 257.912 52.488C247.184 52.9229 239.655 51.5459 234.335 48.2105C228.957 44.7787 225.526 39.2204 223.607 30.6895C221.34 20.6362 221.195 10.824 223.23 3.04237C227.533 -13.778 251.313 -32.0966 274.076 -36.1808C280.646 -37.3651 287.362 -36.3741 293.67 -35.2868C303.584 -33.4983 314.427 -30.0665 324.922 -26.7558C328.585 -25.6197 332.335 -24.4355 336.027 -23.324C336.842 -23.0825 337.655 -22.8409 338.499 -22.5747C340.417 -22.0434 342.394 -21.4145 344.371 -20.8103C351.261 -18.5875 358.354 -15.8563 365.448 -12.6179C367.337 -11.7721 369.198 -10.733 371.059 -9.74206C374.169 -8.05055 377.396 -6.23797 380.856 -5.24705C382.367 -4.81212 383.879 -4.40131 385.303 -4.01458C389.926 -2.78209 394.345 -1.5978 398.793 0.940029C404.055 4.00919 408.794 7.80303 413.096 11.4282C415.626 13.5793 418.445 15.1985 421.12 16.7936C423.533 18.1466 425.974 19.5965 428.271 21.3609C431.004 23.512 433.62 25.9288 436.092 28.2245C438.795 30.7136 441.557 33.2514 444.552 35.5712C446.441 36.997 448.447 38.3988 450.395 39.7282C452.139 40.912 453.913 42.1444 455.628 43.4016C456.529 44.1022 457.401 44.8756 458.244 45.625C459.756 47.0262 461.268 48.4038 463.303 49.3465C465.861 50.6272 468.652 51.5458 471.355 52.4398C474.844 53.6 478.449 54.8084 481.589 56.6209C492.345 62.8074 498.973 73.5137 501.997 89.4154C503.334 96.3995 503.945 104.061 504.555 111.504C505.544 123.757 506.445 135.309 510.341 143.55C512.637 148.408 516.242 152.757 519.73 156.914C523.713 161.627 527.464 166.074 528.481 170.569C530.487 179.268 522.056 184.972 514.585 190.023C511.62 192.053 508.77 193.938 506.677 195.968C504.904 197.636 503.101 199.11 501.27 200.487C498.014 203.098 494.932 205.49 492.461 209.164C489.467 213.61 487.083 218.419 484.815 223.011C484.321 224.026 483.827 225.017 483.333 226.032C476.618 239.397 468.245 247.081 454.407 252.495C445.598 255.951 436.498 257.28 423.94 256.918C411.555 256.603 402.572 265.642 395.333 272.892L395.101 273.158C393.531 274.704 391.99 276.324 390.42 278.04C383.152 285.821 375.623 293.869 364.576 296.6C360.825 297.494 357.337 297.373 353.296 296.89C333.556 294.618 318.614 282.752 314.398 265.932C313.032 260.47 312.305 255.468 311.578 250.658C310.88 246.115 310.212 241.789 309.107 237.632C308.468 235.264 307.45 232.364 306.549 229.778C306.083 228.545 305.677 227.385 305.328 226.298C303.147 219.773 303.554 214.698 306.578 210.759C312.16 203.387 326.114 200.922 343.673 198.433C347.424 197.926 351.232 196.862 355.244 195.751C362.86 193.648 370.709 191.449 378.065 193.117C382.832 194.204 387.484 196.693 392.019 199.11C402.369 204.596 412.136 209.816 422.457 199.279C424.928 196.79 427.225 194.228 429.434 191.715C437.981 182.048 446.093 172.913 462.314 170.4C476.792 168.128 485.833 160.37 489.118 147.272C495.863 120.857 496.473 100.073 491.037 85.5728C486.734 74.2383 476.53 65.611 463.623 62.5177C449.465 59.11 434.115 53.6 416.585 45.6732C411.294 43.2564 405.13 40.2355 399.636 36.2477C395.769 33.4448 392.397 30.0853 389.141 26.8228C386.524 24.2367 383.85 21.5784 380.943 19.1616C378.821 17.4701 376.698 15.7057 374.693 13.9901C369.169 9.37406 363.442 4.58871 357.395 0.287067C346.638 -7.32529 332.742 -13.1015 314.95 -17.3062L313.177 -17.7411C302.449 -20.3272 289.077 -23.5174 276.227 -19.5055C260.151 -14.4545 248.697 -1.93633 247.04 12.4432C245.789 23.5361 251.545 29.8919 264.715 31.7286C270.965 32.6472 277.07 32.1876 282.972 31.7527C284.803 31.6322 286.518 31.5111 288.205 31.4147C290.56 31.2696 292.856 31.1244 295.123 30.9792C300.967 30.5684 306.985 30.1335 313.148 30.472C332.335 31.5834 339.545 36.4169 351.639 45.5521C363.849 54.8084 377.367 65.4899 382.92 75.4226C386.438 81.682 394.2 98.4301 390.071 118.126C383.036 151.936 363.093 171.415 330.765 176.127C327.219 176.635 323.963 176.925 320.533 177.166C316.549 177.529 312.45 177.867 307.276 178.64C299.281 179.849 290.618 184.562 283.437 191.618C276.402 198.603 271.954 206.65 271.256 213.755C270.5 221.972 276.227 228.232 280.879 233.258L281.577 233.983C286.373 239.227 290.588 244.109 293.641 250.924C295.559 255.299 296.81 261.365 298.06 267.213C299.019 271.853 299.95 276.275 301.17 279.852C308.148 300.056 335.649 309.723 347.132 312.961L348.092 313.179C353.209 314.653 359.546 316.419 366.931 315.112C378.065 313.155 387.397 305.687 393.269 299.766C406.671 286.329 425.858 278.04 442.923 271.78C446.587 270.427 450.598 269.774 454.494 269.17C458.535 268.518 462.721 267.866 466.617 266.391C475.309 263.152 482.141 259.165 486.938 254.573C491.444 250.272 494.496 245.003 497.432 239.952C499.729 236.061 502.084 232.049 505.05 228.497C511.009 221.368 518.974 214.359 532.493 216.704C539.267 217.864 545.807 223.108 551.593 227.772C553.075 228.98 554.5 230.092 555.896 231.156C564.588 237.729 570.431 241.886 580.17 244.375C587.438 246.212 600.433 246.357 609.794 244.665C617.295 243.336 624.533 241.668 631.511 240V239.662C624.504 241.354 617.266 242.997 609.707 244.375C600.404 246.018 587.496 245.898 580.286 244.085Z" fill="#FBF1D4" fill-opacity="0.4"/>
</g>
<defs>
<clipPath id="clip0_1_2">
<rect width="354" height="68" fill="white"/>
</clipPath>
</defs>
</svg>
