<svg width="92" height="92" viewBox="0 0 92 92" fill="none" xmlns="http://www.w3.org/2000/svg">
<circle cx="45.7" cy="45.7005" r="45.7005" fill="#FFF9E7"/>
<path d="M38.3887 68.3816L33.7578 64.9498L34.2333 59.1198L45.2524 62.3242C45.5005 62.4069 45.7692 62.3449 45.976 62.2002C46.1827 62.0348 46.3067 61.8074 46.3067 61.5386V58.7477C46.3067 58.4582 46.162 58.1895 45.9139 58.0448L34.2126 50.7883C34.316 41.9813 31.7732 40.6375 31.2563 40.4721C31.0909 40.4101 30.8842 40.4101 30.7188 40.4721C30.202 40.6582 27.6591 41.9813 27.7625 50.7883L21.7671 54.5096C20.5887 51.5326 19.9892 48.4108 19.9892 45.1857C19.9892 31.3964 31.0289 20.1292 44.7355 19.7571L42.5441 22.0726C42.234 22.4033 42.2547 22.9202 42.5855 23.251C42.7509 23.3957 42.9576 23.4784 43.1437 23.4784C43.3711 23.4784 43.5778 23.3957 43.7432 23.2096L47.2577 19.4884C47.4024 19.323 47.4851 19.1162 47.4851 18.8888C47.4851 18.6614 47.3818 18.4547 47.2164 18.31L43.7019 15.2089C43.3504 14.8988 42.8336 14.9402 42.5441 15.2916C42.234 15.6431 42.2754 16.1599 42.6268 16.4493L44.5288 18.1239C29.9952 18.6201 18.3559 30.5694 18.3559 45.1857C18.3559 48.7209 19.0175 52.1528 20.3406 55.3985L16.0818 58.0448C15.8338 58.1895 15.689 58.4582 15.689 58.7477V61.5386C15.689 61.8074 15.8131 62.0348 16.0198 62.2002C16.2266 62.3656 16.4953 62.4069 16.7434 62.3242L23.0902 60.4842C24.3513 62.3242 25.8398 63.9988 27.5144 65.4873L23.6277 68.3609C23.4003 68.5263 23.2763 68.7951 23.2969 69.0638L23.4003 71.462C23.421 71.7307 23.545 71.9581 23.7518 72.1029C23.9585 72.2476 24.2479 72.2889 24.4753 72.2062L31.0082 69.9941L37.5411 72.2062C37.6238 72.2269 37.7272 72.2476 37.8099 72.2476C37.9753 72.2476 38.1406 72.2062 38.2854 72.1029C38.4921 71.9581 38.6368 71.71 38.6368 71.462L38.7402 69.0638C38.7402 68.7951 38.6161 68.547 38.3887 68.3816ZM24.7648 60.0088L27.7625 59.1405L28.1553 63.8541C26.8942 62.6757 25.7571 61.3939 24.7648 60.0088ZM37.0243 70.3042L31.277 68.3609C31.1943 68.3402 31.1116 68.3196 31.0082 68.3196C30.9255 68.3196 30.8222 68.3402 30.7395 68.3609L24.9922 70.3042L24.9508 69.4566L29.3337 66.2109L29.5817 66.0248C29.8092 65.8594 29.9332 65.57 29.9125 65.3012L29.3337 57.9827C29.313 57.7346 29.1889 57.5072 28.9822 57.3625C28.7755 57.2178 28.5274 57.1765 28.2793 57.2592L17.3429 60.4429V59.2025L29.0442 51.946C29.2923 51.8013 29.437 51.5119 29.437 51.2224C29.313 45.1651 30.4294 43.015 31.0082 42.3121C31.5871 43.015 32.7035 45.1651 32.5794 51.2224C32.5794 51.5119 32.7241 51.7806 32.9722 51.946L44.6735 59.2025V60.4429L33.7372 57.2592C33.4891 57.1971 33.241 57.2385 33.0342 57.3625C32.8275 57.5072 32.7035 57.7346 32.6828 57.9827L32.0833 65.2805C32.0626 65.57 32.1866 65.8387 32.414 66.0041L37.0656 69.4359L37.0243 70.3042Z" fill="#385D7D" stroke="#385D7D" stroke-width="0.25"/>
<path d="M76.1802 28.1713C75.9735 28.0059 75.7047 27.9646 75.4566 28.0473L67.9934 30.1973C66.8357 28.4607 65.4712 26.8482 63.9621 25.4217V25.401L68.593 21.9692C68.8204 21.8038 68.9444 21.535 68.9237 21.2663L68.8204 18.8888C68.7997 18.6201 68.6757 18.3926 68.4689 18.2479C68.2622 18.1032 67.9727 18.0619 67.7453 18.1446L61.2125 20.3566L54.6796 18.1446C54.4315 18.0619 54.1627 18.1032 53.956 18.2479C53.7493 18.3926 53.6045 18.6407 53.6045 18.8888L53.5012 21.287C53.4805 21.5557 53.6252 21.8245 53.832 21.9899L58.4629 25.4217L57.9874 31.2517L46.927 28.0266C46.6789 27.9439 46.4101 28.0059 46.2034 28.1506C45.9966 28.316 45.8726 28.5434 45.8726 28.8122V31.6031C45.8726 31.8926 46.0173 32.1613 46.2654 32.306L57.9667 39.5625C57.8633 48.3695 60.4062 49.7133 60.923 49.8786C61.0057 49.8993 61.1091 49.92 61.1918 49.92C61.2745 49.92 61.3778 49.8993 61.4605 49.8786C61.9774 49.6926 64.5202 48.3695 64.4169 39.5625L69.3372 36.5235C70.3502 39.2937 70.8464 42.2087 70.8464 45.1857C70.8464 58.8924 59.9514 70.0768 46.3894 70.5937L48.2501 68.9604C48.6015 68.6503 48.6222 68.1335 48.3328 67.8027C48.0227 67.4513 47.5058 67.4306 47.175 67.72L43.6605 70.8211C43.4951 70.9658 43.3918 71.1725 43.3918 71.3999C43.3918 71.6273 43.4538 71.8341 43.6192 71.9995L47.1337 75.7207C47.2991 75.8861 47.5058 75.9895 47.7332 75.9895C47.94 75.9895 48.1467 75.9068 48.2914 75.7621C48.6222 75.452 48.6429 74.9351 48.3328 74.5837L46.1 72.2682C60.7163 71.9168 72.521 59.9054 72.521 45.1857C72.521 41.8986 71.9421 38.6735 70.7844 35.6345L76.1182 32.3267C76.3663 32.182 76.511 31.9132 76.511 31.6238V28.8329C76.511 28.5641 76.3869 28.316 76.1802 28.1713ZM66.3189 30.6935L64.4169 31.2517L64.1481 28.0059C64.9544 28.8535 65.6573 29.7425 66.3189 30.6935ZM74.8571 31.169L63.1558 38.4254C62.9077 38.5701 62.763 38.8596 62.763 39.149C62.887 45.2064 61.7706 47.3565 61.1918 48.0594C60.6129 47.3565 59.4965 45.2064 59.6206 39.149C59.6206 38.8596 59.4759 38.5908 59.2278 38.4254L47.5265 31.169V29.9286L58.4629 33.1123C58.7109 33.1743 58.959 33.133 59.1658 33.0089C59.3725 32.8642 59.4965 32.6368 59.5172 32.3887L60.1168 25.0909C60.1374 24.8015 60.0134 24.5327 59.786 24.3673L55.1344 20.9355L55.1757 20.0672L60.923 22.0105C61.0884 22.0726 61.2745 22.0726 61.4605 22.0105L67.2078 20.0672L67.2492 20.9355L62.5976 24.3673C62.3702 24.5327 62.2461 24.8222 62.2668 25.0909L62.8663 32.3887C62.887 32.6368 63.0111 32.8642 63.2178 33.0089C63.4245 33.1536 63.6726 33.195 63.9207 33.1123L67.8694 31.9546L74.8571 29.9079V31.169Z" fill="#385D7D" stroke="#385D7D" stroke-width="0.25"/>
</svg>
