<svg width="24" height="24" viewBox="0 0 24 24" fill="none" xmlns="http://www.w3.org/2000/svg">
<g id="icon-like">
<path id="Vector" d="M5.25197 21.0683C5.75124 21.0852 6.24644 21.1646 6.72598 21.3046C10.5055 22.3817 10.7134 22.5046 11.715 22.5046H16.3543C17.7647 22.5116 19.127 21.9928 20.1753 21.0493C21.2236 20.1058 21.8826 18.8055 22.0236 17.4022L22.3071 12.5833C22.3581 11.5999 22.0655 10.6294 21.4794 9.83807C20.8932 9.04678 20.0501 8.48403 19.0945 8.2463C18.074 7.99118 16.6472 7.99118 16.6472 6.56441V3.35181C16.6472 2.78797 16.4233 2.24722 16.0246 1.84852C15.6259 1.44982 15.0851 1.22583 14.5213 1.22583C13.9574 1.22583 13.4167 1.44982 13.018 1.84852C12.6193 2.24722 12.3953 2.78797 12.3953 3.35181C12.3953 3.4463 13.0189 11.903 5.30866 11.903L5.25197 21.0683Z" stroke="#9E513F" stroke-width="1.5" stroke-linecap="round" stroke-linejoin="round"/>
<path id="Vector_2" d="M1 9.72974H5.25197V22.4856H1V9.72974Z" stroke="#9E513F" stroke-width="1.5" stroke-linecap="round" stroke-linejoin="round"/>
</g>
</svg>
