<svg width="92" height="93" viewBox="0 0 92 93" fill="none" xmlns="http://www.w3.org/2000/svg">
<circle cx="45.7" cy="46.694" r="45.7005" fill="#FFF9E7"/>
<path d="M38.3246 36.0659C38.547 36.0659 38.7416 35.8713 38.7416 35.6489V34.7314H45.275C45.4974 34.7314 45.692 34.5368 45.692 34.3144C45.692 34.092 45.4974 33.8974 45.275 33.8974H38.5192C38.4636 33.8696 38.408 33.8418 38.3246 33.8418C38.1022 33.8418 37.9076 34.0364 37.9076 34.2588V35.6489C37.9076 35.8713 38.0744 36.0659 38.3246 36.0659Z" fill="#385D7D" stroke="#385D7D" stroke-width="0.5"/>
<path d="M46.3871 55.7772H37.7408C37.5184 55.7772 37.3238 55.9718 37.3238 56.1942C37.3238 56.4167 37.5184 56.6113 37.7408 56.6113H46.3871C46.6095 56.6113 46.8041 56.4167 46.8041 56.1942C46.8041 55.9718 46.6095 55.7772 46.3871 55.7772Z" fill="#385D7D" stroke="#385D7D" stroke-width="0.5"/>
<path d="M78.4979 20.8585C77.6082 20.8585 76.8298 21.3311 76.3849 22.054C75.8845 21.9706 75.3841 21.8594 74.8281 21.7204C72.7151 21.2199 70.5466 20.7195 69.1009 21.8872C68.1001 22.6934 67.5997 24.1669 67.5997 26.391V57.6122C67.5997 59.7251 65.876 61.4488 63.763 61.4488H62.512C62.5954 61.2542 62.651 61.0595 62.651 60.8093V51.6626C62.651 50.8564 62.0115 50.2169 61.2331 50.2169H56.1176C56.2566 49.9667 56.34 49.6887 56.34 49.4107V40.6254C56.34 39.708 55.5894 38.9851 54.6997 38.9851H52.6424C53.8657 36.483 53.8379 33.5638 52.5034 31.0895C52.3366 30.7837 51.9474 30.5613 51.586 30.5613H48.8058H47.1377C47.1377 30.5335 47.1099 30.4779 47.1099 30.4222C47.0821 30.2554 47.0543 30.0886 47.0265 30.033C47.0265 30.0052 47.0265 30.0052 47.0265 29.9774C46.4427 26.9749 43.9683 25.6404 41.772 25.6404C39.6591 25.6404 37.1848 26.7802 36.5175 29.9774C36.5175 30.0052 36.5175 30.0052 36.5175 30.033C36.5175 30.0886 36.4897 30.2554 36.4619 30.4222C36.4619 30.4779 36.4341 30.5335 36.4341 30.5613H34.766H31.9859C31.6245 30.5613 31.2352 30.7837 31.0684 31.0895C29.734 33.5638 29.6784 36.483 30.9294 38.9851H29.3725C28.4551 38.9851 27.7323 39.7358 27.7323 40.6254V49.3551C27.7323 49.6609 27.8157 49.9389 27.9547 50.1613H22.8392C22.0607 50.1613 21.4213 50.8008 21.4213 51.607V60.7537C21.4213 60.9761 21.4769 61.1986 21.5603 61.3932H16.417C16.1946 61.3932 16 61.5878 16 61.8102C16 62.0326 16.1946 62.2272 16.417 62.2272H21.1989C20.1702 62.9501 19.503 64.1177 19.503 65.4522C19.503 67.6207 21.2545 69.4 23.4508 69.4C25.6193 69.4 27.3986 67.6485 27.3986 65.4522C27.3986 64.1177 26.7314 62.9501 25.7027 62.2272H60.0098C58.9812 62.9501 58.3139 64.1177 58.3139 65.4522C58.3139 67.6207 60.0654 69.4 62.2618 69.4C64.4303 69.4 66.2096 67.6485 66.2096 65.4522C66.2096 64.0899 65.5145 62.8944 64.4581 62.1716C66.71 61.8658 68.4615 59.9197 68.4615 57.5565V26.3632C68.4615 24.4171 68.8507 23.166 69.657 22.5266C70.7968 21.6092 72.7707 22.0818 74.6891 22.5266C75.1617 22.6378 75.6343 22.749 76.1069 22.8324C76.0791 22.9992 76.0513 23.166 76.0513 23.3329C76.0513 24.6951 77.1634 25.8072 78.5257 25.8072C79.8879 25.8072 81 24.6951 81 23.3329C81 21.9706 79.8601 20.8585 78.4979 20.8585ZM54.7275 39.7914C55.1724 39.7914 55.5338 40.1528 55.5338 40.5976V41.6541C54.6163 41.4039 53.8935 40.681 53.6155 39.7914H54.7275ZM51.6138 31.3675C51.6694 31.3675 51.7528 31.4231 51.7806 31.4509C53.0317 33.7584 53.0317 36.5386 51.7806 38.8461C51.7528 38.8739 51.6694 38.9295 51.6138 38.9295H49.4174C50.2793 36.5108 50.2793 33.7584 49.4174 31.3397H51.6138V31.3675ZM37.3516 30.1164C38.0466 26.7246 40.9102 26.4744 41.772 26.4744C43.6347 26.4744 45.7198 27.5865 46.1925 30.1164C46.1925 30.172 46.2203 30.2832 46.2759 30.5613H37.296C37.3238 30.2832 37.3516 30.172 37.3516 30.1164ZM35.0719 31.3675H48.5278C49.4731 33.7584 49.4731 36.5664 48.5278 38.9573H35.0719C34.0988 36.5664 34.0988 33.7862 35.0719 31.3675ZM31.7913 31.4787C31.8191 31.4509 31.9025 31.3953 31.9581 31.3953H34.1544C33.2926 33.814 33.2926 36.5664 34.1544 38.9851H31.9581C31.9025 38.9851 31.8191 38.9295 31.7913 38.9017C30.5402 36.5664 30.5402 33.7862 31.7913 31.4787ZM28.5663 40.6254C28.5663 40.1806 28.9277 39.8192 29.3725 39.8192H30.4846C30.2066 40.7366 29.4837 41.4317 28.5663 41.6819V40.6254ZM28.5663 42.5159C29.9564 42.2379 31.0406 41.1536 31.3465 39.7914H31.9859H34.7938H48.8058H51.6138H52.7814C53.0873 41.1814 54.1715 42.2379 55.5616 42.5159V44.5454H28.5663V42.5159ZM45.553 45.4073V46.6583C45.553 47.2144 45.1082 47.6592 44.58 47.6592H39.5479C39.0197 47.6592 38.5749 47.2144 38.5749 46.6583V45.4073H45.553ZM28.5663 45.4073H37.7408V46.6583C37.7408 47.687 38.547 48.4932 39.5479 48.4932H44.58C45.5808 48.4932 46.3871 47.6592 46.3871 46.6583V45.4073H55.5616V47.4646C54.1715 47.7426 53.0873 48.8269 52.7814 50.1891H31.3465C31.0406 48.7991 29.9564 47.7426 28.5663 47.4646V45.4073ZM55.5338 48.2986V49.3551C55.5338 49.7999 55.1724 50.1613 54.7275 50.1613H53.6155C53.8935 49.2717 54.6163 48.5489 55.5338 48.2986ZM28.5663 48.2986C29.4837 48.5489 30.2066 49.2717 30.4846 50.1613H29.3725C28.9277 50.1613 28.5663 49.7999 28.5663 49.3551V48.2986ZM22.2553 51.607C22.2553 51.2734 22.5056 50.9954 22.8392 50.9954H61.2887C61.5945 50.9954 61.8725 51.2734 61.8725 51.607V53.2751H56.7849V52.9693C56.7849 52.6079 56.4512 52.3021 56.062 52.3021H52.8926C52.5034 52.3021 52.1698 52.6079 52.1698 52.9693V53.2751H31.9303V52.9693C31.9303 52.6079 31.5967 52.3021 31.2074 52.3021H28.0381C27.6488 52.3021 27.3152 52.6079 27.3152 52.9693V53.2751H22.2553V51.607ZM55.923 53.1639V56.0831H52.976V53.1639H55.923ZM31.0962 53.1639V56.0831H28.1771V53.1639H31.0962ZM26.5646 65.4522C26.5646 67.1481 25.1745 68.566 23.4508 68.566C21.7271 68.566 20.337 67.1759 20.337 65.4522C20.337 63.7285 21.7271 62.3384 23.4508 62.3384C25.1745 62.3384 26.5646 63.7563 26.5646 65.4522ZM22.8392 61.3932C22.5334 61.3932 22.2553 61.1151 22.2553 60.7815V54.137H27.343V56.2777C27.343 56.6391 27.6766 56.9449 28.0659 56.9449H31.2352C31.6245 56.9449 31.9581 56.6391 31.9581 56.2777V54.137H52.1698V56.2777C52.1698 56.6391 52.5034 56.9449 52.8926 56.9449H56.062C56.4512 56.9449 56.7849 56.6391 56.7849 56.2777V54.137H61.8725V60.7815C61.8725 61.1151 61.6223 61.3932 61.2887 61.3932H22.8392ZM65.3755 65.4522C65.3755 67.1481 63.9855 68.566 62.2618 68.566C60.5381 68.566 59.148 67.1759 59.148 65.4522C59.148 63.7285 60.5381 62.3384 62.2618 62.3384C63.9577 62.3662 65.3755 63.7563 65.3755 65.4522ZM78.4979 24.9453C77.6082 24.9453 76.8576 24.2225 76.8576 23.3051C76.8576 22.4154 77.5804 21.6648 78.4979 21.6648C79.3875 21.6648 80.1382 22.3876 80.1382 23.3051C80.1104 24.2225 79.3875 24.9453 78.4979 24.9453Z" fill="#385D7D" stroke="#385D7D" stroke-width="0.5"/>
</svg>
