<svg width="22" height="21" viewBox="0 0 22 21" fill="none" xmlns="http://www.w3.org/2000/svg">
<g id="icon-share">
<path id="Vector" d="M1.19684 9.5643C1.19684 10.504 1.57015 11.4053 2.23465 12.0698C2.89915 12.7343 3.8004 13.1076 4.74014 13.1076C5.67989 13.1076 6.58114 12.7343 7.24564 12.0698C7.91014 11.4053 8.28345 10.504 8.28345 9.5643C8.28345 8.62456 7.91014 7.72331 7.24564 7.05881C6.58114 6.39431 5.67989 6.021 4.74014 6.021C3.8004 6.021 2.89915 6.39431 2.23465 7.05881C1.57015 7.72331 1.19684 8.62456 1.19684 9.5643Z" stroke="#9E513F" stroke-width="1.5" stroke-linecap="round" stroke-linejoin="round"/>
<path id="Vector_2" d="M13.9527 4.60361C13.9527 5.54335 14.3261 6.44461 14.9906 7.1091C15.6551 7.7736 16.5563 8.14691 17.496 8.14691C18.4358 8.14691 19.337 7.7736 20.0015 7.1091C20.666 6.44461 21.0394 5.54335 21.0394 4.60361C21.0394 3.66387 20.666 2.76261 20.0015 2.09811C19.337 1.43361 18.4358 1.0603 17.496 1.0603C16.5563 1.0603 15.6551 1.43361 14.9906 2.09811C14.3261 2.76261 13.9527 3.66387 13.9527 4.60361Z" stroke="#9E513F" stroke-width="1.5" stroke-linecap="round" stroke-linejoin="round"/>
<path id="Vector_3" d="M13.9527 15.942C13.9527 16.8817 14.3261 17.783 14.9906 18.4475C15.6551 19.112 16.5563 19.4853 17.496 19.4853C18.4358 19.4853 19.337 19.112 20.0015 18.4475C20.666 17.783 21.0394 16.8817 21.0394 15.942C21.0394 15.0022 20.666 14.101 20.0015 13.4365C19.337 12.772 18.4358 12.3987 17.496 12.3987C16.5563 12.3987 15.6551 12.772 14.9906 13.4365C14.3261 14.101 13.9527 15.0022 13.9527 15.942Z" stroke="#9E513F" stroke-width="1.5" stroke-linecap="round" stroke-linejoin="round"/>
<path id="Vector_4" d="M8.04345 8.28017L14.1927 5.88867" stroke="#9E513F" stroke-width="1.5" stroke-linecap="round" stroke-linejoin="round"/>
<path id="Vector_5" d="M7.91022 11.1497L14.326 14.3575" stroke="#9E513F" stroke-width="1.5" stroke-linecap="round" stroke-linejoin="round"/>
</g>
</svg>
