<svg width="23" height="19" viewBox="0 0 23 19" fill="none" xmlns="http://www.w3.org/2000/svg">
<path d="M22.5 0C21.6225 0.520875 19.8619 1.23075 18.8269 1.4355C18.7965 1.44337 18.7717 1.4535 18.7425 1.46137C17.8279 0.559125 16.5746 0 15.1875 0C12.3919 0 10.125 2.26687 10.125 5.0625C10.125 5.20987 10.1126 5.481 10.125 5.625C6.35288 5.625 3.48188 3.6495 1.42313 1.125C1.19925 1.6875 1.10138 2.57625 1.10138 3.411C1.10138 4.98712 2.33325 6.53513 4.25137 7.49475C3.89812 7.58588 3.50887 7.65112 3.10387 7.65112C2.45025 7.65112 1.75838 7.479 1.125 6.957C1.125 6.97612 1.125 6.99413 1.125 7.01438C1.125 9.21712 3.46275 10.7167 5.54175 11.1341C5.11987 11.3827 4.26938 11.4075 3.85425 11.4075C3.56175 11.4075 2.52675 11.2736 2.25 11.2219C2.82825 13.0275 4.914 14.0422 6.90188 14.0782C5.34713 15.2977 4.26825 15.75 1.0845 15.75H0C2.0115 17.0392 4.57312 18.0011 7.14038 18.0011C15.4991 18.0011 20.25 11.6302 20.25 5.625C20.25 5.52825 20.2478 5.32575 20.2444 5.12213C20.2444 5.10187 20.25 5.08275 20.25 5.0625C20.25 5.03212 20.241 5.00287 20.241 4.9725C20.2376 4.8195 20.2342 4.67663 20.2309 4.60238C21.1196 3.96113 21.8902 3.16125 22.5 2.25C21.6844 2.61225 20.8091 2.85525 19.89 2.9655C20.8283 2.403 22.1614 1.062 22.5 0Z" fill="#385D7D"/>
</svg>
