<svg width="24" height="24" viewBox="0 0 24 24" fill="none" xmlns="http://www.w3.org/2000/svg">
<path d="M11.6614 17.2884C11.6614 18.792 12.2587 20.234 13.3219 21.2972C14.3851 22.3604 15.8271 22.9577 17.3307 22.9577C18.8343 22.9577 20.2763 22.3604 21.3395 21.2972C22.4027 20.234 23 18.792 23 17.2884C23 15.7848 22.4027 14.3428 21.3395 13.2796C20.2763 12.2164 18.8343 11.6191 17.3307 11.6191C15.8271 11.6191 14.3851 12.2164 13.3219 13.2796C12.2587 14.3428 11.6614 15.7848 11.6614 17.2884Z" stroke="#9E513F" stroke-width="1.5" stroke-linecap="round" stroke-linejoin="round"/>
<path d="M17.3307 14.4541V20.1234" stroke="#9E513F" stroke-width="1.5" stroke-linecap="round" stroke-linejoin="round"/>
<path d="M14.4961 17.2886H20.1654" stroke="#9E513F" stroke-width="1.5" stroke-linecap="round" stroke-linejoin="round"/>
<path d="M1.74017 17.2886C1.74089 16.2342 2.00289 15.1964 2.50275 14.268C3.0026 13.3396 3.72473 12.5495 4.60457 11.9685C5.48441 11.3874 6.49454 11.0334 7.54462 10.9382C8.59471 10.843 9.65204 11.0094 10.6221 11.4227" stroke="#9E513F" stroke-width="1.5" stroke-linecap="round" stroke-linejoin="round"/>
<path d="M4.22049 5.59563C4.22049 6.62935 4.63113 7.62073 5.36208 8.35168C6.09303 9.08263 7.08441 9.49327 8.11813 9.49327C9.15184 9.49327 10.1432 9.08263 10.8742 8.35168C11.6051 7.62073 12.0158 6.62935 12.0158 5.59563C12.0158 4.56192 11.6051 3.57054 10.8742 2.83959C10.1432 2.10864 9.15184 1.698 8.11813 1.698C7.08441 1.698 6.09303 2.10864 5.36208 2.83959C4.63113 3.57054 4.22049 4.56192 4.22049 5.59563Z" stroke="#9E513F" stroke-width="1.5" stroke-linecap="round" stroke-linejoin="round"/>
</svg>
