<svg width="138" height="741" viewBox="0 0 138 741" fill="none" xmlns="http://www.w3.org/2000/svg">
<g opacity="0.5">
<path d="M13.6166 0.999995C14.1454 15.9586 15.5808 18.0739 24.4955 18.0739L124.673 18.0739C133.663 18.0739 135.023 15.9586 135.552 1L135.929 1L135.929 47.4623C135.929 75.4152 124.295 92.8669 103.595 92.8669C84.4054 92.8668 68.6158 78.0594 68.6158 44.1381L68.6158 28.6507L24.1178 28.6507C15.5053 28.6507 14.2965 29.8595 13.7677 46.9334L13.3899 46.9334L13.3899 0.999995L13.6166 0.999995ZM69.2202 44.667C69.2202 73.5265 82.97 81.2324 103.141 81.2324C121.953 81.2324 135.174 73.8287 135.174 47.3112L135.174 28.6507L69.2202 28.6507L69.2202 44.667Z" fill="white" stroke="white" stroke-width="0.6" stroke-miterlimit="10"/>
<path d="M11.1992 134.116C11.1992 112.282 27.5932 98.3812 51.1643 98.3812C74.8865 98.3812 94.8313 115.077 94.8313 134.947C94.8313 154.287 80.5526 167.281 59.6257 166.299L59.6257 108.958C57.3593 108.807 54.7151 108.58 52.222 108.58C27.971 108.58 15.6566 120.517 15.6566 138.12C15.6566 151.341 22.5315 159.953 32.7305 164.864L32.5794 165.393C19.8117 159.802 11.1992 149.074 11.1992 134.116ZM60.6079 109.109L60.6079 156.78C78.3618 156.78 93.8492 150.812 93.8492 134.947C93.8492 121.272 80.326 111.224 60.6079 109.109Z" fill="white" stroke="white" stroke-width="0.6" stroke-miterlimit="10"/>
<path d="M13.3143 178.009L13.6164 178.009C14.523 190.474 14.8252 192.967 20.6424 192.967L84.7075 192.967C90.147 192.967 90.9025 192.816 92.2623 177.329L92.6401 177.329L93.8489 202.109L75.0373 202.109C86.9739 209.286 94.7554 219.56 94.7554 228.173C94.7554 234.141 90.5247 237.163 86.5207 237.163C82.6677 237.163 79.1169 234.519 79.1169 230.515C79.1169 226.435 81.9122 223.867 85.463 223.867C88.2583 223.867 91.1291 225.604 92.3379 228.777C93.7733 221.751 87.4272 210.268 73.2997 202.184L20.718 202.184C14.9008 202.184 14.523 204.828 13.692 218.88L13.3143 218.88L13.3143 178.009Z" fill="white" stroke="white" stroke-width="0.6" stroke-miterlimit="10"/>
<path d="M6.66617 327.822C3.94643 327.444 1.83108 324.12 1.83108 320.645C1.83108 314.45 10.8213 310.748 17.6962 303.797C24.7222 315.205 38.0943 322.458 54.3372 322.458C78.4372 322.458 95.8889 306.442 95.8889 284.608C95.8889 262.623 78.135 246.607 53.8084 246.607C37.1878 246.607 23.8157 254.086 17.0163 265.872C14.6743 263.228 11.879 260.886 8.93263 258.695L8.63044 259.148C12.0301 261.566 14.6743 263.983 16.7897 266.325C13.9188 271.538 12.3323 277.582 12.3323 284.23C12.3323 288.688 13.0878 292.918 14.4477 296.847C8.17716 302.286 1.00004 308.028 1.00004 318.076C1.00004 324.195 3.11541 327.217 6.81728 328.577C6.66618 328.653 6.81727 327.897 6.66617 327.822ZM54.1106 256.882C82.9701 256.882 94.9067 268.516 94.9067 283.777C94.9067 299.264 82.7434 312.259 53.7329 312.259C36.7345 312.259 25.6288 308.255 19.4339 301.833C22.3047 298.358 24.5712 294.203 25.1 288.688L25.2511 284.23C24.7978 278.337 22.6069 273.125 19.2072 268.592C25.4022 261.566 36.6589 256.882 54.1106 256.882ZM13.0878 285.363C13.0878 279.32 14.901 273.729 18.8295 269.045C22.6069 274.333 23.5135 279.169 23.5135 282.795C23.5135 288.159 19.8116 292.087 15.3542 295.94C13.8433 292.843 13.0878 289.216 13.0878 285.363Z" fill="white" stroke="white" stroke-width="0.6" stroke-miterlimit="10"/>
<path d="M18.272 362.787L7.69525 356.819L7.69525 356.441L45.8472 356.441L45.8472 357.348C13.9658 367.925 9.05511 384.092 9.05511 396.557C9.05511 417.107 22.2761 427.91 38.9723 427.91C59.2192 427.91 64.6587 409.778 69.796 392.931C75.2355 375.706 80.5239 358.481 101.3 358.481C121.849 358.481 135.976 375.933 135.976 396.482C135.976 404.414 134.239 414.991 128.573 422.017L136.656 428.892L136.656 429.27L103.566 429.27L103.566 428.59C130.99 417.862 135.221 406.454 135.221 395.877C135.221 377.897 122.907 366.867 107.57 366.867C91.4029 366.867 86.1145 377.444 79.0885 400.637C73.8001 418.24 67.8318 436.371 45.4694 436.371C22.0494 436.371 8.37515 419.449 8.37515 396.633C8.37515 386.207 10.8683 373.515 18.272 362.787Z" fill="white" stroke="white" stroke-width="0.6" stroke-miterlimit="10"/>
<path d="M50.3044 452.01C74.5554 452.01 92.3848 468.026 92.3848 490.011C92.3848 511.844 74.9331 527.86 50.8332 527.86C26.5822 527.86 8.75274 511.693 8.75274 489.709C8.75274 467.799 26.2044 452.01 50.3044 452.01ZM50.3044 517.586C79.315 517.586 91.4783 504.592 91.4783 489.104C91.4783 473.768 79.5416 462.209 50.6821 462.209C21.6715 462.209 9.65933 475.203 9.65933 490.691C9.65933 506.178 21.4449 517.586 50.3044 517.586Z" fill="white" stroke="white" stroke-width="0.6" stroke-miterlimit="10"/>
<path d="M11.2459 534.584C11.9258 547.05 12.8324 549.543 20.0095 549.543L128.195 549.543C133.332 549.543 134.541 548.485 135.901 535.793L136.278 535.793L136.958 558.684L20.0095 558.684C12.8324 558.684 11.9258 561.178 11.2459 573.643L10.8681 573.643L10.8681 534.584L11.2459 534.584Z" fill="white" stroke="white" stroke-width="0.6" stroke-miterlimit="10"/>
<path d="M8.75274 617.462C8.75274 595.628 25.1468 581.727 48.7179 581.727C72.4401 581.727 92.3848 598.424 92.3848 618.293C92.3848 637.633 78.1062 650.703 57.1793 649.645L57.1793 592.304C54.9128 592.153 52.2686 591.926 49.7755 591.926C25.5245 591.926 13.2101 603.863 13.2101 621.466C13.2101 634.687 20.085 643.299 30.284 648.21L30.133 648.739C17.3653 643.148 8.75274 632.42 8.75274 617.462ZM58.1614 592.455L58.1614 640.126C75.9153 640.126 91.4027 634.158 91.4027 618.293C91.4783 604.619 77.8795 594.571 58.1614 592.455Z" fill="white" stroke="white" stroke-width="0.6" stroke-miterlimit="10"/>
<path d="M11.2459 700.941C11.9258 713.407 12.8324 715.9 20.0095 715.9L128.195 715.9C133.332 715.9 134.541 714.842 135.901 702.15L136.278 702.15L136.958 725.041L20.0095 725.041C12.8324 725.041 11.9258 727.534 11.2459 740L10.8681 740L10.8681 700.941L11.2459 700.941Z" fill="white" stroke="white" stroke-width="0.6" stroke-miterlimit="10"/>
<path d="M20.0101 684.246L91.4033 684.246L90.1945 660.146L89.8168 660.146C88.3814 674.953 87.7014 675.104 82.262 675.104L20.0101 675.104C12.833 675.104 11.9264 672.611 11.2465 660.146L10.8687 660.146L10.8687 699.204L11.2465 699.204C11.9264 686.663 12.833 684.246 20.0101 684.246Z" fill="white" stroke="white" stroke-width="0.6" stroke-miterlimit="10"/>
<path d="M111.802 671.629C110.14 673.895 109.913 677.144 111.802 680.015C108.931 678.655 106.211 675.557 104.247 671.1C104.7 675.482 107.344 679.712 109.989 681.677C114.824 685.152 119.659 683.49 122.001 680.241C124.267 677.144 124.192 672.762 120.943 670.42C117.619 668.078 113.917 668.833 111.802 671.629Z" fill="white" stroke="white" stroke-width="0.6" stroke-miterlimit="10"/>
</g>
</svg>
