<svg width="159" height="209" viewBox="0 0 159 209" fill="none" xmlns="http://www.w3.org/2000/svg">
<path id="Vector" d="M11.7977 191.023L1.64272 208H1L1 146.761H2.54253C20.5387 197.935 48.0473 205.817 69.2571 205.817C104.221 205.817 122.603 184.596 122.603 157.796C122.603 125.297 91.7524 116.566 63.087 108.32C33.7788 99.5888 4.4707 91.1002 4.4707 57.7522C4.4707 24.768 34.1645 2.09138 69.1285 2.09138C82.6257 2.09138 100.622 4.88047 112.577 13.9754L124.274 1L124.917 1L124.917 54.1142H123.76C105.507 10.0949 86.0964 3.30403 68.1002 3.30403C37.5066 3.30403 18.7391 23.0703 18.7391 47.6872C18.7391 73.638 36.7353 82.1265 76.1985 93.4042C106.149 101.893 137 111.473 137 147.367C137 184.96 108.206 206.909 69.3856 206.909C51.6465 206.909 30.051 202.907 11.7977 191.023Z" fill="#f2e7c0" fill-opacity="0.59" stroke="#f2e7c0" stroke-opacity="0.4" stroke-width="0.6" stroke-miterlimit="10"/>
</svg>
