<svg width="159" height="209" viewBox="0 0 159 209" fill="none" xmlns="http://www.w3.org/2000/svg">
<path id="Vector" d="M1 207.617C26.5641 206.724 30.1793 204.299 30.1793 189.24L30.1793 20.0154C30.1793 4.8286 26.5641 2.53144 1 1.6381V1L80.4038 1C128.175 1 158 20.6535 158 55.6214C158 88.037 132.694 114.71 74.7229 114.71H48.2549L48.2549 189.878C48.2549 204.427 50.3207 206.469 79.5 207.362V208H1V207.617ZM75.6266 113.689C124.947 113.689 138.117 90.4618 138.117 56.3872C138.117 24.6097 125.464 2.2762 80.1456 2.2762L48.2549 2.2762L48.2549 113.689H75.6266Z" fill="#f2e7c0" fill-opacity="0.59" stroke="#f2e7c0" stroke-opacity="0.4" stroke-width="0.6" stroke-miterlimit="10"/>
</svg>
