<svg width="117" height="110" viewBox="0 0 117 110" fill="none" xmlns="http://www.w3.org/2000/svg">
<path d="M117 0H0V109.687H117V0Z" fill="#395D7D"/>
<path d="M21.4551 50.456C24.3509 50.3536 24.7604 50.0757 24.7604 48.35V28.9572C24.7604 27.2168 24.3509 26.9536 21.4551 26.8512V26.7781H30.4495C35.8608 26.7781 39.2391 29.0303 39.2391 33.0376C39.2391 36.7523 36.3726 39.809 29.806 39.809H26.8079V48.4231C26.8079 50.0903 27.0419 50.3243 30.3471 50.4267V50.4998H21.4551V50.456ZM29.9084 39.6919C35.4951 39.6919 36.9869 37.0302 36.9869 33.1253C36.9869 29.4837 35.5536 26.9243 30.4203 26.9243H26.8079V39.6919H29.9084Z" fill="#FBEBD4" stroke="#FBEBD4" stroke-width="0.6" stroke-miterlimit="10"/>
<path d="M47.2242 50.924C42.9976 50.924 40.3066 47.7504 40.3066 43.1874C40.3066 38.5951 43.5387 34.7341 47.3851 34.7341C51.1291 34.7341 53.6446 37.4983 53.4545 41.5494H42.3541C42.3248 41.9881 42.281 42.5 42.281 42.9826C42.281 47.6773 44.5917 50.0611 47.9993 50.0611C50.5587 50.0611 52.226 48.7303 53.1766 46.7559L53.279 46.7851C52.1967 49.2568 50.12 50.924 47.2242 50.924ZM42.3833 41.3593H51.6117C51.6117 37.9224 50.4563 34.9243 47.3851 34.9243C44.738 34.9243 42.7928 37.5421 42.3833 41.3593Z" fill="#FBEBD4" stroke="#FBEBD4" stroke-width="0.6" stroke-miterlimit="10"/>
<path d="M55.7213 50.5145V50.456C58.1344 50.2805 58.617 50.222 58.617 49.0959V36.6939C58.617 35.6409 58.5878 35.4947 55.5896 35.2314V35.1583L60.3866 34.9243V38.5659C61.776 36.2552 63.765 34.7488 65.4323 34.7488C66.5876 34.7488 67.1726 35.5678 67.1726 36.3429C67.1726 37.0888 66.6608 37.7762 65.8856 37.7762C65.0959 37.7762 64.5986 37.235 64.5986 36.5477C64.5986 36.0065 64.935 35.4508 65.5493 35.2168C64.1891 34.9389 61.9661 36.1674 60.4013 38.9023V49.0813C60.4013 50.2074 60.9131 50.2805 63.6334 50.4414V50.5145H55.7213Z" fill="#FBEBD4" stroke="#FBEBD4" stroke-width="0.6" stroke-miterlimit="10"/>
<path d="M22.581 80.7736L21.4256 82.8211H21.3525V75.4354H21.528C23.5755 81.6072 26.7052 82.5578 29.1184 82.5578C33.0964 82.5578 35.1877 79.9985 35.1877 76.7663C35.1877 72.8468 31.6777 71.7938 28.4164 70.7993C25.0819 69.7463 21.7474 68.7226 21.7474 64.7007C21.7474 60.7227 25.1257 57.9878 29.1037 57.9878C30.6394 57.9878 32.6869 58.3242 34.047 59.4211L35.3779 57.8562H35.451V64.2619H35.3194C33.2426 58.9531 31.0342 58.1341 28.9867 58.1341C25.506 58.1341 23.3707 60.518 23.3707 63.4868C23.3707 66.6166 25.4182 67.6403 29.9081 69.0004C33.3157 70.0242 36.8257 71.1796 36.8257 75.5086C36.8257 80.0423 33.5497 82.6895 29.133 82.6895C27.1147 82.6895 24.6577 82.2068 22.581 80.7736Z" fill="#FBEBD4" stroke="#FBEBD4" stroke-width="0.6" stroke-miterlimit="10"/>
<path d="M39.8531 74.5726C39.8531 69.878 42.9536 66.4265 47.2095 66.4265C51.4361 66.4265 54.5366 69.8049 54.5366 74.4703C54.5366 79.1649 51.4068 82.6164 47.151 82.6164C42.9097 82.6164 39.8531 79.238 39.8531 74.5726ZM52.5476 74.5726C52.5476 68.9566 50.0321 66.602 47.034 66.602C44.0651 66.602 41.8275 68.9128 41.8275 74.4995C41.8275 80.1155 44.343 82.4409 47.3411 82.4409C50.3392 82.4409 52.5476 80.1594 52.5476 74.5726Z" fill="#FBEBD4" stroke="#FBEBD4" stroke-width="0.6" stroke-miterlimit="10"/>
<path d="M55.8383 82.1338C58.2514 82.0022 58.734 81.8267 58.734 80.4373V59.4943C58.734 58.4998 58.5293 58.2659 56.0723 58.0026V57.9295L60.5036 57.7979V80.4373C60.5036 81.8267 60.9863 82.0022 63.3994 82.1338V82.207H55.8383V82.1338Z" fill="#FBEBD4" stroke="#FBEBD4" stroke-width="0.6" stroke-miterlimit="10"/>
<path d="M71.882 82.6164C67.6554 82.6164 64.9644 79.4428 64.9644 74.8798C64.9644 70.2875 68.1965 66.4265 72.0429 66.4265C75.7869 66.4265 78.317 69.1906 78.1123 73.2418H67.0119C66.9827 73.6805 66.9388 74.1924 66.9388 74.675C66.9388 79.3696 69.2495 81.7535 72.6572 81.7535C75.2165 81.7535 76.8838 80.4226 77.8344 78.4483L77.9368 78.4775C76.8545 80.9491 74.7778 82.6164 71.882 82.6164ZM67.0412 73.0516H76.2695C76.2695 69.6148 75.1142 66.6166 72.0429 66.6166C69.3958 66.602 67.4507 69.2345 67.0412 73.0516Z" fill="#FBEBD4" stroke="#FBEBD4" stroke-width="0.6" stroke-miterlimit="10"/>
<path d="M88.0424 82.1338C90.4555 82.0022 90.9382 81.8267 90.9382 80.4373V59.4943C90.9382 58.4998 90.7334 58.2659 88.2764 58.0026V57.9295L92.7078 57.7979V80.4373C92.7078 81.8267 93.1904 82.0022 95.6035 82.1338V82.207H88.0424V82.1338Z" fill="#FBEBD4" stroke="#FBEBD4" stroke-width="0.6" stroke-miterlimit="10"/>
<path d="M84.7227 51.8017C84.6496 52.3282 84.0061 52.7377 83.3334 52.7377C82.1341 52.7377 81.4175 50.9973 80.072 49.6664C82.2804 48.3063 83.6844 45.7177 83.6844 42.5733C83.6844 37.9079 80.5839 34.5295 76.3572 34.5295C72.1014 34.5295 69.0009 37.9664 69.0009 42.6757C69.0009 45.8932 70.4487 48.4818 72.7302 49.798C72.2184 50.2514 71.765 50.7925 71.3409 51.3629L71.4286 51.4214C71.8966 50.7633 72.3646 50.2514 72.818 49.8419C73.8271 50.3977 74.9971 50.7048 76.2841 50.7048C77.147 50.7048 77.966 50.5585 78.7265 50.2953C79.7795 51.5092 80.891 52.8985 82.8361 52.8985C84.0207 52.8985 84.6057 52.489 84.869 51.7724C84.8836 51.8017 84.7374 51.7724 84.7227 51.8017ZM70.9899 42.6172C70.9899 37.0304 73.2421 34.7197 76.1964 34.7197C79.1945 34.7197 81.71 37.0743 81.71 42.6903C81.71 45.9809 80.9349 48.1308 79.6917 49.33C79.019 48.7743 78.2146 48.3355 77.147 48.2332L76.2841 48.2039C75.1434 48.2917 74.1342 48.7158 73.2567 49.3739C71.8966 48.1747 70.9899 45.9955 70.9899 42.6172ZM76.5035 50.5585C75.3335 50.5585 74.2512 50.2075 73.3445 49.447C74.3682 48.7158 75.3042 48.5403 76.0062 48.5403C77.0446 48.5403 77.8051 49.2569 78.551 50.1198C77.9514 50.4123 77.2494 50.5585 76.5035 50.5585Z" fill="#FBEBD4" stroke="#FBEBD4" stroke-width="0.6" stroke-miterlimit="10"/>
<path d="M84.8104 80.4373V66.6167L80.145 66.8507V66.9238C83.0115 67.2017 83.0407 67.3333 83.0407 68.3863V80.4373C83.0407 81.8267 82.5581 82.0022 80.145 82.1338V82.2069H87.7061V82.1338C85.2784 82.0022 84.8104 81.8267 84.8104 80.4373Z" fill="#FBEBD4" stroke="#FBEBD4" stroke-width="0.6" stroke-miterlimit="10"/>
<path d="M82.3679 62.668C82.8067 62.9897 83.4356 63.0336 83.9913 62.668C83.7281 63.2237 83.1284 63.7502 82.2656 64.1305C83.1138 64.0427 83.9328 63.5308 84.3131 63.019C84.9858 62.083 84.664 61.147 84.0352 60.6936C83.4355 60.2548 82.5873 60.2695 82.1339 60.8983C81.6805 61.5418 81.8268 62.2585 82.3679 62.668Z" fill="#FBEBD4" stroke="#FBEBD4" stroke-width="0.6" stroke-miterlimit="10"/>
</svg>
