<svg width="149" height="140" viewBox="0 0 149 140" fill="none" xmlns="http://www.w3.org/2000/svg">
<path d="M149 0H0V139.688H149V0Z" fill="#395D7D"/>
<path d="M27.3232 64.2559C31.0109 64.1255 31.5324 63.7717 31.5324 61.5739V36.8772C31.5324 34.6608 31.0109 34.3256 27.3232 34.1952V34.1021H38.7776C45.6688 34.1021 49.9712 36.9703 49.9712 42.0735C49.9712 46.8043 46.3207 50.6969 37.9581 50.6969H34.1399V61.6671C34.1399 63.7903 34.4379 64.0883 38.6472 64.2187V64.3118H27.3232V64.2559ZM38.0884 50.5479C45.2032 50.5479 47.1029 47.1582 47.1029 42.1853C47.1029 37.5477 45.2777 34.2883 38.7403 34.2883H34.1399V50.5479H38.0884Z" fill="#FBEBD4" stroke="#FBEBD4" stroke-width="0.6" stroke-miterlimit="10"/>
<path d="M60.1402 64.852C54.7576 64.852 51.3306 60.8104 51.3306 54.9994C51.3306 49.1511 55.4468 44.2341 60.3451 44.2341C65.1131 44.2341 68.3166 47.7543 68.0745 52.9134H53.9381C53.9009 53.4721 53.845 54.124 53.845 54.7386C53.845 60.7173 56.7878 63.7531 61.1274 63.7531C64.3868 63.7531 66.51 62.0583 67.7206 59.5439L67.851 59.5811C66.4727 62.7288 63.828 64.852 60.1402 64.852ZM53.9754 52.6713H65.7277C65.7277 48.2944 64.2564 44.4763 60.3451 44.4763C56.974 44.4763 54.4969 47.8101 53.9754 52.6713Z" fill="#FBEBD4" stroke="#FBEBD4" stroke-width="0.6" stroke-miterlimit="10"/>
<path d="M70.9613 64.3304V64.2559C74.0344 64.0324 74.649 63.9579 74.649 62.5238V46.7298C74.649 45.3888 74.6118 45.2026 70.7936 44.8673V44.7742L76.9026 44.4762V49.1138C78.672 46.1711 81.205 44.2527 83.3283 44.2527C84.7996 44.2527 85.5446 45.2957 85.5446 46.2828C85.5446 47.2327 84.8928 48.1081 83.9056 48.1081C82.8999 48.1081 82.2666 47.4189 82.2666 46.5436C82.2666 45.8544 82.695 45.1467 83.4773 44.8487C81.7451 44.4948 78.9141 46.0593 76.9213 49.5422V62.5052C76.9213 63.9393 77.5731 64.0324 81.0374 64.2373V64.3304H70.9613Z" fill="#FBEBD4" stroke="#FBEBD4" stroke-width="0.6" stroke-miterlimit="10"/>
<path d="M28.757 102.866L27.2856 105.473H27.1925V96.0674H27.416C30.0235 103.927 34.0093 105.138 37.0824 105.138C42.1484 105.138 44.8118 101.878 44.8118 97.7623C44.8118 92.7708 40.3418 91.4298 36.1884 90.1633C31.9419 88.8223 27.6954 87.5185 27.6954 82.3967C27.6954 77.3307 31.9978 73.8478 37.0638 73.8478C39.0194 73.8478 41.6269 74.2762 43.359 75.673L45.0539 73.6802H45.147V81.8379H44.9794C42.3346 75.077 39.5223 74.034 36.9148 74.034C32.482 74.034 29.7628 77.0699 29.7628 80.8508C29.7628 84.8366 32.3703 86.1403 38.0881 87.8724C42.4278 89.1762 46.8978 90.6475 46.8978 96.1605C46.8978 101.934 42.7258 105.305 37.101 105.305C34.5308 105.305 31.4018 104.691 28.757 102.866Z" fill="#FBEBD4" stroke="#FBEBD4" stroke-width="0.6" stroke-miterlimit="10"/>
<path d="M50.7531 94.9686C50.7531 88.99 54.7016 84.5945 60.1215 84.5945C65.5041 84.5945 69.4526 88.8969 69.4526 94.8382C69.4526 100.817 65.4669 105.212 60.047 105.212C54.6457 105.212 50.7531 100.91 50.7531 94.9686ZM66.9196 94.9686C66.9196 87.8166 63.7161 84.818 59.898 84.818C56.1171 84.818 53.2675 87.7607 53.2675 94.8755C53.2675 102.027 56.471 104.989 60.2891 104.989C64.1072 104.989 66.9196 102.083 66.9196 94.9686Z" fill="#FBEBD4" stroke="#FBEBD4" stroke-width="0.6" stroke-miterlimit="10"/>
<path d="M71.1103 104.598C74.1834 104.43 74.798 104.207 74.798 102.437V75.7665C74.798 74.5 74.5373 74.202 71.4083 73.8667V73.7736L77.0516 73.606V102.437C77.0516 104.207 77.6663 104.43 80.7394 104.598V104.691H71.1103V104.598Z" fill="#FBEBD4" stroke="#FBEBD4" stroke-width="0.6" stroke-miterlimit="10"/>
<path d="M91.5421 105.212C86.1595 105.212 82.7325 101.171 82.7325 95.3597C82.7325 89.5115 86.8486 84.5945 91.747 84.5945C96.515 84.5945 99.7371 88.1146 99.4764 93.2737H85.34C85.3027 93.8325 85.2469 94.4844 85.2469 95.099C85.2469 101.078 88.1896 104.113 92.5292 104.113C95.7886 104.113 97.9119 102.419 99.1225 99.9042L99.2529 99.9415C97.8746 103.089 95.2299 105.212 91.5421 105.212ZM85.3772 93.0316H97.1296C97.1296 88.6547 95.6582 84.8366 91.747 84.8366C88.3759 84.818 85.8987 88.1705 85.3772 93.0316Z" fill="#FBEBD4" stroke="#FBEBD4" stroke-width="0.6" stroke-miterlimit="10"/>
<path d="M112.122 104.598C115.196 104.43 115.81 104.207 115.81 102.437V75.7665C115.81 74.5 115.549 74.202 112.42 73.8667V73.7736L118.064 73.606V102.437C118.064 104.207 118.678 104.43 121.752 104.598V104.691H112.122V104.598Z" fill="#FBEBD4" stroke="#FBEBD4" stroke-width="0.6" stroke-miterlimit="10"/>
<path d="M107.895 65.9695C107.802 66.64 106.982 67.1615 106.125 67.1615C104.598 67.1615 103.685 64.9451 101.972 63.2503C104.784 61.5181 106.572 58.2215 106.572 54.2171C106.572 48.2758 102.624 43.9734 97.2412 43.9734C91.8214 43.9734 87.8729 48.3503 87.8729 54.3475C87.8729 58.445 89.7167 61.7416 92.6222 63.4179C91.9704 63.9953 91.393 64.6844 90.8529 65.4108L90.9646 65.4853C91.5606 64.6471 92.1566 63.9953 92.734 63.4738C94.0191 64.1815 95.5091 64.5726 97.1481 64.5726C98.247 64.5726 99.29 64.3864 100.258 64.0511C101.599 65.597 103.015 67.3664 105.492 67.3664C107.001 67.3664 107.746 66.8449 108.081 65.9323C108.1 65.9695 107.913 65.9323 107.895 65.9695ZM90.4059 54.273C90.4059 47.1583 93.2741 44.2155 97.0364 44.2155C100.854 44.2155 104.058 47.2141 104.058 54.3661C104.058 58.5568 103.071 61.2946 101.488 62.8219C100.631 62.1141 99.6066 61.5554 98.247 61.425L97.1481 61.3878C95.6954 61.4995 94.4102 62.0396 93.2927 62.8778C91.5606 61.3505 90.4059 58.5754 90.4059 54.273ZM97.4275 64.3864C95.9375 64.3864 94.5592 63.9394 93.4045 62.9709C94.7082 62.0396 95.9002 61.8161 96.7942 61.8161C98.1166 61.8161 99.0851 62.7288 100.035 63.8276C99.2714 64.2001 98.3774 64.3864 97.4275 64.3864Z" fill="#FBEBD4" stroke="#FBEBD4" stroke-width="0.6" stroke-miterlimit="10"/>
<path d="M108.006 102.437V84.8367L102.065 85.1347V85.2278C105.716 85.5817 105.753 85.7493 105.753 87.0903V102.437C105.753 104.207 105.138 104.43 102.065 104.598V104.691H111.694V104.598C108.602 104.43 108.006 104.207 108.006 102.437Z" fill="#FBEBD4" stroke="#FBEBD4" stroke-width="0.6" stroke-miterlimit="10"/>
<path d="M104.896 79.808C105.455 80.2177 106.256 80.2736 106.963 79.808C106.628 80.5157 105.864 81.1862 104.766 81.6705C105.846 81.5587 106.889 80.9068 107.373 80.255C108.23 79.063 107.82 77.871 107.019 77.2936C106.256 76.7348 105.175 76.7535 104.598 77.5543C104.021 78.3738 104.207 79.2865 104.896 79.808Z" fill="#FBEBD4" stroke="#FBEBD4" stroke-width="0.6" stroke-miterlimit="10"/>
</svg>
