<svg width="329" height="209" viewBox="0 0 329 209" fill="none" xmlns="http://www.w3.org/2000/svg">
<path d="M1 207.617C26.5641 206.724 30.1793 204.299 30.1793 189.24L30.1793 20.0154C30.1793 4.8286 26.5641 2.53144 1 1.6381V1L80.4038 1C128.175 1 158 20.6535 158 55.6214C158 88.037 132.694 114.71 74.7229 114.71H48.2549L48.2549 189.878C48.2549 204.427 50.3207 206.469 79.5 207.362V208H1V207.617ZM75.6266 113.689C124.947 113.689 138.117 90.4618 138.117 56.3872C138.117 24.6097 125.464 2.2762 80.1456 2.2762L48.2549 2.2762L48.2549 113.689H75.6266Z" fill="#FBF1D4" fill-opacity="0.59" stroke="#FBF1D4" stroke-opacity="0.4" stroke-width="0.6" stroke-miterlimit="10"/>
<path d="M202.798 191.023L192.643 208H192V146.761H193.543C211.539 197.935 239.047 205.817 260.257 205.817C295.221 205.817 313.603 184.596 313.603 157.796C313.603 125.297 282.752 116.566 254.087 108.32C224.779 99.5888 195.471 91.1002 195.471 57.7522C195.471 24.768 225.164 2.09138 260.129 2.09138C273.626 2.09138 291.622 4.88047 303.577 13.9754L315.274 1L315.917 1V54.1142H314.76C296.507 10.0949 277.096 3.30403 259.1 3.30403C228.507 3.30403 209.739 23.0703 209.739 47.6872C209.739 73.638 227.735 82.1265 267.198 93.4042C297.149 101.893 328 111.473 328 147.367C328 184.96 299.206 206.909 260.386 206.909C242.646 206.909 221.051 202.907 202.798 191.023Z" fill="#FBF1D4" fill-opacity="0.59" stroke="#FBF1D4" stroke-opacity="0.4" stroke-width="0.6" stroke-miterlimit="10"/>
</svg>
